<svg width="1919" height="955" viewBox="0 0 1919 955" fill="none" xmlns="http://www.w3.org/2000/svg">
<g style="mix-blend-mode:overlay" opacity="0.8">
<g style="mix-blend-mode:color-dodge" opacity="0.2">
<path d="M1900.81 349.387H1857.43V305.999H1815.72V349.387H1772.33V391.095H1815.72V434.482H1857.43V391.095H1900.81V349.387Z" fill="#F1F2F3"/>
</g>
<g style="mix-blend-mode:color-dodge" opacity="0.2">
<path d="M1796.6 494.919H1711.66V409.988H1630.02V494.919H1545.09V576.564H1630.02V661.496H1711.66V576.564H1796.6V494.919Z" fill="#F1F2F3"/>
</g>
<g style="mix-blend-mode:color-dodge" opacity="0.2">
<path d="M1702.89 904.551H1640.45V842.117H1580.43V904.551H1518V964.57H1580.43V1027H1640.45V964.57H1702.89V904.551Z" fill="#F1F2F3"/>
</g>
<g style="mix-blend-mode:color-dodge" opacity="0.2">
<path d="M1929.69 735.898H1875.73V681.941H1823.86V735.898H1769.9V787.768H1823.86V841.725H1875.73V787.768H1929.69V735.898Z" fill="#F1F2F3"/>
</g>
</g>
<g style="mix-blend-mode:overlay" opacity="0.8">
<g style="mix-blend-mode:color-dodge" opacity="0.2">
<path d="M386 808.576L470.932 808.576L470.932 893.508H552.577L552.577 808.576H637.508V726.931L552.576 726.931V641.999L470.931 641.999L470.932 726.931L386 726.931L386 808.576Z" fill="#F1F2F3"/>
</g>
<g style="mix-blend-mode:color-dodge" opacity="0.2">
<path d="M54 834.551L104.758 834.551V885.308H153.551V834.551H204.309L204.309 785.757H153.551L153.551 734.999H104.758L104.758 785.757L54 785.757L54 834.551Z" fill="#F1F2F3"/>
</g>
<g style="mix-blend-mode:color-dodge" opacity="0.2">
<path d="M-48 498.867H36.9315L36.9315 583.799H118.577L118.577 498.867L203.508 498.867L203.508 417.222L118.576 417.222L118.576 332.29L36.9315 332.29L36.9315 417.222L-48 417.222L-48 498.867Z" fill="#F1F2F3"/>
</g>
<g style="mix-blend-mode:color-dodge" opacity="0.2">
<path d="M-8.99998 83.2878L33.4658 83.2877V125.754L74.2883 125.753L74.2882 83.2877L116.754 83.2877V42.4651L74.2882 42.4651V-0.000610352L33.4657 -0.000600188L33.4658 42.4651L-9 42.4652L-8.99998 83.2878Z" fill="#F1F2F3"/>
</g>
<g style="mix-blend-mode:color-dodge" opacity="0.2">
<path d="M478 229.288L520.466 229.288V271.753L561.288 271.753L561.288 229.288L603.754 229.288V188.465L561.288 188.465V145.999L520.466 145.999L520.466 188.465L478 188.465L478 229.288Z" fill="#F1F2F3"/>
</g>
</g>
</svg>
