<svg width="44" height="44" viewBox="0 0 44 44" fill="none" xmlns="http://www.w3.org/2000/svg">
<path fill-rule="evenodd" clip-rule="evenodd" d="M9.0006 1.7998C5.02415 1.7998 1.8006 5.02335 1.8006 8.9998V34.1998C1.8006 38.1762 5.02415 41.3998 9.0006 41.3998H34.2006C38.177 41.3998 41.4006 38.1762 41.4006 34.1998V8.9998C41.4006 5.02335 38.177 1.7998 34.2006 1.7998H9.0006ZM17.4279 13.0907C17.4279 9.83725 20.0654 7.1998 23.3187 7.1998H28.5551C28.9167 7.1998 29.2097 7.49286 29.2097 7.85436V13.0907C29.2097 13.4522 28.9167 13.7453 28.5551 13.7453H25.937C24.8525 13.7453 23.9734 14.6244 23.9734 15.7089V17.6725H28.5551C28.7567 17.6725 28.9469 17.7654 29.0711 17.9243C29.1952 18.0831 29.2391 18.2903 29.1901 18.4858L27.881 23.7222C27.8083 24.0136 27.5464 24.2179 27.2461 24.2179H23.9734V35.3453C23.9734 35.7068 23.6803 35.9998 23.3187 35.9998H18.0825C17.7209 35.9998 17.4279 35.7068 17.4279 35.3453V24.2179H14.1551C13.7937 24.2179 13.5006 23.9249 13.5006 23.5634V18.327C13.5006 17.9656 13.7937 17.6725 14.1551 17.6725H17.4279V13.0907Z" fill="#868686"/>
</svg>
