<svg width="44" height="44" viewBox="0 0 44 44" fill="none" xmlns="http://www.w3.org/2000/svg">
<path fill-rule="evenodd" clip-rule="evenodd" d="M9.1989 1.7998C5.22245 1.7998 1.9989 5.02335 1.9989 8.9998V34.1998C1.9989 38.1762 5.22245 41.3998 9.1989 41.3998H34.3989C38.3753 41.3998 41.5989 38.1762 41.5989 34.1998V8.9998C41.5989 5.02335 38.3753 1.7998 34.3989 1.7998H9.1989ZM8.2989 16.1998C8.2989 11.7263 11.9254 8.0998 16.3989 8.0998H27.1989C31.6724 8.0998 35.2989 11.7263 35.2989 16.1998V26.9998C35.2989 31.4733 31.6724 35.0998 27.1989 35.0998H16.3989C11.9254 35.0998 8.2989 31.4733 8.2989 26.9998V16.1998ZM16.3989 9.8998C12.9195 9.8998 10.0989 12.7204 10.0989 16.1998V26.9998C10.0989 30.4792 12.9195 33.2998 16.3989 33.2998H27.1989C30.6783 33.2998 33.4989 30.4792 33.4989 26.9998V16.1998C33.4989 12.7204 30.6783 9.8998 27.1989 9.8998H16.3989ZM30.7989 14.6998C30.7989 15.5282 30.1273 16.1998 29.299 16.1998C28.4704 16.1998 27.7988 15.5282 27.7988 14.6998C27.7988 13.8714 28.4704 13.1998 29.299 13.1998C30.1273 13.1998 30.7989 13.8714 30.7989 14.6998ZM14.8989 21.5998C14.8989 17.789 17.9881 14.6998 21.7989 14.6998C25.6097 14.6998 28.6988 17.789 28.6988 21.5998C28.6988 25.4106 25.6097 28.4997 21.7989 28.4997C17.9881 28.4997 14.8989 25.4106 14.8989 21.5998ZM21.7989 16.4998C18.9823 16.4998 16.6989 18.7832 16.6989 21.5998C16.6989 24.4164 18.9823 26.6997 21.7989 26.6997C24.6155 26.6997 26.8988 24.4164 26.8988 21.5998C26.8988 18.7832 24.6155 16.4998 21.7989 16.4998Z" fill="#868686"/>
</svg>
