<svg width="44" height="44" viewBox="0 0 44 44" fill="none" xmlns="http://www.w3.org/2000/svg">
<path fill-rule="evenodd" clip-rule="evenodd" d="M9.39891 1.7998C5.42246 1.7998 2.19891 5.02335 2.19891 8.9998V34.1998C2.19891 38.1762 5.42246 41.3998 9.39891 41.3998H34.5989C38.5753 41.3998 41.7989 38.1762 41.7989 34.1998V8.9998C41.7989 5.02335 38.5753 1.7998 34.5989 1.7998H9.39891ZM11.5671 14.2362C13.2616 14.2362 14.6353 12.8625 14.6353 11.168C14.6353 9.47347 13.2616 8.0998 11.5671 8.0998C9.87258 8.0998 8.49891 9.47347 8.49891 11.168C8.49891 12.8625 9.87258 14.2362 11.5671 14.2362ZM14.6353 35.0998V16.6907H8.49891V35.0998H14.6353ZM22.6125 16.6907H17.0898V35.0998H22.6125V23.9945C23.3241 22.8375 24.5513 21.5998 26.2944 21.5998C28.7489 21.5998 29.3625 24.0543 29.3625 25.2817V35.0998H35.4989V25.2817C35.4989 21.9929 34.0634 16.6907 28.7489 16.6907C25.3687 16.6907 23.4918 17.9239 22.6125 19.0791V16.6907Z" fill="#868686"/>
</svg>
