<svg width="60" height="60" viewBox="0 0 60 60" fill="none" xmlns="http://www.w3.org/2000/svg">
<circle cx="30" cy="30" r="29" stroke="#018E47" stroke-width="2"/>
<path fill-rule="evenodd" clip-rule="evenodd" d="M16.5034 41.7016C18.3013 41.7016 19.2092 43.874 17.9353 45.1381C16.6614 46.4042 14.4777 45.5018 14.4777 43.715C14.4777 42.6039 15.3856 41.7016 16.5034 41.7016ZM36.1316 17.7319C39.4952 17.7319 42.2227 20.4429 42.2227 23.7857C42.2227 27.1288 39.495 29.8396 36.1316 29.8396C32.7679 29.8396 30.0404 27.1286 30.0404 23.7857C30.0404 20.4427 32.7681 17.7319 36.1316 17.7319ZM39.6252 20.3137C37.6954 18.3957 34.5677 18.3957 32.6397 20.3137C30.7099 22.2317 30.7099 25.3402 32.6397 27.2565C34.5694 29.1744 37.6971 29.1744 39.6252 27.2565C41.555 25.3385 41.555 22.2299 39.6252 20.3137ZM49 22.0707C49 21.3552 48.4121 20.7708 47.6921 20.7708H46.4303C46.2143 20.0434 45.9223 19.3437 45.5604 18.6819L46.4523 17.7954C46.9622 17.2886 46.9622 16.4637 46.4523 15.9569L44.0125 13.5321C43.5026 13.0253 42.6727 13.0253 42.1627 13.5321L41.2708 14.4186C40.6049 14.0568 39.9009 13.7667 39.169 13.554V12.2999C39.169 11.5844 38.5811 11 37.8611 11H34.4095C33.6896 11 33.1016 11.5843 33.1016 12.2999V13.554C32.3697 13.7687 31.6657 14.0588 30.9998 14.4186L30.1079 13.5321C29.5979 13.0253 28.768 13.0253 28.258 13.5321L25.8183 15.9569C25.3084 16.4637 25.3084 17.2886 25.8183 17.7954L26.7102 18.6819C26.3463 19.3437 26.0543 20.0434 25.8403 20.7708H24.5785C23.8586 20.7708 23.2706 21.3551 23.2706 22.0707V25.5012C23.2706 26.2167 23.8585 26.8011 24.5785 26.8011H25.8403C26.0563 27.5285 26.3463 28.2281 26.7102 28.89L25.8183 29.7765C25.3084 30.2833 25.3084 31.1081 25.8183 31.615L28.258 34.0398C28.768 34.5466 29.5979 34.5466 30.1079 34.0398L30.9998 33.1533C31.6657 33.515 32.3697 33.8052 33.1016 34.0179V35.272C33.1016 35.9875 33.6895 36.5719 34.4095 36.5719H37.8611C38.581 36.5719 39.169 35.9876 39.169 35.272V34.0179C39.9009 33.8032 40.6049 33.515 41.2708 33.1533L42.1627 34.0398C42.6727 34.5466 43.5026 34.5466 44.0125 34.0398L46.4523 31.615C46.9622 31.1081 46.9622 30.2833 46.4523 29.7765L45.5604 28.89C45.9243 28.2281 46.2163 27.5285 46.4303 26.8011H47.6921C48.412 26.8011 49 26.2167 49 25.5012V22.0707ZM47.8481 25.5012V22.0707C47.8481 21.9872 47.7761 21.9137 47.6901 21.9137H45.9883V21.9117C45.7303 21.9117 45.4944 21.7368 45.4304 21.4764C45.3164 21.0173 45.1664 20.5721 44.9864 20.1388C44.8084 19.7115 44.5985 19.2981 44.3605 18.9025C44.2105 18.6799 44.2345 18.3758 44.4325 18.179L45.6364 16.9825C45.6964 16.9229 45.6964 16.8215 45.6364 16.7619L43.1966 14.3371C43.1366 14.2775 43.0346 14.2775 42.9746 14.3371L41.7707 15.5336C41.5888 15.7145 41.2988 15.7562 41.0668 15.6191C40.6609 15.3766 40.2369 15.1639 39.7989 14.9831C39.375 14.8082 38.939 14.6631 38.4911 14.5518C38.2211 14.5041 38.0151 14.2695 38.0151 13.9873V12.2959C38.0151 12.2124 37.9431 12.1389 37.8571 12.1389H34.4055C34.3215 12.1389 34.2475 12.2104 34.2475 12.2959V13.9873H34.2455C34.2455 14.2437 34.0695 14.4782 33.8075 14.5418C33.3456 14.6551 32.8976 14.8041 32.4617 14.983C32.0317 15.1599 31.6158 15.3686 31.2178 15.6051C30.9938 15.7542 30.6878 15.7304 30.4898 15.5336L29.2859 14.3371C29.2259 14.2774 29.1239 14.2774 29.064 14.3371L26.6242 16.7619C26.5642 16.8215 26.5642 16.9229 26.6242 16.9825L27.8281 18.179C28.0101 18.3599 28.0541 18.6501 27.9141 18.8786C27.6701 19.2821 27.4562 19.7015 27.2742 20.1388C27.0982 20.5601 26.9522 20.9934 26.8402 21.4386C26.7922 21.707 26.5562 21.9117 26.2723 21.9117H24.5704C24.4864 21.9117 24.4125 21.9832 24.4125 22.0687V25.4992C24.4125 25.5827 24.4844 25.6562 24.5704 25.6562H26.2723V25.6582C26.5302 25.6582 26.7662 25.8331 26.8302 26.0935C26.9442 26.5526 27.0942 26.9978 27.2741 27.4311C27.4521 27.8584 27.6621 28.2718 27.9001 28.6674C28.0501 28.89 28.0261 29.1941 27.8281 29.3909L26.6242 30.5874C26.5642 30.647 26.5642 30.7484 26.6242 30.808L29.0639 33.2328C29.1239 33.2924 29.2259 33.2924 29.2859 33.2328L30.4898 32.0363C30.6718 31.8554 30.9618 31.8137 31.1938 31.9508C31.5997 32.1933 32.0237 32.406 32.4616 32.5868C32.8856 32.7617 33.3216 32.9068 33.7695 33.0181C34.0395 33.0658 34.2455 33.3004 34.2455 33.5826V35.274C34.2455 35.3575 34.3175 35.431 34.4035 35.431H37.8551C37.9391 35.431 38.0131 35.3595 38.0131 35.274V33.5826H38.0151C38.0151 33.3262 38.1911 33.0917 38.4531 33.0281C38.915 32.9148 39.3629 32.7658 39.7989 32.5869C40.2289 32.41 40.6448 32.2013 41.0428 31.9647C41.2668 31.8157 41.5728 31.8395 41.7707 32.0363L42.9746 33.2328C43.0346 33.2924 43.1366 33.2924 43.1966 33.2328L45.6364 30.808C45.6964 30.7484 45.6964 30.647 45.6364 30.5874L44.4325 29.3909C44.2505 29.21 44.2065 28.9198 44.3465 28.6913C44.5904 28.2878 44.8044 27.8684 44.9864 27.4311C45.1624 27.0098 45.3084 26.5765 45.4204 26.1313C45.4683 25.8629 45.7043 25.6582 45.9883 25.6582H47.6901C47.7741 25.6582 47.8481 25.5867 47.8481 25.5012ZM15.7295 33.1232H13.4117C13.0938 33.1232 12.8358 33.3796 12.8358 33.6957V39.6284C11.7479 40.0538 11 41.1032 11 42.2997V45.13C11 46.7101 12.2979 48 13.8877 48H45.2804C46.8702 48 48.1681 46.7101 48.1681 45.13V42.2997C48.1681 40.7196 46.8702 39.4297 45.2804 39.4297H25.2146V33.6938C25.2146 33.3778 24.9566 33.1214 24.6386 33.1214H22.3209V27.3616C22.3209 27.0456 22.0629 26.7892 21.7449 26.7892H16.3075C15.9896 26.7892 15.7316 27.0456 15.7316 27.3616V33.1214L15.7295 33.1232ZM21.1669 33.1232H16.8813V27.9359H21.1669V33.1232ZM19.2631 34.2681H24.0606V39.4315H19.2631V34.2681ZM18.1112 39.4315H13.9856V34.2681H18.1112V39.4315ZM45.2782 40.5763L13.8835 40.5744C12.9296 40.5744 12.1477 41.3515 12.1477 42.2995V45.1298C12.1477 46.0779 12.9296 46.855 13.8835 46.855H45.2762C46.2301 46.855 47.012 46.0779 47.012 45.1298V42.2995C47.012 41.3515 46.2301 40.5744 45.2762 40.5744L45.2782 40.5763ZM42.6605 41.7033C44.4583 41.7033 45.3662 43.8757 44.0924 45.1398C42.8185 46.4058 40.6347 45.5035 40.6347 43.7166C40.6347 42.6056 41.5426 41.7033 42.6605 41.7033ZM43.2784 43.1025C43.6204 43.4424 43.6204 43.9909 43.2784 44.3308C42.7305 44.8754 41.7865 44.4879 41.7865 43.7167C41.7865 42.9455 42.7305 42.5559 43.2784 43.1025ZM36.1214 41.7033C37.9192 41.7033 38.8271 43.8757 37.5532 45.1398C36.2794 46.4058 34.0956 45.5035 34.0956 43.7166C34.0956 42.6056 35.0035 41.7033 36.1214 41.7033ZM36.7393 43.1025C37.0813 43.4424 37.0813 43.9909 36.7393 44.3308C36.1914 44.8754 35.2474 44.4879 35.2474 43.7167C35.2474 42.9455 36.1914 42.5559 36.7393 43.1025ZM29.5822 41.7033C31.3801 41.7033 32.288 43.8757 31.0141 45.1398C29.7402 46.4039 27.5565 45.5035 27.5565 43.7166C27.5565 42.6056 28.4644 41.7033 29.5822 41.7033ZM30.2002 43.1025C30.5421 43.4424 30.5421 43.9909 30.2002 44.3308C29.6522 44.8754 28.7083 44.4879 28.7083 43.7167C28.7083 42.9455 29.6522 42.5559 30.2002 43.1025ZM23.0431 41.7033C24.8409 41.7033 25.7489 43.8757 24.475 45.1398C23.2011 46.4058 21.0173 45.5035 21.0173 43.7166C21.0173 42.6056 21.9252 41.7033 23.0431 41.7033ZM23.6611 43.1025C24.003 43.4424 24.003 43.9909 23.6611 44.3308C23.1131 44.8754 22.1692 44.4879 22.1692 43.7167C22.1692 42.9455 23.1131 42.5559 23.6611 43.1025ZM17.1219 43.1025C16.574 42.5579 15.6301 42.9455 15.6301 43.7166C15.6301 44.4878 16.574 44.8774 17.1219 44.3308C17.4639 43.9909 17.4639 43.4424 17.1219 43.1025Z" fill="#018E47"/>
</svg>
