<svg width="60" height="60" viewBox="0 0 60 60" fill="none" xmlns="http://www.w3.org/2000/svg">
<path d="M44.268 43.7803C44.2557 43.7608 44.241 43.7436 44.2263 43.7265L35.0235 32.9342L35.0505 27.7984C35.7941 27.4901 36.3168 26.7585 36.3168 25.9071C36.3168 24.7791 35.3965 23.8592 34.2652 23.8592H30.7901V22.9882L32.7313 21.0528C33.3743 21.3048 34.0566 21.4296 34.7364 21.4296C36.1402 21.4296 37.5414 20.8962 38.609 19.8319C40.5822 17.8647 41.5123 10.742 41.6129 9.93711L41.7282 9L40.7883 9.115C39.9808 9.21531 32.837 10.1426 30.8636 12.1098C30.52 12.4523 30.2329 12.8291 29.9998 13.228C29.7642 12.8243 29.4746 12.4475 29.1359 12.1098C27.1628 10.1426 20.0186 9.21528 19.2112 9.115L18.2713 9L18.3866 9.93711C18.4873 10.7421 19.4174 17.8644 21.3905 19.8319C22.458 20.8962 23.8618 21.4296 25.2632 21.4296C25.9454 21.4296 26.6252 21.3024 27.2682 21.0528L29.2119 22.9907V23.8617H25.7369C24.6055 23.8617 23.6828 24.7792 23.6828 25.9096C23.6828 26.7611 24.2055 27.4926 24.9491 27.8009L24.9761 32.9367L15.7733 43.729C15.7586 43.7461 15.7438 43.7633 15.7316 43.7828C14.8726 44.9891 14.7622 46.555 15.442 47.8689C16.1218 49.1828 17.4667 50 18.9489 50H41.0462C42.5285 50 43.8734 49.1828 44.5532 47.8689C45.2403 46.5525 45.127 44.9865 44.268 43.7803ZM31.9139 13.154C33.1065 11.9649 37.5339 11.0865 40.0153 10.7146C39.6398 13.1883 38.7588 17.6022 37.5685 18.7916C36.5795 19.7777 35.1978 20.1373 33.9217 19.8731C33.3744 19.7606 32.8443 19.5306 32.3756 19.188C32.2136 19.0706 32.059 18.9384 31.9142 18.7941C30.3558 17.2355 30.3554 14.7077 31.9139 13.154ZM26.0853 19.8731C25.8178 19.9293 25.5429 19.9587 25.2631 19.9587C24.1956 19.9587 23.1918 19.5452 22.4359 18.7916C21.2433 17.6025 20.3622 13.1885 19.9892 10.7146C22.4703 11.0889 26.8976 11.9673 28.0906 13.154C28.8465 13.9075 29.2613 14.9083 29.2613 15.9726C29.2613 17.0369 28.8465 18.0377 28.0906 18.7913C27.9458 18.9356 27.7912 19.0678 27.6292 19.1852C27.1703 19.5229 26.6448 19.758 26.0853 19.8731ZM28.6842 20.2376C28.8413 20.1129 28.9934 19.9783 29.1382 19.8339C29.4794 19.4938 29.7665 19.1195 30.0021 18.7157C30.2352 19.1146 30.5224 19.4938 30.8659 19.8339C31.0107 19.9783 31.1629 20.1129 31.32 20.2376L30.0021 21.5516L28.6842 20.2376ZM42.9992 44.7174C43.5047 45.4466 43.5636 46.3519 43.1538 47.1421C42.739 47.9422 41.9512 48.4218 41.0481 48.4218H18.9534C18.0502 48.4218 17.2625 47.9447 16.8477 47.1421C16.4378 46.3519 16.4967 45.4466 17.0023 44.7174L21.2701 39.7113H38.7289L42.9992 44.7174ZM26.3722 33.7315C26.4949 33.5872 26.5612 33.4061 26.5612 33.2177L26.5293 27.162C26.5268 26.7289 26.1734 26.379 25.739 26.379C25.4789 26.379 25.2654 26.1661 25.2654 25.9068C25.2654 25.6474 25.4789 25.4345 25.739 25.4345H34.2671C34.5272 25.4345 34.7407 25.6474 34.7407 25.9068C34.7407 26.1661 34.5272 26.379 34.2671 26.379C33.8327 26.379 33.4793 26.7289 33.4768 27.162L33.4449 33.2177C33.4449 33.4061 33.5112 33.5872 33.6339 33.7315L37.4747 38.236L22.5314 38.2384L26.3722 33.7315Z" fill="#018E47"/>
<circle cx="30" cy="30" r="29" stroke="#018E47" stroke-width="2"/>
</svg>
