<svg width="60" height="60" viewBox="0 0 60 60" fill="none" xmlns="http://www.w3.org/2000/svg">
<path d="M16.4234 47.7531C16.5274 47.9075 16.7021 48 16.8882 48H43.6183C43.6208 48 43.6238 47.9989 43.6263 47.9989C43.6772 47.9982 43.7269 47.9909 43.7745 47.9771C43.7884 47.973 43.8011 47.9649 43.8148 47.9597C43.851 47.946 43.8864 47.9311 43.9189 47.9104C43.9231 47.9077 43.9279 47.907 43.932 47.9042C43.9401 47.8987 43.9441 47.8898 43.9519 47.884C43.9952 47.8515 44.0328 47.813 44.0655 47.7687C44.076 47.7545 44.0869 47.7416 44.0959 47.7266C44.1011 47.7181 44.1085 47.7116 44.1132 47.7027C44.1388 47.6545 44.1559 47.6036 44.1666 47.5517C44.1683 47.5431 44.1673 47.5345 44.1687 47.5258C44.1774 47.4701 44.1767 47.4143 44.1686 47.3588C44.1661 47.3417 44.1632 47.3256 44.1591 47.3087C44.1437 47.2447 44.1212 47.1821 44.0831 47.1257C40.2037 41.3762 42.1199 35.6935 44.1482 29.6768C46.1738 23.6684 48.2685 17.4552 44.0831 11.2475C44.0447 11.1903 43.9946 11.1451 43.94 11.1065C43.9296 11.0991 43.9201 11.0915 43.9092 11.0849C43.8552 11.0518 43.7967 11.0275 43.734 11.0143C43.7243 11.0122 43.7147 11.0122 43.7049 11.0107C43.6762 11.0062 43.6478 11 43.6183 11H16.8882C16.6807 11 16.4907 11.1144 16.3933 11.2973C16.2958 11.4801 16.3073 11.7019 16.4234 11.8738C20.2989 17.6222 18.3833 23.3038 16.3555 29.3188C14.3293 35.3289 12.2347 41.5437 16.4234 47.7531ZM17.9016 12.1212H43.3126C43.3435 12.169 43.3748 12.2168 43.4049 12.2646C43.4619 12.3552 43.5179 12.4458 43.5721 12.5364C43.6246 12.6239 43.6753 12.7114 43.7251 12.799C43.7768 12.8898 43.8277 12.9805 43.8767 13.0713C43.9237 13.1583 43.9689 13.2453 44.0133 13.3322C44.06 13.4235 44.106 13.5149 44.1501 13.6061C44.1918 13.6927 44.2318 13.7793 44.2713 13.8659C44.3129 13.9575 44.354 14.049 44.3931 14.1406C44.43 14.2269 44.465 14.3132 44.4996 14.3996C44.5364 14.4912 44.5726 14.5829 44.6069 14.6746C44.6391 14.7608 44.6694 14.847 44.6994 14.9332C44.7314 15.0251 44.7631 15.117 44.7926 15.2089C44.8204 15.2952 44.8462 15.3814 44.8719 15.4677C44.899 15.559 44.926 15.6504 44.9508 15.7418C44.9745 15.8289 44.9963 15.916 45.0179 16.0031C45.0405 16.094 45.0629 16.185 45.0833 16.2759C45.1028 16.363 45.1204 16.4502 45.1379 16.5373C45.1563 16.6284 45.1746 16.7195 45.1908 16.8106C45.2062 16.897 45.2196 16.9835 45.2332 17.07C45.2476 17.1621 45.262 17.2542 45.2743 17.3463C45.2858 17.4321 45.2954 17.5178 45.3051 17.6036C45.3156 17.6962 45.3262 17.7889 45.3346 17.8815C45.3425 17.9671 45.3484 18.0527 45.3546 18.1384C45.3613 18.2311 45.3681 18.3239 45.3729 18.4167C45.3773 18.5025 45.3799 18.5884 45.3827 18.6742C45.3857 18.767 45.389 18.8598 45.3902 18.9526C45.3914 19.0384 45.3907 19.1243 45.3903 19.2101C45.3899 19.3032 45.3897 19.3962 45.3876 19.4894C45.3856 19.5748 45.3818 19.6604 45.3784 19.7459C45.3747 19.8394 45.3713 19.9329 45.366 20.0265C45.361 20.1123 45.3543 20.1983 45.348 20.2842C45.3412 20.3773 45.3349 20.4704 45.3265 20.5636C45.3187 20.6497 45.3093 20.7359 45.3003 20.8221C45.2905 20.9157 45.2811 21.0093 45.2699 21.103C45.2595 21.1896 45.2474 21.2762 45.2358 21.3628C45.2234 21.4553 45.2115 21.5478 45.1978 21.6404C45.1846 21.7294 45.1698 21.8186 45.1554 21.9078C45.1407 21.9987 45.1265 22.0897 45.1106 22.1807C45.0951 22.2694 45.0781 22.3581 45.0615 22.4468C45.0443 22.5389 45.0277 22.6308 45.0093 22.7229C44.992 22.81 44.9732 22.8973 44.9549 22.9845C44.9352 23.0784 44.916 23.1721 44.8952 23.2661C44.8761 23.3523 44.8556 23.4387 44.8357 23.525C44.8138 23.6199 44.7923 23.7148 44.7694 23.8098C44.7484 23.8965 44.7261 23.9834 44.7044 24.0702C44.6807 24.1647 44.6575 24.2591 44.6329 24.3537C44.6105 24.4402 44.5867 24.5268 44.5636 24.6133C44.5379 24.7093 44.5126 24.8053 44.486 24.9014C44.4628 24.9856 44.4384 25.0699 44.4146 25.1541C44.3868 25.2521 44.3596 25.3499 44.3311 25.4479C44.306 25.5343 44.2798 25.6209 44.2542 25.7074C44.2255 25.8037 44.1974 25.9 44.1682 25.9965C44.1427 26.0806 44.1163 26.1649 44.0903 26.2492C44.0596 26.3488 44.0293 26.4484 43.998 26.5482C43.9705 26.6358 43.9423 26.7236 43.9144 26.8113C43.8842 26.9062 43.8544 27.001 43.8238 27.096C43.7947 27.1865 43.7649 27.2771 43.7354 27.3677C43.7043 27.4633 43.6735 27.5588 43.642 27.6545C43.6153 27.7359 43.588 27.8175 43.5611 27.8989C43.5274 28.0006 43.494 28.1021 43.4601 28.2039C43.4261 28.3058 43.3917 28.408 43.3575 28.5101C43.2673 28.7791 43.1767 29.0485 43.0856 29.3188C43.0252 29.4979 42.9647 29.6773 42.9044 29.8568C42.8764 29.94 42.8486 30.0233 42.8207 30.1066C42.7864 30.2088 42.7521 30.311 42.718 30.4134C42.6929 30.4887 42.6681 30.5641 42.6431 30.6395C42.6066 30.7498 42.5699 30.86 42.5337 30.9704C42.507 31.0514 42.4809 31.1326 42.4544 31.2137C42.421 31.3164 42.3874 31.4191 42.3543 31.5219C42.327 31.6071 42.3001 31.6923 42.273 31.7775C42.2411 31.8777 42.2092 31.9779 42.1777 32.0783C42.1503 32.1659 42.1234 32.2537 42.0964 32.3414C42.0665 32.4384 42.0366 32.5353 42.0072 32.6324C41.9803 32.7213 41.954 32.8103 41.9276 32.8992C41.8985 32.9973 41.8694 33.0953 41.841 33.1935C41.8155 33.2812 41.7907 33.3689 41.7658 33.4567C41.7381 33.5543 41.7106 33.6518 41.6837 33.7494C41.6586 33.8402 41.6342 33.9312 41.6098 34.0221C41.5843 34.1172 41.559 34.2123 41.5343 34.3075C41.5107 34.3984 41.4876 34.4894 41.4648 34.5805C41.4406 34.6768 41.4168 34.7732 41.3935 34.8696C41.3717 34.96 41.3503 35.0505 41.3293 35.141C41.307 35.2373 41.2852 35.3336 41.2638 35.43C41.2435 35.5216 41.2236 35.6132 41.2043 35.7048C41.1843 35.7994 41.1651 35.894 41.1462 35.9886C41.1276 36.0818 41.1092 36.1751 41.0916 36.2683C41.0738 36.363 41.0569 36.4577 41.0402 36.5524C41.024 36.6447 41.0079 36.7369 40.9928 36.8292C40.977 36.925 40.9626 37.0208 40.9481 37.1166C40.9342 37.2088 40.9203 37.3011 40.9076 37.3934C40.8945 37.489 40.8828 37.5847 40.871 37.6804C40.8597 37.7727 40.848 37.865 40.838 37.9574C40.8275 38.0536 40.8188 38.1498 40.8098 38.246C40.8011 38.3379 40.792 38.4298 40.7848 38.5218C40.7771 38.6185 40.7716 38.7153 40.7656 38.812C40.7598 38.9038 40.7533 38.9955 40.749 39.0873C40.7444 39.1852 40.7423 39.2831 40.7394 39.381C40.7367 39.4714 40.7329 39.5618 40.7318 39.6522C40.7304 39.7544 40.7321 39.8566 40.7327 39.9589C40.7332 40.0453 40.7323 40.1317 40.7343 40.2182C40.7369 40.3347 40.743 40.4515 40.7484 40.5681C40.7517 40.64 40.7531 40.7119 40.7574 40.7839C40.7686 40.9698 40.7835 41.1558 40.8019 41.3418C40.81 41.424 40.8216 41.5063 40.8312 41.5885C40.8437 41.6953 40.855 41.8021 40.87 41.9088C40.8823 41.9969 40.8981 42.085 40.9122 42.1731C40.9284 42.2739 40.9434 42.3747 40.9619 42.4755C40.9786 42.5663 40.9986 42.6571 41.0172 42.7478C41.0373 42.8463 41.0566 42.9447 41.0791 43.0432C41.1 43.1346 41.124 43.226 41.1469 43.3173C41.1715 43.4152 41.1954 43.5131 41.2224 43.611C41.2477 43.7031 41.276 43.7952 41.3036 43.8873C41.3327 43.9846 41.3614 44.0819 41.393 44.1792C41.4231 44.272 41.4559 44.3648 41.4882 44.4576C41.5219 44.554 41.5554 44.6504 41.5916 44.7468C41.6267 44.8407 41.6645 44.9345 41.702 45.0283C41.7403 45.1237 41.7787 45.2191 41.8195 45.3145C41.8598 45.4088 41.9024 45.5032 41.9453 45.5976C41.9885 45.6928 42.0324 45.7879 42.0782 45.8831C42.1239 45.978 42.1716 46.0728 42.22 46.1677C42.268 46.2619 42.3169 46.356 42.3676 46.4501C42.4193 46.5461 42.4726 46.6422 42.5271 46.7382C42.5537 46.7851 42.5776 46.8319 42.6049 46.8788H17.1899C13.5295 41.2136 15.4188 35.607 17.4181 29.6768C19.3485 23.9503 21.3418 18.0377 17.9016 12.1212Z" fill="#018E47"/>
<path d="M23.6103 18.1942H40.8489C41.1588 18.1942 41.4095 17.9435 41.4095 17.6336C41.4095 17.3237 41.1588 17.073 40.8489 17.073H23.6103C23.3004 17.073 23.0497 17.3237 23.0497 17.6336C23.0497 17.9435 23.3004 18.1942 23.6103 18.1942Z" fill="#018E47"/>
<path d="M23.1898 24.1118H40.4284C40.7383 24.1118 40.989 23.8611 40.989 23.5512C40.989 23.2413 40.7383 22.9906 40.4284 22.9906H23.1898C22.8799 22.9906 22.6292 23.2413 22.6292 23.5512C22.6292 23.8611 22.8799 24.1118 23.1898 24.1118Z" fill="#018E47"/>
<path d="M22.2087 30.0294H39.4473C39.7572 30.0294 40.0079 29.7787 40.0079 29.4688C40.0079 29.1589 39.7572 28.9082 39.4473 28.9082H22.2087C21.8988 28.9082 21.6481 29.1589 21.6481 29.4688C21.6481 29.7787 21.8988 30.0294 22.2087 30.0294Z" fill="#018E47"/>
<path d="M38.4663 34.8258H29.847C29.5371 34.8258 29.2864 35.0765 29.2864 35.3864C29.2864 35.6963 29.5371 35.947 29.847 35.947H38.4663C38.7762 35.947 39.0269 35.6963 39.0269 35.3864C39.0269 35.0765 38.7762 34.8258 38.4663 34.8258Z" fill="#018E47"/>
<path d="M23.8385 44.436C26.4789 44.436 28.6272 42.2878 28.6272 39.6473C28.6272 37.0069 26.4789 34.8586 23.8385 34.8586C21.1981 34.8586 19.0498 37.0069 19.0498 39.6473C19.0498 42.2878 21.1981 44.436 23.8385 44.436ZM23.8385 35.9799C25.8608 35.9799 27.506 37.625 27.506 39.6473C27.506 41.6697 25.8608 43.3148 23.8385 43.3148C21.8162 43.3148 20.171 41.6697 20.171 39.6473C20.171 37.625 21.8162 35.9799 23.8385 35.9799Z" fill="#018E47"/>
<path d="M22.6598 41.305C22.7693 41.4145 22.9127 41.4693 23.0561 41.4693C23.1996 41.4693 23.343 41.4145 23.4525 41.305L25.9752 38.7823C26.1942 38.5633 26.1942 38.2085 25.9752 37.9896C25.7563 37.7706 25.4015 37.7706 25.1825 37.9896L23.0561 40.1159L22.4944 39.5548C22.2755 39.3358 21.9207 39.3358 21.7017 39.5548C21.4827 39.7738 21.4827 40.1291 21.7017 40.3475L22.6598 41.305Z" fill="#018E47"/>
<circle cx="30" cy="30" r="29" stroke="#018E47" stroke-width="2"/>
</svg>
