<svg width="60" height="60" viewBox="0 0 60 60" fill="none" xmlns="http://www.w3.org/2000/svg">
<circle cx="30" cy="30" r="29" stroke="#018E47" stroke-width="2"/>
<g clip-path="url(#clip0_211_57)">
<path d="M48 40.4448C48 42.4515 46.3681 44.0833 44.3615 44.0833H42.8958V46.2708C42.8958 46.6733 42.5692 47 42.1667 47C41.7642 47 41.4375 46.6733 41.4375 46.2708V44.0833H39.9719C37.9652 44.0833 36.3333 42.4515 36.3333 40.4448C36.3333 40.0423 36.66 39.7156 37.0625 39.7156C37.465 39.7156 37.7917 40.0423 37.7917 40.4448C37.7917 41.6465 38.7702 42.625 39.9719 42.625H44.3615C45.5631 42.625 46.5417 41.6465 46.5417 40.4448C46.5417 39.4765 45.8913 38.6146 44.9608 38.3477L38.9729 36.6356C37.4198 36.1923 36.3333 34.7544 36.3333 33.1385C36.3333 31.1319 37.9652 29.5 39.9719 29.5H41.4375V27.3125C41.4375 26.91 41.7642 26.5833 42.1667 26.5833C42.5692 26.5833 42.8958 26.91 42.8958 27.3125V29.5H44.3615C46.3681 29.5 48 31.1319 48 33.1385C48 33.541 47.6733 33.8677 47.2708 33.8677C46.8683 33.8677 46.5417 33.541 46.5417 33.1385C46.5417 31.9369 45.5631 30.9583 44.3615 30.9583H39.9719C38.7702 30.9583 37.7917 31.9369 37.7917 33.1385C37.7917 34.1069 38.4421 34.9688 39.3725 35.2356L45.3604 36.9477C46.9135 37.391 48 38.829 48 40.4448ZM19.5625 16.375H21.0208C21.4233 16.375 21.75 16.0483 21.75 15.6458C21.75 14.4398 22.7315 13.4583 23.9375 13.4583H28.3125C29.5185 13.4583 30.5 14.4398 30.5 15.6458C30.5 16.0483 30.8267 16.375 31.2292 16.375H32.6875C35.5021 16.375 37.7917 18.6646 37.7917 21.4792V25.8542C37.7917 26.2567 38.1183 26.5833 38.5208 26.5833C38.9233 26.5833 39.25 26.2567 39.25 25.8542V21.4792C39.25 17.861 36.3056 14.9167 32.6875 14.9167H31.8854C31.5471 13.2542 30.0742 12 28.3125 12H23.9375C22.1758 12 20.7044 13.2542 20.3646 14.9167H19.5625C15.9444 14.9167 13 17.861 13 21.4792V40.4375C13 44.0556 15.9444 47 19.5625 47H32.6875C33.5377 47 34.3646 46.8396 35.1492 46.5231C35.5225 46.3715 35.7019 45.9456 35.5517 45.5737C35.4015 45.2004 34.9756 45.0225 34.6023 45.1713C33.9942 45.4177 33.3496 45.5431 32.689 45.5431H19.5625C16.7479 45.5431 14.4583 43.2535 14.4583 40.439V21.4792C14.4583 18.6646 16.7479 16.375 19.5625 16.375ZM26.3612 19.7627C26.6456 20.0471 26.6456 20.5094 26.3612 20.7938L22.679 24.476C22.2604 24.8946 21.7063 25.1235 21.1156 25.1235C20.5265 25.1235 19.9708 24.8931 19.5552 24.476L17.5908 22.5131C17.3065 22.2288 17.3065 21.7665 17.5908 21.4821C17.8752 21.1977 18.3375 21.1977 18.6219 21.4821L20.5863 23.445C20.7292 23.5879 20.9173 23.6652 21.1171 23.6652C21.3169 23.6652 21.5079 23.5865 21.6494 23.445L25.3317 19.7627C25.616 19.4783 26.0783 19.4783 26.3627 19.7627H26.3612ZM26.3612 28.5127C26.6456 28.7971 26.6456 29.2594 26.3612 29.5438L22.679 33.226C22.2604 33.6446 21.7063 33.8735 21.1156 33.8735C20.5265 33.8735 19.9708 33.6431 19.5552 33.226L17.5908 31.2631C17.3065 30.9787 17.3065 30.5165 17.5908 30.2321C17.8752 29.9477 18.3375 29.9477 18.6219 30.2321L20.5863 32.195C20.7292 32.3379 20.9173 32.4152 21.1171 32.4152C21.3169 32.4152 21.5079 32.3365 21.6494 32.195L25.3317 28.5127C25.616 28.2283 26.0783 28.2283 26.3627 28.5127H26.3612ZM26.3612 37.2627C26.6456 37.5471 26.6456 38.0094 26.3612 38.2938L22.679 41.976C22.2604 42.3946 21.7063 42.6235 21.1156 42.6235C20.5265 42.6235 19.9708 42.3931 19.5552 41.976L17.5908 40.0131C17.3065 39.7288 17.3065 39.2665 17.5908 38.9821C17.8752 38.6977 18.3375 38.6977 18.6219 38.9821L20.5863 40.945C20.7292 41.0879 20.9173 41.1652 21.1171 41.1652C21.3169 41.1652 21.5079 41.0865 21.6494 40.945L25.3317 37.2627C25.616 36.9783 26.0783 36.9783 26.3627 37.2627H26.3612Z" fill="#018E47"/>
</g>
<defs>
<clipPath id="clip0_211_57">
<rect width="35" height="35" fill="white" transform="translate(13 12)"/>
</clipPath>
</defs>
</svg>
