<svg width="60" height="60" viewBox="0 0 60 60" fill="none" xmlns="http://www.w3.org/2000/svg">
<path d="M16.4583 21.4792C16.4583 21.0767 16.785 20.75 17.1875 20.75H19.375V18.5625C19.375 18.16 19.7017 17.8333 20.1042 17.8333C20.5067 17.8333 20.8333 18.16 20.8333 18.5625V20.75H23.0208C23.4233 20.75 23.75 21.0767 23.75 21.4792C23.75 21.8817 23.4233 22.2083 23.0208 22.2083H20.8333V24.3958C20.8333 24.7983 20.5067 25.125 20.1042 25.125C19.7017 25.125 19.375 24.7983 19.375 24.3958V22.2083H17.1875C16.785 22.2083 16.4583 21.8817 16.4583 21.4792ZM25.9375 16.375H28.125V18.5625C28.125 18.965 28.4517 19.2917 28.8542 19.2917C29.2567 19.2917 29.5833 18.965 29.5833 18.5625V16.375H31.7708C32.1733 16.375 32.5 16.0483 32.5 15.6458C32.5 15.2433 32.1733 14.9167 31.7708 14.9167H29.5833V12.7292C29.5833 12.3267 29.2567 12 28.8542 12C28.4517 12 28.125 12.3267 28.125 12.7292V14.9167H25.9375C25.535 14.9167 25.2083 15.2433 25.2083 15.6458C25.2083 16.0483 25.535 16.375 25.9375 16.375ZM33.2292 23.6667H35.4167V25.8542C35.4167 26.2567 35.7433 26.5833 36.1458 26.5833C36.5483 26.5833 36.875 26.2567 36.875 25.8542V23.6667H39.0625C39.465 23.6667 39.7917 23.34 39.7917 22.9375C39.7917 22.535 39.465 22.2083 39.0625 22.2083H36.875V20.0208C36.875 19.6183 36.5483 19.2917 36.1458 19.2917C35.7433 19.2917 35.4167 19.6183 35.4167 20.0208V22.2083H33.2292C32.8267 22.2083 32.5 22.535 32.5 22.9375C32.5 23.34 32.8267 23.6667 33.2292 23.6667ZM49.0725 31.2223L39.1471 42.364C36.5192 45.3112 32.7494 47.0015 28.8031 47.0015H20.1042C17.2896 47.0015 15 44.7119 15 41.8973V34.6056C15 31.791 17.2896 29.5015 20.1042 29.5015H34.4804C36.2421 29.5015 37.7296 30.6885 38.1875 32.3058L43.63 26.3237C44.2877 25.6004 45.189 25.176 46.166 25.1308C47.1373 25.0929 48.0794 25.4225 48.8042 26.0817C50.2785 27.4263 50.3981 29.7333 49.0725 31.2238V31.2223ZM47.8227 27.1579C47.3881 26.7613 46.8165 26.5542 46.236 26.5848C45.6483 26.6125 45.1058 26.8677 44.7092 27.3023L38.154 34.5065C37.715 35.886 36.5148 36.955 35.0244 37.1665L26.025 38.2427C25.6138 38.3054 25.2638 38.005 25.2142 37.6054C25.166 37.2058 25.4519 36.8427 25.8515 36.7946L34.8363 35.7198C35.9927 35.555 36.8765 34.5356 36.8765 33.3515C36.8765 32.0317 35.8017 30.9554 34.4819 30.9554H20.1042C18.0946 30.9554 16.4583 32.5902 16.4583 34.6013V41.8929C16.4583 43.904 18.0946 45.5387 20.1042 45.5387H28.8031C32.3338 45.5387 35.7069 44.0265 38.0592 41.3883L47.9846 30.2481C48.7838 29.3512 48.7108 27.9629 47.8242 27.1535L47.8227 27.1579Z" fill="#018E47"/>
<circle cx="30" cy="30" r="29" stroke="#018E47" stroke-width="2"/>
</svg>
