<svg width="60" height="60" viewBox="0 0 60 60" fill="none" xmlns="http://www.w3.org/2000/svg">
<circle cx="30" cy="30" r="29" stroke="#018E47" stroke-width="2"/>
<g clip-path="url(#clip0_211_30)">
<path d="M47.9999 22.7961C47.9906 20.94 47.2583 19.1994 45.9356 17.8936L41.9904 13.9994C39.2756 11.3215 34.8834 11.3416 32.1931 14.0487L13.0148 33.281C10.3277 35.8772 10.3493 40.5361 13.0641 43.1045L17.0093 46.9988C19.7241 49.6797 24.1194 49.6566 26.8066 46.951L45.9849 27.7187C47.2938 26.4021 48.0076 24.6523 47.9999 22.7961ZM29.543 42.0223L17.9219 30.5446L29.4567 18.9774L41.0793 30.4567L29.543 42.0223ZM25.7135 45.8626C23.623 47.9685 20.2036 47.987 18.0931 45.9026L14.1479 42.0084C12.0374 40.0135 12.0158 36.3844 14.1079 34.3694L16.832 31.6376L28.4546 43.1153L25.7135 45.8626ZM42.1677 29.3636L30.5451 17.8844L33.2862 15.1356C35.3767 13.0297 38.7961 13.0127 40.9066 15.0971L44.8518 18.9913C46.9623 20.9893 46.9839 24.6122 44.8919 26.6318L42.1677 29.3636ZM45.9494 33.1931C48.6566 35.8803 48.6797 40.2756 45.9988 42.9904L42.1045 46.9356C39.5361 49.6504 34.8772 49.6736 32.281 46.9849C31.9804 46.6858 31.9773 46.1971 32.2779 45.8949C32.5755 45.5928 33.0642 45.5928 33.3679 45.8918C34.3916 46.9078 35.7729 47.4597 37.1943 47.4582C38.6404 47.4505 39.9924 46.8801 41.0069 45.8518L44.9026 41.9066C46.987 39.7961 46.9685 36.3767 44.8626 34.2862C44.5619 33.9871 44.5589 33.4984 44.8595 33.1962C45.1586 32.8956 45.6473 32.8894 45.9494 33.1931ZM13.0503 27.8066C10.3416 25.1194 10.32 20.7241 13.0009 18.0093L16.8952 14.0641C19.4698 11.3508 24.0948 11.3277 26.7187 14.0133C27.0193 14.3139 27.0224 14.8011 26.7218 15.1048C26.4242 15.4054 25.9355 15.4085 25.6318 15.1078C23.6199 13.0143 19.9878 13.0374 17.9913 15.1464L14.0971 19.0931C12.0127 21.2051 12.0297 24.623 14.1371 26.7135C14.4378 27.0126 14.4409 27.5013 14.1402 27.8035C13.8411 28.1056 13.3524 28.1056 13.0503 27.8066ZM31.0415 25.8748C31.0415 26.7258 30.3509 27.4165 29.4999 27.4165C28.6489 27.4165 27.9582 26.7258 27.9582 25.8748C27.9582 25.0238 28.6489 24.3332 29.4999 24.3332C30.3509 24.3332 31.0415 25.0238 31.0415 25.8748ZM26.4165 30.4998C26.4165 31.3508 25.7259 32.0415 24.8749 32.0415C24.0239 32.0415 23.3332 31.3508 23.3332 30.4998C23.3332 29.6488 24.0239 28.9582 24.8749 28.9582C25.7259 28.9582 26.4165 29.6488 26.4165 30.4998ZM31.0415 35.1248C31.0415 35.9758 30.3509 36.6665 29.4999 36.6665C28.6489 36.6665 27.9582 35.9758 27.9582 35.1248C27.9582 34.2738 28.6489 33.5832 29.4999 33.5832C30.3509 33.5832 31.0415 34.2738 31.0415 35.1248ZM35.6665 30.4998C35.6665 31.3508 34.9759 32.0415 34.1249 32.0415C33.2739 32.0415 32.5832 31.3508 32.5832 30.4998C32.5832 29.6488 33.2739 28.9582 34.1249 28.9582C34.9759 28.9582 35.6665 29.6488 35.6665 30.4998Z" fill="#018E47"/>
<path d="M33.9348 30.2316C34.3799 30.1871 34.768 29.7478 35.2516 29.6672" stroke="white" stroke-width="5" stroke-linecap="round"/>
<path d="M28.856 25.3407C29.4734 25.4615 30.1919 25.4839 30.7371 25.811" stroke="white" stroke-width="5" stroke-linecap="round"/>
<path d="M24.4353 30.7958C24.4353 30.2224 25.4312 30.2315 25.8461 30.2315" stroke="white" stroke-width="5" stroke-linecap="round"/>
<path d="M29.7024 34.9343C29.7024 34.6327 29.6794 34.487 29.8905 34.2759" stroke="white" stroke-width="5" stroke-linecap="round"/>
<path d="M34.7157 27.2182C34.5351 27.0545 34.2967 26.978 34.0602 27.0055C31.0274 27.3708 29.9109 29.7844 29.5026 31.3542L29.4998 31.3537L29.4971 31.3542C29.0896 29.7839 27.9731 27.3708 24.9403 27.0055C24.7052 26.9794 24.4659 27.0545 24.2849 27.2182C24.0979 27.3882 23.9939 27.6302 24.0003 27.8827C24.0411 29.4782 24.548 30.7327 25.5077 31.6104C26.8378 32.8268 28.4918 32.9542 29.1367 32.9579H29.3828C29.5093 32.9579 29.5703 32.9579 29.5703 32.9579H29.7294C30.3743 32.9542 32.1632 32.8268 33.4928 31.6104C34.4526 30.7322 34.9595 29.4782 35.0003 27.8827C35.0067 27.6302 34.9027 27.3882 34.7157 27.2182ZM25.8144 31.2694C24.9518 30.4792 24.4957 29.3357 24.4586 27.8713C24.4554 27.7521 24.5049 27.6375 24.5934 27.5573C24.6759 27.4817 24.7776 27.4469 24.8858 27.4606C28.5387 27.9006 29.1538 31.5215 29.2528 32.4986C28.6496 32.4885 26.9996 32.3556 25.8144 31.2694ZM33.1862 31.2694C32.0005 32.3556 30.3509 32.4881 29.7478 32.4982C29.8472 31.5215 30.4623 27.9006 34.1148 27.4602C34.1294 27.4583 34.1437 27.4574 34.1583 27.4574C34.2486 27.4574 34.3362 27.4918 34.4072 27.5569C34.4957 27.6375 34.5452 27.7517 34.5419 27.8713C34.5048 29.3357 34.0488 30.4787 33.1862 31.2694Z" fill="#018E47"/>
</g>
<defs>
<clipPath id="clip0_211_30">
<rect width="37" height="37" fill="white" transform="translate(11 12)"/>
</clipPath>
</defs>
</svg>
