<svg width="60" height="60" viewBox="0 0 60 60" fill="none" xmlns="http://www.w3.org/2000/svg">
<circle cx="30" cy="30" r="29" stroke="#018E47" stroke-width="2"/>
<path fill-rule="evenodd" clip-rule="evenodd" d="M31.906 16.4728C31.3493 15.9216 30.6167 15.5785 29.833 15.5019C29.0493 15.4254 28.263 15.62 27.6081 16.0528C26.9532 16.4856 26.4702 17.1297 26.2415 17.8753C26.0127 18.6209 26.0523 19.422 26.3536 20.1419C26.6549 20.8619 27.1991 21.4562 27.8936 21.8236C28.5881 22.191 29.3899 22.3088 30.1623 22.1568C30.9347 22.0049 31.6299 21.5926 32.1296 20.9903C32.6292 20.3879 32.9023 19.6328 32.9023 18.8536C32.9028 18.4114 32.8151 17.9734 32.6441 17.5649C32.4732 17.1563 32.2223 16.7852 31.906 16.4728ZM27.5967 19.3718C27.4835 19.2869 27.4091 19.161 27.3898 19.0217C27.3704 18.8825 27.4078 18.7414 27.4936 18.6294C27.5795 18.5174 27.7067 18.4437 27.8475 18.4246C27.9882 18.4055 28.1308 18.4425 28.244 18.5274L29.1809 19.2323L30.6632 17.407C30.7074 17.3526 30.762 17.3074 30.8239 17.274C30.8858 17.2405 30.9538 17.2195 31.0239 17.212C31.094 17.2045 31.1649 17.2108 31.2326 17.2305C31.3002 17.2501 31.3633 17.2827 31.4182 17.3265C31.4731 17.3703 31.5188 17.4243 31.5526 17.4856C31.5864 17.5468 31.6077 17.614 31.6153 17.6834C31.6228 17.7528 31.6165 17.8229 31.5966 17.8899C31.5768 17.9569 31.5438 18.0193 31.4995 18.0736L29.693 20.3007C29.6055 20.408 29.4792 20.4774 29.3409 20.494C29.2026 20.5106 29.0631 20.4731 28.9523 20.3896L27.5994 19.3723L27.5967 19.3718ZM22.3581 44.9375L24.2495 42.6087C24.3504 42.4994 24.414 42.3615 24.4315 42.2144C24.449 42.0674 24.4194 41.9187 24.347 41.7892C24.2306 41.5887 24.0424 41.4386 23.8197 41.3687C23.6761 41.3268 23.5228 41.3304 23.3815 41.3792C23.2402 41.428 23.1179 41.5195 23.0318 41.6407L21.1404 43.9696C21.0396 44.0788 20.976 44.2167 20.9585 44.3636C20.941 44.5105 20.9705 44.6592 21.0429 44.7887C21.1588 44.9895 21.3469 45.1398 21.5698 45.2095C21.7134 45.2515 21.8668 45.2479 22.0082 45.1991C22.1496 45.1503 22.272 45.0588 22.3581 44.9375ZM11.2053 38.7154L14.9886 40.3625C15.0426 40.3855 15.1036 40.3866 15.1584 40.3656C15.1852 40.3553 15.2097 40.3397 15.2304 40.32C15.2511 40.3002 15.2677 40.2766 15.2792 40.2505L20.4662 28.5819C20.4779 28.5556 20.4843 28.5274 20.4849 28.4987C20.4856 28.47 20.4805 28.4415 20.47 28.4148C20.4594 28.3881 20.4437 28.3637 20.4236 28.343C20.4036 28.3223 20.3796 28.3058 20.353 28.2943L16.5701 26.6499C16.5435 26.6382 16.5147 26.6319 16.4856 26.6313C16.4564 26.6307 16.4275 26.6358 16.4003 26.6463C16.3735 26.6567 16.349 26.6721 16.3283 26.6919C16.3075 26.7117 16.2909 26.7353 16.2795 26.7614L11.0916 38.4261C11.0683 38.4795 11.067 38.5398 11.088 38.5941C11.1094 38.6477 11.1514 38.6907 11.2048 38.7137L11.2053 38.7154ZM25.5225 47.1677C25.5028 47.4084 25.5704 47.648 25.7134 47.8437C25.8089 47.9865 25.9367 48.1053 26.0866 48.1908C26.2171 48.2655 26.3675 48.2995 26.5178 48.2881C26.6798 48.2592 26.8341 48.1981 26.9716 48.1086C27.1091 48.0191 27.2268 47.903 27.3178 47.7673L27.6798 47.3228C27.8221 47.1626 27.9035 46.9583 27.9098 46.7451C27.9022 46.5482 27.8326 46.3586 27.7108 46.2029C27.5754 46.0234 27.3992 45.878 27.1965 45.7784C27.0578 45.7058 26.9042 45.6655 26.7473 45.6606L25.5216 47.1717L25.5225 47.1677ZM26.0215 44.8567L24.6291 46.574C24.614 46.5902 24.5999 46.6072 24.5869 46.6251C24.4853 46.7459 24.3486 46.8329 24.1953 46.874C24.042 46.9151 23.8796 46.9084 23.7303 46.8548C23.6036 46.8135 23.4855 46.7501 23.3813 46.6677C23.2803 46.5901 23.1946 46.4947 23.1284 46.3864C23.0529 46.2657 23.0188 46.1242 23.031 45.9829C23.0432 45.8415 23.1012 45.7078 23.1962 45.6015L25.0877 43.2727C25.1639 43.1647 25.2721 43.0829 25.3974 43.0383C25.5226 42.9937 25.6588 42.9886 25.787 43.0238C25.8985 43.0577 26.0015 43.1145 26.0893 43.1905C26.1866 43.2731 26.2659 43.3744 26.3224 43.4882C26.4127 43.7085 26.4367 43.95 26.3913 44.1834C26.346 44.4169 26.2333 44.6323 26.0669 44.8038C26.0507 44.8204 26.0353 44.8381 26.0215 44.8567ZM42.8909 38.363C42.8992 38.3814 42.9065 38.4003 42.9129 38.4194L43.6486 40.2892C43.6708 40.3428 43.7133 40.3857 43.767 40.4088C43.8206 40.4319 43.8813 40.4333 43.9361 40.4127L47.7877 38.9328C47.8418 38.9107 47.885 38.8687 47.9083 38.8156C47.9315 38.7624 47.9329 38.7024 47.9121 38.6483L43.2596 26.809C43.2496 26.7883 43.2407 26.7671 43.2331 26.7454C43.2093 26.702 43.1713 26.6678 43.1253 26.6486C43.0792 26.6282 43.0274 26.6238 42.9784 26.6361C42.9576 26.645 42.9363 26.6527 42.9147 26.6592L39.1035 28.1259C39.0767 28.1365 39.0524 28.1523 39.0318 28.1722C39.0112 28.1922 38.9948 28.216 38.9836 28.2423C38.9599 28.2954 38.9581 28.3555 38.9786 28.4099L39.3276 29.2987C39.3312 29.3072 39.3348 29.3161 39.3379 29.325V29.3276L42.89 38.3643L42.8909 38.363ZM19.5077 41.6714L20.3063 40.6879C20.4302 40.4939 20.6031 40.3354 20.8079 40.2279C21.0127 40.1204 21.2424 40.0677 21.4741 40.075C21.6082 40.0919 21.7366 40.1389 21.8496 40.2123C21.9574 40.2808 22.0486 40.3718 22.1169 40.479C22.1711 40.556 22.2044 40.6455 22.2134 40.7389C22.2224 40.8323 22.207 40.9265 22.1685 41.0123L20.3885 43.1994C20.2467 43.234 20.0971 43.2183 19.9658 43.1549C19.8045 43.0809 19.6631 42.9704 19.553 42.8323C19.4387 42.6951 19.3595 42.5328 19.3222 42.3589C19.2986 42.2462 19.3002 42.1298 19.3268 42.0178C19.3535 41.9058 19.4047 41.8009 19.4767 41.7105C19.4875 41.6981 19.4978 41.6847 19.5077 41.6714ZM27.0294 31.6725C27.0965 31.6076 27.1634 31.5431 27.2302 31.4791C27.7319 30.9978 28.226 30.5365 28.6073 30.2067C28.8669 29.942 29.1805 29.735 29.5272 29.5996C29.9335 29.5284 30.3499 29.5364 30.753 29.6232C31.2022 29.6845 31.8054 29.7858 32.4536 29.8943C33.6344 30.0921 34.9622 30.3143 35.9463 30.3898C36.5683 30.4488 37.1953 30.4315 37.813 30.3383C38.0522 30.2985 38.2883 30.2429 38.52 30.172L41.6898 38.2359C40.862 38.5661 40.6423 39.1603 40.3872 39.8501C40.2824 40.2246 40.1039 40.575 39.8619 40.8811C39.62 41.1872 39.3193 41.4431 38.9773 41.6341L30.042 34.5329C29.7644 34.285 29.4167 34.1271 29.0457 34.0804C28.8518 34.0582 28.6553 34.0773 28.4694 34.1363C28.2835 34.1953 28.1124 34.2929 27.9677 34.4226C27.7292 34.6621 27.5756 34.9717 27.5298 35.3048L27.519 35.3493C27.4752 35.5321 27.4415 35.7171 27.418 35.9035C27.3923 36.0813 27.3641 36.2719 27.3214 36.4635C27.2657 36.7156 27.1875 36.9623 27.0878 37.2008C27.0057 37.3995 26.9011 37.5884 26.7761 37.7639C26.6376 37.9552 26.4681 38.1225 26.2744 38.259C26.1266 38.3665 25.9572 38.4412 25.7776 38.4781C25.6112 38.5017 25.4417 38.4922 25.279 38.4501C25.1256 38.4124 24.9755 38.3629 24.8299 38.3021C24.7548 38.2723 24.9031 38.331 24.8887 37.8843V37.8661C24.8581 37.055 24.7989 35.4408 24.7894 34.6062C24.7654 34.3813 24.7869 34.1539 24.8528 33.9373C25.0169 33.6785 25.2171 33.4439 25.4475 33.2404C25.8333 32.8471 26.4019 32.28 26.9881 31.7129C27.0011 31.7014 27.0137 31.6894 27.0258 31.6765L27.0294 31.6725ZM37.1694 45.1033C37.1554 45.1607 37.1388 45.2171 37.12 45.2731C36.9501 45.7678 36.6092 46.1874 36.1574 46.458C35.8983 46.623 35.5995 46.7168 35.2916 46.7297C34.9838 46.7427 34.678 46.6744 34.4056 46.5317C34.3917 46.5882 34.3751 46.6442 34.3567 46.6997C34.1869 47.1945 33.846 47.6139 33.3941 47.8842C33.0329 48.1081 32.6034 48.1984 32.1814 48.1393C32.1651 48.2753 32.135 48.4093 32.0915 48.5393C31.9213 49.0337 31.5805 49.4531 31.129 49.7237C30.8151 49.9248 30.444 50.0204 30.0709 49.9964C29.6977 49.9724 29.3423 49.83 29.0574 49.5903L27.9269 48.6912C27.5827 49.0608 27.1151 49.2947 26.6103 49.3499C26.2481 49.3785 25.8855 49.2983 25.5701 49.1197C25.2738 48.9526 25.0207 48.7199 24.8307 48.4397C24.7143 48.2694 24.6217 48.0844 24.5554 47.8895C24.1772 48.0008 23.7734 47.9926 23.4002 47.8659C23.1521 47.7863 22.9202 47.6638 22.7152 47.5042C22.5096 47.3443 22.3354 47.1485 22.2013 46.9264C22.0834 46.7322 22.003 46.5181 21.9642 46.2949C21.7264 46.3166 21.4866 46.2919 21.2585 46.222C20.77 46.0737 20.3573 45.7461 20.1051 45.3064C19.9163 44.984 19.8375 44.61 19.8805 44.2398C19.7589 44.2125 19.6403 44.1734 19.5265 44.1229C19.2081 43.9777 18.9284 43.761 18.7094 43.49C18.4905 43.2191 18.3384 42.9013 18.2653 42.562C18.1779 42.1458 18.2415 41.7125 18.4449 41.3381C18.2169 40.8782 17.9116 40.46 17.5421 40.1012C17.2837 39.9177 16.9822 39.8025 16.6662 39.7665L16.262 40.6767C16.1226 40.9868 15.8649 41.2299 15.5452 41.3528C15.2255 41.4758 14.8696 41.4687 14.5552 41.3332L10.7718 39.6883C10.4584 39.5504 10.2128 39.2955 10.0884 38.9791C9.9641 38.6628 9.97111 38.3107 10.108 37.9995L15.2958 26.3326C15.4352 26.0225 15.6929 25.7794 16.0126 25.6565C16.3323 25.5335 16.6882 25.5406 17.0027 25.6761L20.786 27.3214C21.0995 27.4593 21.3452 27.7142 21.4696 28.0305C21.5939 28.3469 21.5868 28.6991 21.4499 29.0103L21.2787 29.3947C21.9433 29.792 22.6546 30.1074 23.3966 30.3338C24.3933 30.5707 25.4104 30.7141 26.4343 30.7623L26.4792 30.7178C26.9876 30.2289 27.4952 29.7574 27.8986 29.4081C28.2741 29.0326 28.7324 28.7483 29.2375 28.5774C29.7838 28.4601 30.3489 28.4583 30.8959 28.5721C31.3931 28.6401 31.9896 28.7401 32.6301 28.8472C33.7849 29.0405 35.083 29.2578 36.0262 29.3307C36.5626 29.3827 37.1034 29.3694 37.6365 29.2912C37.8032 29.2634 37.9682 29.2262 38.1306 29.1796L37.9792 28.7947C37.9178 28.638 37.8881 28.4708 37.892 28.3028C37.8958 28.1347 37.9331 27.969 38.0017 27.8152C38.0702 27.6614 38.1688 27.5224 38.2916 27.4063C38.4145 27.2902 38.5592 27.1991 38.7176 27.1383L42.5706 25.6535C42.729 25.5927 42.8979 25.5633 43.0677 25.5672C43.2376 25.571 43.405 25.6079 43.5604 25.6757C43.7158 25.7436 43.8562 25.841 43.9735 25.9626C44.0909 26.0842 44.1828 26.2274 44.2442 26.3841L48.9124 38.2635C48.9739 38.4202 49.0035 38.5874 48.9997 38.7555C48.9958 38.9236 48.9585 39.0894 48.89 39.2432C48.8214 39.3971 48.7229 39.536 48.6 39.6522C48.4772 39.7684 48.3324 39.8595 48.174 39.9203L44.3224 41.4025C44.1639 41.4633 43.9949 41.4927 43.825 41.4889C43.6551 41.4851 43.4877 41.4482 43.3322 41.3803C43.1767 41.3125 43.0362 41.215 42.9188 41.0934C42.8014 40.9719 42.7093 40.8286 42.6479 40.6719L42.0855 39.2408C41.9103 39.3479 41.7588 39.489 41.6403 39.6557C41.5218 39.8224 41.4387 40.0111 41.396 40.2105C41.1369 41.1313 40.5404 41.9236 39.7229 42.4327C39.8334 42.6515 39.8989 42.8899 39.9156 43.134C39.9481 43.6332 39.7895 44.1262 39.4713 44.5149C39.1553 44.9071 38.7014 45.1671 38.2002 45.2429C37.8504 45.296 37.4926 45.2474 37.1703 45.1029L37.1694 45.1033ZM36.4664 43.2505L32.8632 40.3852C32.7523 40.2968 32.6104 40.2556 32.4688 40.2707C32.3272 40.2858 32.1975 40.3559 32.1082 40.4656C32.0188 40.5754 31.9772 40.7157 31.9924 40.8558C32.0077 40.9959 32.0785 41.1243 32.1895 41.2127L35.9508 44.2038C36.0429 44.2996 36.1059 44.4192 36.1325 44.5488C36.1591 44.6784 36.1483 44.8128 36.1012 44.9367C36.0577 45.063 35.9918 45.1806 35.9068 45.2842C35.8226 45.3886 35.7206 45.4777 35.6054 45.5473C35.477 45.6299 35.3252 45.6694 35.1724 45.6599C35.0195 45.6505 34.8739 45.5926 34.7569 45.4949L31.4313 42.8487C31.4047 42.8274 31.3761 42.8088 31.3459 42.7931L31.301 42.7585C31.1901 42.6701 31.0482 42.6289 30.9066 42.644C30.765 42.6591 30.6353 42.7292 30.5459 42.8389C30.4566 42.9487 30.415 43.089 30.4302 43.2291C30.4455 43.3692 30.5163 43.4976 30.6272 43.586L33.1031 45.5549C33.2247 45.6469 33.3132 45.7753 33.3553 45.921C33.3975 46.0667 33.3911 46.2219 33.3371 46.3637C33.2486 46.6176 33.074 46.8334 32.843 46.9744C32.7147 47.0571 32.5628 47.0967 32.41 47.0872C32.2571 47.0778 32.1114 47.0198 31.9945 46.922L30.1287 45.4371C30.0176 45.3487 29.8756 45.3076 29.7338 45.3228C29.5921 45.338 29.4623 45.4083 29.3729 45.5182C29.2836 45.6281 29.242 45.7686 29.2574 45.9089C29.2728 46.0491 29.3438 46.1776 29.4549 46.266L30.727 47.2775C30.757 47.3221 30.7938 47.3618 30.8361 47.3953C30.9579 47.4873 31.0464 47.6156 31.0888 47.7613C31.1311 47.907 31.1248 48.0622 31.071 48.2041C30.9818 48.4576 30.8074 48.6732 30.5769 48.8148C30.4486 48.8975 30.2967 48.9371 30.1438 48.9277C29.9909 48.9183 29.8451 48.8605 29.728 48.7628L28.6051 47.8704C28.8492 47.5425 28.9811 47.1461 28.9815 46.7388C28.9734 46.3191 28.832 45.9125 28.5773 45.5766C28.3411 45.2592 28.0326 45.0014 27.6767 44.8242C27.5719 44.7724 27.4634 44.7286 27.3519 44.6931C27.4572 44.4252 27.5055 44.1386 27.4938 43.8514C27.482 43.5642 27.4105 43.2824 27.2837 43.0238C27.1632 42.7796 26.9937 42.5623 26.7855 42.3851C26.5827 42.2115 26.345 42.0824 26.088 42.0065C25.9001 41.9509 25.704 41.9272 25.5081 41.9363C25.4782 41.7016 25.4019 41.4751 25.2835 41.2696C25.0309 40.8302 24.6184 40.5027 24.13 40.3541C23.8326 40.2616 23.5159 40.2481 23.2115 40.315C23.1663 40.1765 23.1039 40.0441 23.026 39.9208C22.8712 39.6751 22.6631 39.4667 22.4167 39.3106C22.1704 39.1545 21.8919 39.0548 21.6017 39.0185C21.1881 38.9844 20.7728 39.0593 20.398 39.2357C20.0232 39.412 19.7024 39.6835 19.4681 40.0225L19.1443 40.4225C18.9026 39.9902 18.5876 39.6022 18.2132 39.2754C17.8904 39.0232 17.5117 38.8505 17.1082 38.7714L20.8426 30.3716C21.5534 30.7899 22.3132 31.1208 23.105 31.3569C23.8662 31.5535 24.6435 31.683 25.4277 31.744C25.1429 32.0267 24.8851 32.2858 24.6789 32.4964C24.3573 32.78 24.0866 33.1154 23.8781 33.4884C23.7352 33.8444 23.6804 34.229 23.7182 34.6102C23.7262 35.4853 23.7873 37.099 23.8174 37.9035V37.9168C23.8623 39.0577 23.8623 39.0585 24.4305 39.2839C24.6262 39.365 24.8279 39.4311 25.0338 39.4816C25.337 39.557 25.6525 39.5708 25.9613 39.5221C26.2952 39.4573 26.6109 39.3216 26.8866 39.1243C27.1792 38.9192 27.4354 38.6675 27.6448 38.3794C27.8184 38.1381 27.9639 37.8781 28.0782 37.6044C28.2017 37.308 28.2982 37.0013 28.3666 36.6879C28.4245 36.4284 28.4537 36.2302 28.4798 36.0493C28.4989 35.8999 28.5256 35.7516 28.5597 35.6048L28.5705 35.5604C28.5882 35.4228 28.639 35.2914 28.7187 35.1773C28.7496 35.1557 28.7847 35.1407 28.8217 35.133C28.8587 35.1254 28.8969 35.1253 28.9339 35.1328C29.0907 35.1596 29.2356 35.2326 29.3498 35.3422L29.3597 35.3502L38.5524 42.6603C38.5666 42.6735 38.5816 42.686 38.5973 42.6976C38.6697 42.7617 38.7287 42.8393 38.7707 42.9261C38.8127 43.0128 38.837 43.1069 38.8421 43.2029C38.8557 43.4263 38.7878 43.6471 38.6507 43.8251C38.6368 43.84 38.6239 43.8557 38.6121 43.8722C38.4668 44.0429 38.264 44.1559 38.0412 44.1904C37.848 44.2223 37.6498 44.1773 37.4901 44.0651C37.4734 44.0505 37.4558 44.0368 37.4375 44.0242L36.6739 43.4162C36.6317 43.3762 36.5868 43.3371 36.5392 43.2994C36.516 43.2806 36.4912 43.2639 36.4651 43.2496L36.4664 43.2505ZM23.9863 23.1331C23.1179 21.878 22.6773 20.3813 22.7286 18.8612V12.8315L29.4998 11.0791L36.2719 12.8315V18.8612C36.3235 20.3814 35.8828 21.8781 35.0143 23.1331C34.0324 24.4886 32.3381 25.7264 29.4998 26.6219C26.6616 25.7264 24.9673 24.4886 23.9863 23.1331ZM29.3359 27.6819C26.1517 26.7068 24.2369 25.305 23.1122 23.7486C22.11 22.3153 21.5982 20.602 21.652 18.8598V12.4222C21.6522 12.297 21.6969 12.1758 21.7782 12.0799C21.8596 11.984 21.9725 11.9195 22.0971 11.8977L29.3651 10.0169C29.4562 9.9935 29.552 9.99442 29.6427 10.0195L36.9443 11.9111C37.0593 11.9405 37.1612 12.0069 37.234 12.0998C37.3067 12.1927 37.3462 12.3069 37.3463 12.4244V18.8612C37.4001 20.6033 36.8884 22.3166 35.8861 23.75C34.7605 25.3055 32.8443 26.7099 29.6562 27.6854C29.5512 27.7171 29.439 27.7163 29.3345 27.6832L29.3359 27.6819ZM29.4998 14.4221C30.5362 14.4219 31.5407 14.7773 32.3419 15.4277C33.1432 16.0782 33.6917 16.9834 33.8941 17.9891C34.0964 18.9949 33.94 20.039 33.4516 20.9434C32.9631 21.8479 32.1728 22.5568 31.2154 22.9493C30.2579 23.3418 29.1925 23.3937 28.2007 23.0961C27.2089 22.7985 26.3521 22.1698 25.7762 21.3171C25.2004 20.4645 24.9412 19.4407 25.0427 18.4201C25.1443 17.3996 25.6004 16.4455 26.3332 15.7203C26.7485 15.3081 27.2421 14.9812 27.7855 14.7584C28.329 14.5356 28.9116 14.4213 29.4998 14.4221Z" fill="#018E47"/>
</svg>
