<svg width="60" height="60" viewBox="0 0 60 60" fill="none" xmlns="http://www.w3.org/2000/svg">
<path d="M29.4993 27.5833C27.8908 27.5833 26.5826 28.8915 26.5826 30.5C26.5826 32.1085 27.8908 33.4167 29.4993 33.4167C31.1079 33.4167 32.416 32.1085 32.416 30.5C32.416 28.8915 31.1079 27.5833 29.4993 27.5833ZM29.4993 31.9583C28.6958 31.9583 28.041 31.3035 28.041 30.5C28.041 29.6965 28.6958 29.0417 29.4993 29.0417C30.3029 29.0417 30.9577 29.6965 30.9577 30.5C30.9577 31.3035 30.3029 31.9583 29.4993 31.9583ZM38.541 27.0117C38.6912 26.4458 38.6096 25.8567 38.315 25.3535C38.0204 24.849 37.5479 24.4888 36.9821 24.34C36.4192 24.1913 35.83 24.2729 35.3239 24.566L34.3877 25.1115C33.6046 24.3998 32.6873 23.8704 31.6854 23.5554V22.4792C31.6854 21.2731 30.7039 20.2917 29.4979 20.2917C28.2918 20.2917 27.3104 21.2731 27.3104 22.4792V23.5554C26.3085 23.8704 25.3912 24.4012 24.6081 25.1129L23.6733 24.5675C23.1687 24.2729 22.5795 24.1927 22.0137 24.3415C21.4493 24.4902 20.9753 24.8504 20.6807 25.3535C20.3862 25.8581 20.3059 26.4473 20.4532 27.0117C20.6005 27.576 20.9622 28.0515 21.4668 28.346L22.4089 28.8958C22.2718 29.4573 22.2047 29.9867 22.2047 30.5015C22.2047 31.0163 22.2718 31.5442 22.4089 32.1056L21.4668 32.6554C20.9622 32.95 20.602 33.424 20.4532 33.9898C20.3045 34.5556 20.3862 35.1448 20.6807 35.6479C20.9753 36.1525 21.4478 36.5127 22.0137 36.6615C22.5795 36.8088 23.1687 36.73 23.6718 36.434L24.6066 35.8885C25.3897 36.6017 26.3085 37.131 27.3089 37.446V38.5223C27.3089 39.7283 28.2904 40.7098 29.4964 40.7098C30.7025 40.7098 31.6839 39.7283 31.6839 38.5223V37.446C32.6858 37.131 33.6031 36.6017 34.3862 35.8885L35.321 36.434C35.8285 36.7285 36.4177 36.8088 36.9806 36.6615C37.5464 36.5127 38.019 36.1525 38.3135 35.6479C38.6081 35.1433 38.6898 34.5542 38.5396 33.9898C38.3908 33.424 38.0321 32.9515 37.5275 32.6569L36.5854 32.1071C36.7225 31.5471 36.7896 31.0177 36.7896 30.5029C36.7896 29.9881 36.7225 29.4588 36.5854 28.8973L37.5275 28.349C38.0335 28.0544 38.3923 27.5804 38.5396 27.0146L38.541 27.0117ZM37.1308 26.6413C37.0812 26.8294 36.9617 26.9869 36.7939 27.0846L35.3662 27.9173C35.0731 28.0894 34.936 28.4408 35.0381 28.766C35.2394 29.4063 35.3327 29.9575 35.3327 30.4985C35.3327 31.0396 35.2394 31.5908 35.0381 32.2296C34.936 32.5548 35.0702 32.9063 35.3662 33.0783L36.7939 33.9125C36.9617 34.0102 37.0812 34.1677 37.1308 34.3558C37.1804 34.544 37.1542 34.7408 37.055 34.9085C36.9573 35.0763 36.7983 35.1973 36.6102 35.2454C36.425 35.2965 36.2281 35.2702 36.0575 35.1696L34.64 34.3427C34.3512 34.1721 33.9735 34.2246 33.7416 34.474C32.9396 35.3285 31.9202 35.9163 30.7943 36.1729C30.4618 36.2488 30.227 36.5433 30.227 36.8831V38.5165C30.227 38.919 29.9004 39.2456 29.4979 39.2456C29.0954 39.2456 28.7687 38.919 28.7687 38.5165V36.8831C28.7687 36.5433 28.5339 36.2473 28.2014 36.1729C27.0741 35.9163 26.0547 35.3285 25.2541 34.474C25.1126 34.3223 24.9187 34.2435 24.7218 34.2435C24.5964 34.2435 24.4695 34.2756 24.3543 34.3427L22.9383 35.1696C22.772 35.2673 22.5737 35.295 22.3855 35.2454C22.1974 35.1958 22.0399 35.0763 21.9407 34.9071C21.843 34.7394 21.8153 34.5425 21.8649 34.3558C21.9145 34.1677 22.0341 34.0088 22.2018 33.911L23.6295 33.0769C23.9241 32.9048 24.0597 32.5533 23.9576 32.2281C23.7564 31.5879 23.663 31.0367 23.663 30.4956C23.663 29.9546 23.7564 29.4048 23.9576 28.7631C24.0597 28.4379 23.9241 28.0865 23.6295 27.9158L22.2018 27.0831C22.0341 26.9854 21.913 26.8265 21.8649 26.6383C21.8153 26.4502 21.8416 26.2548 21.9407 26.0856C22.0385 25.9179 22.1974 25.7969 22.3855 25.7487C22.5722 25.6977 22.7705 25.7254 22.9383 25.8231L24.3543 26.65C24.6474 26.8206 25.0208 26.7681 25.2541 26.5202C26.0547 25.6656 27.0756 25.0779 28.2014 24.8213C28.5339 24.7454 28.7687 24.4508 28.7687 24.111V22.4777C28.7687 22.0752 29.0954 21.7485 29.4979 21.7485C29.9004 21.7485 30.227 22.0752 30.227 22.4777V24.111C30.227 24.4508 30.4618 24.7469 30.7943 24.8213C31.9202 25.0779 32.941 25.6656 33.7416 26.5202C33.9735 26.7681 34.3512 26.8221 34.64 26.65L36.0575 25.8231C36.2237 25.7269 36.4162 25.6977 36.6102 25.7487C36.7983 25.7983 36.9558 25.9179 37.055 26.0856C37.1527 26.2548 37.1804 26.4502 37.1308 26.6383V26.6413ZM46.9994 31.2598C46.5984 40.6471 38.91 48 29.4993 48C24.4214 48 19.7212 45.8358 16.3961 42.0588C16.3932 42.0967 16.3743 42.1288 16.3743 42.1667V47.2708C16.3743 47.6733 16.0476 48 15.6451 48C15.2426 48 14.9159 47.6733 14.9159 47.2708V42.1667C14.9159 41.4871 15.158 40.8702 15.5488 40.3744C15.597 40.2825 15.6597 40.1979 15.7472 40.1308C15.7472 40.1308 15.7501 40.1308 15.7516 40.1279C16.2809 39.5869 17.0174 39.25 17.8326 39.25H22.9368C23.3393 39.25 23.666 39.5767 23.666 39.9792C23.666 40.3817 23.3393 40.7083 22.9368 40.7083H17.8326C17.6284 40.7083 17.4345 40.7521 17.258 40.8294C20.3176 44.4577 24.7262 46.5417 29.4993 46.5417C38.1269 46.5417 45.1736 39.8013 45.5411 31.1985C45.5586 30.7975 45.8444 30.4723 46.3009 30.5015C46.7019 30.519 47.0155 30.8588 46.9994 31.2613V31.2598ZM13.4576 29.8015C13.4415 30.1938 13.1178 30.5 12.7299 30.5C12.7197 30.5 12.708 30.5 12.6978 30.5C12.2953 30.4825 11.9832 30.1427 12.0007 29.7402C12.4017 20.3529 20.0872 13 29.4993 13C34.5773 13 39.2775 15.1642 42.6025 18.9412C42.6054 18.9033 42.6244 18.8713 42.6244 18.8333V13.7292C42.6244 13.3267 42.9511 13 43.3536 13C43.7561 13 44.0827 13.3267 44.0827 13.7292V18.8333C44.0827 19.5129 43.8392 20.1298 43.4498 20.6256C43.4017 20.7175 43.339 20.8021 43.2515 20.8692C43.2515 20.8692 43.2486 20.8692 43.2471 20.8721C42.7177 21.4117 41.9813 21.75 41.1675 21.75H36.0633C35.6608 21.75 35.3341 21.4233 35.3341 21.0208C35.3341 20.6183 35.6608 20.2917 36.0633 20.2917H41.1675C41.3717 20.2917 41.5656 20.2479 41.7436 20.1721C38.6854 16.5438 34.2754 14.4583 29.5008 14.4583C20.8718 14.4583 13.8251 21.1987 13.4576 29.8015Z" fill="#018E47"/>
<circle cx="30" cy="30" r="29" stroke="#018E47" stroke-width="2"/>
</svg>
