<svg width="28" height="28" viewBox="0 0 28 28" fill="none" xmlns="http://www.w3.org/2000/svg">
<path fill-rule="evenodd" clip-rule="evenodd" d="M14 0C21.727 0 28 6.273 28 14C28 21.727 21.727 28 14 28C6.273 28 0 21.727 0 14C0 6.273 6.273 0 14 0ZM14 2C7.377 2 2 7.377 2 14C2 20.623 7.377 26 14 26C20.623 26 26 20.623 26 14C26 7.377 20.623 2 14 2ZM15.2 19.733C14.917 20.111 14.472 20.333 14 20.333C13.528 20.333 13.083 20.111 12.8 19.733L6.8 11.733C6.459 11.279 6.404 10.671 6.658 10.163C6.912 9.654 7.432 9.333 8 9.333H20C20.568 9.333 21.088 9.654 21.342 10.163C21.596 10.671 21.541 11.279 21.2 11.733L15.2 19.733ZM9 11.333L14 18L19 11.333H9Z" fill="#868686"/>
</svg>
