<svg width="60" height="60" viewBox="0 0 60 60" fill="none" xmlns="http://www.w3.org/2000/svg">
<circle cx="30" cy="30" r="29" stroke="#018E47" stroke-width="2"/>
<path fill-rule="evenodd" clip-rule="evenodd" d="M21.6992 12.0447C29.2948 8.59585 38.2532 10.2234 44.1421 16.075C51.9527 23.8362 51.9527 36.4179 44.1421 44.1791C36.3314 51.9403 23.6697 51.9403 15.8591 44.1791C9.10157 37.4665 8.07745 26.9461 13.3702 19.0879C13.5829 18.7707 14.0151 18.6849 14.3365 18.8985C14.6556 19.1099 14.7421 19.5393 14.5271 19.8587C9.60458 27.166 10.562 36.9575 16.8454 43.201C18.8667 45.2095 21.3534 46.7578 24.1283 47.6761C25.354 46.7687 26.2205 45.7028 26.2161 44.0423L26.2072 40.6375C18.7626 40.6661 20.0125 41.8796 19.0684 33.5438L14.3565 32.6915L19.3543 26.3775C20.6664 23.019 21.0964 20.1493 24.1704 18.057C36.4889 9.67054 48.0845 23.3052 41.9432 35.0566L38.4147 40.6373C37.7853 42.3111 38.3394 44.2513 39.1705 46.218C44.8886 42.9937 48.6055 36.9351 48.6055 30.13C48.6055 19.9202 40.2763 11.6437 30.0016 11.6437C27.3508 11.6437 24.7732 12.1921 22.3929 13.2536H24.7378C25.1213 13.2536 25.4338 13.562 25.4338 13.9452C25.4338 14.3262 25.1235 14.6367 24.7378 14.6367H19.7932C19.2524 14.6367 18.9266 14.0531 19.1903 13.5995L21.6616 9.34455C21.8544 9.0142 22.2799 8.90188 22.6124 9.09348C22.9449 9.28509 23.0579 9.70791 22.8651 10.0383L21.6992 12.0447ZM29.4009 25.14L31.2559 27.2873C31.5418 27.6176 32.0671 27.622 32.3574 27.2322L35.7684 22.9355C36.0055 22.636 35.9545 22.2021 35.6531 21.9664C35.3517 21.7308 34.9151 21.7814 34.6779 22.0809L31.7634 25.7522L30.458 24.2414C30.2075 23.9507 29.7687 23.9177 29.4761 24.1665C29.1858 24.4132 29.1526 24.8493 29.4009 25.14ZM31.6349 48.5421C32.1048 48.5024 32.5702 48.443 33.0312 48.3681V37.3718L36.3203 35.4844L38.9621 36.2001C39.3322 36.3014 39.7157 36.0834 39.8154 35.7156C39.9174 35.3478 39.6979 34.9668 39.3278 34.8677L36.9408 34.2203L36.9985 32.8328L39.1771 31.1106C39.4785 30.8727 39.5273 30.4367 39.2879 30.1371C39.0485 29.8376 38.6097 29.7892 38.3083 30.027L35.8814 31.9452C35.7285 32.0663 35.6265 32.2491 35.6199 32.4584L35.5423 34.3303L33.0312 35.7707V29.3727C35.5689 29.0335 37.5237 26.8753 37.5237 24.2611C37.5237 21.4135 35.1987 19.1033 32.3331 19.1033C29.4674 19.1033 27.1424 21.4135 27.1424 24.2611C27.1424 26.8753 29.0994 29.0335 31.6349 29.3727V39.3513L29.3454 37.2811L29.3765 34.0922C29.3787 33.8609 29.2657 33.6539 29.0883 33.5262V33.524L26.6836 31.7952L26.1251 27.5733C26.0763 27.1945 25.7261 26.928 25.3449 26.9765C24.9637 27.0249 24.6956 27.3729 24.7443 27.7517L25.1898 31.1191L21.4708 29.6964C21.1117 29.5598 20.7106 29.7382 20.5732 30.095C20.4357 30.4518 20.6153 30.8504 20.9743 30.9869L25.6907 32.7906L27.9802 34.4358L27.9647 36.0303L27.4771 35.5898C27.3308 35.4576 27.1424 35.3982 26.9607 35.4114L23.1818 35.4224C22.7984 35.4224 22.4858 35.7307 22.4858 36.114C22.4858 36.495 22.7961 36.8055 23.1818 36.8055L26.7368 36.7945L31.6327 41.2212L31.6349 48.5421Z" fill="#018E47"/>
</svg>
