<svg width="60" height="60" viewBox="0 0 60 60" fill="none" xmlns="http://www.w3.org/2000/svg">
<circle cx="30" cy="30" r="29" stroke="#018E47" stroke-width="2"/>
<path fill-rule="evenodd" clip-rule="evenodd" d="M18.8443 22.8696V18.638C18.8443 18.4348 19.0112 18.2695 19.2162 18.2695H22.2369L22.2356 14.5821C22.2356 14.379 22.4025 14.2136 22.6074 14.2136H35.5484C35.6587 14.2136 35.7533 14.2592 35.8203 14.3334L40.6044 18.8101C40.6859 18.8869 40.7253 18.9924 40.7214 19.0978L40.7858 29.7815L40.9171 29.6943C41.0656 29.5927 41.268 29.6135 41.3915 29.7359L42.4755 30.8102C42.6095 30.943 42.62 31.1539 42.5044 31.3011L41.8461 32.2516C41.8632 32.2907 41.8816 32.3284 41.8987 32.3675C41.9158 32.4066 41.9302 32.4443 41.9447 32.4873L43.1101 32.7008C43.2941 32.736 43.4215 32.8974 43.4149 33.0758V34.581C43.4149 34.7633 43.2835 34.9104 43.1101 34.943L41.9447 35.1565C41.9302 35.1956 41.9131 35.2373 41.8987 35.2763C41.8816 35.3154 41.8672 35.3531 41.8461 35.3922L42.5189 36.3636C42.6213 36.5146 42.6003 36.7112 42.4768 36.8336L41.3928 37.9079C41.2588 38.0407 41.046 38.0511 40.8974 37.9365L39.9383 37.2842C39.8989 37.3011 39.8608 37.3193 39.8213 37.3337C39.7819 37.348 39.7438 37.3649 39.7004 37.3792L39.485 38.5342C39.4495 38.7165 39.2866 38.8428 39.1066 38.8363H37.5877C37.5272 38.8363 37.4707 38.8219 37.4182 38.7972L37.4353 45.2569C37.4353 45.46 37.2684 45.6254 37.0673 45.6254L19.2192 45.7829C19.0142 45.7829 18.8474 45.6215 18.8434 45.4183V34.882L18.2666 33.8924C18.2666 33.8924 18.2561 33.8755 18.2522 33.8637L17.6084 32.4991C17.5834 32.4471 17.5729 32.3898 17.5729 32.3377L17.5834 23.236C17.5834 23.0329 17.7503 22.8675 17.9552 22.8675H18.8408L18.8443 22.8696ZM38.3575 31.6626C37.7557 31.6626 37.2144 31.9048 36.8176 32.2941C36.4247 32.6835 36.1803 33.2238 36.1803 33.8202C36.1803 34.4165 36.4247 34.953 36.8176 35.3462C37.2104 35.7355 37.7557 35.9777 38.3575 35.9777C38.9592 35.9777 39.5006 35.7355 39.8974 35.3462C40.2902 34.9569 40.5346 34.4165 40.5346 33.8202C40.5346 33.2238 40.2902 32.6874 39.8974 32.2941C39.5045 31.9048 38.9592 31.6626 38.3575 31.6626ZM39.3666 32.8176C39.1077 32.561 38.7503 32.4035 38.3535 32.4035C37.9567 32.4035 37.6033 32.561 37.3405 32.8176C37.0817 33.0741 36.9227 33.4282 36.9227 33.8215C36.9227 34.2147 37.0817 34.565 37.3405 34.8254C37.5993 35.0819 37.9567 35.2394 38.3535 35.2394C38.7503 35.2394 39.1038 35.0819 39.3666 34.8254C39.6254 34.5688 39.7844 34.2147 39.7844 33.8215C39.7844 33.4282 39.6254 33.078 39.3666 32.8176ZM40.0524 30.2811L39.9854 19.3124H35.5521C35.3472 19.3124 35.1803 19.1471 35.1803 18.9439V14.9506H22.9871V18.267H32.1608C32.2711 18.267 32.3657 18.3126 32.4327 18.3868L37.2168 22.8634C37.2983 22.9403 37.3377 23.0457 37.3338 23.1512L37.3693 28.8699C37.4336 28.8243 37.5072 28.7996 37.5887 28.7996H39.122C39.3165 28.7996 39.4755 28.9428 39.4939 29.1329L39.7067 30.2592C39.7462 30.2735 39.7882 30.2904 39.8276 30.3048C39.867 30.3217 39.9051 30.3399 39.9446 30.3569L40.0549 30.2826L40.0524 30.2811ZM36.6363 30.2629L36.5943 23.3645H32.161C31.956 23.3645 31.7892 23.1992 31.7892 22.996V19.0064H19.5919V22.8657H20.488C20.693 22.8657 20.8599 23.0311 20.8599 23.2342V23.2654L20.8494 32.3398C20.8494 32.3919 20.8389 32.4452 20.8178 32.4908L20.195 33.8554C20.1845 33.8763 20.174 33.8945 20.1635 33.9114L19.5893 34.8945V45.0415L36.6914 44.8904L36.6704 37.3434L35.7848 37.9437C35.6324 38.0453 35.434 38.0244 35.3105 37.902L34.2265 36.8278C34.0924 36.695 34.0819 36.4841 34.1976 36.3369L34.8558 35.3864C34.8387 35.3473 34.8203 35.3095 34.8059 35.2705C34.7888 35.2314 34.7744 35.1937 34.7599 35.1507L33.5945 34.9371C33.4105 34.902 33.2831 34.7405 33.2896 34.5621V33.0569C33.2896 32.8747 33.421 32.7275 33.5945 32.695L34.7599 32.4814C34.7744 32.4398 34.7914 32.4007 34.8059 32.3616C34.823 32.3226 34.8374 32.2848 34.8584 32.2458L34.1857 31.2744C34.0832 31.1273 34.1043 30.9267 34.2278 30.8043L35.3118 29.7301C35.4458 29.5973 35.6586 29.5869 35.8071 29.7014L36.6323 30.2626L36.6363 30.2629ZM39.5401 30.9855C39.4481 30.9465 39.3601 30.9152 39.2707 30.8879C39.1433 30.8488 39.0408 30.7407 39.0119 30.6001L38.8135 29.5337H37.9003L37.7019 30.5897C37.6809 30.7264 37.585 30.8423 37.4431 30.8879C37.3551 30.9165 37.2631 30.9478 37.1737 30.9855C37.0857 31.0207 37.0003 31.0598 36.9188 31.1053C36.7979 31.1717 36.6469 31.1691 36.526 31.0884L35.6233 30.4738L34.9795 31.1118L35.5996 32.0064C35.6745 32.1157 35.6877 32.2629 35.6207 32.3853C35.5747 32.4699 35.5353 32.5532 35.4972 32.6444C35.4577 32.7355 35.4262 32.8228 35.3986 32.9113C35.3592 33.0376 35.2501 33.1392 35.1082 33.1678L34.0321 33.3683V34.2733L35.0977 34.4699C35.2357 34.4907 35.3526 34.5858 35.3986 34.7264C35.4275 34.8136 35.4591 34.9048 35.4972 34.9933C35.5327 35.0806 35.5721 35.1652 35.6141 35.2459C35.6811 35.3657 35.6785 35.5155 35.597 35.6353L34.9768 36.5298L35.6207 37.1717L36.5233 36.5571C36.6337 36.4829 36.7822 36.4699 36.9057 36.5363C36.9911 36.5819 37.0752 36.6209 37.1672 36.6587C37.2591 36.6978 37.3472 36.729 37.4365 36.7564C37.564 36.7954 37.6664 36.9035 37.6954 37.0441L37.8977 38.1105H38.8109L39.0093 37.0545C39.0303 36.9178 39.1262 36.8019 39.2681 36.7563C39.3561 36.7277 39.4481 36.6964 39.5375 36.6587C39.6255 36.6235 39.7109 36.5845 39.7924 36.5428C39.9132 36.4764 40.0643 36.479 40.1852 36.5597L41.0879 37.1743L41.7317 36.5324L41.1115 35.6379C41.0366 35.5285 41.0235 35.3813 41.0905 35.259C41.1365 35.1743 41.1759 35.091 41.214 34.9998C41.2534 34.9087 41.285 34.8215 41.3126 34.7329C41.352 34.6066 41.461 34.5051 41.6029 34.4764L42.679 34.2759V33.371L41.6134 33.1743C41.4755 33.1535 41.3585 33.0584 41.3126 32.9178C41.2836 32.8306 41.2521 32.7394 41.214 32.6509C41.1785 32.5637 41.1391 32.479 41.0971 32.3983C41.0301 32.2785 41.0327 32.1288 41.1141 32.009L41.7343 31.1144L41.0905 30.4764L40.1878 31.091C40.0775 31.1652 39.929 31.1782 39.8055 31.1118C39.7201 31.0663 39.636 31.0272 39.544 30.9894L39.5401 30.9855ZM23.1501 39.1652H33.7862C33.9912 39.1652 34.1581 38.9998 34.1581 38.7967C34.1581 38.5936 33.9912 38.4282 33.7862 38.4282H23.1501C22.9451 38.4282 22.7782 38.5936 22.7782 38.7967C22.7782 38.9998 22.9451 39.1652 23.1501 39.1652ZM23.1501 35.8774H33.7862C33.9912 35.8774 34.1581 35.7121 34.1581 35.5089C34.1581 35.3058 33.9912 35.1404 33.7862 35.1404H23.1501C22.9451 35.1404 22.7782 35.3058 22.7782 35.5089C22.7782 35.7121 22.9451 35.8774 23.1501 35.8774ZM23.1501 32.5897H33.7862C33.9912 32.5897 34.1581 32.4243 34.1581 32.2212C34.1581 32.018 33.9912 31.8527 33.7862 31.8527H23.1501C22.9451 31.8527 22.7782 32.018 22.7782 32.2212C22.7782 32.4243 22.9451 32.5897 23.1501 32.5897ZM23.1501 29.3019H33.7862C33.9912 29.3019 34.1581 29.1365 34.1581 28.9334C34.1581 28.7303 33.9912 28.5649 33.7862 28.5649H23.1501C22.9451 28.5649 22.7782 28.7303 22.7782 28.9334C22.7782 29.1365 22.9451 29.3019 23.1501 29.3019ZM23.1501 26.0141H33.7862C33.9912 26.0141 34.1581 25.8488 34.1581 25.6456C34.1581 25.4425 33.9912 25.2771 33.7862 25.2771H23.1501C22.9451 25.2771 22.7782 25.4425 22.7782 25.6456C22.7782 25.8488 22.9451 26.0141 23.1501 26.0141ZM18.3266 25.7537H20.1109V25.1261H18.3266V25.7537ZM20.1123 26.4946H18.328L18.3214 31.5999H20.1057L20.1123 26.4946ZM18.3306 24.3826H20.1149V23.6066H18.3306V24.3826ZM20.0728 32.337H18.3555L18.9218 33.5401L19.2227 34.0557L19.5197 33.5466L20.0715 32.3331L20.0728 32.337ZM39.2772 18.5713L35.928 15.4385V18.5713H39.2772ZM35.8819 22.6273L32.5328 19.4945V22.6273H35.8819Z" fill="#018E47"/>
</svg>
