<svg width="60" height="60" viewBox="0 0 60 60" fill="none" xmlns="http://www.w3.org/2000/svg">
<circle cx="30" cy="30" r="29" stroke="#018E47" stroke-width="2"/>
<path d="M18.3672 13.4647L17.3421 14.9584L23.0608 18.5683C26.5682 20.787 28.9333 22.2368 29.1823 22.3174C29.6582 22.4784 30.2147 22.4492 30.7639 22.2295C31.606 21.9073 32.4627 21.9952 33.1803 22.4784C33.8612 22.9471 34.1761 23.5329 34.22 24.4189C34.264 25.3049 34.0955 25.7222 33.4146 26.4105C32.8654 26.9743 32.7556 27.1501 32.5432 27.7725C32.3309 28.3802 32.0673 28.7829 31.6719 29.0978C30.5369 29.9984 28.8601 29.7495 28.0473 28.5633C27.8789 28.307 27.7325 27.9555 27.608 27.4576C27.5055 27.0622 27.3297 26.5643 27.2199 26.3666C26.7806 25.5465 26.4437 25.2975 22.5922 22.8738C15.658 18.5098 15.1161 18.1729 15.0942 18.2022C14.9111 18.3999 13 21.2337 13 21.3069C13 21.424 14.3986 22.7128 15.4017 23.5182C17.9865 25.6051 21.8673 27.8603 25.5504 29.4346C26.2607 29.7422 26.5829 29.9179 26.6341 30.0277C26.6927 30.1595 26.6048 30.3938 26.1216 31.3824C24.95 33.7475 24.6132 35.4023 24.8987 37.3793C25.1916 39.4149 24.8182 42.3292 23.8443 45.7267C23.6906 46.2686 23.5807 46.7226 23.61 46.7299C23.7125 46.7665 27.5201 47.2717 27.5348 47.2498C27.5421 47.2351 27.9228 44.9872 28.3768 42.2486C29.2628 36.918 29.2775 36.7203 28.9919 35.9881C28.926 35.805 28.7429 35.4755 28.5818 35.2559C28.04 34.487 27.9009 34.1136 27.9009 33.4619C27.9082 32.715 28.0986 32.2464 28.6038 31.7778C29.1383 31.2798 29.5337 31.1188 30.244 31.1188C30.7566 31.1188 30.8957 31.148 31.3424 31.3604C31.6499 31.5068 32.0453 31.624 32.3528 31.6679C32.9459 31.7411 33.0192 31.7851 34.0662 32.715C35.0108 33.5498 35.1866 33.828 35.1866 34.4724C35.1866 35.0728 35.0548 35.3218 34.3665 36.0174C33.6416 36.7496 33.151 37.5331 32.8507 38.4411C32.7043 38.9024 32.4261 40.3741 31.9208 43.3982C31.5327 45.7707 31.2252 47.7184 31.2398 47.7404C31.2911 47.7843 36.0213 48.4287 36.0579 48.3921C36.0726 48.3774 36.878 44.438 37.8446 39.6346C39.5653 31.0675 39.5946 30.8771 39.6312 29.8007C39.6605 28.9733 39.6385 28.5267 39.5506 28.0068C39.1406 25.6636 37.7713 23.4523 35.9041 22.127C35.5893 21.9 20.5859 12.6812 19.4363 12.0002C19.4143 11.9856 18.9311 12.6519 18.3672 13.4647ZM36.2703 27.1794C36.5924 27.4137 38.0349 29.3101 38.1228 29.6177C38.2766 30.1156 38.0496 30.6867 37.581 31.0382C37.3832 31.1773 37.2881 31.192 36.2776 31.1773C34.0223 31.1407 33.5537 30.965 33.3487 30.057C33.2535 29.6543 33.3926 29.3101 34.0443 28.307C34.5935 27.4649 34.8644 27.1647 35.1866 27.0329C35.4062 26.9377 36.0726 27.0256 36.2703 27.1794Z" fill="#018E47"/>
<path d="M35.3184 27.8751C35.1719 27.9922 34.1907 29.5226 34.1321 29.7423C34.0955 29.8448 34.1321 29.9546 34.2493 30.0864C34.4104 30.2695 34.4617 30.2768 35.6405 30.3573C36.9659 30.4525 37.1929 30.4306 37.3173 30.1962C37.4418 29.9546 37.354 29.7789 36.651 28.8489C35.9188 27.8897 35.8163 27.7872 35.5893 27.7872C35.5014 27.7872 35.3843 27.8311 35.3184 27.8751Z" fill="#018E47"/>
<path d="M16.2072 16.5766L15.5701 17.5138L21.1497 21.0212C27.3297 24.9094 27.359 24.9313 27.9228 26.015C28.0913 26.3372 28.289 26.8571 28.3695 27.1793C28.5818 28.0872 28.8454 28.4533 29.4386 28.7096C30.3905 29.1124 31.4815 28.5559 31.7817 27.5234C31.9501 26.9303 32.2064 26.5129 32.7336 25.9564C33.312 25.356 33.4439 25.0924 33.4439 24.5725C33.4439 23.8696 33.1217 23.3204 32.5359 23.0202C32.0599 22.7786 31.7085 22.7712 31.0128 22.9982C30.2733 23.2472 29.358 23.2765 28.8308 23.0788C28.6551 23.0129 25.9239 21.3214 22.7606 19.3224C19.5974 17.3308 16.9687 15.6833 16.9248 15.6613C16.8808 15.6466 16.5586 16.0567 16.2072 16.5766Z" fill="#018E47"/>
<path d="M43.7024 21.3215C42.5235 22.2221 41.2494 23.3058 41.2201 23.4376C41.1542 23.6939 41.308 23.9062 41.557 23.9062C41.718 23.9062 42.0402 23.6866 42.9262 22.9836C44.5957 21.651 44.7202 21.5045 44.4127 21.197C44.2076 20.992 44.1124 21.0139 43.7024 21.3215Z" fill="#018E47"/>
<path d="M43.988 24.9096C42.2819 25.4807 42.1574 25.5539 42.2453 25.9274C42.3331 26.2642 42.5748 26.2349 44.3028 25.6638C45.1888 25.3709 45.9577 25.1 46.0089 25.056C46.2286 24.8803 46.0089 24.3384 45.7233 24.3531C45.6648 24.3531 44.8886 24.602 43.988 24.9096Z" fill="#018E47"/>
<path d="M42.5089 28.0797C42.3258 28.2627 42.3258 28.3872 42.4942 28.5849C42.604 28.724 42.8018 28.7607 44.3614 28.9217C46.1847 29.1195 46.3311 29.1121 46.4263 28.8119C46.4702 28.6655 46.3018 28.2994 46.1847 28.2994C46.1554 28.2994 45.3646 28.2188 44.4273 28.1163C43.49 28.0138 42.7066 27.9332 42.6846 27.9332C42.6699 27.9332 42.5894 27.9991 42.5089 28.0797Z" fill="#018E47"/>
<path d="M29.5484 32.0853C28.5965 32.5832 28.4061 33.6815 29.1237 34.5748C29.6509 35.2338 29.9877 36.2004 29.9877 37.0717C29.9877 37.3207 29.6289 39.6785 29.1823 42.3072C28.7429 44.9359 28.3768 47.1545 28.3768 47.2424C28.3768 47.3815 28.4574 47.4035 29.3653 47.5207C29.9145 47.5939 30.3685 47.6378 30.3831 47.6232C30.3978 47.6085 30.7273 45.6828 31.1154 43.3469C31.8696 38.8437 32.0233 38.1335 32.448 37.2914C32.8215 36.5445 33.0631 36.2077 33.766 35.4682C34.3591 34.8458 34.3811 34.8092 34.3811 34.4723C34.3811 34.1282 34.3738 34.1135 33.7441 33.5131C32.7922 32.6051 32.697 32.5392 32.0892 32.4367C31.7963 32.3855 31.357 32.2537 31.1154 32.1365C30.4856 31.8363 30.0463 31.8217 29.5484 32.0853Z" fill="#018E47"/>
</svg>
