<svg width="60" height="60" viewBox="0 0 60 60" fill="none" xmlns="http://www.w3.org/2000/svg">
<circle cx="30" cy="30" r="29" stroke="#018E47" stroke-width="2"/>
<path d="M16.8795 12.0958C14.5031 12.6213 12.8655 14.3808 12.18 17.1305C11.9362 18.0826 11.9438 20.0401 12.18 21.1598C12.7893 24.0009 14.366 26.6592 16.8872 29.1118C18.8142 30.9779 20.8784 32.4403 23.7195 33.9408L24.6716 34.4512L25.5094 34.0322L26.3396 33.6209V32.1433C26.3396 31.3359 26.3625 30.46 26.393 30.201L26.4539 29.7287L26.1949 29.8049C26.0578 29.8506 25.5323 29.9039 25.0296 29.9268C23.4986 30.0029 22.2189 29.645 20.9545 28.7995C19.4845 27.8169 18.4334 26.2631 18.0906 24.5493C17.9002 23.5896 17.9688 22.1348 18.2506 21.2664C19.0199 18.8443 20.9241 17.1153 23.3538 16.6126C26.8728 15.889 30.2928 18.0217 31.2449 21.533C31.481 22.4013 31.481 24.0161 31.2525 24.8844C30.7803 26.6287 29.6758 28.0911 28.0763 29.0661L27.6193 29.3479L28.1525 29.3022C29.7596 29.1499 31.6029 28.6243 33.1796 27.855L34.1697 27.3751L34.6268 26.7582C36.0206 24.8692 36.9347 22.8355 37.3003 20.8094C37.4602 19.9259 37.4602 18.2806 37.3003 17.4352C36.7823 14.7007 35.0685 12.728 32.6769 12.1186C32.098 11.9663 30.5061 11.9891 29.851 12.1491C28.2896 12.5375 26.6291 13.4744 25.22 14.7769L24.7249 15.2339L24.1917 14.7617C22.6683 13.4135 21.2592 12.6061 19.7435 12.1948C18.9513 11.9815 17.5955 11.9358 16.8795 12.0958Z" fill="#018E47"/>
<path d="M23.7042 17.7986C22.516 18.05 21.7086 18.4917 20.8327 19.3601C19.7054 20.4797 19.2027 21.6756 19.2027 23.2447C19.2027 24.8137 19.7054 26.0019 20.8403 27.1369C21.4344 27.731 21.6477 27.8909 22.257 28.1804C23.9784 29.0106 25.974 28.942 27.5507 27.9976C29.851 26.6113 30.8412 23.694 29.851 21.2262C29.4016 20.1141 28.5333 19.0859 27.5431 18.4994C26.6748 17.989 25.9436 17.7834 24.9153 17.7529C24.4354 17.7377 23.887 17.7605 23.7042 17.7986ZM28.4876 20.6625C28.8227 21.0891 28.8227 21.0891 26.2711 23.6331C24.9686 24.9432 23.8185 26.0324 23.7195 26.0629C23.43 26.1314 23.1863 25.941 21.9676 24.7147C20.886 23.6255 20.8022 23.5189 20.8022 23.2599C20.8022 22.8867 21.0155 22.6734 21.3887 22.6734C21.6401 22.6734 21.7467 22.7572 22.6455 23.6407L23.6204 24.6081L25.6998 22.5363C27.6574 20.5788 27.7868 20.4645 28.0534 20.4645C28.2667 20.4645 28.3733 20.5102 28.4876 20.6625Z" fill="#018E47"/>
<path d="M36.7519 27.0401C34.4135 28.9215 31.4048 30.163 28.3886 30.4981L27.604 30.5819L27.5583 31.3512C27.4136 33.9714 27.9849 36.881 29.1122 39.2346C30.6965 42.548 33.1339 45.031 36.2796 46.5544L37.2393 47.019L37.8106 46.7829C40.3318 45.7318 42.9748 43.4087 44.5667 40.8494C45.694 39.029 46.4709 36.8887 46.8061 34.6722C46.9508 33.7201 47.0498 31.6102 46.9736 31.0085L46.9203 30.5743L46.41 30.5286C45.0161 30.3839 43.3023 29.9878 42.1141 29.5308C40.6593 28.9672 38.9684 27.9922 37.8182 27.0553L37.2774 26.6136L36.7519 27.0401ZM39.2426 31.7473C39.4177 31.9377 39.4254 31.9834 39.4482 33.3087L39.4711 34.6722H40.8116C42.6549 34.6722 42.5102 34.4894 42.5102 36.782C42.5102 37.8408 42.4797 38.6253 42.434 38.7091C42.3121 38.9376 41.8704 39.0138 40.6288 39.0138H39.4634V40.2248C39.4634 41.474 39.3949 41.8548 39.1588 41.9843C39.075 42.03 38.2524 42.0605 37.2469 42.0605C34.939 42.0605 35.1219 42.2052 35.1219 40.3772V39.029L33.7432 38.9985L32.3646 38.9757L32.1818 38.7624C31.999 38.5491 31.999 38.5415 31.999 36.7973V35.0454L32.1894 34.8626C32.3722 34.6722 32.3874 34.6722 33.7508 34.6722H35.1219V33.3011C35.1219 31.9377 35.1219 31.9225 35.3123 31.7397L35.4951 31.5493H37.2774H39.0598L39.2426 31.7473Z" fill="#018E47"/>
<path d="M36.3405 34.1294C36.3405 35.4243 36.3329 35.47 36.1577 35.6756L35.9749 35.8889L34.5963 35.9118L33.2176 35.9346V36.8867V37.8312H34.6191H36.0283L36.1806 38.0292C36.3253 38.2197 36.3405 38.3339 36.3405 39.5526V40.8779H37.2927H38.2448V39.5069C38.2448 38.2349 38.2524 38.1283 38.3971 37.9835C38.5418 37.8388 38.6484 37.8312 39.9205 37.8312H41.2915V36.8867V35.9346L39.9128 35.9118C38.1229 35.8813 38.2448 36.0108 38.2448 34.1675V32.8041H37.2927H36.3405V34.1294Z" fill="#018E47"/>
</svg>
