<svg width="60" height="60" viewBox="0 0 60 60" fill="none" xmlns="http://www.w3.org/2000/svg">
<path d="M29.4992 31.8125C31.635 31.8125 33.374 30.0843 33.374 27.9583C33.374 25.8324 31.635 24.1042 29.4992 24.1042C27.3634 24.1042 25.6244 25.8324 25.6244 27.9583C25.6244 30.0843 27.3634 31.8125 29.4992 31.8125ZM14 21.5943V29.5663C14 41.0317 24.9223 46.2918 28.2701 47.63C28.2701 47.63 28.8157 48 29.4961 48C30.1765 48 30.8136 47.5267 30.8136 47.5267C34.1412 45.871 45 39.6827 45 29.5663V21.5943C45 18.2659 42.8658 15.3259 39.69 14.2776L29.9874 11.0786C29.6697 10.9738 29.3287 10.9738 29.011 11.0786L19.31 14.2776C16.1342 15.3259 14 18.2659 14 21.5943ZM22.7121 26.4167C22.8888 25.6458 23.1972 24.929 23.6095 24.2799L22.6455 23.321C22.6052 23.3225 22.5664 23.3333 22.5246 23.3333C21.2412 23.3333 20.1997 22.2973 20.1997 21.0208C20.1997 19.7443 21.2412 18.7083 22.5246 18.7083C23.8079 18.7083 24.8495 19.7443 24.8495 21.0208C24.8495 21.0625 24.8402 21.101 24.8371 21.1411L25.8011 22.1C26.4536 21.6899 27.1759 21.3831 27.9493 21.2074V20.25C27.9493 19.3975 28.6437 18.7083 29.4992 18.7083C30.3548 18.7083 31.0491 19.3975 31.0491 20.25V21.2074C31.8241 21.3831 32.5448 21.6899 33.1973 22.1L34.1614 21.1411C34.1598 21.101 34.149 21.0625 34.149 21.0208C34.149 19.7443 35.1905 18.7083 36.4739 18.7083C37.7572 18.7083 38.7988 19.7443 38.7988 21.0208C38.7988 22.2973 37.7572 23.3333 36.4739 23.3333C36.432 23.3333 36.3933 23.3241 36.353 23.321L35.3889 24.2799C35.8012 24.929 36.1096 25.6474 36.2863 26.4167H37.2488C38.1044 26.4167 38.7988 27.1058 38.7988 27.9583C38.7988 28.8109 38.1044 29.5 37.2488 29.5H36.2863C36.1096 30.2708 35.8012 30.9877 35.3889 31.6367L36.353 32.5957C36.3933 32.5941 36.432 32.5833 36.4739 32.5833C37.7572 32.5833 38.7988 33.6193 38.7988 34.8958C38.7988 36.1723 37.7572 37.2083 36.4739 37.2083C35.1905 37.2083 34.149 36.1723 34.149 34.8958C34.149 34.8542 34.1583 34.8157 34.1614 34.7756L33.1973 33.8167C32.5448 34.2267 31.8226 34.5335 31.0491 34.7093V35.6667C31.0491 36.5192 30.3548 37.2083 29.4992 37.2083C28.6437 37.2083 27.9493 36.5192 27.9493 35.6667V34.7093C27.1743 34.5335 26.4536 34.2267 25.8011 33.8167L24.8371 34.7756C24.8386 34.8157 24.8495 34.8542 24.8495 34.8958C24.8495 36.1723 23.8079 37.2083 22.5246 37.2083C21.2412 37.2083 20.1997 36.1723 20.1997 34.8958C20.1997 33.6193 21.2412 32.5833 22.5246 32.5833C22.5664 32.5833 22.6052 32.5926 22.6455 32.5957L23.6095 31.6367C23.1972 30.9877 22.8888 30.2693 22.7121 29.5H21.7496C20.8941 29.5 20.1997 28.8109 20.1997 27.9583C20.1997 27.1058 20.8941 26.4167 21.7496 26.4167H22.7121Z" fill="#018E47"/>
<circle cx="30" cy="30" r="29" stroke="#018E47" stroke-width="2"/>
</svg>
