<svg width="60" height="60" viewBox="0 0 60 60" fill="none" xmlns="http://www.w3.org/2000/svg">
<circle cx="30" cy="30" r="29" stroke="#018E47" stroke-width="2"/>
<path d="M35.429 15.5073C35.429 18.3964 35.4116 19.0491 35.3072 19.1883C35.1853 19.345 34.9765 19.3537 27.188 19.3972L19.1994 19.4407L18.6076 19.7192C16.7453 20.6068 15.6488 22.8868 16.1536 24.8361C16.5191 26.2545 17.9114 27.5599 19.4778 27.9689C19.9042 28.082 21.401 28.0994 29.9553 28.0994C38.9186 28.0994 39.9542 28.1168 40.076 28.2386C40.2761 28.4301 40.25 28.8565 40.0499 28.9696C39.9368 29.0305 37.4566 29.0567 32.6269 29.0567C24.7079 29.0567 24.7166 29.0567 23.6462 29.5614C23.0283 29.8573 22.1059 30.536 21.8622 30.8667L21.6969 31.1017L22.7151 31.1104C23.5853 31.1104 23.8202 31.1452 24.4207 31.354C26.9182 32.2156 28.5978 34.5217 28.5455 37.0192L28.5281 37.8024L32.2179 37.8111C34.5849 37.8198 36.073 37.8546 36.3601 37.9155C37.387 38.1331 37.9265 38.4986 38.2485 39.1947C38.6401 40.0215 38.7358 41.0135 38.7358 44.4335V47.5054H41.4857H44.2357L44.2008 42.9106C44.1573 37.8198 44.166 37.9068 43.5569 36.6972C42.9303 35.4441 41.4422 34.3128 40.0586 34.0256C39.7888 33.9734 38.5966 33.9299 37.2304 33.9299C35.2201 33.9299 34.8285 33.9125 34.6632 33.7907C34.4282 33.634 34.4108 33.312 34.6284 33.1206C34.7763 32.9901 35.2637 32.9727 39.8845 32.9727C42.9651 32.9727 45.1668 32.9378 45.4453 32.8856C47.0987 32.5724 48.5694 31.1452 48.9087 29.5092C49.4135 27.0813 47.7688 24.6707 45.3495 24.2791C44.9753 24.2182 41.2421 24.1834 34.4544 24.1834H24.1161L23.9769 23.9659C23.8202 23.7309 23.8724 23.4524 24.0987 23.3393C24.177 23.3045 27.0662 23.2523 30.5122 23.2262L36.7778 23.1827L37.2565 22.9564C37.8743 22.6605 38.5531 22.0514 38.849 21.5118C39.3276 20.6242 39.345 20.4153 39.345 16.0294V12.0003H37.387H35.429V15.5073Z" fill="#018E47"/>
<path d="M13.8997 32.1548C12.255 32.5551 10.706 34.0084 10.1838 35.6705C9.94019 36.4276 9.94019 37.5937 10.1751 38.3421C10.5754 39.5952 10.7321 39.7867 14.8743 43.9115C17.0064 46.0349 18.7642 47.7666 18.7991 47.7666C18.8252 47.7579 20.5395 46.0871 22.6019 44.042C27.2924 39.3951 27.4752 39.1427 27.5709 37.2456C27.6318 36.2536 27.5187 35.6792 27.101 34.8003C26.6746 33.904 25.7782 33.0076 24.8819 32.5812C24.1857 32.2505 23.2633 32.0156 22.6367 32.0156C21.5925 32.0156 20.3393 32.4855 19.4691 33.1904C19.2081 33.4079 18.9122 33.582 18.8165 33.582C18.712 33.582 18.39 33.3818 18.0942 33.1469C16.8498 32.1374 15.3878 31.798 13.8997 32.1548ZM19.1384 34.9917C19.2168 35.0701 19.2429 35.5835 19.2429 36.7757V38.4552H20.8354C22.5584 38.4552 22.8369 38.5161 22.8804 38.8903C22.9239 39.3516 22.863 39.369 21.0094 39.4125L19.2864 39.456L19.2429 41.179C19.1994 42.9717 19.1732 43.0674 18.8078 43.0674C18.4423 43.0674 18.4162 42.9717 18.3726 41.179L18.3291 39.456L16.6061 39.4125C15.205 39.3777 14.8656 39.3428 14.8047 39.2384C14.6829 39.0557 14.7003 38.8642 14.8395 38.6641C14.9527 38.5161 15.1006 38.4987 16.667 38.4726L18.3726 38.4465V36.767C18.3726 34.9743 18.39 34.8873 18.8078 34.8873C18.9296 34.8873 19.0775 34.9308 19.1384 34.9917Z" fill="#018E47"/>
</svg>
