<svg width="60" height="60" viewBox="0 0 60 60" fill="none" xmlns="http://www.w3.org/2000/svg">
<circle cx="30" cy="30" r="29" stroke="#018E47" stroke-width="2"/>
<path d="M30.0015 36.7456C32.0698 36.7456 33.7512 35.0629 33.7512 32.9963C33.7512 30.9296 32.0698 29.2469 30.0015 29.2469C27.9332 29.2469 26.2518 30.9296 26.2518 32.9963C26.2518 35.0629 27.9332 36.7456 30.0015 36.7456ZM28.5016 12H31.5014V17.9989H28.5016V12ZM12.7154 35.7393L15.4677 23.8119C16.2581 20.3895 19.2624 18.0004 22.7751 18.0004L28.5016 17.9989V20.9999H31.5014V17.9989L37.2279 18.0004C40.7406 18.0004 43.7449 20.391 44.5353 23.8134L47.2876 35.7378C47.7585 37.7834 48 39.8876 48 41.9902C48 43.5949 47.3776 45.1006 46.2451 46.2299C45.1232 47.3517 43.5799 47.9936 42.0065 47.9936H41.9975C41.3571 47.9936 40.7181 47.8886 40.1032 47.6817L37.6539 46.8658C34.3601 45.768 32.0488 42.9035 31.5959 39.5336C32.3083 39.3596 32.9758 39.0762 33.5787 38.6953L34.5116 39.6281C34.5101 39.6671 34.4996 39.7046 34.4996 39.7451C34.4996 40.9869 35.5075 41.9947 36.7494 41.9947C37.9913 41.9947 38.9993 40.9869 38.9993 39.7451C38.9993 38.5033 37.9913 37.4955 36.7494 37.4955C36.7089 37.4955 36.6714 37.5045 36.6324 37.5075L35.6995 36.5746C36.0985 35.9433 36.397 35.2444 36.568 34.496H38.9993V31.4965H36.568C36.397 30.7467 36.0985 30.0493 35.6995 29.4179L36.6324 28.4851C36.6714 28.4866 36.7089 28.4971 36.7494 28.4971C37.9913 28.4971 38.9993 27.4893 38.9993 26.2475C38.9993 25.0057 37.9913 23.9979 36.7494 23.9979C35.5075 23.9979 34.4996 25.0057 34.4996 26.2475C34.4996 26.288 34.5086 26.3255 34.5116 26.3645L33.5787 27.2973C32.9473 26.8984 32.2483 26.5999 31.4999 26.4289V23.9979H28.5001V26.4289C27.7502 26.5999 27.0527 26.8984 26.4213 27.2973L25.4884 26.3645C25.4899 26.3255 25.5004 26.288 25.5004 26.2475C25.5004 25.0057 24.4925 23.9979 23.2506 23.9979C22.0087 23.9979 21.0008 25.0057 21.0008 26.2475C21.0008 27.4893 22.0087 28.4971 23.2506 28.4971C23.2911 28.4971 23.3286 28.4881 23.3676 28.4851L24.3005 29.4179C23.9015 30.0493 23.603 30.7482 23.432 31.4965H21.0008V34.496H23.432C23.603 35.2459 23.9015 35.9433 24.3005 36.5746L23.3676 37.5075C23.3286 37.506 23.2911 37.4955 23.2506 37.4955C22.0087 37.4955 21.0008 38.5033 21.0008 39.7451C21.0008 40.9869 22.0087 41.9947 23.2506 41.9947C24.4925 41.9947 25.5004 40.9869 25.5004 39.7451C25.5004 39.7046 25.4914 39.6671 25.4884 39.6281L26.4213 38.6953C27.0257 39.0762 27.6917 39.3596 28.4041 39.5336C27.9512 42.9035 25.6399 45.768 22.3461 46.8658L19.8968 47.6817C19.2789 47.8886 18.589 48.0326 17.9935 47.9936C16.4201 47.9936 14.8768 47.3517 13.7549 46.2299C12.6224 45.1006 12 43.5949 12 41.9902C12 39.8876 12.24 37.7834 12.7124 35.7378L12.7154 35.7393Z" fill="#018E47"/>
</svg>
