<svg width="60" height="60" viewBox="0 0 60 60" fill="none" xmlns="http://www.w3.org/2000/svg">
<circle cx="30" cy="30" r="29" stroke="#018E47" stroke-width="2"/>
<path d="M45.013 13.0352C44.2255 13.2205 43.6775 14.1237 43.9168 14.8647C43.9708 15.0269 44.102 15.2739 44.2101 15.4206L44.4031 15.6753L43.6311 17.4663L42.8592 19.2495L41.1145 19.2727C40.1496 19.2804 39.3622 19.3035 39.3622 19.319C39.3622 19.3344 39.4548 19.5042 39.5629 19.705L39.7636 20.0601H41.4079C42.3188 20.0601 43.1371 20.0292 43.2374 19.9906C43.3764 19.9365 43.5848 19.5197 44.2641 17.9449C45.1056 15.9764 45.1133 15.9686 45.3526 15.9686C45.4761 15.9686 45.7695 15.876 45.9856 15.7679C46.5106 15.5055 46.7962 15.05 46.7962 14.471C46.7962 14.0001 46.6495 13.6836 46.2713 13.3594C45.9239 13.0506 45.4607 12.9348 45.013 13.0352Z" fill="#018E47"/>
<path d="M25.4359 13.2282C20.0399 14.1082 15.825 18.1456 14.7288 23.4799C14.6439 23.9122 14.5512 24.6532 14.5281 25.1319L14.4818 25.9965L12.7448 29.3391C11.1778 32.3497 11.0079 32.7203 11.0002 33.0676C10.9925 33.5463 11.2086 33.8859 11.6718 34.1252C11.9574 34.2719 12.1504 34.2951 13.2466 34.326L14.4972 34.3568L14.5204 37.0355L14.5435 39.7065L14.806 40.2469C15.1456 40.9417 15.7015 41.4975 16.3885 41.8294C16.9134 42.0919 16.9598 42.0996 18.1254 42.1382C19.4223 42.1923 19.6385 42.2463 20.0245 42.6632C20.3255 42.9874 20.4336 43.3734 20.6729 44.9868C20.8659 46.2991 20.9122 46.5076 21.0666 46.6311C21.2287 46.7623 21.5916 46.77 27.8213 46.77C31.6657 46.77 34.4911 46.7391 34.5992 46.7005C34.6995 46.6619 34.8076 46.577 34.8307 46.5076C34.8539 46.4458 34.7613 45.0254 34.6146 43.3579C34.4679 41.6905 34.3444 40.0076 34.3444 39.6293C34.3444 37.9773 34.8848 36.8812 36.5599 35.0979C37.0617 34.573 37.6947 33.8242 37.9572 33.4459L38.4513 32.7589L36.5445 32.7357L34.6378 32.7203L34.1283 33.1912C33.5261 33.7547 33.1324 33.9554 32.6075 33.9554C32.1057 33.9554 31.7274 33.7701 31.0481 33.1912C30.7471 32.9364 30.4614 32.7203 30.4151 32.7203C30.3765 32.7203 30.3225 32.9133 30.2993 33.1448C30.2762 33.3764 30.2298 33.7701 30.2067 34.0094C30.1295 34.7274 29.8053 35.2137 29.1722 35.5457C28.9407 35.6692 28.7245 35.6923 27.5897 35.6923C26.3777 35.6923 26.2542 35.6769 25.9532 35.5225C25.5672 35.3141 25.2121 34.8972 25.0963 34.5112C25.0422 34.3491 24.9805 33.9168 24.9573 33.554C24.9264 33.1834 24.8801 32.8438 24.8415 32.7897C24.8029 32.7203 24.6099 32.8438 24.1776 33.1989C23.4057 33.8473 23.1355 33.9786 22.6105 33.9863C22.0007 33.994 21.5761 33.7547 20.7733 32.9596C19.3606 31.57 19.2679 30.883 20.3024 29.6015C20.5957 29.2387 20.835 28.9068 20.835 28.8604C20.835 28.7678 20.642 28.7292 19.8932 28.6675C18.8511 28.5903 18.3879 28.3278 18.0791 27.6562C17.9324 27.3397 17.8861 27.0618 17.8475 26.4519C17.7394 24.4139 18.2026 23.6188 19.5767 23.449C19.9087 23.4027 20.3255 23.3563 20.5108 23.3332C20.6884 23.31 20.835 23.2637 20.835 23.2251C20.835 23.1942 20.6266 22.9086 20.3641 22.5998C19.7388 21.851 19.5999 21.5577 19.5999 21.0096C19.5999 20.4074 19.8546 19.9751 20.727 19.1105C22.0702 17.775 22.7572 17.721 24.0927 18.8172C24.4092 19.0797 24.7026 19.2881 24.7412 19.2881C24.7875 19.2881 24.857 18.8867 24.9033 18.4003C24.9728 17.6901 25.0268 17.4508 25.1812 17.1806C25.6058 16.455 26.2697 16.2388 27.8599 16.2929C28.9715 16.3315 29.288 16.4473 29.7358 16.9799C30.0368 17.3273 30.1295 17.6438 30.2144 18.6551C30.2453 18.9561 30.2993 19.234 30.3379 19.2572C30.3765 19.2726 30.6699 19.0719 30.9864 18.794C31.7197 18.1687 32.0208 18.0298 32.5766 18.0298C33.1247 18.0375 33.4644 18.2073 34.1283 18.8172L34.6378 19.2881H36.4982C37.5481 19.2881 38.3586 19.2572 38.3586 19.2186C38.3586 19.1105 37.8568 18.3849 37.3859 17.8136C35.5487 15.5672 32.9086 13.9692 29.9828 13.344C28.9638 13.1201 26.4704 13.0583 25.4359 13.2282Z" fill="#018E47"/>
<path d="M26.509 17.1188C25.8991 17.2732 25.737 17.5588 25.6598 18.5932C25.5903 19.4733 25.4823 19.7743 25.1657 19.9365C24.7103 20.1758 24.4478 20.1063 23.8071 19.5736C23.0274 18.9406 22.8421 18.8248 22.5951 18.8248C22.2323 18.8248 21.9853 18.9715 21.3908 19.5427C20.588 20.3224 20.3718 20.6312 20.3718 21.0172C20.3718 21.3646 20.449 21.5035 20.9894 22.1443C21.5298 22.785 21.607 22.924 21.607 23.2482C21.607 23.4875 21.553 23.6033 21.3445 23.8117C21.1979 23.9584 21.0203 24.0742 20.9431 24.0742C20.8582 24.0742 20.4722 24.1128 20.0785 24.1514C18.7662 24.2903 18.6349 24.4602 18.6349 26.0427C18.6426 27.6638 18.743 27.7796 20.2175 27.934C20.7038 27.9803 21.1515 28.0575 21.221 28.1116C21.4989 28.32 21.607 28.5207 21.607 28.8604C21.607 29.1769 21.5607 29.2695 21.0975 29.8253C20.4645 30.5973 20.3333 30.8443 20.4027 31.1994C20.4876 31.6394 21.6996 32.9132 22.2554 33.1448C22.6569 33.3146 22.9888 33.2065 23.5292 32.7356C24.4633 31.9251 24.7489 31.817 25.2121 32.1026C25.5594 32.311 25.6135 32.45 25.7061 33.3918C25.8451 34.7659 25.9917 34.9048 27.2964 34.9512C28.4929 34.9898 28.8326 34.928 29.1414 34.6192C29.3961 34.3645 29.4193 34.2873 29.5273 33.029C29.5737 32.5118 29.6045 32.4268 29.8284 32.203C30.0291 32.0023 30.1449 31.9482 30.3842 31.9482C30.7162 31.9482 30.8165 32.01 31.6039 32.6507C32.5457 33.4227 32.8159 33.3918 33.8426 32.3882C35.0083 31.2457 35.0546 30.9447 34.19 29.918C33.5338 29.1537 33.418 28.8526 33.611 28.4435C33.7963 28.0575 34.0125 27.9649 34.9929 27.8645C35.9115 27.7719 36.1199 27.687 36.3515 27.2933C36.4827 27.0848 36.5059 26.8996 36.5059 26.0195C36.5059 24.4679 36.3284 24.2054 35.2013 24.1128C34.2363 24.0356 34.0433 23.9893 33.804 23.7886C33.5647 23.5878 33.4412 23.2019 33.5338 22.9162C33.5647 22.8236 33.804 22.4839 34.0665 22.1597C34.6686 21.4186 34.7304 21.3028 34.7304 20.9168C34.7304 20.6467 34.6686 20.5309 34.329 20.1294C33.7577 19.4578 33.0938 18.902 32.785 18.8325C32.3836 18.7399 32.1057 18.8634 31.4881 19.3884C31.1716 19.6585 30.832 19.921 30.7393 19.9673C30.3379 20.1835 29.7358 19.9596 29.5737 19.5505C29.5273 19.427 29.4579 18.9715 29.4193 18.5392C29.3035 17.25 29.1259 17.0956 27.7055 17.0725C27.1729 17.0647 26.6402 17.0879 26.509 17.1188ZM28.6627 21.5267C30.7702 22.0671 32.1829 23.858 32.1829 26.0041C32.1829 27.8028 31.2102 29.3621 29.5968 30.1341C29.2186 30.3194 28.6936 30.5124 28.4466 30.551C26.1307 30.9678 23.9074 29.6478 23.1741 27.4322C23.0042 26.9227 22.9734 26.668 22.9656 26.0041C22.9656 25.2939 22.9965 25.1086 23.1972 24.5374C23.4829 23.7191 23.8766 23.1169 24.471 22.5766C25.6135 21.5499 27.196 21.1484 28.6627 21.5267Z" fill="#018E47"/>
<path d="M26.7869 22.2295C26.1539 22.353 25.3356 22.8007 24.8415 23.2948C23.3362 24.8001 23.3516 27.2472 24.8724 28.7371C26.3932 30.227 28.7863 30.2347 30.253 28.7526C31.7892 27.2009 31.8124 24.8927 30.3148 23.3334C29.3961 22.3761 28.0992 21.9747 26.7869 22.2295ZM30.2144 24.2443C30.3225 24.2906 30.4305 24.4064 30.4537 24.5067C30.5618 24.939 30.5155 24.9931 28.4466 26.4521C27.3427 27.2241 26.3623 27.8802 26.2619 27.9034C26.1616 27.9343 26.0303 27.9034 25.9532 27.8494C25.7216 27.6486 24.4633 25.7033 24.4633 25.5257C24.4633 25.3173 24.7489 25.0008 24.9419 25.0008C25.2198 25.0008 25.3896 25.1629 25.8605 25.8577C26.1693 26.3209 26.3623 26.5447 26.4395 26.5139C26.4935 26.4907 27.2501 25.9735 28.1147 25.3636C29.9751 24.0436 29.8825 24.0899 30.2144 24.2443Z" fill="#018E47"/>
<path d="M35.3943 20.3307C35.5487 20.7012 35.5332 21.3574 35.3634 21.6971C35.2862 21.8437 35.0006 22.2374 34.7304 22.5617C34.3676 23.0017 34.2672 23.1792 34.3367 23.2178C34.3907 23.2564 34.769 23.3105 35.1781 23.3336C36.089 23.4031 36.421 23.5343 36.807 23.9666C37.1235 24.3295 37.2779 24.7695 37.2779 25.3021V25.6187H38.7909H40.3117L40.2654 24.9393C40.1805 23.6193 39.7559 21.9673 39.1923 20.7321L38.8758 20.0605H37.0772H35.2785L35.3943 20.3307Z" fill="#018E47"/>
<path d="M45.9162 24.4837C45.4761 24.6535 45.1905 24.8851 44.9898 25.2711L44.8045 25.6185H42.9364H41.0605V26.0045V26.3905H42.9364L44.8045 26.3982L45.0361 26.7996C45.4993 27.6102 46.5337 27.8572 47.2671 27.34C47.8461 26.9308 48.0777 26.4136 47.9773 25.7343C47.8383 24.8234 46.7576 24.1749 45.9162 24.4837Z" fill="#018E47"/>
<path d="M37.2779 26.722C37.2779 27.44 36.9459 28.0267 36.3669 28.3432C36.089 28.4976 35.8034 28.5593 35.1936 28.6288C34.7535 28.6674 34.3598 28.7369 34.329 28.7677C34.2981 28.7986 34.4834 29.0688 34.7381 29.3622C35.6027 30.3657 35.7339 30.8984 35.3711 31.8402C35.3402 31.9328 35.595 31.9482 37.1003 31.9482H38.8758L39.1846 31.2689C39.7636 30.0261 40.1727 28.4281 40.2577 27.1389L40.3117 26.3901H38.7986H37.2779V26.722Z" fill="#018E47"/>
<path d="M39.5552 32.3343L39.3622 32.7202H41.1145L42.8746 32.728L43.6311 34.4803C44.0403 35.4453 44.3799 36.2636 44.3799 36.3022C44.3799 36.333 44.295 36.4643 44.1869 36.5955C43.3687 37.5682 44.2178 39.0967 45.4838 38.9423C46.2635 38.8574 46.8039 38.2398 46.7962 37.4678C46.7962 37.0046 46.6418 36.6881 46.279 36.3639C46.0242 36.1478 45.8467 36.0783 45.314 36.0242C45.1442 36.0011 45.0284 35.7927 44.2873 34.0789C43.8318 33.0213 43.415 32.1104 43.3687 32.0564C43.2992 31.9714 42.9209 31.9483 41.516 31.9483H39.7482L39.5552 32.3343Z" fill="#018E47"/>
</svg>
