<svg width="60" height="60" viewBox="0 0 60 60" fill="none" xmlns="http://www.w3.org/2000/svg">
<circle cx="30" cy="30" r="29" stroke="#018E47" stroke-width="2"/>
<path d="M36.2118 25.566C36.1681 25.4785 36.0806 25.4348 35.9931 25.3911V24.7351C36.0369 24.6039 36.0369 24.3415 35.8619 24.0791C35.687 23.8605 35.3809 23.7293 34.9873 23.7293H34.55V23.6856V19.4874C34.5937 19.3562 34.55 19.1813 34.4625 19.0063C34.2876 18.744 33.9815 18.569 33.4567 18.4816V14.3271C33.4567 14.1959 33.3693 14.0647 33.2818 14.021C33.1943 13.9773 32.6258 13.6711 30.5267 13.6711C30.5267 13.6711 30.5267 13.6711 30.483 13.6711C28.3839 13.6711 27.7717 13.9773 27.6842 14.021C27.553 14.1085 27.5093 14.1959 27.5093 14.3271V15.2017V15.9014V18.4816C26.9845 18.5253 26.6347 18.7002 26.4598 19.0063C26.3723 19.1813 26.3286 19.3562 26.3723 19.4874V23.7293H26.1536C25.7601 23.7293 25.4539 23.8605 25.279 24.0791C25.1041 24.3415 25.1041 24.6039 25.1478 24.7351V25.2162C24.8854 25.2599 24.7105 25.3911 24.5793 25.566C24.4044 25.8284 24.4044 26.0908 24.4481 26.222V27.0529C24.4481 27.2278 24.5356 27.359 24.6668 27.4027L24.5356 46.0759C24.5356 46.1196 24.4481 46.6444 24.7542 47.0817C24.9729 47.4316 25.3665 47.6065 25.8912 47.6939C26.8533 47.8251 28.3402 47.9563 29.7396 48.0001C29.7833 48.0001 29.827 48.0001 29.827 48.0001H29.8708H30.7454C30.7891 48.0001 30.7891 48.0001 30.8329 48.0001C32.1885 47.9563 33.7191 47.8689 34.6812 47.7377C34.8124 47.7377 34.8999 47.6939 34.9873 47.6939C35.3372 47.6065 35.6433 47.4316 35.8182 47.1692C36.1243 46.7319 36.0806 46.2508 36.0806 46.2508L36.2118 27.5339C36.343 27.4902 36.4304 27.359 36.4304 27.1841V26.3532C36.3867 26.0908 36.3867 25.8284 36.2118 25.566ZM35.1185 46.6444C34.9873 46.8193 34.7687 46.9068 34.5063 46.9505C33.4567 47.0817 31.7075 47.2129 30.2206 47.2129C28.7338 47.1692 26.9845 47.0817 25.935 46.9068C25.6289 46.8631 25.4102 46.7756 25.3227 46.6007C25.1916 46.382 25.1916 46.1634 25.2353 46.1196L25.3665 27.5339C26.9408 27.7526 31.0515 28.1899 35.3809 27.5776L35.2497 46.2508C35.2497 46.2071 35.2934 46.4257 35.1185 46.6444ZM25.1041 26.0033C25.1041 26.0033 25.1916 25.9596 25.3665 25.9596L35.2934 26.0033C35.5121 26.0033 35.5558 26.047 35.5996 26.0908C35.5996 26.1345 35.5996 26.1782 35.5996 26.1782V26.7467C30.8329 27.4902 26.3286 26.9217 25.1041 26.703V26.1345C25.1041 26.0908 25.1041 26.0033 25.1041 26.0033ZM30.483 14.3708C31.7949 14.3708 32.4509 14.502 32.7133 14.5458V18.3504C32.1448 18.2629 31.6638 18.2192 30.5267 18.2192H30.3518C29.2585 18.2192 28.7775 18.2629 28.2527 18.3504V17.6069C28.4714 17.5632 28.69 17.432 28.865 17.2571C29.1274 16.9947 29.3023 16.6449 29.3023 16.2513C29.3023 15.5953 28.865 15.0268 28.2527 14.8519V14.5458C28.5588 14.502 29.2148 14.3708 30.483 14.3708ZM28.2527 15.6828C28.4277 15.814 28.5588 16.0326 28.5588 16.2513C28.5588 16.4262 28.4714 16.6011 28.3402 16.7323C28.2965 16.7761 28.2527 16.7761 28.2527 16.8198V16.6449V15.6828Z" fill="#018E47"/>
<path d="M34.2002 28.4519C33.9815 28.4519 33.8066 28.6268 33.8066 28.8455L33.6754 41.7899C33.6754 42.0085 33.8503 42.1835 34.069 42.1835C34.1127 42.1835 34.1565 42.1835 34.1565 42.1835C34.3314 42.1397 34.4188 42.0085 34.4188 41.8336L34.55 28.8892C34.55 28.6268 34.4188 28.4519 34.2002 28.4519Z" fill="#018E47"/>
<path d="M24.8416 15.0704C24.929 15.1578 25.0602 15.1578 25.1914 15.1141C25.2789 15.1141 25.3226 15.0704 25.3663 14.9829C25.4975 14.808 25.4538 14.5893 25.3226 14.4581L18.3694 9.07921C18.1944 8.94802 17.9758 8.99175 17.8446 9.12295C17.7134 9.29787 17.7571 9.51653 17.8883 9.64772L24.8416 15.0704Z" fill="#018E47"/>
<path d="M24.4044 16.426C24.4919 16.3823 24.5793 16.3386 24.6668 16.2074C24.7542 16.0324 24.6668 15.8138 24.4919 15.7263L13.5154 10.9159C13.3404 10.8284 13.1218 10.9159 13.0343 11.0908C12.9468 11.2658 13.0343 11.4844 13.2092 11.5719L24.1857 16.3823C24.2295 16.4698 24.3169 16.4698 24.4044 16.426Z" fill="#018E47"/>
<path d="M24.5357 17.9126C24.6669 17.8689 24.7981 17.7377 24.7981 17.6065C24.7981 17.3878 24.6669 17.2129 24.4482 17.2129L16.2705 16.3383C16.0519 16.2946 15.877 16.4695 15.877 16.6881C15.877 16.9068 16.0081 17.0817 16.2268 17.0817L24.4045 17.9563C24.4483 17.9563 24.492 17.9563 24.5357 17.9126Z" fill="#018E47"/>
<path d="M24.0982 18.8751C24.0545 18.7002 23.8358 18.569 23.6171 18.6127L19.7688 19.7935C19.5501 19.8372 19.4627 20.0558 19.5064 20.2745C19.5501 20.4494 19.7688 20.5806 19.9875 20.5369L23.8358 19.3562C24.0107 19.3124 24.1419 19.0938 24.0982 18.8751Z" fill="#018E47"/>
<path d="M25.2352 13.1899C25.3227 13.3211 25.4976 13.3648 25.6288 13.3211C25.6725 13.3211 25.7163 13.2774 25.76 13.2337C25.9349 13.1025 25.9349 12.8401 25.8037 12.7089L23.7046 10.2599C23.5734 10.085 23.3548 10.0413 23.1798 10.1725C23.0049 10.3037 23.0049 10.5661 23.1361 10.6972L25.2352 13.1899Z" fill="#018E47"/>
</svg>
