<svg width="60" height="61" viewBox="0 0 60 61" fill="none" xmlns="http://www.w3.org/2000/svg">
<circle cx="30" cy="30.5" r="29" stroke="#018E47" stroke-width="2"/>
<path d="M28.3149 28.2433L29.6677 30.4979L30.5241 29.9841L29.1798 27.7439L30.3783 25.7464H32.5925V24.7477H30.3783L29.0255 22.493C28.9356 22.3432 28.7733 22.2508 28.5975 22.2508H25.8839L25.2847 21.2521L24.6854 20.2533L25.2847 19.2546L25.8839 18.2559H28.3144L29.6672 20.5105C29.7576 20.6603 29.9198 20.7527 30.0956 20.7527H32.5925V19.754H30.3783L29.1798 17.7565L30.5236 15.5168L29.6672 15.0029L28.3149 17.2571H25.8839L24.5311 15.0024C24.4412 14.8526 24.2789 14.7603 24.1032 14.7603H21.1069V15.759H23.8205L25.019 17.7565L24.4198 18.7552L23.8205 19.754H21.3901L20.0373 17.4993C19.9469 17.3495 19.7846 17.2571 19.6088 17.2571H16.6126C16.4368 17.2571 16.2745 17.3495 16.1846 17.4993L14.6865 19.9962C14.5916 20.154 14.5916 20.3522 14.6865 20.51L16.1846 23.0069L17.0411 22.493L15.6967 20.2533L16.8952 18.2559H19.3257L19.9249 19.2546L20.5242 20.2533L19.1804 22.493C19.0855 22.6508 19.0855 22.8491 19.1804 23.0069L20.5247 25.2471L19.1809 27.4867L20.0373 28.0006L21.3896 25.7464H23.82L24.4193 26.7452L25.0185 27.7439L23.82 29.7414H21.1069V30.7401H24.1032C24.2789 30.7401 24.4412 30.6478 24.5311 30.4979L25.8839 28.2433H28.3149ZM29.5134 25.2471L28.3149 27.2445H25.8844L25.2852 26.2458L24.6859 25.2471L25.2852 24.2483L25.8844 23.2496H28.3149L29.5134 25.2471ZM20.1911 22.7502L20.7903 21.7515L21.3896 20.7527H23.82L24.4193 21.7515L25.0185 22.7502L24.4193 23.7489L23.82 24.7477H21.3896L20.1911 22.7502Z" fill="#018E47"/>
<path d="M45.0054 37.4742L40.5111 29.9837C40.4212 29.8338 40.2589 29.7415 40.0831 29.7415H31.0944C30.9186 29.7415 30.7563 29.8338 30.6665 29.9837L26.1721 37.4742C26.0772 37.632 26.0772 37.8303 26.1721 37.9881L30.6665 45.4787C30.7563 45.629 30.9186 45.7213 31.0944 45.7213H40.0831C40.2589 45.7213 40.4212 45.629 40.5111 45.4791L45.0054 37.9886C45.1008 37.8303 45.1008 37.6325 45.0054 37.4742ZM39.8005 44.7226H31.3771L27.1823 37.7314L31.3771 30.7402H39.8L43.9947 37.7314L39.8005 44.7226Z" fill="#018E47"/>
<path d="M29.5184 37.4631L28.6754 37.9995L32.171 43.4925C32.2629 43.6364 32.4217 43.7238 32.5925 43.7238H38.5849V42.725H32.8666L29.5184 37.4631Z" fill="#018E47"/>
<path d="M38.585 31.739H32.5925V32.7378H38.3108L41.6591 37.9996L42.5021 37.4633L39.0065 31.9702C38.9146 31.8264 38.7558 31.739 38.585 31.739Z" fill="#018E47"/>
<path d="M35.5888 33.7363C35.3126 33.7363 35.0894 33.9595 35.0894 34.2357V34.407C35.0894 35.4512 34.6829 36.4334 33.9443 37.1715C33.4025 37.7133 33.0919 38.4634 33.0919 39.2294C33.0919 40.6062 34.212 41.7263 35.5888 41.7263C36.9655 41.7263 38.0856 40.6062 38.0856 39.2294C38.0856 38.4634 37.775 37.7133 37.2332 37.1715C36.4946 36.4329 36.0881 35.4512 36.0881 34.407V34.2357C36.0881 33.9595 35.8649 33.7363 35.5888 33.7363ZM36.5271 37.8776C36.8831 38.2337 37.0869 38.726 37.0869 39.2294C37.0869 40.0554 36.4147 40.7275 35.5888 40.7275C34.7628 40.7275 34.0907 40.0554 34.0907 39.2294C34.0907 38.726 34.2944 38.2337 34.6505 37.8776C35.0385 37.4896 35.3536 37.0482 35.5888 36.5698C35.824 37.0482 36.1391 37.4896 36.5271 37.8776Z" fill="#018E47"/>
</svg>
