<svg width="60" height="62" viewBox="0 0 60 62" fill="none" xmlns="http://www.w3.org/2000/svg">
<circle cx="30" cy="30" r="29" stroke="#018E47" stroke-width="2"/>
<path d="M51.5937 24.45C51.5937 24.165 51.425 23.9013 51.1578 23.7945L36.3922 17.6028L35.8508 18.921L49.0484 24.4571L30.5 32.2376L11.9516 24.45L25.1492 18.9138L24.6078 17.5957L9.84219 23.7945C9.58203 23.9013 9.40625 24.165 9.40625 24.45C9.40625 24.735 9.575 24.9986 9.84219 25.1055L15.0734 27.3L9.84922 29.4945C9.58906 29.6013 9.41328 29.865 9.41328 30.15C9.41328 30.435 9.58203 30.6986 9.84922 30.8055L15.0805 33L9.84922 35.1945C9.58906 35.3013 9.41328 35.565 9.41328 35.85C9.41328 36.135 9.58203 36.3986 9.84922 36.5055L30.2398 45.0555C30.3242 45.0911 30.4156 45.1125 30.507 45.1125C30.5984 45.1125 30.6898 45.0911 30.7742 45.0555L51.1648 36.5055C51.425 36.3986 51.6008 36.135 51.6008 35.85C51.6008 35.565 51.432 35.3013 51.1648 35.1945L45.9336 33L51.1648 30.8055C51.425 30.6986 51.6008 30.435 51.6008 30.15C51.6008 29.865 51.432 29.6013 51.1648 29.4945L45.9406 27.3L51.1719 25.1055C51.432 24.9986 51.6078 24.735 51.6078 24.45H51.5937ZM49.0484 35.85L30.5 43.6305L11.9516 35.85L16.9086 33.7695L30.2328 39.3555C30.3172 39.3911 30.4086 39.4125 30.5 39.4125C30.5914 39.4125 30.6828 39.3911 30.7672 39.3555L44.0914 33.7695L49.0484 35.85ZM49.0484 30.15L30.5 37.9305L11.9516 30.15L16.9086 28.0695L30.2328 33.6555C30.3172 33.6911 30.4086 33.7125 30.5 33.7125C30.5914 33.7125 30.6828 33.6911 30.7672 33.6555L44.0914 28.0695L49.0484 30.15Z" fill="#018E47"/>
<path d="M30.5 9.48755C30.2258 9.48755 29.9727 9.65142 29.8602 9.90792L26.7172 16.9973C26.0352 18.5363 26.1688 20.3674 27.0618 21.771C27.8633 23.0179 29.1149 23.7375 30.5 23.7375C31.8852 23.7375 33.1368 23.0179 33.9383 21.771C34.8313 20.3674 34.9649 18.5363 34.2828 16.9973L31.1399 9.90792C31.0274 9.65142 30.7743 9.48755 30.5 9.48755ZM32.7571 20.9944C32.2227 21.828 31.4 22.3125 30.5 22.3125C29.6 22.3125 28.7774 21.8352 28.243 20.9944C27.6032 19.9898 27.5118 18.6859 27.9969 17.5815L30.493 11.9385L32.9891 17.5815C33.4813 18.6859 33.3828 19.9969 32.743 20.9944H32.7571Z" fill="#018E47"/>
<path d="M29.7969 21.6C31.3508 21.6 32.6094 20.3246 32.6094 18.75H31.2031C31.2031 19.5338 30.5703 20.175 29.7969 20.175V21.6Z" fill="#018E47"/>
</svg>
