<svg width="60" height="60" viewBox="0 0 60 60" fill="none" xmlns="http://www.w3.org/2000/svg">
<path d="M16.9234 16.0831C16.9234 16.044 16.9382 16.0073 16.9406 15.9691C16.9431 15.9556 16.9431 15.9412 16.9464 15.9285C17.1908 13.2398 23.6262 11.8325 30 11.8325C36.3739 11.8325 42.8084 13.2398 43.0528 15.9277C43.0569 15.9412 43.0561 15.9548 43.0586 15.9683C43.061 16.0073 43.0758 16.0432 43.0758 16.0823C43.0758 16.1014 43.0684 16.1189 43.0676 16.1372C43.0668 16.1484 43.0709 16.1588 43.0692 16.1699L38.7126 44.2518C38.4763 45.7722 37.1048 46.9197 35.5215 46.9197H24.4769C22.8682 46.9197 21.527 45.7985 21.2858 44.2518L16.9292 16.1699C16.9275 16.1588 16.9316 16.1484 16.9308 16.1372C16.9316 16.1197 16.9234 16.1022 16.9234 16.0831ZM19.9988 28.0202C24.3358 29.1088 26.9887 28.1262 29.7785 27.068C32.6291 25.9882 35.588 24.8933 40.3031 26.0735L41.5254 18.1956C39.1998 19.6044 34.5856 20.3352 30.0008 20.3352C25.4153 20.3352 20.801 19.6044 18.4755 18.1956L19.9988 28.0202ZM30 13.0143C22.6878 13.0143 18.1875 14.7841 18.144 16.0647L18.1662 16.205C18.4336 17.4752 22.8781 19.1534 30 19.1534C37.122 19.1534 41.5664 17.4744 41.8339 16.2042L41.856 16.0639C41.8125 14.7833 37.3123 13.0143 30 13.0143ZM22.4892 44.0765C22.6394 45.0399 23.4761 45.7396 24.4777 45.7396H35.5224C36.5092 45.7396 37.3631 45.0256 37.51 44.0781L40.121 27.2441C35.7127 26.1046 33.0368 27.1014 30.2207 28.1693C28.2372 28.9207 26.2085 29.6889 23.5688 29.6889C22.5491 29.6889 21.4302 29.5654 20.1948 29.2905L22.4892 44.0765Z" fill="#018E47"/>
<path d="M32.3486 38.6545C33.6431 39.9119 33.6431 41.9591 32.3486 43.2166C31.7014 43.8453 30.8507 44.1601 30.0001 44.1601C29.1494 44.1601 28.2987 43.8453 27.6515 43.2166C26.3571 41.9591 26.3571 39.9119 27.6515 38.6545C28.9468 37.3962 31.0542 37.3986 32.3486 38.6545ZM28.512 39.4896C27.8418 40.1406 27.7286 41.1216 28.1527 41.8946L30.9869 39.1414C30.6785 38.982 30.3413 38.8935 30.0001 38.8935C29.4611 38.8927 28.9222 39.0912 28.512 39.4896ZM31.4889 42.3815C32.1583 41.7304 32.2715 40.7503 31.8482 39.9765L29.014 42.7297C29.8089 43.1409 30.8179 43.0309 31.4889 42.3815Z" fill="#018E47"/>
<path d="M31.8589 35.8136C31.6325 34.533 32.5225 33.309 33.8424 33.0874C35.1607 32.8683 36.4198 33.7321 36.6471 35.0159C36.8735 36.2965 35.9834 37.5197 34.6635 37.7412C34.5249 37.7643 34.3879 37.7747 34.2518 37.7747C33.0918 37.7739 32.0615 36.9611 31.8589 35.8136ZM34.4577 36.5746C35.1172 36.4646 35.5618 35.8534 35.4486 35.2143C35.3469 34.6406 34.8325 34.2349 34.2534 34.2349C34.1853 34.2349 34.1172 34.2405 34.0483 34.2525C33.3888 34.3624 32.9442 34.9736 33.0574 35.6143C33.1714 36.2526 33.7948 36.6853 34.4577 36.5746Z" fill="#018E47"/>
<path d="M23.8632 34.3778C24.38 34.2933 24.9091 34.4065 25.3406 34.7029C25.7721 34.9994 26.0592 35.4416 26.1486 35.9492C26.238 36.4545 26.1191 36.9645 25.8139 37.3836C25.5088 37.8036 25.0535 38.0817 24.5326 38.1685C24.4194 38.1869 24.3078 38.1964 24.1963 38.1964C23.2513 38.1964 22.4129 37.5342 22.2472 36.5995V36.5987C22.0635 35.554 22.7886 34.5579 23.8632 34.3778ZM24.3275 37.0035C24.5277 36.9708 24.7032 36.8641 24.8205 36.7023C24.9378 36.5405 24.9846 36.3437 24.9501 36.1493C24.9157 35.9532 24.8049 35.7827 24.6384 35.6679C24.508 35.5795 24.3562 35.5317 24.2004 35.5317C24.1569 35.5317 24.1134 35.5349 24.0699 35.5428C23.6557 35.6122 23.376 35.9955 23.4465 36.3979C23.5179 36.8027 23.9149 37.0808 24.3275 37.0035Z" fill="#018E47"/>
<path d="M32.2526 32.3249C32.1402 32.3433 32.0295 32.3528 31.9196 32.3528C30.9738 32.3528 30.1338 31.689 29.9681 30.7551C29.9681 30.7551 29.9681 30.7551 29.9681 30.7543C29.7843 29.7104 30.5086 28.7143 31.5849 28.5342C32.6652 28.3557 33.6849 29.0617 33.8695 30.1056C34.0532 31.1495 33.3289 32.1448 32.2526 32.3249ZM31.9171 29.6873C31.8753 29.6873 31.8318 29.6905 31.7891 29.6984C31.3749 29.7678 31.0952 30.1511 31.1657 30.5535C31.2371 30.9559 31.6325 31.234 32.0467 31.1591C32.4618 31.0898 32.7407 30.7065 32.6702 30.3041C32.6062 29.9439 32.2822 29.6873 31.9171 29.6873Z" fill="#018E47"/>
<path d="M29.2298 35.1252C28.5432 35.2399 27.891 34.7913 27.7729 34.1243C27.6548 33.4573 28.1166 32.8238 28.8032 32.7091C29.4898 32.5943 30.142 33.043 30.2601 33.7099C30.3774 34.3777 29.9164 35.0112 29.2298 35.1252Z" fill="#018E47"/>
<circle cx="30" cy="30" r="29" stroke="#018E47" stroke-width="2"/>
</svg>
