<svg width="60" height="61" viewBox="0 0 60 61" fill="none" xmlns="http://www.w3.org/2000/svg">
<circle cx="30" cy="30.75" r="29" stroke="#018E47" stroke-width="2"/>
<path d="M30 22C22.7192 22 15 24.2442 15 28.4096V34.3577C15 38.5231 22.7135 40.7673 30 40.7673C37.2865 40.7673 45 38.5231 45 34.3577V28.4096C44.9538 24.2442 37.2346 22 30 22ZM42.6923 28.4096C42.6923 30.0827 37.7538 32.5173 30 32.5173C29.3654 32.5173 28.7596 32.5173 28.1596 32.4654L33.6231 24.4923C39.2308 25.0981 42.6519 27.0135 42.6519 28.4096H42.6923ZM30 24.2962C30.3288 24.2962 30.6404 24.2962 30.9519 24.2962L25.5115 32.2404C20.4 31.525 17.3077 29.7308 17.3077 28.4096C17.3077 26.7308 22.2462 24.2962 30 24.2962ZM30 38.4712C22.2692 38.4712 17.3077 36.0365 17.3077 34.3577V31.9404C20.1346 33.8269 25.1596 34.825 30 34.825C34.8404 34.825 39.8423 33.8327 42.6923 31.9404V34.3577C42.6519 36.0365 37.7135 38.4712 30 38.4712Z" fill="#018E47"/>
</svg>
