<svg width="60" height="61" viewBox="0 0 60 61" fill="none" xmlns="http://www.w3.org/2000/svg">
<circle cx="30" cy="30.25" r="29" stroke="#018E47" stroke-width="2"/>
<path d="M28.3149 27.9932L29.6677 30.2479L30.5241 29.734L29.1798 27.4939L30.3783 25.4964H32.5925V24.4976H30.3783L29.0255 22.243C28.9356 22.0932 28.7733 22.0008 28.5975 22.0008H25.8839L25.2847 21.002L24.6854 20.0033L25.2847 19.0045L25.8839 18.0058H28.3144L29.6672 20.2605C29.7576 20.4103 29.9198 20.5027 30.0956 20.5027H32.5925V19.5039H30.3783L29.1798 17.5064L30.5236 15.2667L29.6672 14.7529L28.3149 17.0071H25.8839L24.5311 14.7524C24.4412 14.6026 24.2789 14.5102 24.1032 14.5102H21.1069V15.5089H23.8205L25.019 17.5064L24.4198 18.5052L23.8205 19.5039H21.3901L20.0373 17.2492C19.9469 17.0994 19.7846 17.0071 19.6088 17.0071H16.6126C16.4368 17.0071 16.2745 17.0994 16.1846 17.2492L14.6865 19.7461C14.5916 19.9039 14.5916 20.1022 14.6865 20.26L16.1846 22.7568L17.0411 22.243L15.6967 20.0033L16.8952 18.0058H19.3257L19.9249 19.0045L20.5242 20.0033L19.1804 22.243C19.0855 22.4008 19.0855 22.599 19.1804 22.7568L20.5247 24.997L19.1809 27.2367L20.0373 27.7505L21.3896 25.4964H23.82L24.4193 26.4951L25.0185 27.4939L23.82 29.4913H21.1069V30.4901H24.1032C24.2789 30.4901 24.4412 30.3977 24.5311 30.2479L25.8839 27.9932H28.3149ZM29.5134 24.997L28.3149 26.9945H25.8844L25.2852 25.9957L24.6859 24.997L25.2852 23.9983L25.8844 22.9995H28.3149L29.5134 24.997ZM20.1911 22.5001L20.7903 21.5014L21.3896 20.5027H23.82L24.4193 21.5014L25.0185 22.5001L24.4193 23.4989L23.82 24.4976H21.3896L20.1911 22.5001Z" fill="#018E47"/>
<path d="M45.0054 37.2241L40.5111 29.7335C40.4212 29.5837 40.2589 29.4913 40.0831 29.4913H31.0944C30.9186 29.4913 30.7563 29.5837 30.6665 29.7335L26.1721 37.2241C26.0772 37.3819 26.0772 37.5802 26.1721 37.738L30.6665 45.2285C30.7563 45.3788 30.9186 45.4712 31.0944 45.4712H40.0831C40.2589 45.4712 40.4212 45.3788 40.5111 45.229L45.0054 37.7385C45.1008 37.5802 45.1008 37.3824 45.0054 37.2241ZM39.8005 44.4725H31.3771L27.1823 37.4813L31.3771 30.4901H39.8L43.9947 37.4813L39.8005 44.4725Z" fill="#018E47"/>
<path d="M29.5184 37.2131L28.6754 37.7494L32.171 43.2425C32.2629 43.3863 32.4217 43.4737 32.5925 43.4737H38.5849V42.475H32.8666L29.5184 37.2131Z" fill="#018E47"/>
<path d="M38.585 31.4888H32.5925V32.4876H38.3108L41.6591 37.7495L42.5021 37.2131L39.0065 31.72C38.9146 31.5762 38.7558 31.4888 38.585 31.4888Z" fill="#018E47"/>
<path d="M35.5888 33.4863C35.3126 33.4863 35.0894 33.7095 35.0894 33.9857V34.157C35.0894 35.2011 34.6829 36.1834 33.9443 36.9215C33.4025 37.4633 33.0919 38.2133 33.0919 38.9794C33.0919 40.3562 34.212 41.4762 35.5888 41.4762C36.9655 41.4762 38.0856 40.3562 38.0856 38.9794C38.0856 38.2133 37.775 37.4633 37.2332 36.9215C36.4946 36.1829 36.0881 35.2011 36.0881 34.157V33.9857C36.0881 33.7095 35.8649 33.4863 35.5888 33.4863ZM36.5271 37.6276C36.8831 37.9836 37.0869 38.476 37.0869 38.9794C37.0869 39.8053 36.4147 40.4775 35.5888 40.4775C34.7628 40.4775 34.0907 39.8053 34.0907 38.9794C34.0907 38.476 34.2944 37.9836 34.6505 37.6276C35.0385 37.2396 35.3536 36.7981 35.5888 36.3197C35.824 36.7981 36.1391 37.2396 36.5271 37.6276Z" fill="#018E47"/>
</svg>
