<svg width="60" height="61" viewBox="0 0 60 61" fill="none" xmlns="http://www.w3.org/2000/svg">
<circle cx="30" cy="30.75" r="29" stroke="#018E47" stroke-width="2"/>
<path d="M45.0465 16.9561C43.7704 15.6813 41.6975 15.6813 40.4239 16.9561L35.4218 21.958C33.4422 23.9388 30.2927 23.9868 28.2522 22.0616L27.3505 22.9918L30.4326 26.0738L17.4045 39.1C16.0455 40.459 15.9056 42.5824 16.9848 44.0994L15 46.0841L15.916 47L17.8994 45.0166C18.5524 45.483 19.3323 45.7369 20.1511 45.7369C21.1889 45.7369 22.1657 45.3327 22.899 44.5981L35.9258 31.5719L39.0079 34.6539L39.9368 33.7522C38.0155 31.7131 38.0608 28.5638 40.0418 26.5829L45.0439 21.5823C46.3187 20.3088 46.3187 18.2334 45.0439 16.96L45.0465 16.9561ZM30.2344 35.4312H22.9055L31.3473 26.9897L35.0111 30.6534L31.53 34.1344L30.2344 35.4312ZM44.1305 20.6638L39.1284 25.6644C37.6385 27.1542 37.0231 29.1739 37.2913 31.1003L30.9029 24.7109C32.832 24.9739 34.8479 24.3624 36.3378 22.8739L41.3399 17.872C42.1095 17.1025 43.3623 17.1025 44.1305 17.872C44.8988 18.6415 44.9001 19.8943 44.1305 20.6625V20.6638Z" fill="#018E47"/>
<path d="M15.7779 16.1173L15.3536 16.5416C15.1583 16.7369 15.1583 17.0535 15.3536 17.2488L44.1438 46.039C44.3391 46.2343 44.6557 46.2343 44.8509 46.039L45.2753 45.6146C45.4706 45.4194 45.4706 45.1028 45.2753 44.9075L16.4851 16.1173C16.2898 15.922 15.9732 15.922 15.7779 16.1173Z" fill="#018E47"/>
</svg>
