<svg width="60" height="61" viewBox="0 0 60 61" fill="none" xmlns="http://www.w3.org/2000/svg">
<path d="M16.9234 16.3331C16.9234 16.294 16.9382 16.2574 16.9406 16.2191C16.9431 16.2056 16.9431 16.1912 16.9464 16.1785C17.1908 13.4898 23.6262 12.0826 30 12.0826C36.3739 12.0826 42.8084 13.4898 43.0528 16.1777C43.0569 16.1912 43.0561 16.2048 43.0586 16.2183C43.061 16.2574 43.0758 16.2932 43.0758 16.3323C43.0758 16.3514 43.0684 16.3689 43.0676 16.3873C43.0668 16.3984 43.0709 16.4088 43.0692 16.4199L38.7126 44.5018C38.4763 46.0223 37.1048 47.1698 35.5215 47.1698H24.4769C22.8682 47.1698 21.527 46.0486 21.2858 44.5018L16.9292 16.4199C16.9275 16.4088 16.9316 16.3984 16.9308 16.3873C16.9316 16.3697 16.9234 16.3522 16.9234 16.3331ZM19.9988 28.2703C24.3358 29.3588 26.9887 28.3763 29.7785 27.318C32.6291 26.2382 35.588 25.1433 40.3031 26.3235L41.5254 18.4456C39.1998 19.8545 34.5856 20.5852 30.0008 20.5852C25.4153 20.5852 20.801 19.8545 18.4755 18.4456L19.9988 28.2703ZM30 13.2643C22.6878 13.2643 18.1875 15.0342 18.144 16.3148L18.1662 16.455C18.4336 17.7252 22.8781 19.4034 30 19.4034C37.122 19.4034 41.5664 17.7244 41.8339 16.4542L41.856 16.314C41.8125 15.0334 37.3123 13.2643 30 13.2643ZM22.4892 44.3265C22.6394 45.2899 23.4761 45.9896 24.4777 45.9896H35.5224C36.5092 45.9896 37.3631 45.2756 37.51 44.3281L40.121 27.4941C35.7127 26.3546 33.0368 27.3515 30.2207 28.4193C28.2372 29.1707 26.2085 29.9389 23.5688 29.9389C22.5491 29.9389 21.4302 29.8154 20.1948 29.5405L22.4892 44.3265Z" fill="#018E47"/>
<path d="M32.3486 38.9046C33.6431 40.162 33.6431 42.2092 32.3486 43.4667C31.7014 44.0954 30.8507 44.4102 30.0001 44.4102C29.1494 44.4102 28.2987 44.0954 27.6515 43.4667C26.3571 42.2092 26.3571 40.162 27.6515 38.9046C28.9468 37.6463 31.0542 37.6487 32.3486 38.9046ZM28.512 39.7397C27.8418 40.3907 27.7286 41.3717 28.1527 42.1447L30.9869 39.3915C30.6785 39.2321 30.3413 39.1436 30.0001 39.1436C29.4611 39.1428 28.9222 39.3413 28.512 39.7397ZM31.4889 42.6315C32.1583 41.9805 32.2715 41.0003 31.8482 40.2266L29.014 42.9798C29.8089 43.391 30.8179 43.281 31.4889 42.6315Z" fill="#018E47"/>
<path d="M31.8589 36.0637C31.6325 34.7831 32.5225 33.5591 33.8424 33.3376C35.1607 33.1185 36.4198 33.9823 36.6471 35.266C36.8735 36.5466 35.9834 37.7698 34.6635 37.9913C34.5249 38.0145 34.3879 38.0248 34.2518 38.0248C33.0918 38.024 32.0615 37.2112 31.8589 36.0637ZM34.4577 36.8247C35.1172 36.7148 35.5618 36.1036 35.4486 35.4645C35.3469 34.8907 34.8325 34.4851 34.2534 34.4851C34.1853 34.4851 34.1172 34.4907 34.0483 34.5026C33.3888 34.6126 32.9442 35.2238 33.0574 35.8645C33.1714 36.5028 33.7948 36.9355 34.4577 36.8247Z" fill="#018E47"/>
<path d="M23.8632 34.6277C24.38 34.5433 24.9091 34.6564 25.3406 34.9529C25.7721 35.2493 26.0592 35.6916 26.1486 36.1992C26.238 36.7044 26.1191 37.2144 25.8139 37.6336C25.5088 38.0535 25.0535 38.3316 24.5326 38.4185C24.4194 38.4368 24.3078 38.4464 24.1963 38.4464C23.2513 38.4464 22.4129 37.7842 22.2472 36.8494V36.8486C22.0635 35.8039 22.7886 34.8078 23.8632 34.6277ZM24.3275 37.2534C24.5277 37.2208 24.7032 37.114 24.8205 36.9522C24.9378 36.7905 24.9846 36.5936 24.9501 36.3992C24.9157 36.2032 24.8049 36.0326 24.6384 35.9179C24.508 35.8294 24.3562 35.7816 24.2004 35.7816C24.1569 35.7816 24.1134 35.7848 24.0699 35.7928C23.6557 35.8621 23.376 36.2454 23.4465 36.6478C23.5179 37.0526 23.9149 37.3307 24.3275 37.2534Z" fill="#018E47"/>
<path d="M32.2526 32.575C32.1402 32.5933 32.0295 32.6029 31.9196 32.6029C30.9738 32.6029 30.1338 31.9391 29.9681 31.0051C29.9681 31.0051 29.9681 31.0052 29.9681 31.0044C29.7843 29.9604 30.5086 28.9644 31.5849 28.7843C32.6652 28.6058 33.6849 29.3118 33.8695 30.3557C34.0532 31.3996 33.3289 32.3949 32.2526 32.575ZM31.9171 29.9373C31.8753 29.9373 31.8318 29.9405 31.7891 29.9485C31.3749 30.0178 31.0952 30.4011 31.1657 30.8035C31.2371 31.206 31.6325 31.4841 32.0467 31.4092C32.4618 31.3398 32.7407 30.9565 32.6702 30.5541C32.6062 30.1939 32.2822 29.9373 31.9171 29.9373Z" fill="#018E47"/>
<path d="M29.2298 35.3752C28.5432 35.4899 27.891 35.0413 27.7729 34.3743C27.6548 33.7073 28.1166 33.0738 28.8032 32.9591C29.4898 32.8443 30.142 33.293 30.2601 33.9599C30.3774 34.6277 29.9164 35.2612 29.2298 35.3752Z" fill="#018E47"/>
<circle cx="30" cy="30.25" r="29" stroke="#018E47" stroke-width="2"/>
</svg>
