<svg width="60" height="63" viewBox="0 0 60 63" fill="none" xmlns="http://www.w3.org/2000/svg">
<circle cx="30" cy="30.75" r="29" stroke="#018E47" stroke-width="2"/>
<path d="M51.5937 25.2C51.5937 24.915 51.425 24.6514 51.1578 24.5445L36.3922 18.3529L35.8508 19.671L49.0484 25.2071L30.5 32.9876L11.9516 25.2L25.1492 19.6639L24.6078 18.3458L9.84219 24.5445C9.58203 24.6514 9.40625 24.915 9.40625 25.2C9.40625 25.485 9.575 25.7486 9.84219 25.8555L15.0734 28.05L9.84922 30.2445C9.58906 30.3514 9.41328 30.615 9.41328 30.9C9.41328 31.185 9.58203 31.4486 9.84922 31.5555L15.0805 33.75L9.84922 35.9445C9.58906 36.0514 9.41328 36.315 9.41328 36.6C9.41328 36.885 9.58203 37.1486 9.84922 37.2555L30.2398 45.8055C30.3242 45.8411 30.4156 45.8625 30.507 45.8625C30.5984 45.8625 30.6898 45.8411 30.7742 45.8055L51.1648 37.2555C51.425 37.1486 51.6008 36.885 51.6008 36.6C51.6008 36.315 51.432 36.0514 51.1648 35.9445L45.9336 33.75L51.1648 31.5555C51.425 31.4486 51.6008 31.185 51.6008 30.9C51.6008 30.615 51.432 30.3514 51.1648 30.2445L45.9406 28.05L51.1719 25.8555C51.432 25.7486 51.6078 25.485 51.6078 25.2H51.5937ZM49.0484 36.6L30.5 44.3805L11.9516 36.6L16.9086 34.5195L30.2328 40.1055C30.3172 40.1411 30.4086 40.1625 30.5 40.1625C30.5914 40.1625 30.6828 40.1411 30.7672 40.1055L44.0914 34.5195L49.0484 36.6ZM49.0484 30.9L30.5 38.6805L11.9516 30.9L16.9086 28.8195L30.2328 34.4055C30.3172 34.4411 30.4086 34.4625 30.5 34.4625C30.5914 34.4625 30.6828 34.4411 30.7672 34.4055L44.0914 28.8195L49.0484 30.9Z" fill="#018E47"/>
<path d="M30.5 10.2375C30.2258 10.2375 29.9727 10.4014 29.8602 10.6579L26.7172 17.7472C26.0352 19.2862 26.1688 21.1174 27.0618 22.521C27.8633 23.7679 29.1149 24.4875 30.5 24.4875C31.8852 24.4875 33.1368 23.7679 33.9383 22.521C34.8313 21.1174 34.9649 19.2862 34.2828 17.7472L31.1399 10.6579C31.0274 10.4014 30.7743 10.2375 30.5 10.2375ZM32.7571 21.7444C32.2227 22.578 31.4 23.0625 30.5 23.0625C29.6 23.0625 28.7774 22.5851 28.243 21.7444C27.6032 20.7397 27.5118 19.4359 27.9969 18.3315L30.493 12.6885L32.9891 18.3315C33.4813 19.4359 33.3828 20.7469 32.743 21.7444H32.7571Z" fill="#018E47"/>
<path d="M29.7969 22.35C31.3508 22.35 32.6094 21.0746 32.6094 19.5H31.2031C31.2031 20.2838 30.5703 20.925 29.7969 20.925V22.35Z" fill="#018E47"/>
</svg>
