<svg width="323" height="830" viewBox="0 0 323 830" fill="none" xmlns="http://www.w3.org/2000/svg">
<path style="mix-blend-mode:overlay" opacity="0.5" d="M206.88 646.95C213.342 641.115 219.803 635.487 226.056 629.86C279.413 582.549 329.852 537.948 354.546 490.111C385.179 431.122 383.605 368.271 350.032 308.021C323.237 259.966 275.492 213.263 211.175 171.664C355.831 89.1395 377.385 -30.8251 377.374 -95.0305C377.363 -159.236 372.265 -106.392 366.011 -106.394C359.757 -106.395 354.651 -101.288 354.652 -95.0345C354.653 -88.7808 354.446 -81.9016 353.822 -74.6057L24.7688 -74.5592C24.1422 -81.8553 23.9325 -88.7345 23.9314 -94.9883C23.9303 -101.242 18.8222 -106.35 12.5684 -106.351C6.31459 -106.352 1.20822 -101.246 1.20933 -94.9923C1.22058 -30.7868 22.8171 88.9768 167.398 171.656C67.0362 235.323 21.2903 297.957 6.2912 354.655C5.87447 355.489 5.56193 356.427 5.56213 357.469C-6.72817 407.706 4.95349 453.152 24.3467 490.053C48.9531 536.96 98.8869 581.267 151.74 628.075C158.724 634.226 165.813 640.481 172.797 646.84C85.4667 726.456 0.223071 818.997 1.28878 952.203C1.28982 958.457 6.50223 963.461 12.5475 963.462C18.9055 963.359 23.9077 958.148 23.9066 952.103C23.9054 945.224 24.2169 938.449 24.6326 931.778L354.207 931.836C354.625 938.507 354.939 945.282 354.94 952.161C354.941 958.415 359.945 963.627 366.303 963.524C372.557 963.525 377.663 958.419 377.662 952.165C378.681 819.376 294.135 726.493 206.672 646.742L206.88 646.95ZM104.406 554.064L275.134 554.094C264.192 565.036 252.312 575.874 240.223 586.92L139.537 586.902C127.236 575.852 115.457 564.906 104.406 554.064ZM45.5793 317.869L329.709 317.919C335.861 328.864 340.866 339.705 344.62 350.754L30.8888 350.699C34.5349 339.755 39.4317 328.812 45.5793 317.869ZM80.5922 270.555L295.514 270.593C305.105 281.434 313.758 292.38 320.952 303.325L54.5406 303.279C61.939 292.336 70.6923 281.289 80.6965 270.451L80.5922 270.555ZM348.792 365.138C351.608 376.083 353.173 387.027 353.592 397.867L22.9755 397.809C22.9736 386.761 24.3267 375.817 26.8263 364.978L348.687 365.034L348.792 365.138ZM353.49 412.355C352.867 423.403 350.993 434.243 348.076 445.082L30.1757 445.027C26.8384 433.978 24.6476 423.033 23.6035 412.193L353.386 412.251L353.49 412.355ZM343.492 459.465C340.992 466.136 337.971 472.91 334.428 479.58C332.24 483.853 329.739 488.022 327.134 492.295L51.968 492.246C49.2572 488.077 46.7549 483.699 44.4611 479.529C40.9162 472.858 37.8923 466.082 35.1812 459.411L343.284 459.465L343.492 459.465ZM317.235 506.781C309.107 517.619 299.728 528.666 289.411 539.608L90.3327 539.573C79.8036 528.627 70.3168 517.682 62.0808 506.736L317.235 506.781ZM281.753 256.207L94.5565 256.174C106.02 245.127 118.734 234.29 132.803 223.348L244.537 223.368C258.193 234.106 270.494 245.156 281.544 256.207L281.753 256.207ZM225.669 208.877L152.5 208.864C163.964 200.736 176.366 192.712 189.393 184.689C202.11 192.613 214.307 200.64 225.565 208.772L225.669 208.877ZM200.123 152.067C196.579 154.151 192.932 156.131 189.388 158.215C185.844 156.129 182.3 154.044 178.756 151.959C165.726 144.556 153.842 136.841 142.897 128.814L235.87 128.83C224.927 136.854 213.046 144.565 200.019 151.963L200.123 152.067ZM57.4118 34.3666L321.321 34.4128C315.174 45.3559 308.088 56.403 299.752 67.2414L78.9931 67.2027C70.6528 56.3613 63.5633 45.3117 57.4118 34.3666ZM328.928 19.9263L50.0089 19.8773C44.6913 8.72385 40.4159 -2.22102 36.8703 -12.8531L342.055 -12.7995C338.617 -2.0645 334.346 8.87885 328.928 19.9263ZM352.574 -60.0137C351.22 -49.6952 349.138 -38.6473 346.221 -27.1825L32.6986 -27.2375C29.6739 -38.8075 27.6916 -49.752 26.3348 -60.071L352.574 -60.0137ZM90.8778 81.5885L288.08 81.6231C278.389 92.7739 267.134 103.82 254.42 114.449L124.55 114.427C111.832 103.793 100.573 92.7427 90.8778 81.5885ZM155.696 601.185L224.07 601.197C219.797 605.052 215.316 608.908 210.939 612.868C203.957 619.016 196.87 625.269 189.888 631.626C182.174 624.745 174.46 617.865 166.954 611.193C163.201 607.857 159.448 604.521 155.696 601.185ZM210.326 681.243L169.259 681.235C176.033 674.879 182.911 668.417 189.789 662.165C196.67 668.42 203.446 674.779 210.222 681.138L210.326 681.243ZM154.357 695.721L225.233 695.733C235.971 706.471 246.708 717.208 256.821 728.571L122.781 728.547C132.994 717.292 143.519 706.35 154.357 695.721ZM48.5888 837.35L330.634 837.4C335.431 848.032 339.498 858.977 343.043 870.234L36.3998 870.18C39.9416 858.924 44.0047 847.981 48.7973 837.35L48.5888 837.35ZM55.4655 822.968C61.1962 811.816 67.5522 800.873 74.4295 790.243L304.777 790.283C311.658 800.916 318.018 811.861 323.753 823.015L55.4655 822.968ZM84.3289 775.757C92.4568 764.501 100.897 753.559 110.068 742.929L269.539 742.957C278.505 753.59 287.158 764.536 295.081 775.794L84.3289 775.757ZM26.1935 917.499C27.5466 906.347 29.6292 895.299 32.2332 884.772L347.007 884.827C349.719 895.459 351.701 906.403 353.058 917.556L26.1935 917.499Z" fill="black"/>
</svg>
