<svg width="59" height="60" viewBox="0 0 59 60" fill="none" xmlns="http://www.w3.org/2000/svg">
<path d="M26.7069 24.3072L26.707 24.3072C27.2003 23.8135 27.4884 23.1512 27.5132 22.4537C27.538 21.7563 27.2978 21.0753 26.8408 20.5478C26.8408 20.5477 26.8408 20.5477 26.8407 20.5477L23.5219 16.7127C23.5218 16.7125 23.5216 16.7123 23.5214 16.7121C23.2745 16.4233 22.9704 16.1889 22.6283 16.0236C22.2859 15.8582 21.9129 15.7657 21.5329 15.7518C21.1529 15.738 20.7742 15.8032 20.4207 15.9432C20.0674 16.0832 19.7471 16.295 19.4798 16.5651L16.9952 19.0497C16.3014 19.7315 15.8762 20.6402 15.7972 21.6097C15.7322 22.3382 15.7344 23.071 15.8036 23.7991C16.2228 28.3501 19.0767 33.2447 22.9162 37.0839C26.7558 40.9231 31.6503 43.7772 36.1989 44.1964C36.9274 44.2657 37.6608 44.2678 38.3898 44.2028C39.3593 44.1238 40.268 43.6985 40.9499 43.0048C40.9501 43.0045 40.9504 43.0043 40.9506 43.004L43.4339 40.5208C43.434 40.5206 43.4342 40.5205 43.4344 40.5203C43.7046 40.2531 43.9165 39.9327 44.0566 39.5794C44.1968 39.2259 44.262 38.8471 44.2482 38.4671C44.2344 38.0871 44.1417 37.714 43.9762 37.3717C43.8109 37.0296 43.5764 36.7255 43.2875 36.4787C43.2872 36.4785 43.287 36.4783 43.2867 36.4781L39.4527 33.1594C39.4527 33.1594 39.4527 33.1594 39.4526 33.1593C38.9251 32.7024 38.2441 32.4621 37.5466 32.4869C36.8491 32.5118 36.1869 32.7998 35.6932 33.2931L35.6931 33.2932L33.5441 35.4421L33.5441 35.4421L33.5394 35.4469C33.4312 35.5611 33.2949 35.6448 33.1441 35.6896C32.9932 35.7344 32.8333 35.7387 32.6803 35.7021L32.6792 35.7018C30.6435 35.2249 28.7866 34.176 27.3273 32.6786L27.3274 32.6786L27.3227 32.674C25.8247 31.2146 24.7753 29.3573 24.2983 27.3211L24.298 27.32C24.2614 27.167 24.2658 27.0071 24.3106 26.8562C24.3554 26.7054 24.439 26.569 24.5532 26.4608L24.5533 26.4609L24.558 26.4562L26.7069 24.3072ZM17.5975 21.7709L17.5976 21.7693C17.6198 21.4991 17.6891 21.2348 17.8023 20.9884C17.9201 20.7446 18.0795 20.5232 18.2735 20.3343L18.2736 20.3343L18.2759 20.332L20.763 17.8458L20.763 17.8459L20.7662 17.8426C20.857 17.7484 20.9666 17.6745 21.0879 17.6254C21.2091 17.5764 21.3394 17.5535 21.4701 17.5581C21.6008 17.5628 21.7291 17.5948 21.8466 17.6523C21.9641 17.7098 22.0682 17.7913 22.1521 17.8916L22.1521 17.8917L22.1548 17.8948L25.4747 21.7323L25.4753 21.733C25.6332 21.9142 25.7162 22.1487 25.7073 22.389C25.6984 22.6292 25.5984 22.857 25.4276 23.0261L25.4267 23.027L23.2792 25.1744C23.2789 25.1747 23.2786 25.1749 23.2784 25.1752C22.9495 25.4988 22.7084 25.9007 22.5775 26.3431C22.4465 26.7859 22.4303 27.2547 22.5304 27.7054L22.5304 27.7054L22.5309 27.7078C23.0822 30.0832 24.3016 32.2514 26.0451 33.9563C27.7501 35.6997 29.9183 36.919 32.2937 37.4704L32.2961 37.4709C32.7468 37.571 33.2156 37.5548 33.6584 37.4238C34.1008 37.293 34.5027 37.0518 34.8263 36.723C34.8266 36.7227 34.8268 36.7224 34.8271 36.7222L36.9746 34.5747L36.9755 34.5738C37.1446 34.403 37.3724 34.3029 37.6127 34.2941C37.8529 34.2852 38.0874 34.3682 38.2687 34.5261L38.2693 34.5266L42.1059 37.8465L42.1059 37.8465L42.1091 37.8492C42.2095 37.9331 42.291 38.0372 42.3485 38.1547C42.4059 38.2722 42.438 38.4005 42.4426 38.5312C42.4473 38.6619 42.4243 38.7921 42.3753 38.9134C42.3263 39.0347 42.2523 39.1443 42.1582 39.2351L42.1582 39.235L42.155 39.2382L39.6691 41.7241L39.669 41.724L39.6654 41.7279C39.2878 42.1219 38.7777 42.3621 38.2335 42.4021L38.2298 42.4025C37.6098 42.4575 36.9861 42.4555 36.3664 42.3964L36.3657 42.3963C32.2921 42.021 27.7941 39.3984 24.1977 35.8024C20.6013 32.2064 17.9789 27.7085 17.6036 23.635L17.6036 23.6342C17.5445 23.0146 17.5425 22.3909 17.5975 21.7709Z" fill="#018E47" stroke="#018E47" stroke-width="0.5"/>
<circle cx="29.5" cy="29.8999" r="28.5" stroke="#018E47" stroke-width="2"/>
</svg>
