<svg width="59" height="60" viewBox="0 0 59 60" fill="none" xmlns="http://www.w3.org/2000/svg">
<circle cx="29.5" cy="29.8999" r="28.5" stroke="#018E47" stroke-width="2"/>
<path d="M43.3571 18H16.6429C14.6317 18 13 19.6125 13 21.6V38.4C13 40.3875 14.6317 42 16.6429 42H43.3571C45.3683 42 47 40.3875 47 38.4V21.6C47 19.6125 45.3683 18 43.3571 18ZM42.3857 20.4L30.6769 28.1146C30.2701 28.3846 29.7373 28.3846 29.329 28.1146L17.6144 20.4H42.3857ZM43.3571 39.6H16.6429C15.9719 39.6 15.4286 39.063 15.4286 38.4V21.84L27.9798 30.1094C29.2032 30.9165 30.797 30.9165 32.0202 30.1094L44.5714 21.84V38.4C44.5714 38.718 44.4439 39.024 44.2163 39.249C43.9886 39.474 43.6789 39.6 43.3571 39.6Z" fill="#018E47"/>
</svg>
