<svg width="44" height="44" viewBox="0 0 44 44" fill="none" xmlns="http://www.w3.org/2000/svg">
<path fill-rule="evenodd" clip-rule="evenodd" d="M9.00066 2.19971C5.02421 2.19971 1.80066 5.42325 1.80066 9.39971V34.5997C1.80066 38.5761 5.02421 41.7997 9.00066 41.7997H34.2007C38.177 41.7997 41.4007 38.5761 41.4007 34.5997V9.39971C41.4007 5.42325 38.177 2.19971 34.2007 2.19971H9.00066ZM17.4279 13.4906C17.4279 10.2372 20.0654 7.59971 23.3188 7.59971H28.5551C28.9168 7.59971 29.2098 7.89276 29.2098 8.25426V13.4906C29.2098 13.8521 28.9168 14.1452 28.5551 14.1452H25.937C24.8525 14.1452 23.9734 15.0243 23.9734 16.1088V18.0724H28.5551C28.7567 18.0724 28.947 18.1653 29.0712 18.3242C29.1952 18.483 29.2391 18.6902 29.1902 18.8857L27.881 24.1221C27.8083 24.4135 27.5464 24.6178 27.2462 24.6178H23.9734V35.7452C23.9734 36.1067 23.6804 36.3997 23.3188 36.3997H18.0826C17.721 36.3997 17.4279 36.1067 17.4279 35.7452V24.6178H14.1552C13.7937 24.6178 13.5007 24.3248 13.5007 23.9633V18.7269C13.5007 18.3655 13.7937 18.0724 14.1552 18.0724H17.4279V13.4906Z" fill="#018E47"/>
</svg>
