<svg width="44" height="44" viewBox="0 0 44 44" fill="none" xmlns="http://www.w3.org/2000/svg">
<path fill-rule="evenodd" clip-rule="evenodd" d="M9.19878 2.19971C5.22233 2.19971 1.99878 5.42325 1.99878 9.39971V34.5997C1.99878 38.5761 5.22233 41.7997 9.19878 41.7997H34.3988C38.3752 41.7997 41.5988 38.5761 41.5988 34.5997V9.39971C41.5988 5.42325 38.3752 2.19971 34.3988 2.19971H9.19878ZM8.29878 16.5997C8.29878 12.1262 11.9253 8.49971 16.3988 8.49971H27.1988C31.6723 8.49971 35.2988 12.1262 35.2988 16.5997V27.3997C35.2988 31.8732 31.6723 35.4997 27.1988 35.4997H16.3988C11.9253 35.4997 8.29878 31.8732 8.29878 27.3997V16.5997ZM16.3988 10.2997C12.9194 10.2997 10.0988 13.1203 10.0988 16.5997V27.3997C10.0988 30.8791 12.9194 33.6997 16.3988 33.6997H27.1988C30.6782 33.6997 33.4988 30.8791 33.4988 27.3997V16.5997C33.4988 13.1203 30.6782 10.2997 27.1988 10.2997H16.3988ZM30.7988 15.0997C30.7988 15.9281 30.1272 16.5997 29.2988 16.5997C28.4703 16.5997 27.7987 15.9281 27.7987 15.0997C27.7987 14.2713 28.4703 13.5997 29.2988 13.5997C30.1272 13.5997 30.7988 14.2713 30.7988 15.0997ZM14.8988 21.9997C14.8988 18.1889 17.988 15.0997 21.7988 15.0997C25.6096 15.0997 28.6987 18.1889 28.6987 21.9997C28.6987 25.8105 25.6096 28.8996 21.7988 28.8996C17.988 28.8996 14.8988 25.8105 14.8988 21.9997ZM21.7988 16.8997C18.9821 16.8997 16.6988 19.1831 16.6988 21.9997C16.6988 24.8163 18.9821 27.0996 21.7988 27.0996C24.6154 27.0996 26.8987 24.8163 26.8987 21.9997C26.8987 19.1831 24.6154 16.8997 21.7988 16.8997Z" fill="#018E47"/>
</svg>
