<svg width="44" height="44" viewBox="0 0 44 44" fill="none" xmlns="http://www.w3.org/2000/svg">
<path fill-rule="evenodd" clip-rule="evenodd" d="M9.39897 2.19971C5.42252 2.19971 2.19897 5.42325 2.19897 9.39971V34.5997C2.19897 38.5761 5.42252 41.7997 9.39897 41.7997H34.599C38.5754 41.7997 41.799 38.5761 41.799 34.5997V9.39971C41.799 5.42325 38.5754 2.19971 34.599 2.19971H9.39897ZM11.5672 14.6361C13.2617 14.6361 14.6353 13.2624 14.6353 11.5679C14.6353 9.87338 13.2617 8.49971 11.5672 8.49971C9.87264 8.49971 8.49897 9.87338 8.49897 11.5679C8.49897 13.2624 9.87264 14.6361 11.5672 14.6361ZM14.6353 35.4997V17.0906H8.49897V35.4997H14.6353ZM22.6126 17.0906H17.0899V35.4997H22.6126V24.3944C23.3241 23.2374 24.5514 21.9997 26.2945 21.9997C28.749 21.9997 29.3626 24.4542 29.3626 25.6816V35.4997H35.499V25.6816C35.499 22.3928 34.0635 17.0906 28.749 17.0906C25.3688 17.0906 23.4919 18.3238 22.6126 19.479V17.0906Z" fill="#018E47"/>
</svg>
