<svg width="59" height="60" viewBox="0 0 59 60" fill="none" xmlns="http://www.w3.org/2000/svg">
<path d="M29.4983 48.5216C29.1769 48.5216 28.8777 48.3639 28.6957 48.1011C28.6674 48.0586 25.7602 43.8413 22.8934 38.9005C18.9834 32.1603 17 27.3139 17 24.5C17 17.6082 22.6082 12 29.5 12C36.3918 12 42 17.6082 42 24.5C42 27.3142 40.0167 32.1583 36.1066 38.9005C33.2398 43.8435 30.3327 48.0607 30.3043 48.1011C30.1223 48.3659 29.8211 48.5216 29.5017 48.5216H29.4983ZM29.4983 13.9504C23.6821 13.9504 18.9511 18.6812 18.9511 24.4977C18.9511 29.091 25.9443 40.4912 29.4983 45.8044C33.0525 40.4891 40.0456 29.0868 40.0456 24.4977C40.0456 18.6835 35.3148 13.9504 29.4983 13.9504Z" fill="#018E47"/>
<path d="M29.4985 29.8288C26.4458 29.8288 23.9633 27.3461 23.9633 24.2936C23.9633 21.2408 26.4459 18.7583 29.4985 18.7583C32.5511 18.7583 35.0338 21.241 35.0338 24.2936C35.0338 27.3463 32.5511 29.8288 29.4985 29.8288ZM29.4985 20.711C27.5233 20.711 25.916 22.3183 25.916 24.2935C25.916 26.2687 27.5233 27.876 29.4985 27.876C31.4737 27.876 33.081 26.2687 33.081 24.2935C33.081 22.3183 31.4737 20.711 29.4985 20.711Z" fill="#018E47"/>
<circle cx="29.5" cy="29.8999" r="28.5" stroke="#018E47" stroke-width="2"/>
</svg>
