<svg width="44" height="30" viewBox="0 0 44 30" fill="none" xmlns="http://www.w3.org/2000/svg">
<g clip-path="url(#clip0_74_2774)">
<path fill-rule="evenodd" clip-rule="evenodd" d="M2.44078 0.0834961H40.6106C41.9069 0.0834961 42.9677 1.144 42.9677 2.44029V27.5589C42.9677 28.8552 41.9072 29.916 40.6106 29.916H2.44078C1.14484 29.916 0.0839844 28.8555 0.0839844 27.5589V2.44029C0.0839844 1.144 1.14484 0.0834961 2.44078 0.0834961Z" fill="white"/>
<path fill-rule="evenodd" clip-rule="evenodd" d="M2.44078 0.0834961H40.6106C41.9069 0.0834961 42.9677 1.144 42.9677 2.44029V20.0653H0.0839844V2.44029C0.0839844 1.144 1.14484 0.0834961 2.44078 0.0834961Z" fill="black"/>
<path fill-rule="evenodd" clip-rule="evenodd" d="M2.44078 0.0834961H40.6106C41.9069 0.0834961 42.9677 1.144 42.9677 2.44029V9.93425H0.0839844V2.44029C0.0839844 1.144 1.14484 0.0834961 2.44078 0.0834961Z" fill="#0072CE"/>
<path d="M2.44053 0H40.6103C41.2812 0 41.8912 0.274673 42.3337 0.716813C42.7765 1.15965 43.0508 1.76961 43.0508 2.44053V27.5591C43.0508 28.23 42.7765 28.8403 42.334 29.2828C41.8912 29.7253 41.2812 30 40.6103 30H2.44053C1.76996 30 1.15965 29.7253 0.717164 29.2828C0.274673 28.8407 0 28.2304 0 27.5591V2.44053C0 1.76926 0.274673 1.15895 0.716813 0.716813C1.15965 0.274673 1.76996 0 2.44053 0ZM40.6103 0.167817H2.44053C1.81551 0.167817 1.24724 0.423221 0.835581 0.835231C0.423571 1.24724 0.167817 1.81586 0.167817 2.44053V27.5591C0.167817 28.1841 0.423571 28.7524 0.835581 29.1644C1.24724 29.5768 1.81551 29.8322 2.44053 29.8322H40.6103C41.2353 29.8322 41.8036 29.5764 42.2156 29.1648C42.6276 28.7528 42.8834 28.1841 42.8834 27.5591V2.44053C42.8834 1.81551 42.6276 1.24689 42.2156 0.834881C41.8036 0.422871 41.2353 0.167817 40.6103 0.167817Z" fill="#CCCCCC"/>
</g>
<defs>
<clipPath id="clip0_74_2774">
<rect width="43.0508" height="30" fill="white"/>
</clipPath>
</defs>
</svg>
