<svg width="44" height="30" viewBox="0 0 44 30" fill="none" xmlns="http://www.w3.org/2000/svg">
<g clip-path="url(#clip0_74_2780)">
<path fill-rule="evenodd" clip-rule="evenodd" d="M2.36898 0H40.7534C42.0555 0 43.1224 1.06692 43.1224 2.36898V27.631C43.1224 28.9331 42.0555 30 40.7534 30H2.36898C1.06692 30 0 28.9331 0 27.631V2.36898C0 1.06692 1.06692 0 2.36898 0Z" fill="white"/>
<path d="M2.35494 0H40.7709C42.0695 0.00701919 43.1259 1.07043 43.1259 2.36898V5.77328H0V2.36898C0 1.07043 1.05639 0.00701919 2.35494 0ZM43.1259 24.2337V27.631C43.1259 28.9296 42.066 29.993 40.7709 30H2.35494C1.05639 29.993 0 28.9296 0 27.631V24.2337H43.1259Z" fill="#0038B8"/>
<path d="M21.5629 9.54253L16.8319 17.7339H26.2938L21.5629 9.54253ZM15.1929 18.0568L21.5629 7.01562L28.4873 19.0044H14.6384L15.1929 18.0568Z" fill="#0038B8"/>
<path d="M21.5629 20.4645L26.2938 12.2731H16.8319L21.5629 20.4645ZM27.9363 11.9537L21.5629 22.9949L14.6384 11.0061H28.4768L27.9363 11.9537Z" fill="#0038B8"/>
</g>
<defs>
<clipPath id="clip0_74_2780">
<rect width="43.1259" height="30" fill="white"/>
</clipPath>
</defs>
</svg>
