<svg width="43" height="30" viewBox="0 0 43 30" fill="none" xmlns="http://www.w3.org/2000/svg">
<g clip-path="url(#clip0_74_2786)">
<path d="M0.9803 29.2283L25.826 14.8841L41.4047 29.6064C42.2149 29.236 42.7859 28.4181 42.7859 27.4767V2.52302C42.7859 1.23444 41.7287 0.185059 40.4479 0.185059H2.52351C1.23493 0.185059 0.185547 1.23444 0.185547 2.52302V27.469C0.185547 28.1712 0.494189 28.7962 0.9803 29.2283ZM39.9541 29.8147H2.52351C2.01425 29.8147 1.54357 29.6527 1.16549 29.3749L39.9541 29.8147Z" fill="#0038A8"/>
<path d="M0.185547 14.8997H25.8028L0.9803 29.2284C0.494189 28.7963 0.185547 28.1713 0.185547 27.4691V14.8997ZM42.7781 14.8997V27.4768C42.7781 28.7654 41.721 29.8148 40.4402 29.8148H2.52351C1.92937 29.8148 1.38925 29.591 0.9803 29.2284L25.7951 14.8997H42.7781Z" fill="#CE1126"/>
<path d="M25.826 14.8841L0.9803 29.2282C0.494189 28.7961 0.185547 28.1711 0.185547 27.469V2.523C0.185547 1.7514 0.563633 1.06467 1.15005 0.632568L25.826 14.8841Z" fill="white"/>
<path d="M12.3375 14.8997C12.3375 13.2485 10.9949 11.9136 9.35135 11.9136C7.70783 11.9136 6.36523 13.2562 6.36523 14.8997C6.36523 16.5432 7.70783 17.8858 9.35135 17.8858C10.9949 17.8858 12.3375 16.5432 12.3375 14.8997Z" fill="#FCD116"/>
<path d="M3.0332 14.8994L3.42672 15.2929L9.35265 14.8994L3.42672 14.5059L3.0332 14.8994Z" fill="#FCD116"/>
<path d="M3.70312 15.6402L4.01177 15.9565L9.35127 14.8994L3.70312 15.6402Z" fill="#FCD116"/>
<path d="M3.70312 14.1586L4.01177 13.8423L9.35127 14.8994L3.70312 14.1586Z" fill="#FCD116"/>
<path d="M4.88452 10.4319V10.9952L9.35211 14.8995L5.43236 10.4319H4.88452Z" fill="#FCD116"/>
<path d="M4.83008 11.4272V11.8748L9.35168 14.8995L4.83008 11.4272Z" fill="#FCD116"/>
<path d="M5.87305 10.3779H6.32829L9.35299 14.8995L5.87305 10.3779Z" fill="#FCD116"/>
<path d="M9.3525 8.58789L8.95898 8.97369L9.3525 14.8996L9.74602 8.97369L9.3525 8.58789Z" fill="#FCD116"/>
<path d="M8.60337 9.25146L8.2793 9.56782L9.35183 14.8996L8.60337 9.25146Z" fill="#FCD116"/>
<path d="M10.0846 9.25146L10.4087 9.56782L9.35156 14.8996L10.0846 9.25146Z" fill="#FCD116"/>
<path d="M13.8114 10.4321H13.2559L9.35156 14.8997L13.8114 10.9954V10.4321Z" fill="#FCD116"/>
<path d="M12.8161 10.3779H12.3608L9.35156 14.8995L12.8161 10.3779Z" fill="#FCD116"/>
<path d="M13.8655 11.4272V11.8748L9.35156 14.8995L13.8655 11.4272Z" fill="#FCD116"/>
<path d="M15.6556 14.8994L15.2621 14.5059L9.35156 14.8994L15.2621 15.2929L15.6556 14.8994Z" fill="#FCD116"/>
<path d="M14.9997 14.1586L14.6756 13.8423L9.35156 14.8994L14.9997 14.1586Z" fill="#FCD116"/>
<path d="M14.9997 15.6402L14.6756 15.9565L9.35156 14.8994L14.9997 15.6402Z" fill="#FCD116"/>
<path d="M13.8114 19.3593V18.8037L9.35156 14.8994L13.2559 19.3593H13.8114Z" fill="#FCD116"/>
<path d="M13.8655 18.3639V17.9164L9.35156 14.8994L13.8655 18.3639Z" fill="#FCD116"/>
<path d="M12.8161 19.4133H12.3608L9.35156 14.8994L12.8161 19.4133Z" fill="#FCD116"/>
<path d="M9.3525 21.2111L9.74602 20.8176L9.3525 14.8994L8.95898 20.8176L9.3525 21.2111Z" fill="#FCD116"/>
<path d="M10.0846 20.5476L10.4087 20.2235L9.35156 14.8994L10.0846 20.5476Z" fill="#FCD116"/>
<path d="M8.60337 20.5476L8.2793 20.2235L9.35183 14.8994L8.60337 20.5476Z" fill="#FCD116"/>
<path d="M4.88452 19.3595H5.43236L9.35211 14.8997L4.88452 18.804V19.3595Z" fill="#FCD116"/>
<path d="M5.87305 19.4133H6.32829L9.35299 14.8994L5.87305 19.4133Z" fill="#FCD116"/>
<path d="M4.83008 18.3639V17.9164L9.35168 14.8994L4.83008 18.3639Z" fill="#FCD116"/>
<path d="M22.9487 14.8994L21.8222 15.2929L21.799 16.4735L21.0814 15.5321L19.9395 15.8716L20.6262 14.8994H22.9487Z" fill="#FCD116"/>
<path d="M22.9487 14.8997L21.8222 14.5061L21.799 13.3179L21.0814 14.2592L19.9395 13.9274L20.6262 14.8997H22.9487Z" fill="#FCD116"/>
<path d="M1.5427 27.253L1.76647 26.0956L0.740234 25.4706L1.92851 25.324L2.19085 24.1743L2.70783 25.2468L1.5427 27.253Z" fill="#FCD116"/>
<path d="M1.54297 27.253L2.43803 26.4736L3.4797 27.0523L3.01673 25.9567L3.88865 25.1465L2.70809 25.2468L1.54297 27.253Z" fill="#FCD116"/>
<path d="M1.54297 2.54639L2.43803 3.31799L3.4797 2.747L3.01673 3.83497L3.88865 4.65287L2.70809 4.55256L1.54297 2.54639Z" fill="#FCD116"/>
<path d="M1.5427 2.54639L1.76647 3.71151L0.740234 4.32108L1.92851 4.4754L2.19085 5.63281L2.70783 4.55256L1.5427 2.54639Z" fill="#FCD116"/>
<path d="M2.52351 0.185059H40.4325C41.721 0.185059 42.7704 1.23444 42.7704 2.52302V27.469C42.7704 28.7576 41.7133 29.807 40.4325 29.807H2.52351C1.23493 29.807 0.185547 28.7499 0.185547 27.469V2.52302C0.185547 1.23444 1.23493 0.185059 2.52351 0.185059Z" stroke="#CCCCCC" stroke-width="0.4799" stroke-miterlimit="22.9256"/>
</g>
<defs>
<clipPath id="clip0_74_2786">
<rect width="42.963" height="30" fill="white"/>
</clipPath>
</defs>
</svg>
