<svg width="44" height="30" viewBox="0 0 44 30" fill="none" xmlns="http://www.w3.org/2000/svg">
<g clip-path="url(#clip0_74_2823)">
<path d="M15.0074 0.095459H41.0913C42.407 0.095459 43.4783 1.16679 43.4783 2.48252V27.9519C43.4783 29.2676 42.407 30.3389 41.0913 30.3389H2.38697C1.07125 30.3466 0 29.2753 0 27.9596V15.2211H15.0074V0.095459Z" fill="#FE0000"/>
<path d="M0 15.2211H15.0074V0.095459H2.38697C1.07125 0.095459 0 1.16679 0 2.48252V15.2211Z" fill="#000095"/>
<path d="M9.39504 10.9358L8.94183 9.24906C8.71589 9.45329 8.44892 9.60688 8.1588 9.69955L9.39504 10.9358ZM9.39504 7.65853C9.39504 6.61072 8.54407 5.76782 7.50433 5.76782C6.45652 5.76782 5.61362 6.61879 5.61362 7.65853C5.61362 8.70626 6.46459 9.54916 7.50433 9.54916C7.75279 9.54977 7.99892 9.50129 8.22858 9.4065C8.45825 9.31171 8.66692 9.17247 8.84261 8.99679C9.0183 8.8211 9.15755 8.61244 9.25235 8.38278C9.34715 8.15312 9.39565 7.90699 9.39504 7.65853ZM9.09494 9.09603L10.7813 9.54916L9.54509 8.31478C9.45216 8.60418 9.29871 8.8705 9.09494 9.09603ZM9.59961 8.11021L11.2935 7.65853L9.59902 7.2077C9.63087 7.35586 9.64693 7.50698 9.64691 7.65853C9.64698 7.81033 9.63113 7.96172 9.59961 8.11021ZM9.5439 7.00194L10.7813 5.76808L9.09222 6.22129C9.29644 6.44653 9.45041 6.71264 9.5439 7.00194ZM8.94158 6.07064L9.39504 4.38153L8.16118 5.61896C8.45034 5.71261 8.71633 5.86657 8.94158 6.07064ZM7.95508 5.56359L7.50433 3.86938L7.05265 5.56359C7.20098 5.53153 7.35232 5.51545 7.50408 5.51562C7.65888 5.51562 7.80953 5.53226 7.95508 5.56359ZM6.84545 5.61921L5.60555 4.38153L6.06386 6.07302C6.28906 5.86777 6.55555 5.71304 6.84545 5.61921ZM5.91585 6.22154L4.22699 5.76782L5.46323 7.00407C5.55685 6.71406 5.71115 6.4473 5.91585 6.22154ZM5.40905 7.20711L3.71484 7.65853L5.40905 8.10928C5.34522 7.81194 5.34522 7.50444 5.40905 7.20711ZM5.46416 8.31529L4.22699 9.54916L5.9161 9.09603C5.71193 8.87068 5.55789 8.60457 5.46416 8.31529ZM6.06709 9.24702L5.61362 10.9358L6.84808 9.6987C6.55859 9.60539 6.29233 9.4514 6.06709 9.24702ZM7.05324 9.75373L7.50408 11.4476L7.95542 9.75373C7.80705 9.78537 7.65578 9.80134 7.50408 9.80137C7.34952 9.80137 7.19854 9.78506 7.05324 9.75373Z" fill="white"/>
</g>
<defs>
<clipPath id="clip0_74_2823">
<rect width="43.4783" height="30" fill="white"/>
</clipPath>
</defs>
</svg>
