<svg width="44" height="30" viewBox="0 0 44 30" fill="none" xmlns="http://www.w3.org/2000/svg">
<g clip-path="url(#clip0_74_2828)">
<path d="M2.36719 0H40.75C42.0547 0 43.1172 1.0625 43.1172 2.36719V27.625C43.1172 28.9297 42.0547 29.9922 40.75 29.9922H2.36719C1.0625 30 0 28.9375 0 27.6328V2.36719C0 1.0625 1.0625 0 2.36719 0Z" fill="#B22234"/>
<path d="M0.015625 2.13281H43.1172C43.125 2.21094 43.1328 2.28906 43.1328 2.375V4.67187H0V2.36719C0 2.28906 0.0078125 2.21094 0.015625 2.13281ZM43.125 6.77344V9.30469H0V6.77344H43.125ZM43.125 11.4141V13.9453H0V11.4141H43.125ZM43.125 16.0547V18.5859H0V16.0547H43.125ZM43.125 20.6953V23.2266H0V20.6953H43.125ZM43.125 25.3359V27.625C43.125 27.7031 43.1172 27.7891 43.1094 27.8672H0.015625C0.0078125 27.7969 0 27.7109 0 27.6328V25.3437H43.125V25.3359Z" fill="white"/>
<path d="M16.25 0V16.1562H0V2.36719C0 1.0625 1.0625 0 2.36719 0H16.25Z" fill="#3C3B6E"/>
<path d="M0.960937 2.23438L1.5 3.91406L0.078125 2.875H1.84375L0.414062 3.91406L0.960937 2.23438Z" fill="white"/>
<path d="M0.960937 5.48438L1.5 7.16406L0.078125 6.125H1.84375L0.414062 7.16406L0.960937 5.48438Z" fill="white"/>
<path d="M0.960937 8.73438L1.5 10.4141L0.078125 9.375H1.84375L0.414062 10.4141L0.960937 8.73438Z" fill="white"/>
<path d="M0.960937 11.9844L1.5 13.6641L0.078125 12.625H1.84375L0.414062 13.6641L0.960937 11.9844Z" fill="white"/>
<path d="M2.86719 0.609375L3.41406 2.28906L1.98438 1.25H3.75781L2.32031 2.28906L2.86719 0.609375Z" fill="white"/>
<path d="M2.86719 3.85938L3.41406 5.53906L1.98438 4.5H3.75781L2.32031 5.53906L2.86719 3.85938Z" fill="white"/>
<path d="M2.86719 7.10938L3.41406 8.78906L1.98438 7.75H3.75781L2.32031 8.78906L2.86719 7.10938Z" fill="white"/>
<path d="M2.86719 10.3594L3.41406 12.0391L1.98438 11H3.75781L2.32031 12.0391L2.86719 10.3594Z" fill="white"/>
<path d="M2.86719 13.6094L3.41406 15.2891L1.98438 14.25H3.75781L2.32031 15.2891L2.86719 13.6094Z" fill="white"/>
<path d="M4.78125 2.23438L5.32813 3.91406L3.89844 2.875H5.66406L4.23438 3.91406L4.78125 2.23438Z" fill="white"/>
<path d="M4.78125 5.48438L5.32813 7.16406L3.89844 6.125H5.66406L4.23438 7.16406L4.78125 5.48438Z" fill="white"/>
<path d="M4.78125 8.73438L5.32813 10.4141L3.89844 9.375H5.66406L4.23438 10.4141L4.78125 8.73438Z" fill="white"/>
<path d="M4.78125 11.9844L5.32813 13.6641L3.89844 12.625H5.66406L4.23438 13.6641L4.78125 11.9844Z" fill="white"/>
<path d="M6.69531 0.609375L7.23438 2.28906L5.8125 1.25H7.57812L6.14844 2.28906L6.69531 0.609375Z" fill="white"/>
<path d="M6.69531 3.85938L7.23438 5.53906L5.8125 4.5H7.57812L6.14844 5.53906L6.69531 3.85938Z" fill="white"/>
<path d="M6.69531 7.10938L7.23438 8.78906L5.8125 7.75H7.57812L6.14844 8.78906L6.69531 7.10938Z" fill="white"/>
<path d="M6.69531 10.3594L7.23438 12.0391L5.8125 11H7.57812L6.14844 12.0391L6.69531 10.3594Z" fill="white"/>
<path d="M6.69531 13.6094L7.23438 15.2891L5.8125 14.25H7.57812L6.14844 15.2891L6.69531 13.6094Z" fill="white"/>
<path d="M8.60156 2.23438L9.14844 3.91406L7.71875 2.875H9.48438L8.05469 3.91406L8.60156 2.23438Z" fill="white"/>
<path d="M8.60156 5.48438L9.14844 7.16406L7.71875 6.125H9.48438L8.05469 7.16406L8.60156 5.48438Z" fill="white"/>
<path d="M8.60156 8.73438L9.14844 10.4141L7.71875 9.375H9.48438L8.05469 10.4141L8.60156 8.73438Z" fill="white"/>
<path d="M8.60156 11.9844L9.14844 13.6641L7.71875 12.625H9.48438L8.05469 13.6641L8.60156 11.9844Z" fill="white"/>
<path d="M10.5156 0.609375L11.0625 2.28906L9.63281 1.25H11.3984L9.96875 2.28906L10.5156 0.609375Z" fill="white"/>
<path d="M10.5156 3.85938L11.0625 5.53906L9.63281 4.5H11.3984L9.96875 5.53906L10.5156 3.85938Z" fill="white"/>
<path d="M10.5156 7.10938L11.0625 8.78906L9.63281 7.75H11.3984L9.96875 8.78906L10.5156 7.10938Z" fill="white"/>
<path d="M10.5156 10.3594L11.0625 12.0391L9.63281 11H11.3984L9.96875 12.0391L10.5156 10.3594Z" fill="white"/>
<path d="M10.5156 13.6094L11.0625 15.2891L9.63281 14.25H11.3984L9.96875 15.2891L10.5156 13.6094Z" fill="white"/>
<path d="M12.4219 2.23438L12.9688 3.91406L11.5391 2.875H13.3047L11.8828 3.91406L12.4219 2.23438Z" fill="white"/>
<path d="M12.4219 5.48438L12.9688 7.16406L11.5391 6.125H13.3047L11.8828 7.16406L12.4219 5.48438Z" fill="white"/>
<path d="M12.4219 8.73438L12.9688 10.4141L11.5391 9.375H13.3047L11.8828 10.4141L12.4219 8.73438Z" fill="white"/>
<path d="M12.4219 11.9844L12.9688 13.6641L11.5391 12.625H13.3047L11.8828 13.6641L12.4219 11.9844Z" fill="white"/>
<path d="M14.3359 0.609375L14.8828 2.28906L13.4531 1.25H15.2188L13.7891 2.28906L14.3359 0.609375Z" fill="white"/>
<path d="M14.3359 3.85938L14.8828 5.53906L13.4531 4.5H15.2188L13.7891 5.53906L14.3359 3.85938Z" fill="white"/>
<path d="M14.3359 7.10938L14.8828 8.78906L13.4531 7.75H15.2188L13.7891 8.78906L14.3359 7.10938Z" fill="white"/>
<path d="M14.3359 10.3594L14.8828 12.0391L13.4531 11H15.2188L13.7891 12.0391L14.3359 10.3594Z" fill="white"/>
<path d="M14.3359 13.6094L14.8828 15.2891L13.4531 14.25H15.2188L13.7891 15.2891L14.3359 13.6094Z" fill="white"/>
</g>
<defs>
<clipPath id="clip0_74_2828">
<rect width="43.125" height="30" fill="white"/>
</clipPath>
</defs>
</svg>
