<svg width="191" height="34" viewBox="0 0 191 34" fill="none" xmlns="http://www.w3.org/2000/svg">
<path d="M108.902 10.2316H101.396L99.0727 3.09216C98.4493 1.16639 96.3185 0.0476435 94.3373 0.675335C93.1929 1.0511 92.2919 1.96488 91.929 3.09216L89.6061 10.2316H82.1037C80.0327 10.2316 78.3418 11.9225 78.3418 13.985C78.3418 15.1848 78.9182 16.3206 79.8918 17.0295L85.9638 21.4404L83.6452 28.5713C83.0046 30.5483 84.085 32.6748 86.0662 33.3238C86.442 33.4391 86.8306 33.4989 87.2191 33.4989C88.0219 33.4989 88.7905 33.247 89.4353 32.7815L95.4987 28.3706L101.562 32.7815C103.176 33.9558 105.631 33.5758 106.818 31.9489C107.527 30.971 107.719 29.7199 107.352 28.5798L105.034 21.4404L111.106 17.0295C111.913 16.4359 112.446 15.5691 112.613 14.5785C112.767 13.5921 112.523 12.5844 111.942 11.7902C111.246 10.8081 110.102 10.2316 108.902 10.2316Z" fill="#8DCF4F"/>
<path d="M147.903 10.2316H140.396L138.077 3.09216C137.454 1.16639 135.328 0.0476435 133.333 0.675335C132.189 1.0511 131.288 1.96488 130.929 3.09216L128.607 10.2316H121.104C119.033 10.2316 117.342 11.9225 117.342 13.985C117.342 15.1848 117.919 16.3206 118.888 17.0295L124.96 21.4404L122.641 28.5713C122.005 30.5483 123.085 32.6748 125.062 33.3238C125.442 33.4391 125.827 33.4989 126.22 33.4989C127.022 33.4989 127.787 33.247 128.436 32.7815L134.508 28.3706L140.575 32.7815C142.211 33.9558 144.649 33.5758 145.832 31.9489C146.536 30.971 146.733 29.7199 146.361 28.5798L144.043 21.4404L150.119 17.0295C151.801 15.804 152.164 13.4512 150.947 11.7816C150.247 10.8081 149.115 10.2316 147.903 10.2316Z" fill="#8DCF4F"/>
<path d="M186.916 10.2316H179.414L177.087 3.09216C176.463 1.16639 174.337 0.0476435 172.351 0.675335C171.207 1.0511 170.306 1.96488 169.943 3.09216L167.625 10.2316H160.118C158.051 10.2316 156.356 11.9225 156.356 13.985C156.356 15.1848 156.932 16.3206 157.906 17.0295L163.978 21.4404L161.659 28.5713C161.019 30.5483 162.103 32.6748 164.076 33.3238C164.452 33.4391 164.845 33.4989 165.233 33.4989C166.036 33.4989 166.805 33.247 167.449 32.7815L173.521 28.3706L179.593 32.7815C181.224 33.9558 183.663 33.5758 184.845 31.9489C185.55 30.971 185.746 29.7199 185.375 28.5798L183.056 21.4404L189.133 17.0295C189.94 16.4359 190.473 15.5691 190.636 14.5785C190.794 13.5921 190.55 12.5844 189.969 11.7902C189.261 10.8081 188.121 10.2316 186.916 10.2316Z" fill="#8DCF4F"/>
<path d="M69.891 10.2324H62.3886L60.0615 3.0844C59.4338 1.16716 57.3116 0.0569636 55.326 0.676115C54.1817 1.05188 53.2807 1.96566 52.9177 3.09294L50.5948 10.2324H43.0924C41.0215 10.2324 39.3306 11.9233 39.3306 13.9857C39.3306 15.1856 39.907 16.3214 40.8806 17.0302L46.9525 21.4412L44.6339 28.5721C43.9934 30.5491 45.0737 32.6756 47.055 33.3246C47.4308 33.4399 47.8193 33.4997 48.2079 33.4997C49.0107 33.4997 49.7793 33.2477 50.424 32.7823L56.4917 28.3714L62.5594 32.7823C64.1777 33.9566 66.633 33.5765 67.8201 31.9497C68.5246 30.9718 68.721 29.7207 68.3495 28.5806L66.0309 21.4412L72.1072 17.0302C73.7853 15.8048 74.1525 13.452 72.9355 11.7824C72.2353 10.8088 71.0994 10.2324 69.891 10.2324Z" fill="#8DCF4F"/>
<path d="M30.8816 10.2324H23.3749L21.0478 3.0844C20.4201 1.16716 18.2894 0.0569636 16.3123 0.676115C15.1765 1.05188 14.2755 1.95712 13.8998 3.09294L11.5812 10.2324H4.07877C2.00782 10.2324 0.316895 11.9233 0.316895 13.9857C0.316895 15.1856 0.893346 16.3214 1.86691 17.0302L7.93886 21.4412L5.62024 28.5721C4.97974 30.5491 6.06006 32.6756 8.04134 33.3246C8.4171 33.4399 8.80567 33.4997 9.19424 33.4997C9.997 33.4997 10.7613 33.2477 11.4061 32.7823L17.4781 28.3714L23.5457 32.7823C25.1641 33.9566 27.6193 33.5765 28.8064 31.9497C29.5024 30.9804 29.7031 29.725 29.3359 28.5806L27.013 21.4412L33.0935 17.0302C34.7631 15.8133 35.1388 13.452 33.9219 11.7824C33.2258 10.8088 32.0815 10.2324 30.8816 10.2324Z" fill="#8DCF4F"/>
</svg>
