<svg width="93" height="93" viewBox="0 0 93 93" fill="none" xmlns="http://www.w3.org/2000/svg">
<circle cx="46.8025" cy="46.6171" r="44.9757" stroke="#018E47" stroke-width="1.85581"/>
<path d="M66.4253 43.1084C66.5086 43.4831 66.5804 43.8694 66.6336 44.2556V44.2533C67.2054 48.2498 66.0804 52.2997 63.5294 55.4288V57.36L68.7841 57.3623C69.46 57.36 70.092 57.7092 70.4462 58.2874C70.8027 58.8633 70.8351 59.5826 70.5295 60.1862C70.6869 60.2741 70.8327 60.3852 70.9601 60.5124C71.3258 60.8778 71.5318 61.3727 71.5318 61.8885C71.5318 62.4042 71.3258 62.8992 70.9601 63.2646C70.8327 63.3941 70.6892 63.5028 70.5295 63.5907C70.9068 64.34 70.761 65.2467 70.1661 65.8411C70.0966 65.9081 70.0226 65.9729 69.9438 66.0307C70.3073 66.632 70.3189 67.3838 69.9739 67.9966C69.629 68.6095 68.9809 68.9888 68.2771 68.9911H66.1428H66.0711H66.0271H58.8537C57.7541 68.9865 56.7587 68.3435 56.3073 67.3421H54.5874V67.3374C54.2495 67.3374 53.967 67.0853 53.9323 66.75L53.2795 60.7552C53.2216 60.7598 53.1615 60.7644 53.1013 60.7667C52.8073 60.7852 52.5249 60.7922 52.2587 60.7922V60.7945C48.5202 60.7991 44.9229 59.3582 42.2259 56.7725H27.2859C26.478 56.7702 25.8229 56.1179 25.8206 55.3084V52.8569H22.5845C21.7743 52.8545 21.1191 52.2 21.1191 51.3928V28.725C21.1191 28.5099 21.2233 28.3087 21.3992 28.1838L26.9549 23.8218H26.9525C27.0683 23.7293 27.2118 23.6784 27.36 23.6784V23.6761H43.3951C43.784 23.6761 44.1567 23.831 44.4322 24.1063C44.7076 24.3815 44.8627 24.7562 44.8604 25.1447V27.5963H48.0965C48.9067 27.5986 49.5619 28.2531 49.5619 29.0603V32.0346C51.805 31.616 54.1152 31.727 56.3074 32.3607C57.2449 32.6313 58.1524 32.9967 59.0135 33.45V30.0455C59.0135 29.8698 59.0829 29.7009 59.2056 29.576C59.3306 29.4511 59.4996 29.3818 59.6755 29.3818H63.4695C63.6454 29.3818 63.8121 29.4512 63.9371 29.576C64.0621 29.6986 64.1316 29.8675 64.1316 30.0432V32.0114H66.5992V27.6795C66.6015 27.3141 66.8955 27.0204 67.2613 27.018H71.0529C71.2289 27.018 71.3979 27.0874 71.5205 27.2123C71.6455 27.3349 71.715 27.5037 71.715 27.6795V42.4448C71.715 42.6206 71.6455 42.7894 71.5229 42.912C71.3978 43.0369 71.2312 43.1086 71.0553 43.1086L66.4253 43.1084ZM70.0851 49.8481L70.8513 51.2821L72.3374 51.4948C72.5897 51.5295 72.7981 51.703 72.8768 51.9435C72.9532 52.1864 72.886 52.45 72.7008 52.6235L71.5897 53.7776L71.849 55.2531L71.8513 55.2508C71.893 55.5029 71.7888 55.755 71.5805 55.9031C71.3721 56.0511 71.099 56.0673 70.8767 55.9424L69.4462 55.2462L68.1197 55.9493C67.9646 56.0326 67.7841 56.0488 67.6151 55.9956C67.4484 55.9447 67.3096 55.829 67.2285 55.6741C67.1614 55.5515 67.1383 55.4127 67.1591 55.2763L67.3836 53.6619L66.3049 52.6188C66.1267 52.4477 66.0595 52.1887 66.1336 51.9527C66.2054 51.7145 66.4068 51.5387 66.6498 51.4971L68.254 51.2126L68.9137 49.8666C69.0248 49.6446 69.2471 49.5035 69.4948 49.5012C69.7401 49.4966 69.9693 49.6307 70.085 49.8458L70.0851 49.8481ZM69.8489 52.2003L69.5272 51.6036L69.3142 52.0453V52.043C69.2286 52.2581 69.0388 52.413 68.8096 52.4547L68.1498 52.5726L68.5248 52.9357V52.938C68.6846 53.0838 68.7633 53.2988 68.7355 53.5139L68.6406 54.1823L69.1244 53.9279C69.3096 53.8285 69.5295 53.8239 69.7193 53.9164L70.3258 54.2101L70.2332 53.6781C70.1961 53.47 70.261 53.2595 70.4091 53.1092L70.8767 52.6235L70.3373 52.5449H70.335C70.129 52.5148 69.9461 52.3876 69.8489 52.2026L69.8489 52.2003ZM54.2055 49.8481L54.9717 51.2821L56.4579 51.4948C56.7102 51.5272 56.9185 51.703 56.9972 51.9435C57.0736 52.1864 57.0065 52.45 56.8213 52.6235L55.7102 53.7776L55.9694 55.2531L55.9717 55.2508C56.0018 55.4243 55.9625 55.6024 55.8606 55.7458C55.7611 55.8892 55.6083 55.9863 55.4347 56.0164C55.2842 56.0441 55.1314 56.0187 54.9972 55.9447L53.562 55.2462L52.2356 55.9493C52.0805 56.0325 51.8999 56.0487 51.7332 55.9979C51.5666 55.9447 51.4254 55.829 51.3443 55.6741C51.2795 55.5515 51.2541 55.4127 51.2726 55.2763L51.4971 53.6619L50.4207 52.6188H50.423C50.2448 52.4477 50.1777 52.1886 50.2517 51.9527C50.3235 51.7145 50.5249 51.5387 50.768 51.4971L52.3721 51.2126L53.0295 49.8666C53.1916 49.5405 53.5851 49.4063 53.9115 49.5659C54.0365 49.6261 54.1384 49.7255 54.2032 49.8458L54.2055 49.8481ZM53.9694 52.2003L53.6499 51.6036L53.4323 52.0453V52.043C53.349 52.2581 53.1615 52.413 52.9347 52.4547L52.2749 52.5726L52.6499 52.9357L52.6476 52.938C52.8073 53.0814 52.886 53.2988 52.8559 53.5139L52.7633 54.1823L53.2471 53.9279C53.4323 53.8285 53.6522 53.8239 53.8421 53.9164L54.4485 54.2101L54.3559 53.6781H54.3536C54.3189 53.47 54.3837 53.2595 54.5295 53.1092L54.9971 52.6235L54.4578 52.5449C54.2494 52.5171 54.0689 52.3876 53.9717 52.2026L53.9694 52.2003ZM63.4877 58.6853C63.1474 61.2641 60.9507 63.1953 58.3464 63.2046C57.9807 63.2046 57.6844 62.9085 57.6844 62.5431C57.6844 62.1777 57.9807 61.8816 58.3464 61.8816C60.4761 61.877 62.2007 60.1539 62.2053 58.0262V53.3196C62.2076 53.1438 62.1659 52.9703 62.0849 52.8131C62.0016 52.6535 61.8812 52.517 61.7331 52.4153C61.6567 52.3621 61.5664 52.3274 61.4738 52.3204C61.2793 52.3043 61.0918 52.3898 60.9738 52.5448L60.9599 52.5679C60.9136 52.6396 60.8881 52.7229 60.8812 52.8061C60.7747 54.2262 60.4367 55.6185 59.8835 56.9299C59.3835 57.9706 58.6705 58.6876 57.6797 58.6876H57.3788L57.3811 66.1976C57.3834 67.0094 58.0409 67.6639 58.8511 67.6686H64.2979C64.2261 67.4674 64.1914 67.2569 64.1937 67.0441C64.1937 66.6856 64.2933 66.3364 64.4784 66.0288C63.7145 65.4668 63.4669 64.4353 63.8928 63.5888C63.7354 63.5032 63.5895 63.3922 63.4645 63.2627C63.0988 62.8972 62.8928 62.4023 62.8928 61.8865C62.8928 61.3708 63.0988 60.8759 63.4645 60.5104C63.5919 60.3832 63.7354 60.2745 63.8928 60.1866C63.7562 59.916 63.6845 59.6177 63.6845 59.3147C63.6868 59.0996 63.7215 58.8868 63.7886 58.6856L63.4877 58.6853ZM56.0571 66.0194V58.6853H54.3835L54.5178 59.9435C54.5178 59.9527 54.5201 59.9574 54.5201 59.9666H54.5224C54.5247 59.9782 54.5247 59.9898 54.5224 59.999L55.1775 66.0193L56.0571 66.0194ZM56.7169 57.3626H57.6798C58.0641 57.3626 58.4067 56.9509 58.6937 56.3542C59.1845 55.1862 59.4807 53.9466 59.5711 52.6838C59.5988 52.3785 59.7007 52.0848 59.872 51.8304C59.8812 51.8142 59.8928 51.798 59.9044 51.7818C60.0919 51.5158 60.3465 51.3077 60.6405 51.1736C60.9345 51.0348 61.2609 50.977 61.585 51.0024C61.9114 51.0325 62.2216 51.1481 62.4878 51.3378C63.0919 51.7587 63.4739 52.4295 63.5225 53.1649C64.673 51.2869 65.3327 49.1499 65.4369 46.9528H52.5247L43.2168 55.892C45.6613 58.1956 48.8974 59.4792 52.2587 59.4769C52.5364 59.4769 52.7934 59.4676 53.0295 59.4561L53.1383 59.4468L52.9971 58.1424C52.9902 58.1031 52.9879 58.0661 52.9855 58.0268C52.9855 57.6613 53.2818 57.363 53.6499 57.363L56.7169 57.3626ZM68.2749 66.4149H66.1429C66.1244 66.4126 66.1059 66.4126 66.0897 66.4149C65.8466 66.4358 65.6383 66.5953 65.555 66.8243C65.4716 67.0533 65.5318 67.31 65.7054 67.4789C65.8212 67.5991 65.9786 67.6662 66.1452 67.6662H68.2772C68.6222 67.6662 68.9023 67.3887 68.9069 67.044C68.9046 66.6971 68.6245 66.4173 68.2772 66.415L68.2749 66.4149ZM68.7865 63.8384H65.6337C65.2865 63.8408 65.0087 64.1206 65.0087 64.4675C65.0133 64.8098 65.2888 65.0851 65.6337 65.0897H68.7842C69.1291 65.0897 69.4092 64.8122 69.4115 64.4675C69.4115 64.1206 69.1314 63.8384 68.7842 63.8384H68.7865ZM68.7865 61.2619H64.8397C64.4924 61.2619 64.2123 61.5441 64.21 61.891C64.2147 62.2356 64.4948 62.5132 64.8397 62.5132H69.5805C69.9254 62.5132 70.2055 62.2357 70.2101 61.891C70.2078 61.5441 69.9277 61.2619 69.5805 61.2619H68.7865ZM66.0295 58.6854H65.6337C65.2888 58.6901 65.0087 58.9699 65.0087 59.3145C65.0133 59.6568 65.2888 59.9344 65.6337 59.9367H68.7842C69.1291 59.9367 69.4092 59.6591 69.4115 59.3145C69.4115 58.9676 69.1291 58.6877 68.7842 58.6854H66.0295ZM51.5986 46.0113V33.1217C48.286 33.2883 45.1564 34.6968 42.8346 37.0627C40.5128 39.4311 39.1702 42.5857 39.0706 45.9002C38.9734 49.2121 40.1262 52.4409 42.3045 54.9412L51.5986 46.0113ZM67.9205 32.6735L67.9182 41.7863H70.3905V28.3419H67.9182L67.9205 32.6735ZM64.1288 33.3327V41.7858H66.5988V33.3327H64.1288ZM63.4668 43.1091H55.8809C55.5152 43.1068 55.2212 42.8108 55.2212 42.4454V36.5777C55.2189 36.2123 55.5152 35.9162 55.8809 35.9162H59.0129V34.961C57.1657 33.8578 55.0731 33.2264 52.9228 33.1223V45.63H65.4391C65.4183 45.223 65.3812 44.8252 65.3257 44.4343C65.2632 43.988 65.1775 43.5462 65.0687 43.1091L63.4668 43.1091ZM62.807 30.7056H60.3371V41.7864H62.807V30.7056ZM59.013 37.2369H56.5454V41.7862H59.0154L59.013 37.2369ZM48.2372 32.3476V29.0611C48.2395 29.0217 48.2233 28.987 48.1979 28.9593C48.1701 28.9315 48.1354 28.9177 48.096 28.9153H32.721V32.6552C32.721 32.8309 32.6516 32.9975 32.5289 33.1224C32.4039 33.2473 32.2372 33.3166 32.0613 33.3143H27.1422V55.309C27.1422 55.346 27.1584 55.383 27.1839 55.4084C27.2117 55.4339 27.2464 55.45 27.2858 55.45H41.0032H41.0009C40.1028 54.3514 39.3713 53.1257 38.8296 51.8143H30.4775C30.2992 51.8189 30.1256 51.7519 29.996 51.6293C29.8687 51.5044 29.7969 51.3332 29.7969 51.1552C29.7969 50.9748 29.8687 50.8059 29.996 50.681C30.1256 50.5561 30.2992 50.4891 30.4775 50.4937H38.3597C38.1259 49.7166 37.9569 48.921 37.855 48.1138H30.4778C30.112 48.1138 29.8157 47.8201 29.8157 47.4547C29.8157 47.0892 30.112 46.7955 30.4778 46.7955H37.7507C37.7461 46.629 37.7415 46.4624 37.7415 46.2913C37.7415 45.6622 37.7808 45.0377 37.8618 44.4133H30.4775C30.1117 44.4133 29.8154 44.1196 29.8154 43.7541C29.8154 43.391 30.1117 43.0949 30.4775 43.0949H38.0935C38.2764 42.2808 38.531 41.4852 38.8505 40.7151H30.4776C30.1119 40.7151 29.8156 40.419 29.8156 40.0536C29.8156 39.6882 30.1119 39.3921 30.4776 39.3921H39.4846C39.9429 38.5479 40.4846 37.7524 41.1003 37.0146H30.4774C30.1186 37.003 29.8339 36.7116 29.8339 36.3531C29.8339 35.9946 30.1186 35.7032 30.4774 35.6916H42.3478C44.0214 34.1305 46.0376 32.9856 48.2367 32.3496L48.2372 32.3476ZM23.6746 28.0735H26.7001V25.7005L23.6746 28.0735ZM28.0241 24.9997V28.7396C28.0218 29.105 27.7255 29.3987 27.3598 29.3987H22.443V51.3934C22.4407 51.4304 22.4569 51.4674 22.4824 51.4928C22.5101 51.5206 22.5449 51.5368 22.5842 51.5368H25.8203V32.6387C25.818 32.4236 25.9245 32.2224 26.1004 32.0998L31.6561 27.7378H31.6538C31.7695 27.6453 31.913 27.5967 32.0612 27.5967H43.538V25.1452C43.538 25.1082 43.5218 25.0735 43.4964 25.048C43.4686 25.0203 43.4339 25.0041 43.3945 25.0041L28.0241 24.9997ZM31.4015 29.6115L28.3736 31.9914H31.4015V29.6115Z" fill="#018E47"/>
</svg>
