<svg width="93" height="93" viewBox="0 0 93 93" fill="none" xmlns="http://www.w3.org/2000/svg">
<circle cx="46.8025" cy="46.6055" r="44.9757" stroke="#018E47" stroke-width="1.85581"/>
<path fill-rule="evenodd" clip-rule="evenodd" d="M67.6437 54.3546C67.6508 58.4678 66.4094 62.487 64.0822 65.8852C64.0347 66.0316 63.9445 66.1606 63.8232 66.2558C61.9179 68.9181 59.4012 71.0883 56.4829 72.5858C53.5645 74.0833 50.329 74.8646 47.046 74.8646C43.763 74.8646 40.5275 74.0833 37.6091 72.5858C34.6908 71.0883 32.1741 68.9181 30.2688 66.2558C30.1472 66.1606 30.0567 66.0316 30.0086 65.8852C27.6823 62.4866 26.4413 58.4675 26.4483 54.3546C26.4483 54.2517 26.4686 54.1498 26.5082 54.0547C26.5478 53.9597 26.6059 53.8733 26.679 53.8006C26.7521 53.7279 26.839 53.6702 26.9345 53.631C27.03 53.5917 27.1324 53.5716 27.2358 53.5717H29.4137C29.7001 52.6988 30.1667 51.8952 30.7834 51.2124C31.4001 50.5296 32.1534 49.9827 32.9949 49.6069V49.0954C32.6939 48.6028 32.5347 48.0372 32.5347 47.4606C32.5347 46.884 32.6939 46.3185 32.9949 45.8259V27.292C32.995 27.0843 33.078 26.8851 33.2256 26.7383C33.3731 26.5915 33.5732 26.5091 33.7817 26.5091H36.1713V23.1397C36.171 22.9319 36.2534 22.7325 36.4006 22.5853C36.5478 22.438 36.7477 22.355 36.9563 22.3543H39.87V18.5635C39.87 18.3555 39.953 18.1561 40.1007 18.009C40.2483 17.862 40.4486 17.7794 40.6575 17.7794C40.8664 17.7794 41.0667 17.862 41.2143 18.009C41.362 18.1561 41.445 18.3555 41.445 18.5635V22.3543H43.9293V20.3437C43.935 20.1397 44.0204 19.9458 44.1674 19.8035C44.3144 19.6612 44.5114 19.5815 44.7164 19.5815C44.9215 19.5815 45.1184 19.6612 45.2654 19.8035C45.4124 19.9458 45.4979 20.1397 45.5036 20.3437V22.3543H47.3056C47.5144 22.3547 47.7144 22.4375 47.8619 22.5847C48.0093 22.7318 48.092 22.9312 48.0919 23.1391V26.5084H50.4814C50.6899 26.5084 50.8899 26.5909 51.0374 26.7378C51.1848 26.8846 51.2677 27.0837 51.2677 27.2914V31.1294H57.1357C57.239 31.1294 57.3413 31.1496 57.4367 31.189C57.5321 31.2284 57.6188 31.2861 57.6919 31.3589C57.7649 31.4317 57.8228 31.518 57.8623 31.6131C57.9017 31.7081 57.922 31.81 57.9219 31.9129V35.2822H60.3102C60.5191 35.2822 60.7195 35.3648 60.8673 35.5119C61.0151 35.6589 61.0982 35.8584 61.0983 36.0664V45.8259C61.3993 46.3185 61.5585 46.884 61.5585 47.4606C61.5585 48.0372 61.3993 48.6028 61.0983 49.0954V49.6069C61.6114 49.8368 62.0933 50.1303 62.5324 50.4805C63.5348 51.281 64.281 52.3553 64.6796 53.5717H66.8562C67.0648 53.5717 67.2649 53.6542 67.4124 53.801C67.56 53.9478 67.6429 54.1469 67.6431 54.3546H67.6437ZM47.046 39.7188C46.315 39.7192 45.6068 39.972 45.0421 40.4341C44.4774 40.8962 44.091 41.5391 43.9489 42.253C43.8068 42.967 43.9178 43.7079 44.2629 44.3496C44.6079 44.9912 45.1658 45.4939 45.8414 45.7718C46.5169 46.0498 47.2684 46.0859 47.9677 45.874C48.667 45.6621 49.2708 45.2152 49.6763 44.6097C50.0818 44.0041 50.2639 43.2772 50.1915 42.5529C50.1191 41.8287 49.7967 41.1518 49.2793 40.6377C48.986 40.3458 48.6377 40.1145 48.2545 39.9568C47.8713 39.7991 47.4606 39.7182 47.046 39.7188ZM44.3956 38.9591C45.3711 38.2993 46.5588 38.0258 47.7261 38.1922C48.8935 38.3587 49.9564 38.953 50.7067 39.859C51.457 40.7649 51.8406 41.9171 51.7824 43.0899C51.7243 44.2627 51.2285 45.3717 50.3922 46.1996C50.2993 46.2908 50.2027 46.3834 50.103 46.4654C52.0987 47.0734 53.867 48.2601 55.1817 49.874C55.4438 49.7287 55.7153 49.601 55.9944 49.4917C55.5448 48.9599 55.2851 48.2946 55.2559 47.6001C55.2267 46.9055 55.4297 46.221 55.833 45.6536C56.2364 45.0862 56.8174 44.6681 57.4849 44.4647C58.1525 44.2613 58.869 44.2841 59.5221 44.5296V36.8487H44.3956V38.9591ZM43.9889 46.4624C43.8893 46.3772 43.7927 46.2878 43.6998 46.1965C42.9951 45.4941 42.5309 44.5882 42.3734 43.6078C42.2159 42.6275 42.373 41.6226 42.8225 40.7363V36.0664C42.8224 35.9635 42.8427 35.8616 42.8821 35.7665C42.9216 35.6714 42.9795 35.585 43.0525 35.5122C43.1255 35.4394 43.2122 35.3816 43.3077 35.3421C43.4031 35.3027 43.5054 35.2823 43.6087 35.2822H46.0001V31.9129C45.9999 31.7054 46.0825 31.5062 46.2297 31.3593C46.377 31.2124 46.5767 31.1297 46.7851 31.1294H49.6964V28.0755H34.5699V44.5241C35.223 44.2786 35.9395 44.2558 36.607 44.4591C37.2746 44.6625 37.8556 45.0807 38.259 45.6481C38.6623 46.2154 38.8653 46.9 38.8361 47.5946C38.8069 48.2891 38.5471 48.9544 38.0976 49.4862C38.3767 49.5955 38.6482 49.7232 38.9103 49.8685C40.225 48.2546 41.9933 47.0678 43.9889 46.4599V46.4624ZM47.046 47.5767C45.6691 47.5759 44.3107 47.8932 43.0777 48.5036C41.8447 49.1139 40.7707 50.0008 39.9401 51.0943C39.9193 51.1263 39.8963 51.1568 39.8712 51.1856C39.3321 51.9133 38.9082 52.7191 38.6143 53.5748H55.4776C55.1838 52.7191 54.7599 51.9133 54.2207 51.1856C54.1954 51.1571 54.1723 51.1265 54.1518 51.0943C53.3213 50.0008 52.2473 49.1139 51.0143 48.5036C49.7813 47.8932 48.4229 47.5759 47.046 47.5767ZM56.083 51.1617C56.5295 51.9175 56.8779 52.7267 57.1197 53.5699H63.0006C62.6727 52.8394 62.1746 52.1974 61.5475 51.6971C61.1102 51.3482 60.6171 51.0751 60.0888 50.8891L60.0192 50.8646C59.499 50.6905 58.9537 50.6019 58.4049 50.6024C57.8776 50.6006 57.3533 50.6819 56.8514 50.8432C56.5873 50.9281 56.3308 51.0353 56.0849 51.1636L56.083 51.1617ZM52.7245 55.1376H47.8329V64.8591H56.0424C57.1988 61.7454 57.8154 58.4588 57.8659 55.1394L52.7245 55.1376ZM46.2591 55.1376H36.226C36.2765 58.4569 36.8932 61.7436 38.0496 64.8572H46.2591V55.1394V55.1376ZM36.9692 53.5699C37.2123 52.7267 37.5617 51.9175 38.009 51.1617C37.763 51.0335 37.5066 50.9263 37.2424 50.8413C36.211 50.5131 35.1014 50.5206 34.0746 50.8628L34.0051 50.8873C33.476 51.0736 32.9822 51.3474 32.5445 51.6971C31.9174 52.1974 31.4192 52.8394 31.0914 53.5699H36.9692ZM34.4087 48.3854L34.4154 48.3939C34.4624 48.4573 34.514 48.5171 34.5699 48.5728C34.7979 48.7993 35.0902 48.9509 35.4073 49.0072C35.7244 49.0636 36.0512 49.022 36.3439 48.888C36.6366 48.7541 36.8811 48.5341 37.0447 48.2578C37.2082 47.9814 37.2829 47.6619 37.2588 47.342C37.2347 47.0222 37.1129 46.7173 36.9097 46.4684C36.7066 46.2195 36.4318 46.0384 36.1223 45.9494C35.8129 45.8605 35.4834 45.8679 35.1783 45.9708C34.8732 46.0737 34.607 46.267 34.4154 46.5249L34.4087 46.5341C34.2119 46.8029 34.1059 47.127 34.1059 47.4597C34.1059 47.7924 34.2119 48.1165 34.4087 48.3854ZM34.6498 55.1376H28.0386C28.1767 58.6067 29.2749 61.9704 31.212 64.8572H36.3798C35.2916 61.7288 34.7101 58.4479 34.6572 55.1376H34.6498ZM59.6747 48.3958L59.6815 48.3872C59.8774 48.118 59.9829 47.794 59.9829 47.4615C59.9829 47.1291 59.8774 46.8051 59.6815 46.5359L59.6747 46.5267C59.4771 46.2597 59.1998 46.0617 58.8825 45.9608C58.5652 45.8599 58.224 45.8614 57.9075 45.965C57.5911 46.0686 57.3156 46.269 57.1202 46.5377C56.9249 46.8063 56.8198 47.1296 56.8198 47.4612C56.8198 47.7929 56.9249 48.1161 57.1202 48.3848C57.3156 48.6535 57.5911 48.8539 57.9075 48.9575C58.224 49.0611 58.5652 49.0625 58.8825 48.9617C59.1998 48.8608 59.4771 48.6628 59.6747 48.3958ZM64.081 55.1394H59.4403C59.3864 58.4499 58.8039 61.7308 57.7146 64.8591H62.8825C64.8195 61.9722 65.9179 58.6086 66.0564 55.1394H64.081ZM37.2381 43.6989H39.5698C39.6749 43.7018 39.7796 43.6837 39.8776 43.6457C39.9756 43.6076 40.0649 43.5504 40.1404 43.4774C40.2158 43.4044 40.2757 43.3171 40.3166 43.2206C40.3576 43.1241 40.3787 43.0204 40.3787 42.9157C40.3787 42.8109 40.3576 42.7073 40.3166 42.6108C40.2757 42.5143 40.2158 42.427 40.1404 42.3539C40.0649 42.2809 39.9756 42.2237 39.8776 42.1857C39.7796 42.1476 39.6749 42.1295 39.5698 42.1325H37.2381C37.1329 42.1295 37.0283 42.1476 36.9303 42.1857C36.8323 42.2237 36.7429 42.2809 36.6675 42.3539C36.5921 42.427 36.5322 42.5143 36.4912 42.6108C36.4503 42.7073 36.4292 42.8109 36.4292 42.9157C36.4292 43.0204 36.4503 43.1241 36.4912 43.2206C36.5322 43.3171 36.5921 43.4044 36.6675 43.4774C36.7429 43.5504 36.8323 43.6076 36.9303 43.6457C37.0283 43.6837 37.1329 43.7018 37.2381 43.6989ZM37.2381 39.6171H39.5698C39.6749 39.62 39.7796 39.6019 39.8776 39.5639C39.9756 39.5258 40.0649 39.4686 40.1404 39.3956C40.2158 39.3226 40.2757 39.2352 40.3166 39.1387C40.3576 39.0423 40.3787 38.9386 40.3787 38.8339C40.3787 38.7291 40.3576 38.6254 40.3166 38.529C40.2757 38.4325 40.2158 38.3451 40.1404 38.2721C40.0649 38.1991 39.9756 38.1419 39.8776 38.1038C39.7796 38.0658 39.6749 38.0477 39.5698 38.0506H37.2381C37.1329 38.0477 37.0283 38.0658 36.9303 38.1038C36.8323 38.1419 36.7429 38.1991 36.6675 38.2721C36.5921 38.3451 36.5322 38.4325 36.4912 38.529C36.4503 38.6254 36.4292 38.7291 36.4292 38.8339C36.4292 38.9386 36.4503 39.0423 36.4912 39.1387C36.5322 39.2352 36.5921 39.3226 36.6675 39.3956C36.7429 39.4686 36.8323 39.5258 36.9303 39.5639C37.0283 39.6019 37.1329 39.62 37.2381 39.6171ZM37.2381 35.5353H39.5698C39.6749 35.5382 39.7796 35.5201 39.8776 35.482C39.9756 35.444 40.0649 35.3868 40.1404 35.3138C40.2158 35.2407 40.2757 35.1534 40.3166 35.0569C40.3576 34.9604 40.3787 34.8568 40.3787 34.752C40.3787 34.6473 40.3576 34.5436 40.3166 34.4471C40.2757 34.3507 40.2158 34.2633 40.1404 34.1903C40.0649 34.1173 39.9756 34.0601 39.8776 34.022C39.7796 33.984 39.6749 33.9659 39.5698 33.9688H37.2381C37.1329 33.9659 37.0283 33.984 36.9303 34.022C36.8323 34.0601 36.7429 34.1173 36.6675 34.1903C36.5921 34.2633 36.5322 34.3507 36.4912 34.4471C36.4503 34.5436 36.4292 34.6473 36.4292 34.752C36.4292 34.8568 36.4503 34.9604 36.4912 35.0569C36.5322 35.1534 36.5921 35.2407 36.6675 35.3138C36.7429 35.3868 36.8323 35.444 36.9303 35.482C37.0283 35.5201 37.1329 35.5382 37.2381 35.5353ZM37.2381 31.4534H39.5698C39.7785 31.4534 39.9786 31.3709 40.1262 31.2239C40.2738 31.077 40.3567 30.8777 40.3567 30.6699C40.3567 30.4621 40.2738 30.2628 40.1262 30.1159C39.9786 29.9689 39.7785 29.8864 39.5698 29.8864H37.2381C37.0294 29.8864 36.8292 29.9689 36.6817 30.1159C36.5341 30.2628 36.4512 30.4621 36.4512 30.6699C36.4512 30.8777 36.5341 31.077 36.6817 31.2239C36.8292 31.3709 37.0294 31.4534 37.2381 31.4534ZM53.8664 44.1522H55.9944C56.0996 44.1552 56.2042 44.1371 56.3022 44.099C56.4003 44.061 56.4896 44.0038 56.565 43.9307C56.6404 43.8577 56.7004 43.7704 56.7413 43.6739C56.7822 43.5774 56.8033 43.4737 56.8033 43.369C56.8033 43.2643 56.7822 43.1606 56.7413 43.0641C56.7004 42.9676 56.6404 42.8803 56.565 42.8073C56.4896 42.7343 56.4003 42.677 56.3022 42.639C56.2042 42.6009 56.0996 42.5829 55.9944 42.5858H53.8664C53.7612 42.5829 53.6566 42.6009 53.5586 42.639C53.4606 42.677 53.3712 42.7343 53.2958 42.8073C53.2204 42.8803 53.1605 42.9676 53.1195 43.0641C53.0786 43.1606 53.0575 43.2643 53.0575 43.369C53.0575 43.4737 53.0786 43.5774 53.1195 43.6739C53.1605 43.7704 53.2204 43.8577 53.2958 43.9307C53.3712 44.0038 53.4606 44.061 53.5586 44.099C53.6566 44.1371 53.7612 44.1552 53.8664 44.1522ZM53.1041 40.3994H55.9957C56.2006 40.3937 56.3953 40.3086 56.5382 40.1622C56.6812 40.0158 56.7611 39.8197 56.7611 39.6155C56.7611 39.4114 56.6812 39.2152 56.5382 39.0689C56.3953 38.9225 56.2006 38.8374 55.9957 38.8317H53.1041C52.9989 38.8288 52.8941 38.8469 52.7961 38.885C52.698 38.923 52.6086 38.9803 52.5331 39.0534C52.4576 39.1265 52.3976 39.2139 52.3567 39.3104C52.3157 39.407 52.2946 39.5107 52.2946 39.6155C52.2946 39.7204 52.3157 39.8241 52.3567 39.9207C52.3976 40.0172 52.4576 40.1046 52.5331 40.1777C52.6086 40.2508 52.698 40.3081 52.7961 40.3461C52.8941 40.3842 52.9989 40.4023 53.1041 40.3994ZM47.5714 35.2822H56.3476V32.6952H47.5714V35.2822ZM46.5206 26.5091V23.922H37.7444V26.5091H46.5206ZM61.7074 66.4255H57.0932C56.754 67.2056 56.3682 67.9647 55.9378 68.6989C55.1633 70.0477 54.1903 71.2734 53.0512 72.3354C55.8583 71.4039 58.4088 69.834 60.5003 67.75C60.9236 67.3285 61.3266 66.887 61.7093 66.4255H61.7074ZM55.3706 66.4255H47.8329V73.2482C50.4347 72.9137 52.8008 70.9362 54.5837 67.9099C54.8606 67.4386 55.1233 66.9438 55.3706 66.4255ZM46.2597 66.4255H38.722C38.9681 66.943 39.2302 67.4377 39.5083 67.9099C41.2924 70.9362 43.6573 72.9137 46.2591 73.2482L46.2597 66.4255ZM37 66.4255H32.3858C32.7677 66.8862 33.1706 67.3277 33.5947 67.75C35.6863 69.834 38.2368 71.4039 41.0439 72.3354C39.9048 71.2734 38.9318 70.0477 38.1572 68.6989C37.7265 67.9645 37.3405 67.2054 37 66.4255Z" fill="#018E47"/>
</svg>
