<svg width="60" height="60" viewBox="0 0 60 60" fill="none" xmlns="http://www.w3.org/2000/svg">
<circle cx="30" cy="30" r="29" stroke="#018E47" stroke-width="2"/>
<path d="M25.8717 37.0607C23.7557 37.0607 21.8051 36.4711 20.185 35.3359C18.3115 34.0245 17.1543 32.2226 16.0413 30.4813C15.5178 29.6658 14.9778 28.8172 14.3661 28.0292C12.5808 25.7314 9.58315 23.0699 6.96023 23.0699C6.93268 23.0699 6.90513 23.0699 6.87758 23.0699C6.4643 23.0755 6.11715 22.8054 6.02347 22.4087C5.9298 22.012 6.12266 21.6152 6.49185 21.4389C9.26355 20.1219 12.5257 19.0805 15.6831 18.5074C19.3034 17.8517 22.6426 17.8296 25.3482 18.4523C27.0454 18.8435 28.6709 19.5599 30.0485 20.5297C31.5639 21.5932 32.7376 22.9046 33.5366 24.431C35.0299 27.2853 35.0684 30.6797 33.6468 34.2614L33.5531 34.4929L33.3492 34.6361C31.4096 35.9917 29.0952 36.8403 26.8305 37.0276C26.5109 37.0441 26.1913 37.0607 25.8717 37.0607ZM9.48947 21.9458C11.8589 22.9046 14.1126 24.9986 15.6721 27.0098C16.3278 27.8584 16.8899 28.7346 17.4354 29.5832C18.5099 31.2638 19.5293 32.8508 21.1383 33.9804C24.5988 36.4049 29.1448 35.4572 32.2086 33.4128C33.3547 30.3822 33.3106 27.5443 32.0818 25.1914C30.7759 22.7007 28.1199 20.7832 24.9845 20.0558C20.3063 18.9813 14.2284 20.1329 9.48947 21.9458Z" fill="#018E47"/>
<path d="M38.7981 40.7256C38.0653 40.7256 37.3269 40.654 36.605 40.5107L36.3626 40.4611L36.1862 40.2848C33.9546 38.0752 32.869 35.5184 33.0564 32.8899C33.1556 31.4848 33.6019 30.1182 34.3899 28.8233C35.1062 27.6496 36.0816 26.5806 37.2222 25.7375C39.0241 24.3985 41.5092 23.324 44.4077 22.6407C46.9259 22.0401 49.6811 21.7535 52.1552 21.8307H52.1607C52.5574 21.8472 52.8991 22.1448 52.9652 22.536C53.0313 22.9272 52.8164 23.3185 52.4527 23.4673C50.5462 24.2552 49.2072 27.1647 48.6396 29.4129C48.4467 30.1844 48.32 30.9778 48.1988 31.7438C47.9343 33.4024 47.6643 35.1106 46.6945 36.7086C45.7246 38.3066 44.1872 39.4968 42.2586 40.1581C41.1676 40.5383 39.9884 40.7256 38.7981 40.7256ZM37.1726 38.9348C40.0159 39.4252 43.5646 38.6703 45.2783 35.8545C46.0828 34.5375 46.3142 33.0552 46.5622 31.4903C46.6889 30.6858 46.8212 29.8593 47.0306 29.0162C47.5045 27.1427 48.4082 25.0157 49.7141 23.5279C45.7632 23.7703 41.1621 24.8724 38.203 27.071C36.1642 28.5864 34.8583 30.807 34.6985 33.0112C34.5552 35.072 35.4093 37.1164 37.1726 38.9348Z" fill="#018E47"/>
<path d="M36.2987 43.0001C32.9649 35.5226 27.1515 28.8826 21.4924 26.0834L22.2253 24.6011C28.2095 27.5601 34.3205 34.5197 37.803 42.3278L36.2987 43.0001Z" fill="#018E47"/>
<path d="M37.2075 41.4794L35.604 41.0771C36.6014 37.0877 38.6512 33.3241 41.5276 30.1887L42.7454 31.3073C40.0564 34.2388 38.1388 37.7544 37.2075 41.4794Z" fill="#018E47"/>
</svg>
