<svg width="60" height="60" viewBox="0 0 60 60" fill="none" xmlns="http://www.w3.org/2000/svg">
<circle cx="30" cy="30" r="29" stroke="#018E47" stroke-width="2"/>
<path d="M42.8273 20.1727C40.5526 17.898 37.761 16.3277 34.7174 15.5717V11.6303H35.8912C36.3414 11.6303 36.7063 11.2654 36.7063 10.8151C36.7063 10.3649 36.3414 10 35.8912 10H25.0536C24.6034 10 24.2385 10.3649 24.2385 10.8151C24.2385 11.2654 24.6034 11.6303 25.0536 11.6303H26.2865V15.5575C23.2202 16.3081 20.4068 17.8828 18.1174 20.1722C14.8174 23.4723 13 27.86 13 32.5272C13 37.1944 14.8174 41.582 18.1174 44.8821C21.4175 48.1822 25.8052 50 30.4724 50C35.1396 50 39.5273 48.1826 42.8273 44.8826C49.6399 38.07 49.6399 26.9853 42.8273 20.1727ZM41.6744 21.3256C47.6568 27.3093 47.8448 36.9273 42.2362 43.1381L40.1268 41.0287C41.2962 40.3887 42.2673 39.3989 42.8918 38.1486C44.0305 35.8677 43.786 33.185 42.254 31.1476L34.7174 21.1242V17.2575C37.3228 17.9775 39.7108 19.3624 41.6744 21.3256ZM30.5315 40.2153C30.5217 40.2153 30.5119 40.2167 30.5022 40.2167C30.4924 40.2162 30.4826 40.2153 30.4728 40.2153H24.0918C22.1353 40.2153 20.4455 39.1704 19.5717 37.4197C18.6979 35.6695 18.8779 33.6907 20.0539 32.1272L23.8589 27.0666L37.0045 40.2122C36.9739 40.2127 36.9436 40.2153 36.9125 40.2153H30.5315ZM24.8483 25.7501L27.7532 21.8865C27.8594 21.7451 27.9168 21.5731 27.9168 21.3967V16.8908C28.7541 16.7557 29.6075 16.6859 30.4719 16.6859C31.3569 16.6859 32.2302 16.7588 33.0862 16.9002V21.3967C33.0862 21.5736 33.1436 21.7456 33.2498 21.8865L40.9495 32.1272C42.1251 33.6907 42.3055 35.6695 41.4317 37.4197C40.8757 38.5335 39.9886 39.3602 38.913 39.8153L24.8483 25.7501ZM27.9172 11.6303H33.0871V15.2481C32.2293 15.1201 31.356 15.0548 30.4728 15.0548C29.6097 15.0548 28.7564 15.1174 27.9177 15.2397V11.6303H27.9172ZM26.2865 21.1242L23.6838 24.5857L19.8619 20.7638C21.7211 19.0829 23.9145 17.8877 26.2865 17.2424V21.1242ZM19.2708 43.7292C16.2787 40.7371 14.6307 36.7588 14.6307 32.5272C14.6307 28.5684 16.073 24.8319 18.709 21.9167L22.6944 25.9021L18.7508 31.1471C17.2188 33.185 16.9743 35.8672 18.113 38.1482C19.2517 40.4291 21.5429 41.846 24.0922 41.846H30.4733C30.4831 41.846 30.4928 41.8447 30.5026 41.8447C30.5124 41.8452 30.5222 41.846 30.5319 41.846H36.913C37.4423 41.846 37.9601 41.7843 38.4592 41.6669L41.0837 44.2914C38.1686 46.927 34.4316 48.3697 30.4733 48.3697C26.2412 48.3693 22.2629 46.7217 19.2708 43.7292Z" fill="#018E47"/>
</svg>
