<svg width="60" height="60" viewBox="0 0 60 60" fill="none" xmlns="http://www.w3.org/2000/svg">
<circle cx="30" cy="30" r="29" stroke="#018E47" stroke-width="2"/>
<path d="M48 19.8095V35.2015C48 38.2537 46.7975 41.1246 44.6131 43.2823L40.0654 47.7775C39.9143 47.9269 39.717 48 39.5196 48C39.3223 48 39.125 47.9253 38.9739 47.7775C38.6733 47.4804 38.6733 46.9973 38.9739 46.7002L43.5216 42.205C45.4147 40.3337 46.4569 37.8469 46.4569 35.2015V19.8095C46.4569 18.5493 45.4194 17.5238 44.1445 17.5238C42.8695 17.5238 41.832 18.5493 41.832 19.8095C41.832 19.8095 41.829 32.0686 41.8243 32.1021C41.8012 32.9356 41.5037 33.7646 40.9318 34.4381L36.865 38.6225C36.7139 38.7779 36.512 38.8556 36.31 38.8556C36.1173 38.8556 35.9246 38.7855 35.7751 38.6423C35.4683 38.3512 35.4591 37.8682 35.7535 37.565L39.7863 33.4187C40.5895 32.6248 40.4831 31.2411 39.7031 30.4701C38.8059 29.5832 37.3938 29.4552 36.4457 30.2933L32.2387 34.1211C31.4432 34.8434 30.8065 35.6952 30.3409 36.6552C30.7988 37.8027 31.0439 39.0354 31.0439 40.2895V47.2366C31.0439 47.6571 30.6986 47.9985 30.2731 47.9985C29.8476 47.9985 29.5023 47.6571 29.5023 47.2366V40.2895C29.5023 37.952 28.5049 35.7044 26.7644 34.1227L22.5497 30.2888C21.6109 29.4568 20.1494 29.536 19.3 30.4716C18.5384 31.3112 18.5184 32.5958 19.2507 33.4583L23.248 37.565C23.5425 37.8682 23.5332 38.3512 23.2264 38.6423C22.9197 38.9349 22.431 38.9242 22.1365 38.621L18.1037 34.4747C17.5256 33.795 17.2204 32.9737 17.1834 32.1493C17.1741 32.1006 17.168 19.8065 17.168 19.8065C17.168 18.5463 16.1305 17.5208 14.8555 17.5208C13.5806 17.5208 12.5431 18.5463 12.5431 19.8065V35.2015C12.5431 37.8469 13.5853 40.3352 15.4784 42.205L20.0261 46.7002C20.3267 46.9973 20.3267 47.4804 20.0261 47.7775C19.875 47.9269 19.6777 48 19.4804 48C19.283 48 19.0857 47.9253 18.9346 47.7775L14.3869 43.2823C12.2024 41.123 11 38.2537 11 35.2015V19.8095C11 17.7097 12.7297 16 14.854 16C16.9783 16 18.708 17.7097 18.708 19.8095V28.9493C20.1463 27.8842 22.1951 27.9314 23.5826 29.1596L27.805 33.0011C28.4617 33.5985 29.029 34.2781 29.4977 35.0141C29.9679 34.275 30.5352 33.6015 31.1935 33.0011L35.4082 29.1672C36.8033 27.9314 38.8521 27.8842 40.2904 28.9493V19.8095C40.2904 17.7097 42.0201 16 44.1445 16C46.2688 16 48 17.7097 48 19.8095Z" fill="#018E47"/>
<path d="M28.8702 23.2943H28.8469C28.6676 23.2915 28.4907 23.2524 28.327 23.1794C28.1632 23.1063 28.016 23.0008 27.8942 22.8693L26.2607 21.1693L27.2815 20.1904L28.871 21.8479L32.5408 18.178L33.5424 19.1796L29.8159 22.9061C29.6917 23.0301 29.5443 23.1283 29.3819 23.1949C29.2196 23.2615 29.0457 23.2953 28.8702 23.2943Z" fill="#018E47"/>
<path d="M29.4631 30L29.2124 29.8888C28.9333 29.7662 22.4166 26.8231 22.4166 21.4936V16.8725C22.4169 16.4277 22.5574 15.9944 22.8183 15.6343C23.0791 15.2741 23.447 15.0054 23.8694 14.8665L29.5 13L35.1305 14.8665C35.5529 15.0054 35.9208 15.2741 36.1816 15.6343C36.4425 15.9944 36.583 16.4277 36.5833 16.8725V21.4936C36.5833 27.569 30.0043 29.8201 29.7238 29.9136L29.4631 30ZM29.5 14.4854L24.3178 16.2038C24.1768 16.2498 24.054 16.3393 23.967 16.4594C23.8799 16.5796 23.8331 16.7241 23.8333 16.8725V21.4936C23.8333 25.3852 28.395 27.9097 29.5333 28.4785C30.6694 28.0216 35.1666 25.9299 35.1666 21.4936V16.8725C35.1668 16.7241 35.12 16.5796 35.033 16.4594C34.9459 16.3393 34.8231 16.2498 34.6821 16.2038L29.5 14.4854Z" fill="#018E47"/>
</svg>
