<svg width="60" height="60" viewBox="0 0 60 60" fill="none" xmlns="http://www.w3.org/2000/svg">
<path fill-rule="evenodd" clip-rule="evenodd" d="M16.5397 41.0612C16.258 41.0612 16.028 40.8471 16.028 40.5815C16.028 40.3174 16.2564 40.1018 16.5397 40.1018H20.3533C20.6349 40.1018 20.8649 40.3159 20.8649 40.5815C20.8649 40.8456 20.6366 41.0612 20.3533 41.0612H16.5397ZM16.5397 42.6285C16.258 42.6285 16.028 42.4144 16.028 42.1488C16.028 41.8847 16.2564 41.6691 16.5397 41.6691H20.3533C20.6349 41.6691 20.8649 41.8831 20.8649 42.1488C20.8649 42.4128 20.6366 42.6285 20.3533 42.6285H16.5397ZM32.1924 41.0612C31.9107 41.0612 31.6807 40.8471 31.6807 40.5815C31.6807 40.3174 31.909 40.1018 32.1924 40.1018H36.0059C36.2876 40.1018 36.5176 40.3159 36.5176 40.5815C36.5176 40.8456 36.2893 41.0612 36.0059 41.0612H32.1924ZM32.1924 42.6285C31.9107 42.6285 31.6807 42.4144 31.6807 42.1488C31.6807 41.8847 31.909 41.6691 32.1924 41.6691H36.0059C36.2876 41.6691 36.5176 41.8831 36.5176 42.1488C36.5176 42.4128 36.2893 42.6285 36.0059 42.6285H32.1924ZM23.8272 30.9699H23.1638H20.952V34.8107L22.0304 33.7966C22.2304 33.6107 22.5521 33.6107 22.7504 33.7982L23.8271 34.8107L23.8272 30.9699ZM37.2397 30.9637C37.1947 30.9684 37.148 30.9699 37.1013 30.9699H36.6063V34.8107L37.6847 33.7966C37.8847 33.6107 38.2064 33.6107 38.4047 33.7982L39.4814 34.8107V30.9699H37.3246C37.2963 30.9699 37.268 30.9668 37.2413 30.9636L37.2397 30.9637ZM28.781 16.2926V20.1334L29.8594 19.1193C30.0594 18.9333 30.3811 18.9333 30.5794 19.1208L31.6561 20.1334V16.2925L28.781 16.2926ZM24.369 26.3851C24.0874 26.3851 23.8574 26.171 23.8574 25.9053C23.8574 25.6413 24.0857 25.4256 24.369 25.4256H28.1826C28.4643 25.4256 28.6943 25.6397 28.6943 25.9053C28.6943 26.1694 28.4659 26.3851 28.1826 26.3851H24.369ZM24.369 27.9523C24.0874 27.9523 23.8574 27.7383 23.8574 27.4726C23.8574 27.2085 24.0857 26.9929 24.369 26.9929H28.1826C28.4643 26.9929 28.6943 27.207 28.6943 27.4726C28.6943 27.7367 28.4659 27.9523 28.1826 27.9523H24.369ZM47.2468 45.7016H13.0234V47.047H47.2451V45.7016H47.2468ZM30.6461 44.7437H45.2768V31.2947C45.2768 31.2056 45.2368 31.1244 45.1751 31.065C45.1118 31.0056 45.0251 30.9697 44.9301 30.9697H40.5049V35.9683C40.5049 36.2324 40.2766 36.448 39.9932 36.448C39.8382 36.448 39.6982 36.3839 39.6049 36.2808L38.0448 34.812L36.4581 36.3058C36.2597 36.4933 35.9363 36.4933 35.738 36.3074C35.638 36.2136 35.588 36.0917 35.588 35.9683H35.5863V30.9697H30.6478V44.7455L30.6461 44.7437ZM14.9934 44.7437H29.6241V30.9679H24.8521V35.9665C24.8521 36.2306 24.6237 36.4462 24.3404 36.4462C24.1854 36.4462 24.0454 36.3821 23.952 36.279L22.392 34.8102L20.8052 36.304C20.6068 36.4915 20.2835 36.4915 20.0851 36.3056C19.9851 36.2118 19.9351 36.0899 19.9351 35.9665H19.9335V30.9679H15.3414C15.2464 30.9679 15.1598 31.0054 15.0964 31.0632C15.0331 31.1226 14.9948 31.2038 14.9948 31.2929V44.7419L14.9934 44.7437ZM40.3131 18.7613C40.0898 18.6019 40.0448 18.3035 40.2148 18.0925C40.3848 17.8831 40.7031 17.8409 40.9282 18.0003L41.7749 18.6034L43.1216 17.0299C43.2983 16.8237 43.6183 16.7909 43.8383 16.9565C44.0583 17.1221 44.0933 17.4222 43.9167 17.6284L42.2599 19.5644L42.2582 19.5629C42.0866 19.7629 41.7749 19.8004 41.5549 19.6441L40.3148 18.7597L40.3131 18.7613ZM38.078 23.4739L36.7629 26.1303L37.8697 26.0381C37.8997 26.0334 37.9297 26.0303 37.9614 26.0303H37.963L38.053 26.0225C38.2397 25.9943 38.4347 26.0646 38.5497 26.2193L39.3131 27.2382L40.6749 24.4896C40.5832 24.4896 40.4649 24.5083 40.3465 24.5255C40.0282 24.574 39.7115 24.6208 39.3732 24.488C39.0315 24.3521 38.8481 24.1036 38.6665 23.8567C38.5798 23.738 38.4931 23.6208 38.4215 23.577C38.3531 23.5333 38.2181 23.5036 38.0798 23.4755L38.078 23.4739ZM37.4496 27.0303V29.6836C37.4496 29.7726 37.4096 29.8539 37.3479 29.9133C37.2846 29.9726 37.1979 30.0086 37.1029 30.0086H23.1673C23.0723 30.0086 22.9856 29.9711 22.9223 29.9133C22.8589 29.8539 22.8206 29.7726 22.8206 29.6836L22.8189 16.6189C22.8189 16.5299 22.8589 16.4486 22.9206 16.3892C22.9839 16.3299 23.0706 16.2939 23.1656 16.2939H27.7576V21.2926H27.7593C27.7593 21.416 27.8093 21.5379 27.9093 21.6316C28.1093 21.8176 28.431 21.8176 28.6293 21.6301L30.2161 20.1363L31.7762 21.6051C31.8695 21.7082 32.0095 21.7723 32.1645 21.7723C32.4462 21.7723 32.6762 21.5582 32.6762 21.2926V16.2939H35.5964C35.5747 16.4955 35.6081 16.6908 35.6414 16.8862C35.6664 17.0346 35.6931 17.1831 35.6731 17.2706C35.6547 17.3565 35.5714 17.4831 35.4864 17.6112C35.3114 17.8768 35.1347 18.1471 35.1347 18.5034C35.1347 18.8597 35.3114 19.13 35.4864 19.3957C35.5697 19.5238 35.6547 19.6504 35.6731 19.7363C35.6914 19.8223 35.6664 19.9723 35.6414 20.1207C35.5897 20.4192 35.5397 20.7161 35.6814 21.0332C35.8264 21.3536 36.0914 21.5255 36.3548 21.6958C36.4814 21.777 36.6064 21.8583 36.6531 21.9255C36.7031 21.9942 36.7348 22.1333 36.7681 22.2723C36.8364 22.5583 36.9031 22.8458 37.1448 23.0817L35.4614 26.4803H35.463C35.4264 26.5538 35.4097 26.6366 35.418 26.7225C35.443 26.9851 35.6897 27.1788 35.9681 27.1569L37.4448 27.0335L37.4496 27.0303ZM46.9699 23.0973L46.9716 23.0958C47.2282 22.8551 47.2983 22.5614 47.3666 22.2676C47.3999 22.1285 47.4316 21.9895 47.4816 21.9207C47.5299 21.8535 47.6549 21.7723 47.7799 21.691C48.0433 21.5207 48.3083 21.3488 48.4533 21.0285C48.5966 20.7113 48.545 20.4144 48.4933 20.116C48.4683 19.9675 48.4416 19.8191 48.4616 19.7316C48.48 19.6456 48.5633 19.5191 48.6483 19.3909C48.8233 19.1253 49 18.855 49 18.4987C49 18.1424 48.8233 17.8721 48.6483 17.6065C48.565 17.4783 48.48 17.3518 48.4616 17.2658C48.4433 17.1799 48.4683 17.0299 48.4933 16.8814C48.545 16.583 48.595 16.2861 48.4533 15.9689C48.3083 15.6486 48.0433 15.4767 47.7799 15.3064C47.6533 15.2251 47.5283 15.1439 47.4816 15.0767C47.4316 15.0079 47.3999 14.8689 47.3666 14.7298C47.2966 14.436 47.2282 14.1423 46.9716 13.9016C46.7149 13.661 46.4016 13.5954 46.0882 13.5313C45.9399 13.5001 45.7915 13.4704 45.7182 13.4235C45.6465 13.3782 45.5598 13.261 45.4732 13.1438C45.2915 12.8969 45.1081 12.6485 44.7665 12.5125C44.4281 12.3781 44.1114 12.4266 43.7931 12.475C43.6348 12.4985 43.4764 12.5235 43.3831 12.5047C43.2914 12.4875 43.1564 12.4094 43.0197 12.3297C42.7364 12.1656 42.4481 12 42.068 12C41.688 12 41.3996 12.1656 41.1163 12.3297C40.9796 12.4078 40.8446 12.4875 40.7529 12.5047C40.6613 12.5219 40.5013 12.4985 40.3429 12.475C40.0246 12.4266 39.7079 12.3797 39.3695 12.5125C39.0279 12.6485 38.8445 12.8969 38.6629 13.1438C38.5762 13.2626 38.4895 13.3797 38.4179 13.4235C38.3445 13.4704 38.1962 13.5001 38.0478 13.5313C37.7345 13.5969 37.4211 13.661 37.1645 13.9016C36.9078 14.1423 36.8378 14.436 36.7694 14.7298C36.7361 14.8689 36.7044 15.0079 36.6544 15.0767C36.6061 15.1439 36.4811 15.2251 36.3561 15.3064L36.3177 15.3314H23.1638C22.7871 15.3314 22.4437 15.4752 22.1971 15.708C21.9487 15.9408 21.7954 16.2611 21.7954 16.6158V29.6804C21.7954 29.793 21.8104 29.9023 21.8404 30.0055H15.3385C14.9618 30.0055 14.6185 30.1492 14.3718 30.382C14.1235 30.6149 13.9701 30.9352 13.9701 31.2883V44.7374H12.5117C12.23 44.7374 12 44.9514 12 45.2171V47.5203C12 47.7844 12.2283 48 12.5117 48H47.757C48.0387 48 48.2687 47.7859 48.2687 47.5203V45.2171C48.2687 44.953 48.0404 44.7374 47.757 44.7374H46.2986V31.2883C46.2986 30.9352 46.1453 30.6133 45.8969 30.382C45.6486 30.1492 45.3069 30.0055 44.9286 30.0055H38.4267C38.455 29.9008 38.4717 29.793 38.4717 29.6804V27.7757L38.985 28.4616C39.035 28.5288 39.1034 28.5835 39.1884 28.621C39.4434 28.732 39.7467 28.6273 39.8651 28.3866L41.5885 24.9052C41.7335 24.9599 41.8902 24.9958 42.0669 24.9958C42.2335 24.9958 42.3835 24.9646 42.5219 24.9146L44.2703 28.4444C44.3887 28.6835 44.692 28.7882 44.947 28.6788C45.032 28.6413 45.1003 28.5866 45.1503 28.5194L46.2537 27.0475L48.1638 27.2069C48.4439 27.2303 48.6905 27.035 48.7139 26.7725C48.7222 26.6866 48.7056 26.6037 48.6689 26.5319H48.6706L46.9688 23.0926L46.9699 23.0973ZM43.4364 24.4896C43.5297 24.4849 43.6614 24.5052 43.7931 24.5255C44.1114 24.574 44.4281 24.6209 44.7665 24.488C45.1081 24.3521 45.2915 24.1036 45.4731 23.8568C45.5598 23.738 45.6465 23.6208 45.7182 23.5771C45.7815 23.5364 45.9048 23.5083 46.0332 23.4802L47.3749 26.1881L46.0865 26.0803C45.8998 26.0522 45.7048 26.1225 45.5898 26.2772L44.8264 27.296L43.4364 24.4896ZM42.4664 23.8693C42.483 23.8583 42.4997 23.8489 42.518 23.8396C42.7214 23.7224 42.9264 23.6083 43.1797 23.5599C43.4531 23.5067 43.7031 23.5458 43.9531 23.5833C44.1281 23.6099 44.3015 23.6364 44.3715 23.6083C44.4381 23.5817 44.5382 23.4474 44.6365 23.313C44.7798 23.1192 44.9232 22.9255 45.1482 22.7817C45.3749 22.638 45.6215 22.5864 45.8699 22.5348C45.9615 22.5161 46.0516 22.4973 46.1232 22.4754C46.1416 22.4676 46.1599 22.4629 46.1782 22.4567C46.2099 22.4442 46.2349 22.4317 46.2499 22.4176C46.3016 22.3692 46.3382 22.2161 46.3732 22.0614C46.4282 21.8301 46.4832 21.5989 46.6366 21.3848C46.7899 21.1723 46.9966 21.0394 47.2033 20.9051C47.3466 20.8129 47.49 20.7191 47.5166 20.6566C47.545 20.5926 47.5183 20.4285 47.49 20.2644C47.45 20.0316 47.41 19.7972 47.465 19.5394C47.52 19.2894 47.65 19.0894 47.7833 18.8878C47.8816 18.7393 47.98 18.5893 47.98 18.4971C47.98 18.4049 47.8816 18.2549 47.7833 18.1065C47.6516 17.9049 47.52 17.7065 47.465 17.4549C47.4083 17.1971 47.45 16.9642 47.49 16.7299C47.5183 16.5658 47.5466 16.4033 47.5166 16.3377C47.4883 16.2752 47.3449 16.1814 47.2033 16.0892C46.9966 15.9548 46.7899 15.8205 46.6366 15.6095C46.4832 15.397 46.4282 15.1657 46.3732 14.9329C46.3366 14.7782 46.2999 14.6251 46.2499 14.5767C46.1982 14.5282 46.0349 14.4938 45.8699 14.461C45.6232 14.4095 45.3765 14.3579 45.1482 14.2141C44.9215 14.0704 44.7798 13.8766 44.6365 13.6829C44.5382 13.5485 44.4382 13.4141 44.3715 13.3876C44.3031 13.361 44.1281 13.386 43.9531 13.4126C43.7048 13.4501 43.4548 13.4876 43.1798 13.436C42.9131 13.3844 42.6997 13.261 42.4847 13.1375C42.3264 13.0453 42.1664 12.9532 42.068 12.9532C41.9697 12.9532 41.8097 13.0453 41.6513 13.1375C41.4363 13.261 41.2247 13.3844 40.9563 13.436C40.6813 13.4891 40.4313 13.4501 40.1829 13.4126C40.0079 13.386 39.8346 13.3594 39.7646 13.3876C39.6979 13.4141 39.5979 13.5485 39.4996 13.6829C39.3562 13.8766 39.2129 14.0704 38.9879 14.2141C38.7612 14.3579 38.5145 14.4095 38.2678 14.461C38.1028 14.4954 37.9395 14.5298 37.8878 14.5767C37.8362 14.6251 37.7995 14.7782 37.7645 14.9329C37.7095 15.1642 37.6545 15.3954 37.5011 15.608C37.3478 15.8205 37.1411 15.9533 36.9345 16.0877C36.8928 16.1142 36.8528 16.1408 36.8145 16.1658C36.7945 16.1814 36.7728 16.197 36.7511 16.2111C36.6861 16.258 36.6361 16.3017 36.6211 16.3345C36.5928 16.3986 36.6194 16.5627 36.6478 16.7267C36.6878 16.9596 36.7278 17.194 36.6728 17.4518C36.6178 17.7018 36.4878 17.9018 36.3544 18.1034C36.2561 18.2518 36.1577 18.4018 36.1577 18.494C36.1577 18.5862 36.2561 18.7362 36.3544 18.8847C36.4861 19.0862 36.6178 19.2847 36.6728 19.5363C36.7294 19.7941 36.6878 20.0269 36.6478 20.2613C36.6194 20.4254 36.5911 20.5879 36.6211 20.6535C36.6494 20.716 36.7928 20.8097 36.9345 20.9019C37.1411 21.0363 37.3478 21.1707 37.5011 21.3816C37.6545 21.5942 37.7095 21.8254 37.7645 22.0567C37.8012 22.2114 37.8378 22.3645 37.8878 22.4129C37.9395 22.4614 38.1028 22.4958 38.2678 22.5286C38.5145 22.5801 38.7612 22.6317 38.9895 22.7755C39.2162 22.9192 39.3579 23.113 39.5012 23.3067C39.5996 23.4411 39.6996 23.5755 39.7662 23.6021C39.8346 23.6286 40.0096 23.6036 40.1846 23.5771C40.4329 23.5396 40.683 23.502 40.958 23.5536C41.2247 23.6052 41.438 23.7286 41.653 23.8521C41.8113 23.9443 41.9714 24.0365 42.0697 24.0365C42.1647 24.0365 42.3147 23.9505 42.4664 23.863L42.4664 23.8693ZM44.2631 16.4441C43.7014 15.9175 42.9247 15.5925 42.068 15.5925C41.2113 15.5925 40.4346 15.9175 39.8729 16.4441C39.3112 16.9707 38.9645 17.6988 38.9645 18.502C38.9645 19.3052 39.3112 20.0333 39.8729 20.5599C40.4346 21.0865 41.2113 21.4115 42.068 21.4115C42.9247 21.4115 43.7014 21.0865 44.2631 20.5599C44.8248 20.0333 45.1715 19.3052 45.1715 18.502C45.1715 17.6988 44.8248 16.9707 44.2631 16.4441ZM42.068 14.6331C40.9279 14.6331 39.8979 15.0659 39.1512 15.7659C38.4045 16.466 37.9428 17.4332 37.9428 18.5004C37.9428 19.5692 38.4045 20.5349 39.1512 21.2349C39.8979 21.935 40.9297 22.3678 42.068 22.3678C43.2081 22.3678 44.2381 21.935 44.9848 21.2349C45.7315 20.5349 46.1932 19.5676 46.1932 18.5004C46.1932 17.4316 45.7315 16.466 44.9848 15.7659C44.2381 15.0659 43.2064 14.6331 42.068 14.6331Z" fill="#018E47"/>
<circle cx="30" cy="30" r="29" stroke="#018E47" stroke-width="2"/>
</svg>
