<svg width="150" height="40" viewBox="0 0 150 40" fill="none" xmlns="http://www.w3.org/2000/svg">
<g clip-path="url(#clip0_124_1515)">
<path d="M61.3025 5.59399H64.7002V22.2314H70.5572V25.5155H61.3167L61.3025 5.59399Z" fill="#000083"/>
<path d="M78.4261 10.5842C80.2262 10.5613 81.9327 11.3963 83.0396 12.8411V10.8808H86.2094V25.5434H83.0396V23.5831C81.9327 25.0279 80.2262 25.8629 78.4261 25.84C74.474 25.84 71.4744 22.404 71.4744 18.2085C71.4744 14.0129 74.474 10.5842 78.4261 10.5842ZM79.0022 13.521C76.436 13.521 74.7369 15.5754 74.7369 18.2085C74.7369 20.8415 76.4641 22.9031 79.0022 22.9031C81.5397 22.9031 83.267 20.8487 83.267 18.2085C83.267 15.5682 81.5678 13.521 79.0022 13.521Z" fill="#000083"/>
<path d="M88.6777 22.9977L96.2337 13.811H88.7912V10.8813H100.328V13.4638L92.8005 22.6143H100.498V25.5439H88.6777V22.9977Z" fill="#000083"/>
<path d="M108.557 10.5842C110.357 10.5613 112.064 11.3963 113.17 12.8411V10.8808H116.341V25.5434H113.17V23.5831C112.064 25.0279 110.357 25.8629 108.557 25.84C104.605 25.84 101.613 22.404 101.613 18.2085C101.613 14.0129 104.605 10.5842 108.557 10.5842ZM109.133 13.521C106.567 13.521 104.868 15.5754 104.868 18.2085C104.868 20.8415 106.596 22.9031 109.133 22.9031C111.671 22.9031 113.398 20.8487 113.398 18.2085C113.398 15.5682 111.699 13.521 109.133 13.521Z" fill="#000083"/>
<path d="M125.398 10.5844C127.196 10.5603 128.901 11.3958 130.004 12.8413V4.41406H133.174V25.5436H130.004V23.5833C128.901 25.0287 127.196 25.8642 125.398 25.8401C121.446 25.8401 118.446 22.4042 118.446 18.2087C118.446 14.0131 121.446 10.5844 125.398 10.5844ZM125.973 13.5212C123.407 13.5212 121.709 15.5756 121.709 18.2087C121.709 20.8417 123.443 22.9033 125.973 22.9033C128.504 22.9033 130.238 20.8489 130.238 18.2087C130.238 15.5684 128.54 13.5212 125.973 13.5212Z" fill="#000083"/>
<path d="M142.228 10.5842C144.027 10.5602 145.732 11.3957 146.835 12.8411V10.8808H149.998V25.5434H146.821V23.5831C145.717 25.0285 144.012 25.864 142.214 25.84C138.262 25.84 135.263 22.404 135.263 18.2085C135.263 14.013 138.276 10.5842 142.228 10.5842ZM142.805 13.5211C140.238 13.5211 138.539 15.5755 138.539 18.2085C138.539 20.8416 140.274 22.9032 142.805 22.9032C145.335 22.9032 147.069 20.8488 147.069 18.2085C147.069 15.5682 145.37 13.5211 142.805 13.5211Z" fill="#000083"/>
<path d="M24.2167 39.9982C23.873 40.0006 23.5347 39.9111 23.2355 39.7386C20.6747 38.2308 1.70863 26.129 0.99238 25.7596C0.447286 25.5007 0.0750706 24.9704 0.0112069 24.3617V7.38718C-0.00289789 6.75357 0.304902 6.15729 0.825577 5.80956L0.962941 5.72968C2.79774 4.57142 8.93984 0.757152 9.91121 0.207976C10.1341 0.0733635 10.388 0.00103001 10.6471 -0.00170898C10.89 0.00108846 11.1288 0.0626966 11.3438 0.178021C11.3438 0.178021 19.9388 5.87946 21.2536 6.38869C22.1761 6.82001 23.182 7.03498 24.1971 7.01775C25.3474 7.04221 26.4839 6.75994 27.4938 6.19898C28.7792 5.51001 36.9916 0.207976 37.0799 0.207976C37.2869 0.0807112 37.5248 0.0149918 37.7667 0.018261C38.0261 0.0195529 38.2803 0.0919905 38.5026 0.227946C39.6211 0.856998 47.235 5.59988 47.5588 5.80956C48.0943 6.13835 48.4189 6.73082 48.4124 7.36722V24.3417C48.3524 24.9519 47.979 25.4839 47.4313 25.7396C46.715 26.139 27.8078 38.2409 25.1979 39.7187C24.9008 39.8981 24.5623 39.9946 24.2167 39.9982Z" fill="url(#paint0_linear_124_1515)"/>
<path d="M24.1204 39.9977L24.2185 39.9976C24.5622 40.0001 24.9006 39.9105 25.1996 39.738C27.7605 38.2303 46.7167 26.1285 47.433 25.759C47.9807 25.5033 48.3541 24.9713 48.4142 24.3611V7.3866C48.4173 7.09925 48.3535 6.81523 48.2277 6.55786L24.1204 20.0276V39.9977Z" fill="url(#paint1_linear_124_1515)"/>
<path d="M24.0352 39.7579L23.9381 39.7578C23.598 39.7602 23.2633 39.6716 22.9674 39.501C20.4338 38.0093 1.6795 26.0364 0.97086 25.6709C0.429018 25.4179 0.0595894 24.8916 0.000175476 24.2879V7.49423C-0.00295258 7.20994 0.0602341 6.92894 0.184607 6.67432L24.0352 20.0006V39.7579Z" fill="url(#paint2_linear_124_1515)"/>
</g>
<defs>
<linearGradient id="paint0_linear_124_1515" x1="-0.0186583" y1="0.363813" x2="47.9382" y2="-0.00119314" gradientUnits="userSpaceOnUse">
<stop offset="1e-07" stop-color="#FF9200"/>
<stop offset="0.337553" stop-color="#F36D00"/>
<stop offset="0.56729" stop-color="#F83C72"/>
<stop offset="0.78" stop-color="#FC1CBE"/>
<stop offset="0.93" stop-color="#FE08ED"/>
<stop offset="1" stop-color="#FF00FF"/>
</linearGradient>
<linearGradient id="paint1_linear_124_1515" x1="13.4555" y1="35.8234" x2="62.7476" y2="9.00444" gradientUnits="userSpaceOnUse">
<stop stop-color="#EE0A3F"/>
<stop offset="1" stop-color="#EE0A3F" stop-opacity="0"/>
</linearGradient>
<linearGradient id="paint2_linear_124_1515" x1="18.2123" y1="28.6432" x2="-5.7387" y2="9.68413" gradientUnits="userSpaceOnUse">
<stop stop-color="#ED6600"/>
<stop offset="1" stop-color="#F98200"/>
</linearGradient>
<clipPath id="clip0_124_1515">
<rect width="150" height="40" fill="white"/>
</clipPath>
</defs>
</svg>
