<svg width="203" height="40" viewBox="0 0 203 40" fill="none" xmlns="http://www.w3.org/2000/svg">
<path fill-rule="evenodd" clip-rule="evenodd" d="M0.234452 35.1254C0.234452 35.0279 0.234452 34.9304 0.234452 34.8328C0.234452 30.883 0.183363 26.982 0.28554 23.0321C0.336629 19.8138 0.847516 16.6929 2.02255 13.6696C3.09542 10.8413 4.73025 8.30566 7.02924 6.20884C9.0217 4.40461 11.3207 3.03924 13.9262 2.11274C16.4806 1.18624 19.1373 0.698606 21.8449 0.503553C22.8156 0.45479 23.7863 0.406025 24.757 0.406025C83.8155 0.406025 142.823 0.406025 201.881 0.406025C202.494 0.406025 202.443 0.357261 202.443 0.942419C202.443 5.67245 202.443 10.4512 202.443 15.1813C202.443 17.2293 202.341 19.2286 201.984 21.2767C201.422 24.495 200.4 27.5184 198.561 30.2491C197.334 32.1021 195.751 33.7113 193.912 35.0767C193.86 35.1254 193.809 35.1254 193.707 35.1742C193.656 35.1742 193.656 35.1742 193.605 35.1742C193.605 35.0766 193.503 35.0767 193.452 35.0767C193.298 35.0767 193.145 35.0767 192.992 35.0767C128.978 35.0767 65.0149 35.0767 1.00078 35.0767C0.69425 35.1254 0.438807 35.1254 0.234452 35.1254ZM41.6163 19.3749C41.7184 19.57 41.7695 19.6675 41.8206 19.8138C42.2804 20.9353 42.7402 22.1056 43.2511 23.2272C43.6087 24.0562 43.9152 24.9339 44.324 25.7629C45.2946 28.006 47.6958 29.1763 50.0459 28.4936C51.5785 28.0548 52.6003 27.0307 53.0601 25.5678C54.0819 22.447 55.1037 19.3749 56.0743 16.2541C56.432 15.0837 56.8407 13.9622 57.1983 12.7919C57.5048 11.7678 56.8407 10.6951 55.8189 10.4512C54.695 10.1587 53.6732 10.7438 53.3156 11.7678C51.9873 15.9615 50.5568 20.1064 49.1774 24.3C49.1263 24.3975 49.1263 24.4463 49.0752 24.5438C48.973 24.7389 48.8198 24.7876 48.6154 24.6901C48.4111 24.5926 48.3089 24.3975 48.2578 24.2025C47.1338 21.3254 45.9588 18.4484 44.7838 15.5714C44.5794 15.035 44.324 14.4986 43.9152 14.011C42.8424 12.6943 40.5434 12.6943 39.5727 14.1572C39.0618 14.9375 38.7042 15.7664 38.3466 16.5954C37.3248 19.0823 36.3541 21.618 35.3324 24.1049C35.2813 24.2512 35.2302 24.4463 35.0769 24.5926C34.8726 24.7876 34.566 24.7389 34.4638 24.495C34.4128 24.3975 34.4128 24.3487 34.4128 24.2512C33.2888 20.8866 32.2159 17.5219 31.092 14.1572C30.8366 13.3283 30.5811 12.4993 30.2746 11.6703C29.968 10.8901 29.355 10.4512 28.4865 10.4025C27.618 10.305 26.9538 10.6951 26.5451 11.4265C26.2897 11.9141 26.2386 12.4505 26.4429 12.9869C27.056 14.8399 27.6691 16.6929 28.2821 18.5947C29.0485 21.0329 29.8659 23.4223 30.6833 25.8604C31.3985 27.9572 33.4421 29.03 35.7411 28.6399C37.5292 28.3473 38.7553 27.2745 39.3684 25.6654C40.1347 23.7148 40.7988 21.7643 41.5141 19.8138C41.463 19.6675 41.5141 19.5212 41.6163 19.3749ZM75.3348 26.3968C75.3348 26.4456 75.3859 26.4456 75.3859 26.4456C75.3859 26.6406 75.4369 26.8357 75.4369 27.0307C75.5391 27.8597 76.2544 28.5912 77.0718 28.6887C78.0936 28.835 78.8088 28.3961 79.1664 27.5184C79.3197 27.1283 79.4219 26.6894 79.4219 26.2505C79.4219 24.6901 79.4219 23.1784 79.4219 21.618C79.4219 20.4477 79.4729 19.2286 79.3197 18.0583C78.8088 14.6449 76.9185 12.3042 73.4956 11.1339C72.1162 10.6463 70.6346 10.5 69.153 10.4512C67.6204 10.4025 66.1388 10.5975 64.7083 11.0852C62.3583 11.8654 60.5191 13.2795 59.344 15.4251C58.4244 17.083 58.169 18.8385 58.3733 20.6915C58.6288 22.7396 59.4973 24.5438 60.9789 26.0067C62.6648 27.6159 64.7083 28.5424 67.0584 28.7862C70.0215 29.0788 72.6782 28.3961 75.0282 26.5431C75.1815 26.4943 75.2326 26.3968 75.3348 26.3968ZM126.117 10.4512C124.227 10.4512 122.898 10.6463 121.57 11.0852C116.41 12.7919 114.264 17.4731 115.49 21.9594C116.257 24.7876 118.249 26.7381 121.059 27.8597C123.716 28.9325 126.475 28.9813 129.233 28.201C131.226 27.6646 132.912 26.6406 134.189 25.0802C135.824 23.0809 136.386 20.789 136.028 18.3509C135.67 15.6689 134.24 13.6208 131.941 12.158C130 10.9389 127.905 10.4512 126.117 10.4512ZM106.397 14.4986C107.521 14.5473 108.645 14.5473 109.769 14.5961C110.024 14.5961 110.228 14.5961 110.484 14.5474C110.739 14.4986 110.995 14.4011 111.25 14.2548C112.374 13.5721 112.323 12.0604 111.148 11.4753C110.484 11.1339 109.769 11.0852 109.053 11.0364C107.112 10.8901 105.171 10.8901 103.28 10.9389C102.054 10.9876 100.828 11.1827 99.7041 11.6703C98.5801 12.158 97.6605 12.8406 97.0985 13.9134C96.6387 14.7912 96.4855 15.7664 96.5876 16.7417C96.7409 18.3509 97.5072 19.6187 99.0399 20.3989C99.6019 20.6915 100.215 20.9353 100.879 21.0816C102.105 21.423 103.382 21.5205 104.66 21.6668C105.63 21.7643 106.55 21.8618 107.521 22.0569C107.98 22.1544 108.389 22.3007 108.798 22.4957C109.564 22.9346 109.666 23.8124 109.002 24.4463C108.798 24.6413 108.542 24.7389 108.287 24.8364C107.98 24.9339 107.674 25.0314 107.367 25.0802C105.937 25.324 104.506 25.324 103.076 25.129C101.594 24.9339 100.113 24.7876 98.6312 24.7389C98.1714 24.7389 97.7116 24.7876 97.2518 24.9827C96.7409 25.2265 96.3833 25.5678 96.2811 26.153C96.1278 26.982 96.4855 27.9572 97.6605 28.2498C98.2736 28.3961 98.8866 28.4936 99.4997 28.5424C102.003 28.7862 104.455 28.835 106.959 28.6399C108.032 28.5424 109.104 28.2986 110.126 27.9085C111.965 27.1283 113.089 25.8116 113.294 23.9099C113.498 22.1544 112.936 20.6915 111.25 19.7162C110.995 19.57 110.739 19.4237 110.433 19.3261C109.411 18.8873 108.338 18.6435 107.265 18.4484C105.937 18.2046 104.609 18.1071 103.331 17.8632C102.667 17.7657 102.003 17.6194 101.39 17.3756C100.981 17.2293 100.675 16.9855 100.521 16.5466C100.266 15.8152 100.573 15.1813 101.339 14.8887C101.85 14.6936 102.412 14.5961 102.974 14.5474C104.047 14.4011 105.222 14.4011 106.397 14.4986ZM170.36 14.206C170.768 14.206 171.228 14.2548 171.637 14.2548C172.046 14.2548 172.505 14.2548 172.914 14.3035C173.323 14.3035 173.68 14.3035 174.089 14.3035C174.6 14.2548 175.111 14.1085 175.469 13.7184C175.979 13.2307 176.133 12.0117 175.162 11.3777C174.6 10.9876 173.885 10.8413 173.221 10.7926C171.279 10.6463 169.287 10.5975 167.345 10.6463C166.273 10.6463 165.2 10.7926 164.127 11.1339C163.054 11.4753 162.083 11.9629 161.368 12.8406C160.551 13.8159 160.295 14.9862 160.346 16.2053C160.397 17.1806 160.602 18.0583 161.215 18.8385C161.777 19.57 162.543 20.0576 163.412 20.3989C164.638 20.8866 165.915 21.1304 167.243 21.3254C168.367 21.4717 169.542 21.5205 170.666 21.7155C171.279 21.8131 171.892 21.9594 172.454 22.2519C173.374 22.7396 173.425 23.7148 172.659 24.3C172.352 24.495 172.046 24.6413 171.688 24.7389C170.973 24.9339 170.257 25.0314 169.542 25.0314C167.192 25.129 164.842 24.9827 162.543 24.5438C161.879 24.4463 161.317 24.5438 160.755 24.8364C160.448 24.9827 160.295 25.2265 160.142 25.5191C159.682 26.5919 160.346 27.7622 161.521 28.006C162.696 28.2498 163.871 28.3961 165.098 28.4449C166.375 28.4936 167.652 28.4936 168.929 28.4936C170.053 28.4936 171.228 28.3961 172.352 28.1523C173.68 27.9085 174.804 27.2745 175.775 26.3968C176.184 26.0067 176.49 25.5191 176.746 24.9827C177.103 24.1537 177.154 23.276 177.052 22.3495C176.899 21.1304 176.286 20.2526 175.213 19.57C174.753 19.2774 174.293 19.0336 173.834 18.8873C172.352 18.3021 170.768 18.0583 169.236 17.8145C168.163 17.6682 167.141 17.5707 166.119 17.3269C165.762 17.2293 165.404 17.1318 165.046 16.9367C164.484 16.6442 164.28 16.2053 164.331 15.6201C164.382 15.0837 164.689 14.7424 165.2 14.5474C165.353 14.4986 165.455 14.4498 165.608 14.4011C166.17 14.2548 166.783 14.206 167.345 14.1572C168.265 14.1572 169.338 14.1572 170.36 14.206ZM138.685 22.3007C138.634 22.3007 138.634 22.3007 138.685 22.3007C138.685 23.7148 138.685 25.1777 138.685 26.5919C138.685 27.0307 138.787 27.4696 138.94 27.8597C139.196 28.3473 139.553 28.7374 140.166 28.8837C141.29 29.1763 142.363 28.6399 142.721 27.5184C142.823 27.1283 142.874 26.7381 142.874 26.2993C142.874 23.9586 142.874 21.5692 142.874 19.2286C142.874 18.4972 142.976 17.7657 143.232 17.0343C143.64 15.864 144.458 14.9862 145.735 14.5961C147.421 14.0597 149.107 14.0597 150.793 14.5961C152.172 15.035 152.99 15.9615 153.347 17.2781C153.5 17.8632 153.5 18.3996 153.5 18.9848C153.5 21.423 153.5 23.8124 153.5 26.2505C153.5 26.7381 153.551 27.2745 153.807 27.7134C154.165 28.3961 154.727 28.7374 155.544 28.7374C156.361 28.7374 156.974 28.4449 157.383 27.7622C157.639 27.3721 157.741 26.8844 157.741 26.4456C157.741 23.6661 157.741 20.8378 157.741 18.0583C157.741 17.083 157.536 16.1565 157.128 15.2788C156.208 13.2795 154.624 12.0117 152.53 11.329C149.669 10.4025 146.808 10.4512 143.998 11.329C142.567 11.7678 141.392 12.5481 140.422 13.6696C139.349 14.9375 138.838 16.4491 138.787 18.0583C138.634 19.5212 138.685 20.9353 138.685 22.3007ZM82.5894 16.7417C82.5894 17.717 82.5894 18.6922 82.5894 19.6675C82.5894 20.6427 82.5894 21.618 82.5894 22.5933C82.5894 23.0809 82.5894 23.6173 82.6404 24.1049C82.8959 26.2505 84.2753 27.8109 86.421 28.3961C88.3113 28.8837 90.2527 28.835 92.1429 28.2986C92.5006 28.201 92.8582 28.0547 93.1647 27.8597C93.7778 27.4208 93.8799 26.7869 93.7267 26.1042C93.5734 25.4703 93.1647 25.0802 92.5005 24.9339C92.0918 24.8364 91.6831 24.8851 91.3255 24.8851C90.7635 24.9339 90.2527 24.9827 89.6907 24.9827C89.282 24.9827 88.8733 24.9827 88.5156 24.8851C87.6471 24.6901 87.1362 24.2025 86.9319 23.4223C86.8808 23.1784 86.8297 22.9346 86.8297 22.642C86.8297 20.2526 86.8297 17.912 86.8297 15.5226C86.8297 14.9375 86.7786 14.9862 87.3917 14.9862C88.72 14.9862 90.0483 14.9862 91.3255 14.9862C91.8364 14.9862 92.3473 14.9375 92.8071 14.6936C93.5223 14.3523 93.7267 13.7671 93.7267 13.0845C93.7267 12.4018 93.3691 11.9629 92.7049 11.6703C92.2962 11.524 91.8875 11.4265 91.4277 11.4265C90.3548 11.4265 89.3331 11.4265 88.2602 11.4265C87.8515 11.4265 87.4939 11.4265 87.0852 11.4265C86.8808 11.4265 86.8297 11.329 86.8297 11.1827C86.8297 10.8413 86.8297 10.4512 86.8297 10.1099C86.8297 9.67103 86.7275 9.23216 86.5232 8.79329C86.1656 8.11061 85.5525 7.72051 84.7351 7.72051C83.9177 7.72051 83.3557 8.11061 82.9981 8.79329C82.7426 9.23216 82.6404 9.71979 82.6404 10.2074C82.5894 12.4018 82.5894 14.5474 82.5894 16.7417Z" fill="#00A0A0"/>
<path fill-rule="evenodd" clip-rule="evenodd" d="M0.234437 35.126C0.438792 35.126 0.694235 35.126 0.898589 35.126C64.9127 35.126 128.876 35.126 192.89 35.126C193.043 35.126 193.196 35.126 193.35 35.126C193.401 35.126 193.503 35.126 193.503 35.2235C193.401 35.2235 193.298 35.2723 193.35 35.3698C193.247 35.321 193.196 35.3698 193.196 35.4673C193.145 35.4673 193.094 35.4673 193.094 35.5648C193.043 35.5648 192.992 35.5648 192.992 35.6624C192.89 35.6136 192.839 35.6624 192.839 35.7599C192.685 35.7111 192.634 35.8087 192.583 35.9062C192.481 35.8574 192.43 35.9062 192.43 36.0037C192.379 36.0037 192.328 36.0037 192.328 36.1012C192.174 36.0525 192.072 36.15 191.97 36.2475C191.919 36.2475 191.868 36.2963 191.919 36.3451C191.715 36.3451 191.561 36.3938 191.459 36.5889C191.357 36.5401 191.306 36.5889 191.306 36.6864C191.204 36.6376 191.153 36.6864 191.153 36.7839C191.051 36.7352 190.999 36.7352 190.999 36.8814C190.897 36.8327 190.846 36.8327 190.846 36.979C190.744 36.9302 190.693 36.979 190.693 37.0765C190.591 37.0277 190.54 37.0765 190.54 37.174C190.437 37.1253 190.386 37.1253 190.386 37.2716C190.284 37.2228 190.233 37.2228 190.233 37.3691C189.978 37.3203 189.773 37.4178 189.62 37.6129C189.365 37.6129 189.16 37.6617 189.007 37.8567C188.854 37.7592 188.752 37.8567 188.649 37.9055C187.781 38.1981 186.963 38.4419 186.095 38.6857C183.438 39.3196 180.782 39.5634 178.074 39.5634C119.016 39.5634 59.906 39.5634 0.8475 39.5634C0.694234 39.5634 0.540969 39.5634 0.387703 39.5634C0.183348 38.003 0.183349 36.5401 0.234437 35.126Z" fill="#E22826"/>
<path fill-rule="evenodd" clip-rule="evenodd" d="M0.236393 39.4167C0.389659 39.4167 0.542923 39.4167 0.696189 39.4167C59.7547 39.4167 118.864 39.4167 177.923 39.4167C180.63 39.4167 183.338 39.1728 185.944 38.5389C186.812 38.3439 187.681 38.0513 188.498 37.7587C188.6 37.7099 188.702 37.6124 188.856 37.7099C188.856 37.8562 188.702 37.8075 188.651 37.8562C186.71 38.5389 184.718 39.0265 182.674 39.2704C181.295 39.4654 179.915 39.5142 178.536 39.5629C178.434 39.5629 178.331 39.5629 178.178 39.5629C178.025 39.4654 177.821 39.5142 177.616 39.5142C118.711 39.5142 59.8058 39.5142 0.900545 39.5142C0.645101 39.5142 0.389657 39.5142 0.185303 39.5142C0.236391 39.4654 0.236393 39.4167 0.236393 39.4167Z" fill="#339C9C"/>
<path fill-rule="evenodd" clip-rule="evenodd" d="M0.237061 39.5141C0.492504 39.5141 0.747946 39.5141 0.9523 39.5141C59.8575 39.5141 118.763 39.5141 177.668 39.5141C177.872 39.5141 178.026 39.4654 178.23 39.5629C178.077 39.5629 177.872 39.5629 177.719 39.5629C118.712 39.5629 59.7042 39.5629 0.696857 39.5629C0.543591 39.5629 0.390326 39.6604 0.237061 39.5141Z" fill="#36ACB0"/>
<path fill-rule="evenodd" clip-rule="evenodd" d="M188.906 37.7099C189.06 37.5148 189.264 37.4661 189.519 37.4661C189.366 37.6611 189.162 37.7099 188.906 37.7099Z" fill="#339C9C"/>
<path fill-rule="evenodd" clip-rule="evenodd" d="M189.521 37.4657C189.674 37.2707 189.878 37.1731 190.134 37.2219C189.98 37.417 189.725 37.4657 189.521 37.4657Z" fill="#339C9C"/>
<path fill-rule="evenodd" clip-rule="evenodd" d="M191.46 36.5387C191.562 36.3437 191.715 36.2949 191.92 36.2949C191.818 36.49 191.664 36.5387 191.46 36.5387Z" fill="#339C9C"/>
<path fill-rule="evenodd" clip-rule="evenodd" d="M191.972 36.1978C192.074 36.1003 192.177 36.0028 192.33 36.0515C192.279 36.1491 192.177 36.1978 192.125 36.1978C192.074 36.1978 192.023 36.1978 191.972 36.1978Z" fill="#567070"/>
<path fill-rule="evenodd" clip-rule="evenodd" d="M193.349 35.4178C193.349 35.2715 193.4 35.2715 193.502 35.2715C193.553 35.2715 193.553 35.2715 193.605 35.2715C193.553 35.3202 193.502 35.4178 193.349 35.4178Z" fill="#567070"/>
<path fill-rule="evenodd" clip-rule="evenodd" d="M192.586 35.9058C192.637 35.7595 192.688 35.7107 192.841 35.7595C192.841 35.857 192.739 35.9058 192.586 35.9058Z" fill="#567070"/>
<path fill-rule="evenodd" clip-rule="evenodd" d="M193.2 35.466C193.2 35.3685 193.251 35.3197 193.353 35.3685C193.353 35.466 193.302 35.5148 193.2 35.466Z" fill="#567070"/>
<path fill-rule="evenodd" clip-rule="evenodd" d="M192.431 36.0033C192.431 35.9058 192.482 35.9058 192.584 35.9058C192.584 36.0033 192.533 36.0033 192.431 36.0033Z" fill="#567070"/>
<path fill-rule="evenodd" clip-rule="evenodd" d="M191.97 36.198C192.021 36.198 192.072 36.198 192.123 36.198C192.072 36.2468 192.021 36.2955 191.919 36.2955C191.868 36.2468 191.919 36.2468 191.97 36.198Z" fill="#339C9C"/>
<path fill-rule="evenodd" clip-rule="evenodd" d="M191.306 36.6369C191.306 36.5394 191.357 36.4906 191.46 36.5394C191.46 36.6369 191.409 36.6369 191.306 36.6369Z" fill="#339C9C"/>
<path fill-rule="evenodd" clip-rule="evenodd" d="M191.155 36.735C191.155 36.6375 191.257 36.6375 191.308 36.6375C191.308 36.735 191.206 36.735 191.155 36.735Z" fill="#339C9C"/>
<path fill-rule="evenodd" clip-rule="evenodd" d="M190.951 36.7836C190.951 36.686 191.054 36.686 191.105 36.686C191.105 36.8323 191.054 36.8323 190.951 36.7836Z" fill="#339C9C"/>
<path fill-rule="evenodd" clip-rule="evenodd" d="M190.798 36.8813C190.798 36.7838 190.9 36.735 190.951 36.7838C190.951 36.9301 190.9 36.9301 190.798 36.8813Z" fill="#339C9C"/>
<path fill-rule="evenodd" clip-rule="evenodd" d="M190.644 36.9784C190.644 36.8809 190.746 36.8809 190.798 36.8809C190.798 36.9784 190.695 36.9784 190.644 36.9784Z" fill="#339C9C"/>
<path fill-rule="evenodd" clip-rule="evenodd" d="M190.439 37.027C190.439 36.9294 190.542 36.9294 190.593 36.9294C190.593 37.0757 190.542 37.0757 190.439 37.027Z" fill="#339C9C"/>
<path fill-rule="evenodd" clip-rule="evenodd" d="M190.286 37.1249C190.286 37.0273 190.388 37.0273 190.439 37.0273C190.439 37.1736 190.388 37.1736 190.286 37.1249Z" fill="#339C9C"/>
<path fill-rule="evenodd" clip-rule="evenodd" d="M190.083 37.2219C190.083 37.1244 190.185 37.0756 190.236 37.1244C190.287 37.2219 190.185 37.2219 190.083 37.2219Z" fill="#339C9C"/>
<path fill-rule="evenodd" clip-rule="evenodd" d="M192.839 35.7104C192.839 35.6129 192.89 35.5641 192.992 35.6129C192.992 35.7104 192.941 35.7592 192.839 35.7104Z" fill="#567070"/>
<path fill-rule="evenodd" clip-rule="evenodd" d="M193.096 35.5634C193.096 35.515 193.147 35.4666 193.197 35.4666C193.197 35.5634 193.197 35.5634 193.096 35.5634Z" fill="#567070"/>
<path fill-rule="evenodd" clip-rule="evenodd" d="M193.047 35.661C192.996 35.5635 193.047 35.5635 193.149 35.5635C193.098 35.6122 193.098 35.661 193.047 35.661Z" fill="#567070"/>
<path fill-rule="evenodd" clip-rule="evenodd" d="M192.329 36.0512C192.329 35.9543 192.379 35.9543 192.43 35.9543C192.43 36.0512 192.379 36.0512 192.329 36.0512Z" fill="#567070"/>
<path fill-rule="evenodd" clip-rule="evenodd" d="M41.6184 19.3753C41.5162 19.5216 41.4651 19.6679 41.414 19.7654C40.6988 21.716 40.0346 23.7153 39.2683 25.617C38.6552 27.2262 37.4291 28.299 35.641 28.5916C33.342 28.9817 31.2985 27.8601 30.5832 25.8121C29.7658 23.3739 28.9995 20.9845 28.1821 18.5464C27.569 16.6933 26.9559 14.8403 26.3429 12.9386C26.1896 12.4022 26.1896 11.8658 26.4451 11.3782C26.8538 10.6467 27.4668 10.2566 28.3864 10.3541C29.2549 10.4517 29.868 10.8418 30.1745 11.622C30.4811 12.451 30.7365 13.2799 30.9919 14.1089C32.1159 17.4736 33.1888 20.8382 34.3127 24.2029C34.3638 24.3004 34.3638 24.3492 34.3638 24.4467C34.466 24.7393 34.7725 24.7393 34.9769 24.5442C35.1301 24.3979 35.1812 24.2516 35.2323 24.0566C36.2541 21.5697 37.2248 19.034 38.2465 16.5471C38.6042 15.7181 38.9618 14.8891 39.4727 14.1089C40.4944 12.646 42.7423 12.646 43.8152 13.9626C44.2239 14.4502 44.4794 14.9379 44.6837 15.523C45.8587 18.4001 46.9827 21.2771 48.1577 24.1541C48.2599 24.3492 48.3621 24.5442 48.5154 24.6418C48.7197 24.7393 48.873 24.6905 48.9752 24.4955C49.0262 24.3979 49.0262 24.3492 49.0773 24.2516C50.4567 20.058 51.8361 15.9131 53.2155 11.7195C53.522 10.6955 54.5949 10.1591 55.7189 10.4029C56.7406 10.6467 57.4048 11.7195 57.0982 12.7435C56.7406 13.9138 56.383 15.0842 55.9743 16.2057C54.9525 19.3266 53.9308 22.3986 52.9601 25.5195C52.5003 26.9824 51.4785 28.0064 49.9458 28.4453C47.5958 29.128 45.1946 28.0064 44.2239 25.7145C43.8663 24.8856 43.5087 24.0078 43.151 23.1789C42.6912 22.0573 42.2314 20.887 41.7206 19.7654C41.7717 19.6679 41.7206 19.5704 41.6184 19.3753Z" fill="white"/>
<path fill-rule="evenodd" clip-rule="evenodd" d="M75.3375 26.3974C75.1842 26.3974 75.1331 26.4949 75.082 26.5437C72.783 28.3479 70.0753 29.0794 67.1122 28.7868C64.7621 28.543 62.7186 27.6653 61.0326 26.0073C59.5 24.5444 58.6826 22.7402 58.4271 20.6921C58.2228 18.8391 58.4782 17.0836 59.3978 15.4257C60.5728 13.2801 62.412 11.866 64.7621 11.0858C66.1926 10.5981 67.6742 10.4031 69.2068 10.4518C70.6884 10.5006 72.1189 10.6469 73.5493 11.1345C76.9723 12.3049 78.8626 14.6455 79.3735 18.0589C79.5267 19.2292 79.4756 20.4483 79.4756 21.6186C79.4756 23.179 79.4756 24.6907 79.4756 26.2511C79.4756 26.69 79.4245 27.1289 79.2202 27.519C78.8626 28.3967 78.0962 28.7868 77.1256 28.6893C76.3081 28.5918 75.5929 27.8603 75.4907 27.0313C75.4907 26.8363 75.4396 26.6412 75.4396 26.4462C75.3885 26.4462 75.3885 26.4462 75.3375 26.3974ZM68.9514 14.0116C68.5427 14.0116 68.0829 14.0116 67.6742 14.1091C66.5502 14.2554 65.4773 14.6455 64.5577 15.3282C63.0251 16.4985 62.3609 18.0589 62.412 19.8631C62.4631 21.9112 63.4849 23.4229 65.3752 24.3494C67.6231 25.4709 69.9731 25.4221 72.2721 24.4956C73.7537 23.9105 74.7755 22.8377 75.2864 21.3748C75.644 20.3995 75.6951 19.4243 75.4907 18.449C75.2353 16.7423 74.3157 15.5232 72.6808 14.7918C71.4547 14.2066 70.2286 14.0603 68.9514 14.0116Z" fill="white"/>
<path fill-rule="evenodd" clip-rule="evenodd" d="M126.12 10.4509C127.908 10.4509 130.003 10.9386 131.893 12.1576C134.243 13.6205 135.623 15.6686 135.98 18.3506C136.338 20.8375 135.776 23.0806 134.141 25.0799C132.864 26.6403 131.178 27.6643 129.185 28.2007C126.427 28.9322 123.719 28.8834 121.011 27.8594C118.201 26.7378 116.26 24.7873 115.443 21.959C114.216 17.4728 116.362 12.7916 121.522 11.0849C122.901 10.646 124.281 10.4509 126.12 10.4509ZM119.223 19.5696C119.223 21.959 120.551 23.8608 122.901 24.6898C124.23 25.1774 125.609 25.2262 126.989 25.0311C128.061 24.8361 129.032 24.4947 129.901 23.8608C131.433 22.6905 132.149 21.1301 132.046 19.2771C131.944 17.034 130.769 15.4735 128.623 14.5958C126.784 13.8644 124.894 13.8643 123.055 14.4495C120.654 15.2297 119.223 17.1802 119.223 19.5696Z" fill="white"/>
<path fill-rule="evenodd" clip-rule="evenodd" d="M106.395 14.4987C105.271 14.45 104.096 14.4012 102.921 14.4987C102.359 14.5475 101.797 14.5962 101.286 14.8401C100.52 15.1326 100.213 15.7666 100.469 16.498C100.622 16.8881 100.928 17.1319 101.337 17.327C101.95 17.5708 102.614 17.7171 103.279 17.8146C104.607 18.0097 105.935 18.156 107.212 18.3998C108.285 18.5948 109.358 18.8386 110.38 19.2775C110.635 19.375 110.942 19.5213 111.197 19.6676C112.883 20.6429 113.445 22.057 113.241 23.8613C113.037 25.763 111.913 27.0796 110.073 27.8598C109.052 28.2987 108.03 28.5425 106.906 28.5913C104.403 28.7863 101.95 28.7376 99.4469 28.4938C98.8339 28.445 98.2208 28.2987 97.6077 28.2012C96.4327 27.9086 96.0751 26.9333 96.2283 26.1044C96.3305 25.568 96.6881 25.1779 97.199 24.934C97.6588 24.739 98.1186 24.6902 98.5784 24.6902C100.06 24.739 101.542 24.934 103.023 25.0803C104.454 25.2754 105.884 25.2754 107.315 25.0316C107.621 24.9828 107.928 24.8853 108.234 24.7878C108.49 24.6902 108.745 24.5439 108.949 24.3977C109.614 23.8125 109.511 22.9348 108.745 22.4471C108.336 22.2033 107.928 22.1058 107.468 22.0082C106.548 21.8132 105.578 21.7157 104.607 21.6181C103.33 21.5206 102.052 21.3743 100.826 21.033C100.213 20.8379 99.6002 20.6429 98.9871 20.3503C97.4545 19.5701 96.6881 18.3023 96.5349 16.6931C96.4327 15.7178 96.586 14.7425 97.0458 13.8648C97.6077 12.792 98.5273 12.1093 99.6513 11.6217C100.775 11.1341 102.001 10.939 103.227 10.8902C105.169 10.8415 107.11 10.8415 109.001 10.9878C109.716 11.0365 110.482 11.0853 111.095 11.4266C112.27 12.0118 112.321 13.5235 111.197 14.2061C110.942 14.3524 110.738 14.45 110.431 14.4987C110.176 14.5475 109.971 14.5963 109.716 14.5475C108.643 14.5475 107.519 14.4987 106.395 14.4987Z" fill="white"/>
<path fill-rule="evenodd" clip-rule="evenodd" d="M170.362 14.2065C169.34 14.2065 168.267 14.1577 167.246 14.2065C166.684 14.2552 166.071 14.304 165.509 14.4503C165.355 14.4991 165.253 14.5478 165.1 14.5966C164.589 14.7916 164.282 15.0842 164.231 15.6694C164.18 16.2545 164.385 16.6934 164.947 16.986C165.304 17.181 165.662 17.2786 166.019 17.3761C167.041 17.6199 168.114 17.7174 169.136 17.8637C170.72 18.0588 172.252 18.3514 173.734 18.9365C174.245 19.1316 174.705 19.3754 175.113 19.6192C176.135 20.3019 176.799 21.2284 176.952 22.3987C177.055 23.2764 177.004 24.1542 176.646 25.0319C176.442 25.5683 176.135 26.0072 175.675 26.446C174.705 27.3238 173.581 27.9577 172.252 28.2015C171.128 28.4453 170.004 28.5429 168.829 28.5429C167.552 28.5429 166.275 28.5429 164.998 28.4941C163.772 28.4453 162.597 28.299 161.421 28.0552C160.246 27.8114 159.582 26.6411 160.042 25.5683C160.144 25.2757 160.349 25.0319 160.655 24.8856C161.217 24.593 161.779 24.4468 162.443 24.593C164.742 25.0319 167.092 25.1782 169.442 25.0807C170.158 25.0319 170.873 24.9832 171.588 24.7881C171.946 24.6906 172.252 24.5443 172.559 24.3492C173.376 23.7153 173.274 22.7888 172.354 22.3012C171.792 22.0086 171.179 21.8623 170.566 21.7648C169.442 21.5697 168.318 21.4722 167.143 21.3747C165.815 21.2284 164.538 20.9846 163.312 20.4482C162.443 20.1068 161.677 19.6192 161.115 18.8877C160.502 18.1075 160.246 17.181 160.246 16.2545C160.195 15.0355 160.451 13.9139 161.268 12.8899C161.983 12.0121 162.954 11.5245 164.027 11.1832C165.049 10.8418 166.173 10.7443 167.246 10.6955C169.187 10.6468 171.179 10.6955 173.121 10.8418C173.836 10.8906 174.5 11.0369 175.062 11.427C176.033 12.0609 175.88 13.28 175.369 13.7676C175.011 14.1577 174.5 14.304 173.989 14.3528C173.581 14.4015 173.223 14.4015 172.814 14.3528C172.406 14.3528 171.946 14.3528 171.537 14.304C171.23 14.2552 170.822 14.2065 170.362 14.2065Z" fill="white"/>
<path fill-rule="evenodd" clip-rule="evenodd" d="M138.687 22.3005C138.687 20.8864 138.687 19.521 138.687 18.1069C138.738 16.4977 139.249 14.9861 140.321 13.7182C141.292 12.5967 142.467 11.8165 143.898 11.3776C146.759 10.4511 149.62 10.4023 152.429 11.3776C154.524 12.0603 156.159 13.3769 157.027 15.3274C157.436 16.2051 157.641 17.1316 157.641 18.1069C157.641 20.8864 157.641 23.7147 157.641 26.4942C157.641 26.9818 157.538 27.4207 157.283 27.8108C156.874 28.4935 156.261 28.786 155.444 28.786C154.677 28.786 154.064 28.3959 153.707 27.762C153.451 27.2744 153.4 26.7868 153.4 26.2991C153.4 23.861 153.4 21.4716 153.4 19.0334C153.4 18.4482 153.349 17.8631 153.247 17.3267C152.889 16.0101 152.072 15.0348 150.692 14.6447C149.007 14.1083 147.321 14.1083 145.635 14.6447C144.357 15.0348 143.54 15.8638 143.131 17.0829C142.876 17.7656 142.774 18.497 142.774 19.2772C142.774 21.6179 142.774 24.0073 142.774 26.3479C142.774 26.738 142.723 27.1769 142.62 27.567C142.263 28.6398 141.19 29.2249 140.066 28.9323C139.504 28.786 139.095 28.3959 138.84 27.9083C138.636 27.5182 138.584 27.0793 138.584 26.6405C138.636 25.1776 138.636 23.7634 138.687 22.3005C138.636 22.3005 138.636 22.3005 138.687 22.3005Z" fill="white"/>
<path fill-rule="evenodd" clip-rule="evenodd" d="M82.5914 16.7412C82.5914 14.5468 82.5914 12.4012 82.5914 10.2069C82.5914 9.71926 82.6936 9.23163 82.949 8.79276C83.3066 8.11007 83.9197 7.71997 84.686 7.71997C85.5034 7.71997 86.1165 8.11007 86.4741 8.79276C86.6785 9.18286 86.7806 9.62173 86.7806 10.1094C86.7806 10.4507 86.7806 10.8408 86.7806 11.1822C86.7806 11.3772 86.8317 11.4747 87.0361 11.426C87.4448 11.426 87.8024 11.426 88.2111 11.426C89.284 11.426 90.3058 11.426 91.3786 11.426C91.7873 11.426 92.2471 11.4747 92.6558 11.6698C93.32 11.9136 93.6265 12.4012 93.6776 13.0839C93.6776 13.7666 93.4733 14.4005 92.758 14.6931C92.2982 14.8882 91.7873 14.9857 91.2764 14.9857C89.9481 14.9857 88.6198 14.9857 87.3426 14.9857C86.7295 14.9857 86.7806 14.8882 86.7806 15.5221C86.7806 17.9115 86.7806 20.2521 86.7806 22.6415C86.7806 22.8853 86.8317 23.1779 86.8828 23.4217C87.0872 24.2507 87.5981 24.7383 88.4666 24.8846C88.8753 24.9821 89.284 24.9821 89.6416 24.9821C90.2036 24.9334 90.7145 24.8846 91.2764 24.8846C91.6852 24.8358 92.0939 24.8358 92.4515 24.9334C93.1156 25.0797 93.5243 25.4698 93.6776 26.1037C93.8309 26.7864 93.7287 27.4203 93.1156 27.8592C92.8091 28.0542 92.4515 28.2005 92.0939 28.298C90.2036 28.8344 88.3133 28.8832 86.3719 28.3956C84.2262 27.8104 82.7957 26.25 82.5914 24.1044C82.5403 23.6168 82.5403 23.0804 82.5403 22.5927C82.5403 21.6175 82.5403 20.6422 82.5403 19.667C82.5403 18.6917 82.5914 17.7164 82.5914 16.7412Z" fill="white"/>
<path fill-rule="evenodd" clip-rule="evenodd" d="M68.953 14.0115C70.2302 14.0115 71.5074 14.2065 72.6824 14.7429C74.3173 15.4744 75.2369 16.6934 75.4923 18.4002C75.6456 19.4242 75.5945 20.3995 75.288 21.326C74.7771 22.7888 73.7553 23.8616 72.2737 24.4468C69.9747 25.3733 67.6247 25.4221 65.3768 24.3005C63.4865 23.374 62.5158 21.8623 62.4136 19.8143C62.3625 17.9613 63.0267 16.4009 64.5593 15.2793C65.4789 14.5966 66.5007 14.2553 67.6757 14.0602C68.0845 14.0115 68.4932 14.0115 68.953 14.0115Z" fill="#08A0A0"/>
<path fill-rule="evenodd" clip-rule="evenodd" d="M119.223 19.5694C119.223 17.18 120.653 15.2295 123.055 14.4493C124.945 13.8154 126.784 13.8641 128.623 14.5956C130.769 15.4733 131.893 17.0825 132.046 19.2769C132.148 21.1299 131.484 22.6903 129.9 23.8606C129.032 24.4945 128.061 24.8359 126.988 25.0309C125.609 25.2747 124.23 25.1772 122.901 24.6896C120.551 23.8606 119.223 21.9588 119.223 19.5694Z" fill="#08A0A0"/>
</svg>
