<svg width="93" height="93" viewBox="0 0 93 93" fill="none" xmlns="http://www.w3.org/2000/svg">
<circle cx="46.8022" cy="46.6055" r="44.9757" stroke="#018E47" stroke-width="1.85581"/>
<path fill-rule="evenodd" clip-rule="evenodd" d="M67.6432 54.3546C67.6504 58.4677 66.4089 62.4869 64.0817 65.8851C64.0342 66.0315 63.944 66.1606 63.8227 66.2558C61.9174 68.918 59.4007 71.0883 56.4824 72.5857C53.564 74.0832 50.3285 74.8645 47.0455 74.8645C43.7625 74.8645 40.527 74.0832 37.6086 72.5857C34.6903 71.0883 32.1736 68.918 30.2683 66.2558C30.1467 66.1605 30.0562 66.0316 30.0081 65.8851C27.6818 62.4866 26.4408 58.4675 26.4478 54.3546C26.4478 54.2517 26.4682 54.1498 26.5078 54.0547C26.5473 53.9596 26.6054 53.8733 26.6785 53.8005C26.7516 53.7278 26.8385 53.6702 26.934 53.6309C27.0295 53.5916 27.1319 53.5715 27.2353 53.5717H29.4132C29.6996 52.6987 30.1662 51.8951 30.7829 51.2123C31.3996 50.5295 32.1529 49.9827 32.9944 49.6068V49.0953C32.6934 48.6027 32.5342 48.0372 32.5342 47.4606C32.5342 46.8839 32.6934 46.3184 32.9944 45.8258V27.2919C32.9946 27.0842 33.0775 26.8851 33.2251 26.7383C33.3726 26.5915 33.5727 26.509 33.7813 26.509H36.1708V23.1396C36.1705 22.9319 36.253 22.7325 36.4001 22.5852C36.5473 22.438 36.7472 22.3549 36.9558 22.3543H39.8695V18.5634C39.8695 18.3555 39.9525 18.156 40.1002 18.009C40.2479 17.8619 40.4482 17.7793 40.657 17.7793C40.8659 17.7793 41.0662 17.8619 41.2138 18.009C41.3615 18.156 41.4445 18.3555 41.4445 18.5634V22.3543H43.9288V20.3437C43.9345 20.1396 44.02 19.9458 44.167 19.8034C44.314 19.6611 44.5109 19.5815 44.716 19.5815C44.921 19.5815 45.118 19.6611 45.265 19.8034C45.412 19.9458 45.4974 20.1396 45.5031 20.3437V22.3543H47.3051C47.5139 22.3546 47.714 22.4374 47.8614 22.5846C48.0088 22.7317 48.0916 22.9312 48.0914 23.139V26.5084H50.4809C50.6894 26.5084 50.8894 26.5909 51.0369 26.7377C51.1843 26.8845 51.2672 27.0837 51.2672 27.2913V31.1293H57.1352C57.2385 31.1293 57.3408 31.1496 57.4362 31.189C57.5317 31.2283 57.6184 31.2861 57.6914 31.3588C57.7644 31.4316 57.8223 31.518 57.8618 31.613C57.9013 31.7081 57.9215 31.81 57.9214 31.9128V35.2822H60.3097C60.5187 35.2822 60.719 35.3648 60.8668 35.5118C61.0146 35.6589 61.0977 35.8583 61.0979 36.0663V45.8258C61.3988 46.3184 61.558 46.8839 61.558 47.4606C61.558 48.0372 61.3988 48.6027 61.0979 49.0953V49.6068C61.6109 49.8367 62.0928 50.1302 62.5319 50.4804C63.5343 51.281 64.2805 52.3552 64.6791 53.5717H66.8557C67.0643 53.5717 67.2644 53.6541 67.4119 53.8009C67.5595 53.9477 67.6424 54.1469 67.6426 54.3546H67.6432ZM47.0455 39.7187C46.3145 39.7191 45.6063 39.9719 45.0416 40.4341C44.4769 40.8962 44.0905 41.539 43.9484 42.253C43.8064 42.9669 43.9173 43.7079 44.2624 44.3495C44.6075 44.9912 45.1653 45.4938 45.8409 45.7718C46.5164 46.0497 47.2679 46.0858 47.9672 45.8739C48.6665 45.662 49.2703 45.2152 49.6758 44.6096C50.0813 44.004 50.2634 43.2771 50.191 42.5529C50.1186 41.8286 49.7962 41.1517 49.2788 40.6376C48.9855 40.3458 48.6372 40.1144 48.254 39.9567C47.8708 39.799 47.4601 39.7182 47.0455 39.7187ZM44.3951 38.9591C45.3706 38.2992 46.5583 38.0257 47.7256 38.1922C48.893 38.3586 49.9559 38.953 50.7062 39.8589C51.4565 40.7648 51.8401 41.917 51.7819 43.0898C51.7238 44.2627 51.228 45.3716 50.3917 46.1995C50.2988 46.2908 50.2022 46.3833 50.1026 46.4654C52.0982 47.0733 53.8665 48.2601 55.1812 49.8739C55.4433 49.7286 55.7148 49.6009 55.9939 49.4917C55.5444 48.9599 55.2846 48.2946 55.2554 47.6C55.2262 46.9055 55.4292 46.2209 55.8325 45.6535C56.2359 45.0861 56.8169 44.668 57.4845 44.4646C58.152 44.2612 58.8685 44.284 59.5216 44.5295V36.8486H44.3951V38.9591ZM43.9885 46.4623C43.8888 46.3772 43.7922 46.2877 43.6993 46.1964C42.9946 45.4941 42.5304 44.5882 42.3729 43.6078C42.2154 42.6274 42.3725 41.6225 42.822 40.7363V36.0663C42.8219 35.9634 42.8422 35.8615 42.8816 35.7664C42.9211 35.6713 42.979 35.5849 43.052 35.5121C43.125 35.4393 43.2117 35.3815 43.3072 35.3421C43.4026 35.3026 43.5049 35.2823 43.6082 35.2822H45.9996V31.9128C45.9995 31.7053 46.0821 31.5062 46.2293 31.3593C46.3765 31.2123 46.5762 31.1296 46.7847 31.1293H49.6959V28.0754H34.5694V44.524C35.2225 44.2785 35.939 44.2557 36.6066 44.4591C37.2741 44.6625 37.8551 45.0806 38.2585 45.648C38.6618 46.2154 38.8648 46.9 38.8356 47.5945C38.8064 48.2891 38.5467 48.9543 38.0971 49.4862C38.3762 49.5954 38.6477 49.7231 38.9098 49.8684C40.2245 48.2546 41.9928 47.0678 43.9885 46.4599V46.4623ZM47.0455 47.5767C45.6686 47.5759 44.3102 47.8932 43.0772 48.5035C41.8442 49.1139 40.7702 50.0007 39.9397 51.0943C39.9188 51.1262 39.8958 51.1567 39.8708 51.1855C39.3316 51.9133 38.9077 52.719 38.6138 53.5747H55.4772C55.1833 52.719 54.7594 51.9133 54.2203 51.1855C54.1949 51.157 54.1718 51.1265 54.1514 51.0943C53.3208 50.0007 52.2468 49.1139 51.0138 48.5035C49.7808 47.8932 48.4224 47.5759 47.0455 47.5767ZM56.0825 51.1617C56.5291 51.9175 56.8774 52.7266 57.1192 53.5698H63.0001C62.6723 52.8394 62.1741 52.1973 61.547 51.6971C61.1097 51.3482 60.6166 51.075 60.0883 50.889L60.0187 50.8645C59.4985 50.6904 58.9532 50.6019 58.4044 50.6023C57.8771 50.6005 57.3528 50.6818 56.851 50.8431C56.5868 50.9281 56.3303 51.0353 56.0844 51.1635L56.0825 51.1617ZM52.724 55.1375H47.8324V64.859H56.0419C57.1983 61.7454 57.815 58.4587 57.8655 55.1393L52.724 55.1375ZM46.2586 55.1375H36.2255C36.2761 58.4569 36.8927 61.7435 38.0491 64.8572H46.2586V55.1393V55.1375ZM36.9687 53.5698C37.2119 52.7266 37.5612 51.9175 38.0085 51.1617C37.7625 51.0334 37.5061 50.9262 37.2419 50.8413C36.2105 50.5131 35.1009 50.5206 34.0741 50.8627L34.0046 50.8872C33.4755 51.0735 32.9817 51.3473 32.544 51.6971C31.9169 52.1973 31.4188 52.8394 31.0909 53.5698H36.9687ZM34.4082 48.3853L34.4149 48.3939C34.4619 48.4572 34.5135 48.517 34.5694 48.5728C34.7975 48.7993 35.0897 48.9508 35.4068 49.0072C35.7239 49.0635 36.0508 49.0219 36.3434 48.888C36.6361 48.754 36.8806 48.5341 37.0442 48.2577C37.2077 47.9814 37.2824 47.6618 37.2583 47.342C37.2342 47.0221 37.1124 46.7173 36.9093 46.4683C36.7061 46.2194 36.4314 46.0383 36.1219 45.9494C35.8124 45.8604 35.483 45.8679 35.1778 45.9707C34.8727 46.0736 34.6065 46.2669 34.4149 46.5248L34.4082 46.534C34.2114 46.8029 34.1054 47.127 34.1054 47.4596C34.1054 47.7923 34.2114 48.1164 34.4082 48.3853ZM34.6493 55.1375H28.0381C28.1762 58.6067 29.2744 61.9704 31.2115 64.8572H36.3794C35.2911 61.7287 34.7096 58.4478 34.6567 55.1375H34.6493ZM59.6742 48.3957L59.681 48.3871C59.8769 48.1179 59.9824 47.794 59.9824 47.4615C59.9824 47.129 59.8769 46.805 59.681 46.5358L59.6742 46.5266C59.4766 46.2597 59.1993 46.0616 58.882 45.9608C58.5647 45.8599 58.2235 45.8614 57.907 45.9649C57.5906 46.0685 57.3151 46.2689 57.1197 46.5376C56.9244 46.8063 56.8193 47.1295 56.8193 47.4612C56.8193 47.7929 56.9244 48.1161 57.1197 48.3848C57.3151 48.6534 57.5906 48.8538 57.907 48.9574C58.2235 49.061 58.5647 49.0625 58.882 48.9616C59.1993 48.8607 59.4766 48.6627 59.6742 48.3957ZM64.0805 55.1393H59.4398C59.3859 58.4499 58.8034 61.7308 57.7141 64.859H62.882C64.819 61.9721 65.9174 58.6085 66.056 55.1393H64.0805ZM37.2376 43.6988H39.5693C39.6744 43.7018 39.7791 43.6837 39.8771 43.6456C39.9751 43.6076 40.0645 43.5504 40.1399 43.4773C40.2153 43.4043 40.2752 43.317 40.3161 43.2205C40.3571 43.124 40.3782 43.0203 40.3782 42.9156C40.3782 42.8109 40.3571 42.7072 40.3161 42.6107C40.2752 42.5142 40.2153 42.4269 40.1399 42.3539C40.0645 42.2809 39.9751 42.2236 39.8771 42.1856C39.7791 42.1476 39.6744 42.1295 39.5693 42.1324H37.2376C37.1324 42.1295 37.0278 42.1476 36.9298 42.1856C36.8318 42.2236 36.7424 42.2809 36.667 42.3539C36.5916 42.4269 36.5317 42.5142 36.4907 42.6107C36.4498 42.7072 36.4287 42.8109 36.4287 42.9156C36.4287 43.0203 36.4498 43.124 36.4907 43.2205C36.5317 43.317 36.5916 43.4043 36.667 43.4773C36.7424 43.5504 36.8318 43.6076 36.9298 43.6456C37.0278 43.6837 37.1324 43.7018 37.2376 43.6988ZM37.2376 39.617H39.5693C39.6744 39.6199 39.7791 39.6018 39.8771 39.5638C39.9751 39.5258 40.0645 39.4685 40.1399 39.3955C40.2153 39.3225 40.2752 39.2352 40.3161 39.1387C40.3571 39.0422 40.3782 38.9385 40.3782 38.8338C40.3782 38.7291 40.3571 38.6254 40.3161 38.5289C40.2752 38.4324 40.2153 38.3451 40.1399 38.2721C40.0645 38.199 39.9751 38.1418 39.8771 38.1038C39.7791 38.0657 39.6744 38.0476 39.5693 38.0506H37.2376C37.1324 38.0476 37.0278 38.0657 36.9298 38.1038C36.8318 38.1418 36.7424 38.199 36.667 38.2721C36.5916 38.3451 36.5317 38.4324 36.4907 38.5289C36.4498 38.6254 36.4287 38.7291 36.4287 38.8338C36.4287 38.9385 36.4498 39.0422 36.4907 39.1387C36.5317 39.2352 36.5916 39.3225 36.667 39.3955C36.7424 39.4685 36.8318 39.5258 36.9298 39.5638C37.0278 39.6018 37.1324 39.6199 37.2376 39.617ZM37.2376 35.5352H39.5693C39.6744 35.5381 39.7791 35.52 39.8771 35.482C39.9751 35.4439 40.0645 35.3867 40.1399 35.3137C40.2153 35.2407 40.2752 35.1533 40.3161 35.0569C40.3571 34.9604 40.3782 34.8567 40.3782 34.752C40.3782 34.6472 40.3571 34.5436 40.3161 34.4471C40.2752 34.3506 40.2153 34.2633 40.1399 34.1902C40.0645 34.1172 39.9751 34.06 39.8771 34.022C39.7791 33.9839 39.6744 33.9658 39.5693 33.9687H37.2376C37.1324 33.9658 37.0278 33.9839 36.9298 34.022C36.8318 34.06 36.7424 34.1172 36.667 34.1902C36.5916 34.2633 36.5317 34.3506 36.4907 34.4471C36.4498 34.5436 36.4287 34.6472 36.4287 34.752C36.4287 34.8567 36.4498 34.9604 36.4907 35.0569C36.5317 35.1533 36.5916 35.2407 36.667 35.3137C36.7424 35.3867 36.8318 35.4439 36.9298 35.482C37.0278 35.52 37.1324 35.5381 37.2376 35.5352ZM37.2376 31.4534H39.5693C39.778 31.4534 39.9781 31.3708 40.1257 31.2239C40.2733 31.0769 40.3562 30.8776 40.3562 30.6698C40.3562 30.462 40.2733 30.2627 40.1257 30.1158C39.9781 29.9689 39.778 29.8863 39.5693 29.8863H37.2376C37.0289 29.8863 36.8288 29.9689 36.6812 30.1158C36.5336 30.2627 36.4507 30.462 36.4507 30.6698C36.4507 30.8776 36.5336 31.0769 36.6812 31.2239C36.8288 31.3708 37.0289 31.4534 37.2376 31.4534ZM53.8659 44.1522H55.9939C56.0991 44.1551 56.2038 44.137 56.3018 44.099C56.3998 44.0609 56.4891 44.0037 56.5645 43.9307C56.6399 43.8577 56.6999 43.7703 56.7408 43.6738C56.7817 43.5774 56.8028 43.4737 56.8028 43.3689C56.8028 43.2642 56.7817 43.1605 56.7408 43.064C56.6999 42.9676 56.6399 42.8802 56.5645 42.8072C56.4891 42.7342 56.3998 42.677 56.3018 42.6389C56.2038 42.6009 56.0991 42.5828 55.9939 42.5857H53.8659C53.7607 42.5828 53.6561 42.6009 53.5581 42.6389C53.4601 42.677 53.3707 42.7342 53.2953 42.8072C53.2199 42.8802 53.16 42.9676 53.119 43.064C53.0781 43.1605 53.057 43.2642 53.057 43.3689C53.057 43.4737 53.0781 43.5774 53.119 43.6738C53.16 43.7703 53.2199 43.8577 53.2953 43.9307C53.3707 44.0037 53.4601 44.0609 53.5581 44.099C53.6561 44.137 53.7607 44.1551 53.8659 44.1522ZM53.1036 40.3993H55.9952C56.2001 40.3936 56.3948 40.3085 56.5377 40.1621C56.6807 40.0158 56.7607 39.8197 56.7607 39.6155C56.7607 39.4113 56.6807 39.2152 56.5377 39.0688C56.3948 38.9224 56.2001 38.8374 55.9952 38.8316H53.1036C52.9984 38.8287 52.8936 38.8468 52.7956 38.8849C52.6975 38.923 52.6081 38.9802 52.5326 39.0533C52.4571 39.1264 52.3972 39.2138 52.3562 39.3103C52.3152 39.4069 52.2941 39.5107 52.2941 39.6155C52.2941 39.7203 52.3152 39.8241 52.3562 39.9206C52.3972 40.0172 52.4571 40.1046 52.5326 40.1776C52.6081 40.2507 52.6975 40.308 52.7956 40.3461C52.8936 40.3841 52.9984 40.4022 53.1036 40.3993ZM47.5709 35.2822H56.3471V32.6951H47.5709V35.2822ZM46.5201 26.509V23.9219H37.7439V26.509H46.5201ZM61.7069 66.4255H57.0927C56.7535 67.2055 56.3677 67.9647 55.9373 68.6988C55.1628 70.0477 54.1898 71.2734 53.0507 72.3353C55.8578 71.4039 58.4083 69.8339 60.4999 67.7499C60.9231 67.3284 61.3261 66.887 61.7088 66.4255H61.7069ZM55.3701 66.4255H47.8324V73.2481C50.4342 72.9136 52.8003 70.9361 54.5832 67.9098C54.8601 67.4385 55.1228 66.9437 55.3701 66.4255ZM46.2592 66.4255H38.7215C38.9676 66.9429 39.2297 67.4377 39.5078 67.9098C41.2919 70.9361 43.6568 72.9136 46.2586 73.2481L46.2592 66.4255ZM36.9995 66.4255H32.3853C32.7672 66.8861 33.1701 67.3276 33.5942 67.7499C35.6858 69.8339 38.2363 71.4039 41.0434 72.3353C39.9043 71.2734 38.9313 70.0477 38.1567 68.6988C37.7261 67.9645 37.34 67.2053 36.9995 66.4255Z" fill="#018E47"/>
</svg>
