<svg width="93" height="93" viewBox="0 0 93 93" fill="none" xmlns="http://www.w3.org/2000/svg">
<circle cx="46.8029" cy="46.4427" r="44.9763" stroke="#018E47" stroke-width="1.85581"/>
<path d="M69.5332 44.8687H53.2902V26.3137C53.2902 24.2817 51.6162 22.6282 49.5578 22.6282H40.6574C40.2863 22.6282 39.9847 22.9254 39.9847 23.2925C39.9847 23.6595 40.2857 23.9567 40.6574 23.9567H42.4747V44.8687H41.1454V31.5003C41.1454 31.4071 41.1259 31.3185 41.0908 31.2378C41.0896 31.235 41.0879 31.2321 41.0861 31.2287C41.0787 31.2117 41.07 31.1952 41.0614 31.1787C41.058 31.173 41.0545 31.1673 41.051 31.1617C41.043 31.1486 41.0355 31.1355 41.0263 31.123C41.0217 31.1162 41.0159 31.1094 41.0108 31.1026C41.0027 31.0918 40.9947 31.081 40.986 31.0707C40.9797 31.0639 40.9734 31.0571 40.967 31.0503C40.9584 31.0406 40.9498 31.0315 40.94 31.0224C40.9377 31.0202 40.9354 31.0179 40.9331 31.0156L37.0661 27.4268V25.721C38.1036 25.4818 38.8787 24.5607 38.8787 23.4646C38.8787 22.1873 37.8263 21.1475 36.5321 21.1475H29.4789C28.1853 21.1475 27.1328 22.1867 27.1328 23.4646C27.1328 24.5613 27.9079 25.4818 28.9454 25.721V27.4274L25.0785 31.0162C25.0762 31.0185 25.0739 31.0213 25.0715 31.0236C25.0629 31.0321 25.0543 31.0412 25.0462 31.0497C25.0393 31.0571 25.0324 31.0639 25.0261 31.0713C25.0175 31.081 25.01 31.0912 25.0019 31.1014C24.9967 31.1088 24.991 31.1156 24.9858 31.123C24.9772 31.135 24.9697 31.148 24.9622 31.1605C24.9588 31.1668 24.9547 31.1725 24.9513 31.1781C24.9421 31.194 24.9346 31.2105 24.9265 31.227C24.9248 31.2304 24.9231 31.2333 24.9219 31.2367C24.8868 31.3173 24.8673 31.406 24.8673 31.4992V44.8675H24.4276C22.5851 44.8687 21.0854 46.3494 21.0854 48.1689V67.8711C21.0854 69.6911 22.5851 71.1713 24.4276 71.1713H69.5326C71.3758 71.1713 72.8748 69.6905 72.8748 67.8711V48.1689C72.8754 46.3494 71.3758 44.8687 69.5332 44.8687ZM43.8201 23.9567H49.5584C50.8744 23.9567 51.9453 25.0142 51.9453 26.3137V44.8687H43.8201V23.9567ZM28.4776 23.4646C28.4776 22.9197 28.9264 22.4759 29.4789 22.4759H36.5327C37.0845 22.4759 37.5339 22.9197 37.5339 23.4646C37.5339 24.0096 37.0845 24.4533 36.5327 24.4533H29.4789C28.927 24.4528 28.4776 24.0096 28.4776 23.4646ZM30.0785 28.1984C30.2137 28.0728 30.2902 27.8978 30.2902 27.7143V25.7812H35.7207V27.7143C35.7207 27.8978 35.7972 28.0728 35.9325 28.1984L38.7746 30.8361H31.9268C31.5556 30.8361 31.2541 31.1332 31.2541 31.5003C31.2541 31.8668 31.5551 32.1646 31.9268 32.1646H39.8006V32.8737H26.2115V32.1646H29.3431C29.7142 32.1646 30.0158 31.8674 30.0158 31.5003C30.0158 31.1338 29.7148 30.8361 29.3431 30.8361H27.2369L30.0785 28.1984ZM26.2115 34.2022H39.8006V44.8687H26.2115V34.2022ZM69.5332 69.8434H24.4276C23.3262 69.8434 22.4303 68.9587 22.4303 67.8711V66.7426H33.2584C33.6295 66.7426 33.9311 66.4454 33.9311 66.0784C33.9311 65.7119 33.6301 65.4141 33.2584 65.4141H22.4308V48.1689C22.4308 47.0813 23.3268 46.1966 24.4282 46.1966H69.5332C70.6346 46.1966 71.5306 47.0813 71.5306 48.1689V65.4147H60.7019C60.3307 65.4147 60.0292 65.7119 60.0292 66.079C60.0292 66.4454 60.3301 66.7432 60.7019 66.7432H71.53V67.8717C71.53 68.9587 70.634 69.8434 69.5332 69.8434ZM55.1327 49.6564C52.6566 48.2768 49.8375 47.5478 46.9804 47.5478C44.1233 47.5478 41.3042 48.2768 38.8287 49.6559C38.667 49.7457 38.5507 49.8974 38.5059 50.0752C38.1848 51.3605 38.0225 52.6862 38.0225 54.0158C38.0225 60.0048 41.3267 65.517 46.6467 68.4041C46.6674 68.416 46.6887 68.4262 46.7105 68.4359C46.798 68.474 46.8895 68.4922 46.9804 68.4922C46.9804 68.4922 46.981 68.4922 46.9816 68.4922C47.0736 68.4922 47.1663 68.4734 47.2543 68.4348C47.275 68.4257 47.2952 68.416 47.3148 68.4047C52.6353 65.5181 55.9395 60.0059 55.9395 54.0163C55.9395 52.6873 55.7767 51.3617 55.4561 50.0764C55.4107 49.8985 55.2939 49.7468 55.1327 49.6564ZM46.9804 67.0654C42.275 64.3681 39.3673 59.4019 39.3673 54.0163C39.3673 52.8907 39.4939 51.7679 39.7448 50.6741C41.9574 49.4973 44.4525 48.8763 46.9804 48.8763C49.5089 48.8763 52.004 49.4973 54.2161 50.6741C54.4664 51.7674 54.5935 52.8901 54.5935 54.0158C54.5935 59.4024 51.6858 64.3686 46.9804 67.0654ZM52.2803 54.2652H49.6309V51.6492C49.6309 51.2827 49.33 50.9849 48.9582 50.9849H45.0026C44.6315 50.9849 44.3299 51.2821 44.3299 51.6492V54.2652H41.6806C41.3094 54.2652 41.0079 54.5624 41.0079 54.9295V58.8354C41.0079 59.2019 41.3088 59.4996 41.6806 59.4996H44.3299V62.1157C44.3299 62.4822 44.6309 62.7799 45.0026 62.7799H48.9582C49.3294 62.7799 49.6309 62.4827 49.6309 62.1157V59.4996H52.2803C52.6514 59.4996 52.953 59.2024 52.953 58.8354V54.9295C52.953 54.563 52.6514 54.2652 52.2803 54.2652ZM51.6076 58.1717H48.9582C48.5871 58.1717 48.2855 58.4689 48.2855 58.8359V61.452H45.6747V58.8359C45.6747 58.4694 45.3738 58.1717 45.002 58.1717H42.3527V55.5937H45.002C45.3732 55.5937 45.6747 55.2965 45.6747 54.9295V52.3134H48.2855V54.9295C48.2855 55.296 48.5865 55.5937 48.9582 55.5937H51.6076V58.1717ZM36.5735 37.3705H35.01V35.8267C35.01 35.4602 34.7091 35.1625 34.3373 35.1625H31.6742C31.303 35.1625 31.0015 35.4596 31.0015 35.8267V37.3705H29.438C29.0669 37.3705 28.7653 37.6677 28.7653 38.0348V40.6645C28.7653 41.031 29.0663 41.3287 29.438 41.3287H31.0015V42.8725C31.0015 43.239 31.3025 43.5368 31.6742 43.5368H34.3373C34.7085 43.5368 35.01 43.2396 35.01 42.8725V41.3287H36.5735C36.9447 41.3287 37.2462 41.0315 37.2462 40.6645V38.0342C37.2462 37.6677 36.9453 37.3705 36.5735 37.3705ZM35.9008 39.9997H34.3373C33.9662 39.9997 33.6647 40.2968 33.6647 40.6639V42.2077H32.3469V40.6639C32.3469 40.2974 32.0459 39.9997 31.6742 39.9997H30.1107V38.6984H31.6742C32.0454 38.6984 32.3469 38.4013 32.3469 38.0342V36.4904H33.6647V38.0342C33.6647 38.4007 33.9656 38.6984 34.3373 38.6984H35.9008V39.9997ZM56.6968 38.2132C57.1077 38.3587 57.5323 38.4308 57.9547 38.4308C58.1141 38.4308 58.2735 38.4195 58.4312 38.3984C58.4064 38.5251 58.3874 38.6524 58.3731 38.7808C58.3708 38.7962 58.369 38.811 58.3679 38.8263C58.277 39.6769 58.407 40.5457 58.7638 41.3531C59.5959 43.2362 61.4655 44.3618 63.4243 44.3613C64.101 44.3613 64.7887 44.2272 65.4476 43.9431C66.6905 43.4078 67.6481 42.4259 68.1435 41.1798C68.639 39.9332 68.6131 38.5706 68.071 37.3433C67.6406 36.3693 66.9184 35.5772 66.0282 35.0499L67.0859 34.5567C68.9325 33.6959 69.7254 31.5117 68.8536 29.6883C68.4324 28.8081 67.6866 28.141 66.7532 27.8109C65.8199 27.4802 64.8146 27.5274 63.9232 27.9433L56.3642 31.4679C54.5176 32.3288 53.7246 34.513 54.5964 36.3364C55.0176 37.216 55.7634 37.8825 56.6968 38.2132ZM61.0126 30.7685L63.0267 34.9801L62.4368 35.2551L60.4228 31.0435L61.0126 30.7685ZM66.8068 40.8844L59.799 38.4439C59.8502 38.245 59.9187 38.049 60.0039 37.8581L60.0723 37.8262L67.0329 40.2502C66.9771 40.4684 66.9017 40.6804 66.8068 40.8844ZM64.9095 42.7254C63.0232 43.5379 60.8193 42.6839 59.9964 40.8213C59.8537 40.4991 59.7604 40.1633 59.7156 39.8235L65.9965 42.0106C65.6881 42.3032 65.3238 42.547 64.9095 42.7254ZM66.8378 37.8745C66.9817 38.2001 67.0732 38.5359 67.1169 38.8717L61.801 37.0205L62.4023 36.7404C62.4023 36.7404 62.4035 36.7404 62.4035 36.7398L64.2086 35.8983C64.2086 35.8983 64.2092 35.8983 64.2098 35.8983L64.4204 35.8C65.4901 36.0943 66.3838 36.8472 66.8378 37.8745ZM64.4975 29.1439C64.8146 28.9962 65.1541 28.9218 65.4959 28.9218C65.7658 28.9218 66.0368 28.9678 66.2992 29.061C66.8942 29.2718 67.3695 29.6957 67.6371 30.2554C68.1924 31.4162 67.6872 32.8072 66.5116 33.3555L64.2598 34.4056C64.2524 34.4045 64.2449 34.4027 64.2374 34.4016L62.2291 30.2019L64.4975 29.1439ZM55.7289 33.9897C55.9424 33.4021 56.3717 32.9328 56.9385 32.6686L59.2069 31.6111L61.2209 35.8227L59.7449 36.5108L58.952 36.8802C57.7763 37.4285 56.3676 36.9302 55.8123 35.7687C55.5453 35.209 55.5154 34.5772 55.7289 33.9897ZM47.8827 26.8466C46.1385 26.8466 44.7195 28.2479 44.7195 29.9701C44.7195 31.6924 46.1385 33.0936 47.8827 33.0936C49.6269 33.0936 51.0459 31.6924 51.0459 29.9701C51.0459 28.2479 49.6269 26.8466 47.8827 26.8466ZM47.8827 31.7651C46.8803 31.7651 46.0649 30.9599 46.0649 29.9701C46.0649 28.9803 46.8803 28.1751 47.8827 28.1751C48.8851 28.1751 49.7005 28.9803 49.7005 29.9701C49.7005 30.9599 48.8851 31.7651 47.8827 31.7651ZM47.8827 35.7318C46.1385 35.7318 44.7195 37.133 44.7195 38.8553C44.7195 40.5775 46.1385 41.9787 47.8827 41.9787C49.6269 41.9787 51.0459 40.5775 51.0459 38.8553C51.0459 37.133 49.6269 35.7318 47.8827 35.7318ZM47.8827 40.6503C46.8803 40.6503 46.0649 39.8451 46.0649 38.8553C46.0649 37.8654 46.8803 37.0603 47.8827 37.0603C48.8851 37.0603 49.7005 37.8654 49.7005 38.8553C49.7005 39.8451 48.8851 40.6503 47.8827 40.6503Z" fill="#018E47"/>
</svg>
