<svg width="92" height="88" viewBox="0 0 92 88" fill="none" xmlns="http://www.w3.org/2000/svg">
<path d="M90.9651 43.7799C90.9651 67.1771 70.8783 86.2326 45.988 86.2326C21.0977 86.2326 1.01091 67.1771 1.01091 43.7799C1.01091 20.3827 21.0977 1.32726 45.988 1.32726C70.8783 1.32726 90.9651 20.3827 90.9651 43.7799Z" stroke="#018E47" stroke-width="1.85581"/>
<path d="M28.0013 37.3633C28.5083 35.9993 29.1852 34.703 30.0146 33.501C30.0343 33.4671 30.0565 33.4357 30.0811 33.4043C31.2601 31.7259 32.7221 30.2579 34.4081 29.068C37.1205 27.1502 40.3252 26.0135 43.6606 25.7862C46.9957 25.5588 50.3283 26.2481 53.2866 27.779C55.7726 29.0704 57.9189 30.9133 59.5532 33.1624H71.8648C72.8591 33.1624 73.6665 33.9532 73.6689 34.9303V47.3468C73.6689 47.816 73.4794 48.2658 73.1398 48.5995C72.8026 48.9309 72.3423 49.1171 71.8648 49.1171H61.9306C60.4858 53.2913 57.5052 56.7837 53.5742 58.9066C49.6434 61.0324 45.0483 61.6371 40.6867 60.602C36.3252 59.5693 32.5149 56.9695 30.0021 53.3174H18.4731C17.9956 53.3174 17.5353 53.1312 17.1981 52.7998C16.8585 52.4661 16.6689 52.0163 16.6689 51.5447V39.1332C16.6714 38.1537 17.4788 37.3629 18.4731 37.3629L28.0013 37.3633ZM59.2014 34.4853H58.9873H58.9898C58.7387 34.4853 58.5369 34.6861 58.5344 34.9328V47.3468C58.5344 47.4653 58.5836 47.5789 58.6673 47.6636C58.7535 47.7482 58.8692 47.7942 58.9898 47.7942H71.8653C71.9859 47.7942 72.104 47.7482 72.1902 47.6636C72.2763 47.5789 72.3231 47.4628 72.3231 47.3443V34.9328C72.3231 34.8143 72.2739 34.7006 72.1877 34.616C72.1016 34.5314 71.9859 34.4854 71.8653 34.4854H68.5154V39.9535C68.5154 40.2098 68.3653 40.4396 68.1314 40.5508C67.8976 40.6597 67.6195 40.6282 67.4176 40.4686L65.4289 39.049L63.4106 40.4855C63.2063 40.633 62.9356 40.6524 62.7091 40.5411C62.4852 40.4275 62.3424 40.2001 62.3449 39.951V34.4854L59.2014 34.4853ZM57.2447 34.4853H54.1631C55.0762 37.1481 55.5661 39.9341 55.6104 42.7419H57.1905V34.933C57.1905 34.783 57.2078 34.6331 57.2471 34.4856L57.2447 34.4853ZM57.188 44.065L55.6103 44.0674C55.566 46.7592 55.1205 49.4316 54.2861 51.9977H59.0759C59.6494 51.0884 60.1294 50.1235 60.5084 49.1198H58.9897C57.9953 49.1174 57.1904 48.3266 57.1904 47.3471L57.188 44.065ZM60.0924 24.8456C60.0851 24.6667 60.1515 24.495 60.2746 24.3644C60.4001 24.2362 60.5724 24.1612 60.7545 24.1588C60.9367 24.1564 61.109 24.2265 61.2394 24.3523C61.3674 24.478 61.4363 24.6497 61.4339 24.8263L61.4905 28.1323H61.4929C61.5028 28.3185 61.4339 28.4974 61.3034 28.6305C61.173 28.7635 60.9933 28.836 60.8062 28.8336L57.4391 28.8868C57.0748 28.882 56.7819 28.5942 56.7745 28.2387C56.7696 27.8807 57.0526 27.5833 57.4169 27.5688L59.1768 27.5397C54.035 23.0704 47.0328 21.2761 40.3254 22.7101C33.6179 24.1418 28.0062 28.6305 25.2174 34.7929C25.0648 35.1266 24.6685 35.2766 24.3288 35.1266C23.9892 34.9791 23.839 34.5897 23.9892 34.256C26.965 27.7045 32.9436 22.9379 40.0839 21.426C47.2217 19.9144 54.6676 21.8395 60.1268 26.6063L60.0924 24.8456ZM29.7688 61.9787C29.7811 62.3414 29.4906 62.6461 29.1215 62.6583C28.7498 62.6704 28.4397 62.385 28.4273 62.0222L28.3141 58.709C28.2993 58.5155 28.3707 58.3244 28.5135 58.189C28.639 58.0705 28.8039 58.0052 28.9787 58.0028L32.3532 57.8891L32.3507 57.8915C32.7224 57.8794 33.0325 58.1648 33.0448 58.53C33.0547 58.8927 32.7643 59.1974 32.3926 59.2096L30.5958 59.27C33.9826 62.2181 38.2257 64.044 42.7278 64.489C47.2271 64.9365 51.7584 63.9812 55.6745 61.7562H55.6794C59.9006 59.374 63.1694 55.6496 64.9513 51.1971C65.0867 50.8561 65.4756 50.6892 65.8227 50.8222C66.1672 50.9528 66.3395 51.3373 66.2042 51.6783C64.3114 56.4088 60.836 60.3677 56.3513 62.9048C52.1891 65.2677 47.3773 66.281 42.5949 65.807C37.8125 65.3305 33.3059 63.391 29.7074 60.2591L29.7688 61.9787ZM67.171 34.486H63.6882V38.6578L65.0247 37.7049H65.0223C65.2586 37.5332 65.581 37.5308 65.8197 37.6976L67.1685 38.6578L67.171 34.486ZM27.9988 38.6868V44.1549C27.9988 44.5201 27.6985 44.8151 27.3269 44.8151C27.1743 44.8175 27.0241 44.7643 26.906 44.6676L24.9172 43.248L22.8965 44.6893C22.6897 44.8369 22.419 44.8586 22.195 44.745C21.9686 44.6313 21.8258 44.404 21.8258 44.1549V38.6868H18.4735C18.2224 38.6892 18.0181 38.8875 18.0157 39.1342V51.5457C18.0181 51.6666 18.0649 51.7803 18.1535 51.865C18.2372 51.9496 18.3529 51.9956 18.4735 51.9956H31.349C31.4696 51.9956 31.5853 51.9496 31.669 51.865C31.7551 51.7803 31.8019 51.6666 31.8019 51.5457V39.1342C31.8019 38.8875 31.5976 38.6868 31.3465 38.6868L27.9988 38.6868ZM23.1672 38.6868V42.8586L24.5037 41.9058C24.74 41.7316 25.0649 41.7292 25.3061 41.8985L26.6524 42.8586V38.6868L23.1672 38.6868ZM33.0913 51.9954H35.5206C34.6863 49.4295 34.2383 46.7571 34.194 44.0651H33.1504V51.5454C33.1504 51.6977 33.1307 51.8503 33.0913 51.9954ZM33.1528 42.7402H34.1964L34.1939 42.7426C34.2432 39.9324 34.7305 37.1487 35.6412 34.486H30.9597C30.3567 35.3929 29.8448 36.3579 29.4337 37.364H31.3462C32.3405 37.3664 33.1454 38.1548 33.1504 39.1319L33.1528 42.7402ZM53.7962 53.3185C53.4541 54.165 53.048 54.9872 52.5852 55.7781C51.901 56.9728 51.0322 58.0539 50.0107 58.9874C53.2498 57.9571 56.0926 55.9788 58.1529 53.3161L53.7962 53.3185ZM31.6563 53.3185C33.0839 55.1614 34.893 56.6874 36.963 57.7951C37.8663 58.2788 38.8164 58.6778 39.796 58.9874C38.7745 58.0539 37.9057 56.9728 37.2215 55.7781C36.7563 54.9897 36.3501 54.1674 36.008 53.3185H31.6563ZM52.3388 53.3185H45.5728V59.7277C47.8273 59.4399 49.8752 57.7348 51.4209 55.1181H51.4233C51.7655 54.5377 52.0705 53.9352 52.3388 53.3185ZM44.2288 53.3185H37.4627H37.4652C37.7335 53.9352 38.0411 54.5374 38.3832 55.1178C39.9265 57.7346 41.9768 59.4396 44.2289 59.7273L44.2288 53.3185ZM36.9385 51.9956H44.2288V44.0653H35.5403C35.5797 46.7643 36.0498 49.4391 36.9334 51.9956H36.9385ZM45.5728 51.9956H52.8706C53.7542 49.4393 54.2268 46.7646 54.2662 44.0653H45.5777L45.5728 51.9956ZM57.8648 33.1607H57.8673C56.4422 31.4243 54.6725 29.9926 52.664 28.9526C51.8148 28.5101 50.9263 28.1424 50.0107 27.8547C51.0322 28.7858 51.901 29.8692 52.5877 31.0615C52.9864 31.7412 53.3409 32.4449 53.6485 33.168L57.8648 33.1607ZM36.1584 33.1607H36.1609C36.4685 32.4376 36.823 31.7338 37.2217 31.0567C37.9059 29.862 38.7748 28.7809 39.7987 27.8499C36.7048 28.8269 33.9727 30.6746 31.9394 33.1607H36.1584ZM52.7377 34.486H45.5753L45.5728 42.7426H54.2613C54.217 39.9275 53.7025 37.1391 52.7377 34.486ZM44.2288 34.486H37.0689C36.1016 37.1366 35.5872 39.9275 35.5453 42.7426H44.2338L44.2288 34.486ZM37.6253 33.1631H44.2288V27.1122C41.9766 27.3952 39.9264 29.1051 38.3831 31.7218C38.1173 32.1789 37.8613 32.6601 37.6275 33.1656L37.6253 33.1631ZM45.5728 33.1631H52.1788C51.9425 32.6577 51.689 32.1716 51.4231 31.7194C49.8774 29.1026 47.8296 27.3952 45.575 27.1098L45.5728 33.1631Z" fill="#018E47"/>
</svg>
