<svg width="93" height="93" viewBox="0 0 93 93" fill="none" xmlns="http://www.w3.org/2000/svg">
<circle cx="46.8022" cy="46.6171" r="44.9757" stroke="#018E47" stroke-width="1.85581"/>
<path d="M66.425 43.1084C66.5084 43.4831 66.5801 43.8694 66.6334 44.2556V44.2533C67.2051 48.2498 66.0801 52.2997 63.5292 55.4288V57.36L68.7839 57.3623C69.4598 57.36 70.0917 57.7092 70.4459 58.2874C70.8024 58.8633 70.8348 59.5826 70.5293 60.1862C70.6867 60.2741 70.8325 60.3852 70.9598 60.5124C71.3256 60.8778 71.5316 61.3727 71.5316 61.8885C71.5316 62.4042 71.3256 62.8992 70.9598 63.2646C70.8325 63.3941 70.689 63.5028 70.5293 63.5907C70.9066 64.34 70.7607 65.2467 70.1658 65.8411C70.0964 65.9081 70.0223 65.9729 69.9436 66.0307C70.307 66.632 70.3186 67.3838 69.9737 67.9966C69.6288 68.6095 68.9806 68.9888 68.2769 68.9911H66.1426H66.0708H66.0269H58.8534C57.7539 68.9865 56.7585 68.3435 56.3071 67.3421H54.5872V67.3374C54.2492 67.3374 53.9668 67.0854 53.9321 66.75L53.2793 60.7552C53.2214 60.7598 53.1612 60.7644 53.101 60.7667C52.807 60.7852 52.5246 60.7922 52.2584 60.7922V60.7945C48.5199 60.7991 44.9226 59.3582 42.2257 56.7725H27.2857C26.4778 56.7702 25.8227 56.1179 25.8203 55.3084V52.8569H22.5842C21.774 52.8545 21.1189 52.2 21.1189 51.3928V28.725C21.1189 28.5099 21.2231 28.3087 21.399 28.1838L26.9546 23.8218H26.9523C27.068 23.7293 27.2116 23.6784 27.3597 23.6784V23.6761H43.3949C43.7838 23.6761 44.1565 23.831 44.4319 24.1063C44.7074 24.3815 44.8625 24.7562 44.8602 25.1447V27.5963H48.0963C48.9065 27.5986 49.5616 28.2531 49.5616 29.0603V32.0346C51.8047 31.616 54.1149 31.727 56.3072 32.3607C57.2447 32.6313 58.1521 32.9967 59.0132 33.45V30.0455C59.0132 29.8698 59.0827 29.7009 59.2054 29.576C59.3304 29.4511 59.4993 29.3818 59.6753 29.3818H63.4693C63.6452 29.3818 63.8119 29.4512 63.9369 29.576C64.0619 29.6986 64.1313 29.8675 64.1313 30.0432V32.0114H66.599V27.6795C66.6013 27.3141 66.8953 27.0204 67.261 27.018H71.0527C71.2286 27.018 71.3976 27.0874 71.5203 27.2123C71.6453 27.3349 71.7147 27.5037 71.7147 27.6795V42.4448C71.7147 42.6206 71.6453 42.7894 71.5226 42.912C71.3976 43.0369 71.2309 43.1086 71.055 43.1086L66.425 43.1084ZM70.0848 49.8481L70.8511 51.2821L72.3372 51.4948C72.5895 51.5295 72.7978 51.703 72.8765 51.9435C72.9529 52.1864 72.8858 52.45 72.7006 52.6235L71.5895 53.7776L71.8487 55.2531L71.8511 55.2508C71.8927 55.5029 71.7886 55.755 71.5802 55.9031C71.3719 56.0511 71.0987 56.0673 70.8765 55.9424L69.4459 55.2462L68.1195 55.9493C67.9644 56.0326 67.7838 56.0488 67.6149 55.9956C67.4482 55.9447 67.3093 55.829 67.2283 55.6741C67.1612 55.5515 67.138 55.4127 67.1588 55.2763L67.3834 53.6619L66.3047 52.6188C66.1264 52.4477 66.0593 52.1887 66.1334 51.9527C66.2051 51.7145 66.4065 51.5387 66.6496 51.4971L68.2537 51.2126L68.9135 49.8666C69.0246 49.6446 69.2468 49.5035 69.4945 49.5012C69.7399 49.4966 69.9691 49.6307 70.0848 49.8458L70.0848 49.8481ZM69.8487 52.2003L69.5269 51.6036L69.314 52.0453V52.043C69.2283 52.2581 69.0385 52.413 68.8093 52.4547L68.1496 52.5726L68.5246 52.9357V52.938C68.6843 53.0838 68.763 53.2988 68.7353 53.5139L68.6403 54.1823L69.1241 53.9279C69.3093 53.8285 69.5292 53.8239 69.7191 53.9164L70.3255 54.2101L70.2329 53.6781C70.1959 53.47 70.2607 53.2595 70.4089 53.1092L70.8765 52.6235L70.3371 52.5449H70.3348C70.1288 52.5148 69.9459 52.3876 69.8487 52.2026L69.8487 52.2003ZM54.2053 49.8481L54.9715 51.2821L56.4576 51.4948C56.7099 51.5272 56.9183 51.703 56.997 51.9435C57.0734 52.1864 57.0062 52.45 56.821 52.6235L55.7099 53.7776L55.9692 55.2531L55.9715 55.2508C56.0016 55.4243 55.9622 55.6024 55.8604 55.7458C55.7608 55.8892 55.6081 55.9863 55.4344 56.0164C55.284 56.0441 55.1312 56.0187 54.9969 55.9447L53.5617 55.2462L52.2353 55.9493C52.0802 56.0326 51.8997 56.0487 51.733 55.9979C51.5663 55.9447 51.4251 55.829 51.3441 55.6741C51.2793 55.5515 51.2538 55.4127 51.2723 55.2763L51.4969 53.6619L50.4205 52.6188H50.4228C50.2446 52.4477 50.1774 52.1886 50.2515 51.9527C50.3233 51.7145 50.5247 51.5387 50.7677 51.4971L52.3719 51.2126L53.0293 49.8666C53.1913 49.5405 53.5849 49.4063 53.9113 49.5659C54.0363 49.6261 54.1381 49.7255 54.2029 49.8458L54.2053 49.8481ZM53.9691 52.2003L53.6497 51.6036L53.4321 52.0453V52.043C53.3488 52.2581 53.1613 52.413 52.9344 52.4547L52.2747 52.5726L52.6497 52.9357L52.6474 52.938C52.8071 53.0814 52.8858 53.2988 52.8557 53.5139L52.7631 54.1823L53.2469 53.9279C53.4321 53.8285 53.652 53.8239 53.8418 53.9164L54.4483 54.2101L54.3557 53.6781H54.3534C54.3186 53.47 54.3835 53.2595 54.5293 53.1092L54.9969 52.6235L54.4575 52.5449C54.2492 52.5171 54.0686 52.3876 53.9714 52.2026L53.9691 52.2003ZM63.4875 58.6853C63.1472 61.2641 60.9504 63.1953 58.3462 63.2046C57.9805 63.2046 57.6842 62.9085 57.6842 62.5431C57.6842 62.1777 57.9804 61.8816 58.3462 61.8816C60.4759 61.877 62.2004 60.1539 62.205 58.0262V53.3196C62.2073 53.1438 62.1657 52.9704 62.0847 52.8131C62.0013 52.6535 61.881 52.517 61.7328 52.4153C61.6564 52.3621 61.5661 52.3274 61.4735 52.3204C61.2791 52.3043 61.0916 52.3898 60.9735 52.5448L60.9597 52.5679C60.9134 52.6396 60.8879 52.7229 60.8809 52.8061C60.7745 54.2262 60.4365 55.6185 59.8832 56.9299C59.3832 57.9706 58.6703 58.6876 57.6795 58.6876H57.3786L57.3809 66.1976C57.3832 67.0094 58.0406 67.6639 58.8508 67.6686H64.2976C64.2259 67.4674 64.1912 67.2569 64.1935 67.0441C64.1935 66.6856 64.293 66.3364 64.4782 66.0288C63.7143 65.4668 63.4666 64.4353 63.8925 63.5888C63.7351 63.5032 63.5893 63.3922 63.4643 63.2627C63.0985 62.8972 62.8925 62.4023 62.8925 61.8865C62.8925 61.3708 63.0986 60.8759 63.4643 60.5104C63.5916 60.3832 63.7351 60.2745 63.8925 60.1866C63.756 59.916 63.6842 59.6177 63.6842 59.3147C63.6865 59.0996 63.7212 58.8868 63.7884 58.6856L63.4875 58.6853ZM56.0569 66.0194V58.6853H54.3833L54.5175 59.9435C54.5175 59.9527 54.5198 59.9574 54.5198 59.9666H54.5221C54.5245 59.9782 54.5245 59.9898 54.5221 59.999L55.1773 66.0193L56.0569 66.0194ZM56.7166 57.3626H57.6796C58.0639 57.3626 58.4065 56.9509 58.6935 56.3542C59.1842 55.1862 59.4805 53.9466 59.5708 52.6838C59.5986 52.3785 59.7004 52.0848 59.8717 51.8304C59.881 51.8142 59.8926 51.798 59.9041 51.7818C60.0917 51.5158 60.3463 51.3077 60.6403 51.1736C60.9343 51.0348 61.2607 50.977 61.5848 51.0024C61.9112 51.0325 62.2213 51.1481 62.4875 51.3378C63.0917 51.7587 63.4737 52.4295 63.5223 53.1649C64.6727 51.2869 65.3325 49.1499 65.4367 46.9528H52.5245L43.2165 55.892C45.661 58.1956 48.8971 59.4792 52.2584 59.4769C52.5362 59.4769 52.7931 59.4676 53.0293 59.4561L53.1381 59.4468L52.9969 58.1424C52.9899 58.1031 52.9876 58.0661 52.9853 58.0268C52.9853 57.6613 53.2816 57.363 53.6497 57.363L56.7166 57.3626ZM68.2747 66.415H66.1427C66.1242 66.4126 66.1056 66.4126 66.0894 66.415C65.8464 66.4358 65.638 66.5953 65.5547 66.8243C65.4714 67.0533 65.5316 67.31 65.7052 67.4789C65.8209 67.5991 65.9783 67.6662 66.145 67.6662H68.277C68.6219 67.6662 68.902 67.3887 68.9066 67.044C68.9043 66.6971 68.6242 66.4173 68.277 66.415L68.2747 66.415ZM68.7863 63.8384H65.6334C65.2862 63.8408 65.0084 64.1206 65.0084 64.4675C65.0131 64.8098 65.2885 65.0851 65.6334 65.0897H68.7839C69.1289 65.0897 69.409 64.8122 69.4113 64.4675C69.4113 64.1206 69.1312 63.8384 68.7839 63.8384H68.7863ZM68.7863 61.2619H64.8394C64.4922 61.2619 64.2121 61.5441 64.2098 61.891C64.2144 62.2356 64.4945 62.5132 64.8394 62.5132H69.5802C69.9251 62.5132 70.2052 62.2357 70.2099 61.891C70.2075 61.5441 69.9274 61.2619 69.5802 61.2619H68.7863ZM66.0293 58.6854H65.6335C65.2886 58.6901 65.0084 58.9699 65.0084 59.3145C65.0131 59.6568 65.2886 59.9344 65.6335 59.9367H68.784C69.1289 59.9367 69.409 59.6591 69.4113 59.3145C69.4113 58.9676 69.1289 58.6878 68.784 58.6854H66.0293ZM51.5983 46.0113V33.1217C48.2858 33.2883 45.1562 34.6968 42.8344 37.0627C40.5126 39.4311 39.17 42.5857 39.0704 45.9002C38.9732 49.2121 40.1259 52.4409 42.3042 54.9412L51.5983 46.0113ZM67.9203 32.6735L67.918 41.7863H70.3902V28.3419H67.918L67.9203 32.6735ZM64.1286 33.3327V41.7858H66.5986V33.3327H64.1286ZM63.4665 43.1091H55.8807C55.5149 43.1068 55.2209 42.8108 55.2209 42.4454V36.5777C55.2186 36.2123 55.5149 35.9162 55.8807 35.9162H59.0127V34.961C57.1654 33.8578 55.0728 33.2264 52.9225 33.1223V45.63H65.4388C65.418 45.223 65.381 44.8252 65.3254 44.4343C65.2629 43.988 65.1773 43.5462 65.0685 43.1091L63.4665 43.1091ZM62.8068 30.7056H60.3368V41.7864H62.8068V30.7056ZM59.0128 37.2369H56.5452V41.7862H59.0151L59.0128 37.2369ZM48.237 32.3476V29.0611C48.2393 29.0217 48.2231 28.987 48.1976 28.9593C48.1698 28.9315 48.1351 28.9177 48.0958 28.9153H32.7208V32.6552C32.7208 32.8309 32.6513 32.9975 32.5286 33.1224C32.4036 33.2473 32.237 33.3166 32.061 33.3143H27.142V55.309C27.142 55.346 27.1582 55.383 27.1837 55.4084C27.2114 55.4339 27.2462 55.45 27.2855 55.45H41.003H41.0007C40.1025 54.3514 39.371 53.1257 38.8293 51.8143H30.4772C30.299 51.8189 30.1254 51.7519 29.9958 51.6293C29.8684 51.5044 29.7967 51.3332 29.7967 51.1552C29.7967 50.9748 29.8684 50.8059 29.9958 50.681C30.1254 50.5561 30.299 50.4891 30.4772 50.4937H38.3594C38.1256 49.7166 37.9566 48.921 37.8548 48.1138H30.4775C30.1118 48.1138 29.8155 47.8201 29.8155 47.4547C29.8155 47.0892 30.1118 46.7955 30.4775 46.7955H37.7505C37.7459 46.629 37.7412 46.4624 37.7412 46.2913C37.7412 45.6622 37.7806 45.0377 37.8616 44.4133H30.4772C30.1115 44.4133 29.8152 44.1196 29.8152 43.7541C29.8152 43.391 30.1115 43.0949 30.4772 43.0949H38.0933C38.2762 42.2808 38.5308 41.4852 38.8502 40.7151H30.4774C30.1116 40.7151 29.8153 40.419 29.8153 40.0536C29.8153 39.6882 30.1116 39.3921 30.4774 39.3921H39.4843C39.9426 38.5479 40.4843 37.7524 41.1001 37.0146H30.4771C30.1183 37.003 29.8336 36.7116 29.8336 36.3531C29.8336 35.9946 30.1184 35.7032 30.4771 35.6916H42.3475C44.0211 34.1305 46.0374 32.9856 48.2365 32.3496L48.237 32.3476ZM23.6743 28.0735H26.6998V25.7005L23.6743 28.0735ZM28.0239 24.9997V28.7396C28.0216 29.105 27.7253 29.3987 27.3595 29.3987H22.4428V51.3934C22.4405 51.4304 22.4567 51.4674 22.4821 51.4928C22.5099 51.5206 22.5446 51.5368 22.584 51.5368H25.8201V32.6387C25.8178 32.4236 25.9243 32.2224 26.1002 32.0998L31.6558 27.7378H31.6535C31.7692 27.6453 31.9128 27.5968 32.0609 27.5968H43.5378V25.1452C43.5378 25.1082 43.5216 25.0735 43.4961 25.048C43.4684 25.0203 43.4336 25.0041 43.3943 25.0041L28.0239 24.9997ZM31.4012 29.6115L28.3734 31.9914H31.4012V29.6115Z" fill="#018E47"/>
</svg>
