<svg width="160" height="160" viewBox="0 0 160 160" fill="none" xmlns="http://www.w3.org/2000/svg">
<circle cx="80" cy="80" r="78.5" stroke="#018E47" stroke-width="3"/>
<path d="M110.35 72.2726C110.188 71.9897 109.92 71.7828 109.607 71.6994C109.294 71.615 108.962 71.6604 108.681 71.824L98.8738 77.5673L86.157 76.4727C85.7925 76.4421 85.4332 76.5772 85.1783 76.8421L81.6364 80.5239L76.5643 75.9079C76.2959 75.6631 75.9345 75.5512 75.5742 75.6029L62.0928 77.5483L52.3195 71.824C51.7356 71.482 50.9888 71.6836 50.6514 72.2726L38.2448 93.9062C38.0829 94.1891 38.038 94.5258 38.1216 94.8425C38.2051 95.1592 38.4088 95.4283 38.6888 95.593L48.6292 101.414L52.9796 106.938C52.732 108.394 53.0934 109.946 54.1014 111.167C55.4122 112.752 57.4636 113.351 59.3249 112.88C59.3458 114.027 59.7385 115.174 60.5208 116.121C61.4014 117.187 62.6443 117.843 64.0199 117.968C65.0519 118.062 66.0619 117.848 66.9466 117.361C67.0594 118.333 67.4427 119.284 68.1091 120.089C69.866 122.214 72.9535 122.568 75.1292 120.945C75.2619 121.932 75.6734 122.892 76.3732 123.692C77.4292 124.899 78.9176 125.492 80.3997 125.448C80.4102 125.46 80.4217 125.472 80.4332 125.483C81.4056 126.462 82.6987 127 84.0774 127C84.0795 127 84.0826 127 84.0847 127C85.4666 126.998 86.7607 126.455 87.7311 125.473C88.6262 124.566 89.1307 123.405 89.2257 122.211C91.0776 122.77 93.1687 122.253 94.5464 120.708C95.2504 119.917 95.6891 118.949 95.8238 117.913C96.603 118.299 97.4731 118.48 98.3661 118.433C99.7459 118.36 101.012 117.752 101.931 116.72C102.653 115.909 103.077 114.932 103.209 113.925C105.226 114.923 107.739 114.501 109.316 112.732C110.235 111.701 110.702 110.364 110.63 108.971C110.575 107.93 110.226 106.953 109.627 106.137L112.446 101.371L122.312 95.593C122.895 95.251 123.095 94.4963 122.756 93.9073L110.35 72.2726ZM40.9699 94.0762L52.1513 74.5779L60.1783 79.2794L48.9969 98.7776L40.9699 94.0762ZM61.1496 108.797L59.8043 109.933C58.6543 110.903 56.9361 110.748 55.9762 109.585C55.3788 108.862 55.2127 107.919 55.4488 107.074C55.4655 107.03 55.4791 106.985 55.4905 106.938C55.6451 106.477 55.924 106.05 56.3199 105.716L61.6103 101.251C62.7603 100.28 64.4785 100.436 65.4383 101.598C66.3993 102.76 66.2447 104.497 65.0947 105.467L65.0916 105.469L61.1737 108.776C61.1653 108.783 61.158 108.791 61.1496 108.797ZM68.6805 112.814C68.6669 112.825 68.6533 112.836 68.6397 112.847L66.2228 114.886C65.6692 115.354 64.9652 115.575 64.2382 115.509C63.5123 115.444 62.8574 115.099 62.3947 114.539C61.439 113.383 61.5862 111.661 62.7195 110.686L62.9451 110.495C62.9493 110.491 62.9535 110.488 62.9587 110.484L68.0287 106.205C69.1797 105.233 70.8969 105.39 71.8568 106.552C72.8146 107.712 72.6642 109.441 71.5215 110.413L68.7609 112.743C68.7348 112.767 68.7076 112.791 68.6805 112.814ZM73.8121 118.854C72.6621 119.825 70.9439 119.669 69.984 118.507C69.0231 117.345 69.1777 115.61 70.3276 114.638L73.0747 112.32C73.0768 112.319 73.0778 112.317 73.0799 112.316C73.083 112.313 73.0872 112.31 73.0903 112.308L75.618 110.174C76.768 109.203 78.4862 109.36 79.4461 110.522C80.2034 111.438 80.288 112.735 79.6561 113.752C79.6299 113.794 79.6028 113.835 79.5735 113.876L77.1942 116.001L73.8121 118.854ZM78.2032 122.057C77.2109 120.922 77.3174 119.183 78.4392 118.18L78.7943 117.862C78.7964 117.86 78.7996 117.858 78.8017 117.856L81.2656 115.655C81.2771 115.644 81.2896 115.634 81.3011 115.623L82.191 114.828C83.3139 113.826 85.0352 113.932 86.0275 115.068C87.0198 116.203 86.9132 117.942 85.7904 118.945L82.0386 122.295C80.9168 123.299 79.1954 123.192 78.2032 122.057ZM86.0024 123.73C85.4927 124.246 84.8106 124.531 84.0816 124.532C84.0816 124.532 84.0795 124.532 84.0774 124.532C83.8152 124.532 83.5593 124.495 83.3149 124.424C83.4319 124.337 83.5458 124.243 83.6565 124.145L86.7576 121.375C86.8819 122.216 86.6208 123.103 86.0024 123.73ZM107.5 111.08C106.498 112.205 104.775 112.296 103.662 111.283L101.693 109.492C101.646 109.445 101.598 109.401 101.549 109.355C101.525 109.333 101.5 109.313 101.475 109.293L98.5385 106.62C98.0371 106.164 97.2652 106.206 96.814 106.711C96.3628 107.218 96.4035 107.998 96.9038 108.454L100.016 111.287C101.032 112.312 101.085 113.978 100.114 115.067C99.631 115.608 98.9636 115.928 98.2356 115.967C97.5086 116.006 96.8119 115.758 96.2751 115.27L94.3062 113.477C94.2592 113.432 94.2111 113.386 94.1631 113.342C94.1391 113.32 94.115 113.3 94.09 113.281L91.1539 110.608C90.6525 110.152 89.8806 110.193 89.4294 110.699C88.9782 111.206 89.0189 111.986 89.5192 112.442L92.6319 115.275C93.1061 115.753 93.3839 116.386 93.4194 117.075C93.458 117.81 93.2126 118.514 92.73 119.056C91.7273 120.181 90.0049 120.272 88.8915 119.259C88.8205 119.194 88.7442 119.139 88.6638 119.095C89.5046 117.271 89.2571 115.035 87.8564 113.433C86.4829 111.862 84.374 111.328 82.5054 111.893C82.4281 110.833 82.0292 109.798 81.3189 108.937C79.7177 106.999 77.0083 106.535 74.8931 107.699C74.7803 106.727 74.397 105.776 73.7306 104.969C72.4198 103.384 70.3684 102.785 68.5071 103.256C68.4862 102.109 68.0935 100.963 67.3111 100.015C65.4874 97.8076 62.2265 97.512 60.0435 99.355L54.7531 103.82C54.5254 104.012 54.3197 104.219 54.1327 104.44L50.9136 100.351L62.6046 79.9644L75.3527 78.1246L79.9308 82.2919L71.7785 90.7638C71.5413 91.0098 71.417 91.3454 71.4348 91.6874C71.4526 92.0305 71.6113 92.3503 71.8714 92.5709L74.6707 94.9322C76.8275 96.752 79.6947 97.0296 82.1545 95.6563L89.8765 91.3433L102.176 102.537C102.176 102.537 102.179 102.54 102.181 102.541L107.28 107.182C107.29 107.192 107.302 107.202 107.312 107.212C107.84 107.698 108.151 108.367 108.19 109.097C108.227 109.835 107.983 110.539 107.5 111.08ZM107.829 104.364L103.811 100.707L103.81 100.706L90.8656 88.9229C90.4781 88.5704 89.9141 88.506 89.4576 88.7604L80.9742 93.4988C79.4179 94.3686 77.6026 94.1923 76.2374 93.0407L74.4492 91.5323L82.565 83.0984L82.5692 83.0942L86.5268 78.9817L98.4163 80.0056L110.143 100.454L107.829 104.364ZM112.003 98.7776L100.822 79.2794L108.849 74.5779L120.03 94.0762L112.003 98.7776ZM127 71.2192V78.9912C127 79.6721 126.454 80.2252 125.779 80.2252C125.105 80.2252 124.558 79.6731 124.558 78.9912V71.2192C124.558 70.5953 124.056 70.0887 123.439 70.0887H117.494C116.943 70.0887 116.46 69.715 116.316 69.1777C115.49 66.0934 114.27 63.1209 112.69 60.3427C112.416 59.8593 112.495 59.2502 112.886 58.8554L117.093 54.6037C117.303 54.3915 117.418 54.1076 117.418 53.8046C117.418 53.5006 117.303 53.2167 117.093 53.0056L106.216 42.013C105.779 41.5718 105.07 41.5718 104.633 42.013L100.424 46.2669C100.034 46.6606 99.4305 46.7419 98.9521 46.4643C96.2009 44.8672 93.2606 43.6343 90.2118 42.8004C89.6791 42.6548 89.3093 42.1671 89.3093 41.6098V35.5984C89.3093 34.9746 88.8069 34.4679 88.1906 34.4679H72.8083C72.191 34.4679 71.6897 34.9756 71.6897 35.5984V41.6098C71.6897 42.1671 71.3199 42.6548 70.7872 42.8004C67.7383 43.6343 64.797 44.8662 62.0469 46.4632C61.5685 46.7408 60.9658 46.6606 60.5752 46.2658L56.3658 42.0119C56.1559 41.7998 55.8749 41.6837 55.5751 41.6837C55.2743 41.6837 54.9934 41.7998 54.7834 42.0119L43.9081 53.0045C43.6982 53.2167 43.5833 53.4996 43.5833 53.8036C43.5833 54.1076 43.6982 54.3915 43.9081 54.6026L48.1174 58.8554C48.507 59.2492 48.5875 59.8593 48.3128 60.3427C46.7324 63.122 45.5125 66.0944 44.6873 69.1767C44.5432 69.715 44.0606 70.0887 43.5091 70.0887H37.5607C36.9434 70.0887 36.442 70.5964 36.442 71.2192V78.9912C36.442 79.6721 35.8958 80.2252 35.221 80.2252C34.5463 80.2252 34 79.6731 34 78.9912V71.2192C34 69.2347 35.597 67.6208 37.5607 67.6208H42.5858C43.366 64.9618 44.423 62.3863 45.7381 59.9416L42.1816 56.3485C41.511 55.6708 41.1412 54.7673 41.1412 53.8046C41.1412 52.8419 41.511 51.9384 42.1816 51.2607L53.059 40.2692C54.4471 38.8664 56.7063 38.8664 58.0934 40.2692L61.65 43.8634C64.069 42.5344 66.6176 41.4662 69.2487 40.6788V35.5984C69.2487 33.6139 70.8457 32 72.8094 32H88.1917C90.1553 32 91.7524 33.6139 91.7524 35.5984V40.6767C94.3824 41.4652 96.931 42.5334 99.3511 43.8613L102.908 40.2671C104.296 38.8643 106.555 38.8643 107.943 40.2671L118.819 51.2586C119.49 51.9363 119.86 52.8398 119.86 53.8025C119.86 54.7652 119.49 55.6687 118.819 56.3464L115.265 59.9384C116.579 62.3821 117.637 64.9587 118.417 67.6197H123.44C125.402 67.6208 127 69.2358 127 71.2192ZM80.5 52.3722C69.584 52.3722 59.9547 59.0064 55.9689 69.2738C55.7799 69.7604 55.3192 70.057 54.8315 70.057C54.6831 70.057 54.5327 70.0296 54.3855 69.9715C53.7577 69.7224 53.4486 69.0067 53.6951 68.3723C55.784 62.9901 59.3823 58.3952 64.0993 55.0839C68.928 51.6956 74.5986 49.9033 80.499 49.9033C86.3993 49.9033 92.0699 51.6946 96.8986 55.0839C101.616 58.3942 105.214 62.989 107.303 68.3723C107.549 69.0067 107.24 69.7224 106.612 69.9715C105.984 70.2206 105.277 69.9082 105.03 69.2738C101.045 59.0064 91.4161 52.3722 80.5 52.3722ZM81.6918 66.0638C82.3655 66.0638 82.9128 66.6159 82.9128 67.2978V71.4841C82.9128 72.1649 82.3665 72.7181 81.6918 72.7181C81.0181 72.7181 80.4708 72.166 80.4708 71.4841V67.2978C80.4718 66.6169 81.0181 66.0638 81.6918 66.0638ZM89.6926 68.2309C90.2765 68.5718 90.476 69.3266 90.1397 69.9166L88.0695 73.5403C87.8439 73.9362 87.4334 74.1578 87.0114 74.1578C86.8046 74.1578 86.5947 74.104 86.4025 73.9921C85.8186 73.6512 85.6191 72.8964 85.9554 72.3064L88.0256 68.6827C88.3619 68.0926 89.1088 67.8899 89.6926 68.2309ZM75.359 68.6827L77.4292 72.3064C77.7666 72.8964 77.566 73.6512 76.9821 73.9921C76.7899 74.104 76.58 74.1578 76.3732 74.1578C75.9512 74.1578 75.5407 73.9362 75.3151 73.5403L73.2449 69.9166C72.9076 69.3266 73.1081 68.5718 73.692 68.2309C74.2758 67.8899 75.0227 68.0926 75.359 68.6827Z" fill="#018E47"/>
</svg>
