<svg width="160" height="160" viewBox="0 0 160 160" fill="none" xmlns="http://www.w3.org/2000/svg">
<circle cx="80" cy="80" r="78.5" stroke="#018E47" stroke-width="3"/>
<path d="M122.875 40.4331H107.498V38.113C107.498 37.1356 106.701 36.3386 105.724 36.3386H101.345C100.799 32.7566 97.701 30 93.9671 30C90.2332 30 87.1303 32.7565 86.5895 36.3386H82.2103C81.233 36.3386 80.4359 37.1357 80.4359 38.113V40.4331H65.0593C64.4378 40.4331 63.9349 40.936 63.9349 41.5575V62.447C62.6255 63.2726 61.4014 64.2547 60.2864 65.3839C56.4956 69.2316 54.4271 74.3224 54.4697 79.7268C54.4934 82.9815 55.281 86.1128 56.747 88.9168L51.419 94.3254L50.4085 93.3291C50.1997 93.1203 49.915 93.0065 49.6209 93.0065H49.6114C49.3125 93.0065 49.0278 93.1298 48.8191 93.3433L34.3534 108.023C32.821 109.579 31.986 111.647 32.0002 113.849C32.0192 116.05 32.8874 118.105 34.4435 119.637C35.9855 121.16 38.0303 121.995 40.2081 121.995H40.2745C42.4759 121.976 44.5303 121.113 46.0627 119.552L60.5283 104.877C60.7371 104.664 60.8557 104.379 60.851 104.08C60.851 103.781 60.7276 103.497 60.5141 103.288L59.5035 102.291L63.9348 97.7938V120.876C63.9348 121.497 64.4377 122 65.0592 122H122.871C123.492 122 123.995 121.497 123.995 120.876L124 41.5577C124 40.9361 123.496 40.4331 122.875 40.4331ZM82.6844 38.5828H87.6281C88.2496 38.5828 88.7525 38.0799 88.7525 37.4584C88.7525 34.5832 91.0915 32.2442 93.9667 32.2442C96.8419 32.2442 99.1809 34.5832 99.1809 37.4584C99.1809 38.0799 99.6838 38.5828 100.305 38.5828H105.249V44.5228H82.6797V38.5828H82.6844ZM61.8944 66.9638C65.2629 63.5431 69.7607 61.6406 74.5625 61.6025H74.7001C79.4493 61.6025 83.9233 63.4339 87.311 66.774C90.7318 70.1425 92.6343 74.6403 92.6723 79.442C92.7103 84.2433 90.8694 88.7743 87.5009 92.1951C84.1324 95.6158 79.6345 97.5136 74.8328 97.5516H74.6952C69.946 97.5516 65.4719 95.7202 62.0842 92.3849C58.6635 89.0164 56.761 84.5138 56.723 79.712C56.6849 74.9102 58.5259 70.3844 61.8944 66.9638ZM88.886 65.1751C88.1933 64.4919 87.4626 63.8704 86.6988 63.301L93.4502 57.807L101.549 72.439C101.725 72.7521 102.038 72.9656 102.398 73.0083C102.446 73.0131 102.488 73.0178 102.536 73.0178C102.844 73.0178 103.148 72.8897 103.361 72.6572L110.701 64.7435H115.488V75.8123H94.5744C93.82 71.7938 91.8652 68.1026 88.8905 65.1753L88.886 65.1751ZM115.483 62.4993H110.202C109.889 62.4993 109.59 62.6274 109.377 62.8599L102.758 69.9955L94.7591 55.5481C94.5978 55.2587 94.3179 55.0547 93.9905 54.9883C93.6632 54.9266 93.3263 55.012 93.0701 55.2207L84.7199 62.0148C81.655 60.2594 78.1678 59.3343 74.543 59.3627C73.8409 59.3674 73.1482 59.4101 72.4603 59.486V52.1749H115.483V62.5035L115.483 62.4993ZM72.46 99.6762C73.1954 99.7569 73.9404 99.7996 74.6899 99.7996H74.8465C76.0658 99.7901 77.2661 99.6715 78.438 99.4532V101.707H72.4599L72.46 99.6762ZM44.4627 117.975C43.3525 119.104 41.8581 119.735 40.2592 119.745C38.6603 119.764 37.1563 119.152 36.0224 118.032C34.8932 116.922 34.2622 115.427 34.248 113.828C34.2338 112.229 34.8411 110.725 35.9559 109.596L44.904 100.515L53.4108 108.894L44.4627 117.975ZM54.9907 107.295L46.4839 98.9166L49.6343 95.7189L58.1411 104.102L54.9907 107.3V107.295ZM53.0265 95.9039L57.9418 90.9127C58.6867 92.0087 59.5407 93.0382 60.5038 93.987C61.1918 94.6655 61.9225 95.2917 62.691 95.8564L57.9086 100.715L53.0265 95.9039ZM121.755 119.75H66.1877V97.9347C67.4734 98.5325 68.8256 98.9927 70.2157 99.3058V102.831C70.2157 103.452 70.7186 103.955 71.3402 103.955H79.567C80.1885 103.955 80.6914 103.452 80.6914 102.831V98.9024C82.409 98.3711 84.0457 97.6119 85.564 96.644H116.607C117.229 96.644 117.732 96.1411 117.732 95.5196C117.732 94.8981 117.229 94.3952 116.607 94.3952H88.4583C88.6766 94.1912 88.8901 93.9872 89.0988 93.7737C90.1236 92.7346 91.0203 91.6007 91.7841 90.4004H105.42C106.042 90.4004 106.545 89.8975 106.545 89.276C106.545 88.6545 106.042 88.1516 105.42 88.1516H93.0181C93.6397 86.8231 94.1141 85.433 94.432 83.9954H116.603C117.224 83.9954 117.727 83.4925 117.727 82.871C117.727 82.2494 117.224 81.7465 116.603 81.7465H94.7976C94.8783 80.9827 94.9162 80.2094 94.9115 79.4265C94.9067 78.9662 94.8878 78.5108 94.8545 78.0601H116.603C117.224 78.0601 117.727 77.5572 117.727 76.9356V51.0457C117.727 50.4242 117.224 49.9213 116.603 49.9213H71.3354C70.7139 49.9213 70.211 50.4242 70.211 51.0457V59.8561C68.8209 60.1693 67.4687 60.6295 66.1829 61.2273V42.6855H80.4348V45.0008C80.4348 45.9781 81.2319 46.7751 82.2092 46.7751H105.717C106.695 46.7751 107.492 45.9781 107.492 45.0008V42.6855H121.744V119.754L121.755 119.75ZM79.5675 106.123H71.3407C70.7192 106.123 70.2162 106.626 70.2162 107.248V115.479C70.2162 116.101 70.7192 116.604 71.3407 116.604H79.5675C80.189 116.604 80.6919 116.101 80.6919 115.479V107.248C80.6919 106.626 80.189 106.123 79.5675 106.123ZM78.4431 114.355H72.465V108.372H78.4431V114.355ZM84.3405 101.92C84.3405 101.299 84.8434 100.796 85.4649 100.796H105.425C106.047 100.796 106.55 101.299 106.55 101.92C106.55 102.542 106.047 103.044 105.425 103.044H85.4649C84.8434 103.044 84.3405 102.542 84.3405 101.92ZM117.732 108.159C117.732 108.78 117.229 109.283 116.607 109.283H85.4642C84.8427 109.283 84.3398 108.78 84.3398 108.159C84.3398 107.537 84.8427 107.035 85.4642 107.035H116.607C117.229 107.035 117.732 107.537 117.732 108.159ZM106.549 114.569C106.549 115.19 106.046 115.693 105.425 115.693H85.4642C84.8427 115.693 84.3398 115.19 84.3398 114.569C84.3398 113.947 84.8427 113.444 85.4642 113.444H105.425C106.046 113.444 106.549 113.947 106.549 114.569ZM63.6501 83.3261H70.9518V90.6278C70.9518 91.2493 71.4547 91.7522 72.0762 91.7522H77.3188C77.9404 91.7522 78.4433 91.2493 78.4433 90.6278V83.3261H85.745C86.3665 83.3261 86.8694 82.8232 86.8694 82.2017V76.9591C86.8694 76.3375 86.3665 75.8346 85.745 75.8346H78.4433V68.533C78.4433 67.9114 77.9404 67.4085 77.3188 67.4085H72.0762C71.4547 67.4085 70.9518 67.9114 70.9518 68.533V75.8346H63.6501C63.0286 75.8346 62.5257 76.3375 62.5257 76.9591V82.2017C62.5257 82.8232 63.0286 83.3261 63.6501 83.3261ZM64.7745 78.0835H72.0762C72.6977 78.0835 73.2007 77.5806 73.2007 76.9591V69.6574H76.1944V76.9591C76.1944 77.5806 76.6973 78.0835 77.3188 78.0835H84.6205V81.0772H77.3188C76.6973 81.0772 76.1944 81.5801 76.1944 82.2016V89.5033H73.2007V82.2016C73.2007 81.5801 72.6977 81.0772 72.0762 81.0772H64.7745V78.0835Z" fill="#018E47"/>
</svg>
