<svg width="160" height="160" viewBox="0 0 160 160" fill="none" xmlns="http://www.w3.org/2000/svg">
<circle cx="80" cy="80" r="78.5" stroke="#018E47" stroke-width="3"/>
<path d="M43.1352 79.0518H35.8636C35.3388 79.0518 34.918 79.4773 34.918 79.9974C34.918 80.5174 35.3388 80.9429 35.8636 80.9429H43.1399H43.1351C43.6599 80.9429 44.0807 80.5174 44.0807 79.9974C44.0807 79.4773 43.66 79.0518 43.1352 79.0518Z" fill="#018E47"/>
<path d="M43.1352 84.6631H35.8636C35.3388 84.6631 34.918 85.0839 34.918 85.6087C34.918 86.1288 35.3388 86.5543 35.8636 86.5543H43.1399H43.1351C43.6599 86.5543 44.0807 86.1288 44.0807 85.6087C44.0807 85.0839 43.66 84.6631 43.1352 84.6631Z" fill="#018E47"/>
<path d="M124.596 34.4573L113.325 30.1454C112.81 29.9515 112.237 29.9515 111.722 30.1454L100.503 34.3439C99.6281 34.6748 99.0466 35.5117 99.0371 36.4478V51.932C99.0371 53.1801 100.049 54.1872 101.297 54.1872H123.788C125.036 54.1872 126.043 53.1802 126.043 51.932V36.5749C126.043 35.6388 125.466 34.7976 124.596 34.4573ZM101.207 36.0979L112.427 31.9137H112.682L123.93 36.2256L123.925 36.2209C124.062 36.2871 124.152 36.4242 124.152 36.5755V39.0104L113.325 34.8592C112.81 34.6654 112.238 34.6654 111.722 34.8592L100.966 38.8827V36.4384C100.966 36.2823 101.061 36.1452 101.207 36.0979ZM118.077 52.2586H107.019V45.6394C107.019 45.4409 107.184 45.2754 107.387 45.2754H117.69H117.685C117.888 45.2754 118.054 45.4409 118.054 45.6394L118.077 52.2586ZM123.789 52.2586H120.006V45.6394C119.978 44.4008 118.952 43.4126 117.713 43.4362H107.411C106.163 43.4362 105.156 44.4433 105.156 45.6915V52.2586H101.374C101.17 52.2586 101.005 52.0979 101.005 51.8946V40.9116L112.465 36.6375C112.551 36.6139 112.636 36.6139 112.721 36.6375L124.196 41.0487V51.9419L124.191 51.9466C124.167 52.1405 123.987 52.2823 123.789 52.2586Z" fill="#018E47"/>
<path d="M116.882 59.3463C117.402 59.3463 117.827 58.9208 117.827 58.4007C117.827 57.8806 117.402 57.4551 116.882 57.4551H108.282C107.761 57.4551 107.336 57.8806 107.336 58.4007C107.336 58.9208 107.761 59.3463 108.282 59.3463H116.882Z" fill="#018E47"/>
<path d="M124.596 69.7835L113.325 65.4716C112.81 65.2777 112.237 65.2777 111.722 65.4716L100.503 69.6558C99.6233 69.9962 99.0418 70.8378 99.0371 71.7739V87.258C99.0371 88.5061 100.049 89.5133 101.297 89.5133H123.788C125.036 89.5133 126.043 88.5062 126.043 87.258V71.8877C126.039 70.9563 125.462 70.1239 124.596 69.7835ZM101.207 71.4241L112.427 67.2399H112.682L123.93 71.5518L123.925 71.5471C124.062 71.6085 124.152 71.7409 124.152 71.8875V74.3318L113.325 70.1854C112.81 69.9915 112.238 69.9915 111.722 70.1854L100.966 74.2088V71.7645C100.966 71.6085 101.061 71.4714 101.207 71.4241ZM118.077 87.6223H107.019V80.9654C107.019 80.7668 107.184 80.6013 107.387 80.6013H117.69H117.685C117.888 80.6013 118.054 80.7668 118.054 80.9654L118.077 87.6223ZM123.789 87.6223H120.006V80.9654C120.002 80.3649 119.756 79.7928 119.321 79.372C118.891 78.956 118.314 78.7243 117.713 78.7338H107.411C106.163 78.7338 105.156 79.7456 105.156 80.9938V87.6507H101.374C101.17 87.6507 101.005 87.4853 101.005 87.282V76.2138L112.465 71.9398C112.551 71.9162 112.636 71.9162 112.721 71.9398L124.196 76.351V87.2442H124.191C124.196 87.3529 124.153 87.4522 124.077 87.5279C124.002 87.5988 123.893 87.6365 123.789 87.6223Z" fill="#018E47"/>
<path d="M116.882 94.6724C117.402 94.6724 117.827 94.2469 117.827 93.7268C117.827 93.2068 117.402 92.7812 116.882 92.7812H108.282C107.761 92.7812 107.336 93.2068 107.336 93.7268C107.336 94.2469 107.761 94.6724 108.282 94.6724H116.882Z" fill="#018E47"/>
<path d="M124.596 105.112L113.325 100.8C112.81 100.606 112.237 100.606 111.722 100.8L100.503 104.984C99.6233 105.324 99.0418 106.166 99.0371 107.102V122.586C99.0371 123.834 100.049 124.841 101.297 124.841H123.788C125.036 124.841 126.043 123.834 126.043 122.586V107.216C126.048 106.28 125.471 105.443 124.596 105.112ZM101.207 106.752L112.427 102.568V102.563C112.469 102.554 112.512 102.554 112.554 102.563C112.597 102.549 112.64 102.549 112.682 102.563L123.916 106.875C124.058 106.927 124.152 107.064 124.152 107.216V109.66L113.325 105.513C112.81 105.32 112.238 105.32 111.722 105.513L100.928 109.546V107.093C100.933 106.927 101.047 106.785 101.207 106.752ZM118.077 122.95H107.019V116.293C107.019 116.095 107.184 115.929 107.387 115.929H117.69H117.685C117.888 115.929 118.054 116.095 118.054 116.293L118.077 122.95ZM123.789 122.95H120.006V116.293C120.006 115.688 119.765 115.112 119.33 114.686C118.9 114.26 118.319 114.029 117.713 114.038H107.411C106.163 114.038 105.156 115.05 105.156 116.294V122.951H101.374C101.17 122.951 101.005 122.79 101.005 122.586V111.518L112.465 107.244C112.551 107.216 112.636 107.216 112.721 107.244L124.196 111.655V122.549H124.191C124.205 122.657 124.167 122.771 124.087 122.847C124.011 122.927 123.898 122.965 123.789 122.95Z" fill="#018E47"/>
<path d="M116.882 128.108H108.282C107.761 128.108 107.336 128.534 107.336 129.054C107.336 129.574 107.761 130 108.282 130H116.92C117.44 130 117.865 129.574 117.865 129.054C117.865 128.534 117.44 128.108 116.92 128.108H116.882Z" fill="#018E47"/>
<path d="M91.8898 43.2076C92.0695 43.3825 92.3106 43.4865 92.5612 43.4818C92.8118 43.4865 93.0529 43.3872 93.2278 43.2076L94.4902 41.9452C95.346 41.0847 95.346 39.6899 94.4902 38.8294L93.2278 37.567V37.5718C93.0529 37.3921 92.8118 37.2881 92.5612 37.2881C92.3059 37.2881 92.0648 37.3921 91.8898 37.5718C91.521 37.9406 91.521 38.5363 91.8898 38.9051L92.4335 39.4346H86.6985C85.4504 39.4346 84.4385 40.4464 84.4385 41.6946V75.8122H74.3538C73.8337 75.8122 73.4082 76.233 73.4082 76.7578C73.4082 77.2779 73.8337 77.7034 74.3538 77.7034H84.4385V111.806C84.4527 113.045 85.4597 114.038 86.6985 114.038H92.3956L91.8519 114.582C91.4831 114.951 91.4831 115.546 91.8519 115.915C92.0316 116.09 92.2727 116.189 92.5233 116.194C92.7739 116.189 93.0103 116.09 93.1899 115.915L94.4524 114.653V114.658C95.3081 113.797 95.3081 112.402 94.4524 111.542L93.1899 110.279C92.807 110.005 92.2822 110.052 91.956 110.393C91.6298 110.733 91.6014 111.258 91.8898 111.632L92.4335 112.175L86.6985 112.171C86.4952 112.171 86.3297 112.01 86.3297 111.806V77.7034H92.3956L91.8897 78.2329C91.521 78.6017 91.521 79.1975 91.8897 79.5663C92.0694 79.7459 92.3105 79.8452 92.5611 79.8452C92.8117 79.85 93.0528 79.7459 93.2278 79.5663L94.4902 78.3039V78.3086C95.3459 77.4434 95.3459 76.0439 94.4902 75.1787L93.2278 73.9163V73.9211C92.8543 73.5523 92.2538 73.5523 91.885 73.9258C91.5162 74.2993 91.5209 74.8997 91.8897 75.2686L92.4334 75.8123H86.3296V41.6947C86.3296 41.4914 86.4951 41.3259 86.6984 41.3259H92.3955L91.8518 41.8696C91.4972 42.2478 91.5116 42.8482 91.8898 43.2076Z" fill="#018E47"/>
<path d="M72.2725 81.2593H70.1685V64.399C75.3314 61.7278 78.6552 56.4796 78.8585 50.6639C79.0571 44.8532 76.1069 39.383 71.1378 36.3623C66.1639 33.3411 59.9514 33.2371 54.8827 36.0928C49.819 38.9438 46.6844 44.3147 46.6891 50.1305C46.708 52.0406 47.0721 53.9318 47.7624 55.7143H32.2032C30.9881 55.7143 30 56.7024 30 57.9222V91.7977C30 93.0175 30.9881 94.0057 32.2032 94.0057H48.2163V104.09C48.2163 105.31 49.2044 106.298 50.4242 106.298H72.2724C73.4922 106.298 74.4803 105.31 74.4803 104.09V83.4005C74.4378 82.209 73.4639 81.264 72.2725 81.2593ZM62.7787 35.8709C68.5232 35.8661 73.7049 39.3176 75.9086 44.6224C78.1166 49.9224 76.9157 56.031 72.8591 60.1016C68.8072 64.1724 62.7035 65.4064 57.3944 63.2221C52.0802 61.0377 48.6051 55.8701 48.5815 50.1308C48.5721 46.3532 50.0614 42.7315 52.728 40.0556C55.3898 37.3843 59.0057 35.8756 62.7787 35.8709ZM32.2026 92.115C32.0324 92.115 31.8905 91.9732 31.8905 91.7983V57.9227C31.8905 57.7478 32.0324 57.606 32.2026 57.606H48.5945C50.4526 61.0952 53.5257 63.7902 57.2324 65.1707V69.9885C57.2372 70.3668 57.0386 70.7214 56.7124 70.9199C56.3861 71.1091 55.9843 71.1091 55.6533 70.9199L51.417 68.8775C50.5755 68.4472 49.5779 68.4472 48.7315 68.8775L44.5473 70.9814C44.2211 71.1705 43.8145 71.1705 43.4882 70.9814C43.162 70.7876 42.9634 70.433 42.9729 70.05V57.6196H41.0817V70.0113C41.0864 71.042 41.6254 71.997 42.5048 72.5313C43.3842 73.0797 44.4858 73.1222 45.403 72.6447L49.5873 70.5408H49.592C49.8993 70.3753 50.2681 70.3753 50.5754 70.5408L54.7502 72.6447H54.7454C55.1662 72.8575 55.6248 72.971 56.0977 72.9757C56.6461 72.971 57.1898 72.8197 57.6579 72.5313C58.5326 71.9923 59.0669 71.0372 59.0716 70.0113V65.7609C60.2867 66.0635 61.5301 66.2148 62.7783 66.2148C64.6554 66.21 66.5134 65.8743 68.277 65.2219V81.2591H50.4242C49.2044 81.2591 48.2163 82.2473 48.2163 83.4624V92.176L32.2026 92.115ZM57.1662 83.0894H65.5252V90.6541V90.6494C65.5252 90.7723 65.4543 90.8811 65.3503 90.9425C65.2463 91.0087 65.1139 91.0087 65.0099 90.9425L62.3481 89.6045C61.7192 89.2783 60.9628 89.2783 60.3339 89.6045L57.6721 90.9425C57.5681 91.004 57.4357 91.004 57.3317 90.9425C57.2276 90.8811 57.1662 90.7723 57.1662 90.6494L57.1662 83.0894ZM72.5886 104.053C72.5886 104.138 72.5555 104.218 72.4941 104.275C72.4373 104.336 72.357 104.37 72.2719 104.37H50.4237C50.2487 104.37 50.1069 104.228 50.1069 104.053V83.4017C50.1069 83.2267 50.2487 83.0849 50.4237 83.0849H55.3266V90.6496C55.2935 91.4345 55.6765 92.1767 56.3337 92.607C56.6882 92.8151 57.0949 92.9285 57.5062 92.9332C57.8608 92.938 58.2059 92.8529 58.518 92.6921L61.1892 91.3446C61.2885 91.2879 61.4067 91.2879 61.506 91.3446L64.1537 92.607C64.844 92.9522 65.6713 92.9191 66.3333 92.5125C66.9952 92.1106 67.4018 91.3919 67.4065 90.6118V83.0471H72.2621H72.2574C72.3425 83.0471 72.4229 83.0802 72.4796 83.1417C72.5411 83.1984 72.5742 83.2788 72.5742 83.3639L72.5886 104.053Z" fill="#018E47"/>
<path d="M58.5285 96.0576H53.9046C53.3798 96.0576 52.959 96.4831 52.959 97.0032C52.959 97.528 53.3798 97.9488 53.9046 97.9488H58.5332H58.5285C59.0533 97.9488 59.4741 97.528 59.4741 97.0032C59.4741 96.4831 59.0533 96.0576 58.5285 96.0576Z" fill="#018E47"/>
<path d="M58.5285 99.6279H53.9046C53.3798 99.6279 52.959 100.053 52.959 100.574C52.959 101.094 53.3798 101.519 53.9046 101.519H58.5332H58.5285C59.0533 101.519 59.4741 101.094 59.4741 100.574C59.4741 100.053 59.0533 99.6279 58.5285 99.6279Z" fill="#018E47"/>
<path d="M62.7788 61.5633C67.4028 61.5633 71.5728 58.7785 73.3459 54.5045C75.1141 50.2305 74.1354 45.3133 70.8637 42.0414C67.5967 38.7744 62.6749 37.7957 58.4006 39.5639C54.1313 41.3322 51.3418 45.5022 51.3418 50.131C51.3513 56.4428 56.4671 61.5586 62.7788 61.5633ZM61.8332 40.6229V41.5685C61.8332 42.0886 62.2588 42.5141 62.7788 42.5141C63.2989 42.5141 63.7244 42.0886 63.7244 41.5685V40.6229C68.2444 41.0862 71.8187 44.6605 72.2726 49.1852H71.327C70.8069 49.1852 70.3814 49.606 70.3814 50.1308C70.3814 50.6509 70.8069 51.0764 71.327 51.0764H72.2726C71.8093 55.5916 68.2397 59.1612 63.7244 59.6246V58.679C63.7244 58.1542 63.2989 57.7334 62.7788 57.7334C62.2588 57.7334 61.8332 58.1542 61.8332 58.679V59.6246C57.3133 59.1659 53.7437 55.5916 53.2851 51.0764H54.2165C54.7413 51.0764 55.1621 50.6509 55.1621 50.1308C55.1621 49.606 54.7413 49.1852 54.2165 49.1852H53.2851C53.7342 44.6605 57.3086 41.0815 61.8332 40.6229Z" fill="#018E47"/>
<path d="M64.2783 52.764C64.458 52.9248 64.685 53.0146 64.9213 53.0146C65.1908 53.0146 65.4414 52.9011 65.6164 52.7026C65.9851 52.3338 65.9851 51.7333 65.6164 51.3645L63.7252 49.738V47.2181C63.7252 46.6933 63.2997 46.2725 62.7796 46.2725C62.2595 46.2725 61.834 46.6933 61.834 47.2181V49.738C61.834 50.2817 62.0609 50.7971 62.4628 51.1612L64.2783 52.764Z" fill="#018E47"/>
</svg>
