<svg width="160" height="160" viewBox="0 0 160 160" fill="none" xmlns="http://www.w3.org/2000/svg">
<circle cx="80" cy="80" r="78.5" stroke="#018E47" stroke-width="3"/>
<path d="M80.2415 33.0015C79.4342 33.0015 78.7802 33.6588 78.7802 34.4702V41.4209H62.9985C53.5444 41.4209 46 49.6862 46 59.7656C46 69.8451 53.5438 78.1104 62.9985 78.1104H66.944C71.0647 81.7859 76.3915 84.1247 82.2581 84.4589V95.1324H66.1257C61.8953 95.1324 58.443 98.5986 58.443 102.851C58.443 107.102 61.8953 110.576 66.1257 110.576H82.2581V116.947H74.8166C70.9406 116.947 67.777 120.126 67.777 124.022V125.535V125.531C67.777 126.343 68.4309 127 69.2382 127H98.2009C98.5882 127 98.9608 126.846 99.2348 126.57C99.5088 126.295 99.6622 125.92 99.6622 125.531V124.018C99.6622 120.123 96.4986 116.943 92.6226 116.943H85.1811V110.572H93.7404V110.576C94.1277 110.576 94.5003 110.418 94.7743 110.143C95.0483 109.867 95.2018 109.497 95.2018 109.107C95.2018 108.714 95.0483 108.344 94.7743 108.068C94.5003 107.789 94.1277 107.635 93.7404 107.635H85.1811V98.0696H97.4558C103.823 98.0696 108.996 92.8666 108.996 86.4627C108.996 81.8986 106.377 77.9404 102.552 76.0458C106.56 71.5515 108.996 65.6073 108.996 59.0857V49.5975L109 49.6011C109 49.2083 108.847 48.8374 108.573 48.562C108.299 48.2829 107.926 48.1287 107.539 48.1287H59.9007C59.5134 48.1287 59.1445 48.2829 58.8704 48.562C58.5928 48.8374 58.4394 49.2082 58.4394 49.6011V59.0893C58.4394 65.1956 60.5728 70.7949 64.1346 75.1715H62.9948C55.2354 75.1715 48.9189 68.386 48.9189 59.7642C48.9189 51.1425 55.2352 44.3532 62.9948 44.3532H94.0982L94.1019 44.3495C94.9056 44.3495 95.5595 43.696 95.5631 42.8882V41.2836C95.5631 36.7048 91.7894 33 87.1937 33L80.2415 33.0015ZM81.7028 35.939H87.1935C90.2512 35.939 92.6404 38.3109 92.6404 41.2851V41.421H81.7031L81.7028 35.939ZM61.3656 51.0708H106.077V59.09C106.077 65.578 103.389 71.3944 99.0632 75.4814H99.0596C98.9901 75.5328 98.9244 75.5952 98.8659 75.6613C94.8913 79.3294 89.5795 81.5619 83.7201 81.5619C77.8787 81.5619 72.5817 79.3441 68.6108 75.6943V75.698C68.5341 75.6062 68.4464 75.5254 68.3514 75.4557C64.0443 71.3689 61.3665 65.5642 61.3665 59.0906L61.3656 51.0708ZM81.4578 55.6716H81.4541C80.6504 55.6752 79.9965 56.3325 79.9965 57.1403V60.9553H76.2008V60.959C75.8136 60.9553 75.441 61.1132 75.1669 61.3886C74.893 61.664 74.7395 62.0348 74.7395 62.4277V67.9097V67.906C74.7395 68.7175 75.3971 69.3711 76.2008 69.3711H79.9965V73.1861C79.9965 73.9976 80.6467 74.6548 81.4541 74.6548H86.9083C87.2955 74.6548 87.6645 74.5006 87.9421 74.2252C88.2161 73.9498 88.3696 73.5753 88.3696 73.1861V69.3711H92.1652C92.9689 69.3711 93.6229 68.7175 93.6265 67.906V62.424V62.4277C93.6265 61.6162 92.9726 60.959 92.1652 60.959H88.3696V57.1403C88.3696 56.3288 87.712 55.6716 86.9083 55.6716L81.4578 55.6716ZM82.919 58.609H85.4507V62.424L85.447 62.4277C85.447 63.2355 86.1009 63.8964 86.9083 63.8964H90.704V66.4409H86.9083V66.4373C86.1009 66.4373 85.447 67.0945 85.447 67.906V71.7174H82.9154V67.906C82.9154 67.0945 82.2615 66.4373 81.4541 66.4373H77.6621V63.8927H81.4541V63.8964C82.2615 63.8964 82.9154 63.2355 82.9154 62.4277L82.919 58.609ZM100.308 78.2791C103.677 79.4504 106.081 82.6448 106.081 86.4635C106.081 91.2883 102.263 95.1327 97.4627 95.1327H85.188V84.4592C90.9637 84.1287 96.217 81.8596 100.312 78.2832L100.308 78.2791ZM66.1291 98.0704H82.2616V107.636H66.1291C63.4659 107.636 61.3691 105.528 61.3691 102.851C61.3691 100.175 63.4696 98.0704 66.1291 98.0704ZM74.8164 119.885H92.6257C94.9309 119.885 96.7428 121.702 96.7428 124.023V124.067H70.7027V124.023C70.7027 121.702 72.511 119.885 74.8198 119.885H74.8164Z" fill="#018E47"/>
</svg>
