<svg width="160" height="160" viewBox="0 0 160 160" fill="none" xmlns="http://www.w3.org/2000/svg">
<circle cx="80" cy="80" r="78.5" stroke="#018E47" stroke-width="3"/>
<path d="M121.965 56.9561H102.009V47.7456C102.009 46.8971 101.322 46.2105 100.474 46.2105H78.9825C78.134 46.2105 77.4474 46.8971 77.4474 47.7456V56.9561H69.4804C69.6666 55.9472 69.7719 54.9221 69.7719 53.886C69.7719 50.5704 68.7977 47.4843 67.1402 44.8726L70.8573 41.1555C71.4569 40.5559 71.4569 39.5845 70.8573 38.9848C70.2576 38.3852 69.2862 38.3852 68.6866 38.9848L65.2488 42.4226C62.1628 39.0969 57.77 37 52.886 37C43.575 37 36 44.575 36 53.886C36 63.1969 43.575 70.7719 52.886 70.7719C53.9221 70.7719 54.9472 70.6666 55.9561 70.4804V77.2961C55.9561 78.1445 56.6427 78.8311 57.4912 78.8311H59.0263V101.474C59.0263 102.322 59.7129 103.009 60.5614 103.009H77.5774C77.0068 107.562 78.2866 112.103 81.2131 115.703C84.4947 119.755 89.3188 121.964 94.2944 121.964C96.013 121.964 97.7486 121.683 99.4471 121.14L104.054 126.831C105.26 128.326 107.032 129.102 108.824 129.102C110.182 129.102 111.551 128.656 112.69 127.737L112.694 127.732C113.97 126.695 114.768 125.227 114.937 123.602C115.108 121.971 114.63 120.371 113.592 119.097L108.983 113.414C110.777 110.25 111.513 106.589 111.07 103.009H118.895C119.743 103.009 120.43 102.322 120.43 101.474V78.8311H121.965C122.813 78.8311 123.5 78.1445 123.5 77.2961V58.4912C123.5 57.6427 122.813 56.9561 121.965 56.9561ZM80.5175 49.2807H98.9386V56.9561H80.5175V49.2807ZM57.0295 67.0661C55.6938 67.4889 54.2996 67.7018 52.886 67.7018C45.2675 67.7018 39.0702 61.5044 39.0702 53.886C39.0702 46.2675 45.2675 40.0702 52.886 40.0702C56.9237 40.0702 60.5508 41.8217 63.0792 44.5922L52.886 54.7854L47.831 49.7304C47.2313 49.1308 46.2599 49.1308 45.6603 49.7304C45.0606 50.3301 45.0606 51.3015 45.6603 51.9011L51.8006 58.0415C52.1004 58.3413 52.4932 58.4912 52.886 58.4912C53.2787 58.4912 53.6715 58.3413 53.9713 58.0415L64.9091 47.1037C66.045 49.1095 66.7018 51.4208 66.7018 53.886C66.7018 55.2996 66.4889 56.6938 66.0661 58.0295C64.7094 62.3334 61.3319 65.7124 57.0295 67.0661ZM99.4048 117.914C93.7562 120.142 87.4074 118.474 83.5982 113.769C80.8713 110.414 79.8909 106.064 80.9058 101.829C81.6119 98.8592 83.2489 96.2673 85.643 94.3319C85.9884 94.0525 86.3451 93.7967 86.7081 93.556C86.8162 93.4843 86.9284 93.4208 87.0381 93.3524C87.3031 93.1872 87.5704 93.0278 87.8428 92.8826C87.9617 92.8191 88.0823 92.7605 88.2026 92.7006C88.4829 92.5618 88.7658 92.4313 89.0523 92.3129C89.1594 92.2684 89.2668 92.2247 89.3748 92.183C89.6965 92.0596 90.0215 91.9489 90.3491 91.8505C90.4255 91.8275 90.5013 91.8019 90.5782 91.7803C90.9765 91.6683 91.3782 91.5723 91.7825 91.4969C91.7933 91.4949 91.8039 91.492 91.8146 91.49C92.6771 91.3314 93.55 91.2571 94.4207 91.2631C94.641 91.2648 94.8629 91.2854 95.084 91.2975C97.5208 91.4306 99.9167 92.188 101.994 93.571C101.997 93.5728 102 93.5743 102.003 93.5761C102.335 93.7975 102.655 94.0407 102.97 94.2932C103.015 94.3291 103.063 94.3598 103.107 94.3962C103.387 94.6264 103.653 94.878 103.916 95.1329C103.986 95.2008 104.062 95.261 104.131 95.3305C104.456 95.6577 104.767 96.0036 105.062 96.3692C106.047 97.5992 106.801 98.9396 107.315 100.373C107.328 100.411 107.336 100.451 107.349 100.49C107.503 100.931 107.639 101.378 107.747 101.836C108.651 105.545 107.956 109.507 105.84 112.708C105.052 113.897 104.132 114.909 103.019 115.804C101.919 116.702 100.705 117.411 99.4048 117.914ZM111.21 121.034C111.73 121.671 111.969 122.47 111.883 123.281C111.799 124.094 111.399 124.828 110.759 125.35C109.435 126.411 107.502 126.215 106.442 124.902L102.397 119.905C102.459 119.871 102.517 119.83 102.579 119.795C102.861 119.637 103.135 119.468 103.408 119.293C103.54 119.209 103.674 119.129 103.803 119.041C104.196 118.773 104.581 118.492 104.952 118.19C105.553 117.707 106.106 117.17 106.632 116.609C106.731 116.503 106.832 116.401 106.929 116.293C107.004 116.208 107.089 116.13 107.163 116.044L111.21 121.034ZM117.36 99.9386H110.408C110.372 99.8229 110.322 99.7121 110.283 99.5974C110.214 99.3942 110.138 99.1941 110.061 98.9939C109.928 98.6484 109.784 98.3079 109.628 97.9718C109.538 97.7776 109.448 97.5837 109.351 97.3926C109.171 97.0406 108.973 96.6963 108.767 96.3553C108.672 96.1969 108.584 96.0354 108.482 95.8795C108.165 95.3896 107.826 94.9091 107.454 94.4444C101.604 87.2112 90.9513 86.0913 83.7121 91.9453C83.1213 92.4232 82.5749 92.9485 82.0568 93.4988C81.9893 93.5705 81.9186 93.6382 81.8524 93.711C81.3698 94.2418 80.9276 94.8051 80.517 95.391C80.4431 95.4963 80.3701 95.6005 80.2987 95.7074C79.9053 96.2966 79.548 96.9076 79.2316 97.5406C79.1783 97.6471 79.1304 97.7551 79.0794 97.8627C78.7678 98.5207 78.4899 99.1942 78.2667 99.8878C78.2611 99.9052 78.2519 99.9212 78.2464 99.9386H62.0965V78.8311H66.7018V83.8202C66.7018 84.6687 67.3883 85.3553 68.2368 85.3553H75.9123C76.7608 85.3553 77.4474 84.6687 77.4474 83.8202V78.8311H102.009V83.8202C102.009 84.6687 102.695 85.3553 103.544 85.3553H111.219C112.068 85.3553 112.754 84.6687 112.754 83.8202V78.8311H117.36V99.9386ZM69.7719 82.2851V77.2961V73.0746H74.3772V77.2961V82.2851H69.7719ZM105.079 82.2851V77.2961V73.0746H109.684V77.2961V82.2851H105.079ZM120.43 75.761H118.895H112.754V71.5395C112.754 70.691 112.068 70.0044 111.219 70.0044H103.544C102.695 70.0044 102.009 70.691 102.009 71.5395V75.761H77.4474V71.5395C77.4474 70.691 76.7608 70.0044 75.9123 70.0044H68.2368C67.3883 70.0044 66.7018 70.691 66.7018 71.5395V75.761H60.5614H59.0263V69.6161C59.187 69.5533 59.3372 69.4715 59.4953 69.4041C59.733 69.3027 59.9672 69.1976 60.199 69.0859C60.5549 68.9144 60.9008 68.7285 61.2421 68.5334C61.4527 68.413 61.6643 68.2962 61.869 68.1672C62.2329 67.9381 62.5813 67.689 62.9256 67.4336C63.0875 67.3135 63.2558 67.2026 63.4132 67.0768C64.3972 66.291 65.2896 65.3986 66.0757 64.4146C66.2011 64.2577 66.3115 64.0899 66.4314 63.9285C66.6873 63.5835 66.9369 63.2346 67.1666 62.87C67.2953 62.6658 67.4119 62.4545 67.532 62.2443C67.7274 61.9023 67.9139 61.5557 68.0858 61.199C68.1972 60.9678 68.3021 60.7341 68.4032 60.4971C68.471 60.3383 68.5531 60.1876 68.6161 60.0263H78.9825H100.474H120.43V75.761Z" fill="#018E47"/>
</svg>
