<svg width="160" height="160" viewBox="0 0 160 160" fill="none" xmlns="http://www.w3.org/2000/svg">
<circle cx="80" cy="80" r="78.5" stroke="#018E47" stroke-width="3"/>
<path d="M79.67 50.37C63.52 50.37 50.37 63.51 50.37 79.67C50.37 95.83 63.52 108.97 79.67 108.97C95.82 108.97 108.97 95.82 108.97 79.67C108.97 63.52 95.82 50.37 79.67 50.37ZM80.83 67.28C84.44 67.2 87.96 66.77 91.22 66.03C92.35 69.8 92.99 74.06 93.09 78.5H80.83V67.28ZM80.83 64.96V52.8C83.84 53.34 86.69 55.96 88.95 60.32C89.52 61.41 90.03 62.58 90.48 63.82C87.46 64.49 84.19 64.88 80.83 64.96ZM78.51 52.8V64.96C75.15 64.89 71.88 64.5 68.86 63.83C69.32 62.6 69.83 61.43 70.39 60.33C72.65 55.96 75.5 53.34 78.51 52.8ZM78.51 67.28V78.51H66.25C66.35 74.06 66.99 69.81 68.12 66.04C71.38 66.78 74.9 67.21 78.51 67.28ZM63.92 78.51H52.72C52.98 72.51 55.2 67.01 58.77 62.64C60.86 63.78 63.26 64.72 65.86 65.46C64.69 69.43 64.02 73.88 63.92 78.51ZM63.92 80.83C64.02 85.46 64.69 89.91 65.86 93.88C63.26 94.62 60.86 95.57 58.77 96.7C55.2 92.33 52.98 86.83 52.72 80.83H63.92ZM66.25 80.83H78.51V92.06C74.9 92.14 71.38 92.57 68.12 93.31C66.99 89.53 66.34 85.28 66.25 80.83ZM78.51 94.38V106.54C75.5 106 72.65 103.38 70.39 99.02C69.82 97.93 69.31 96.76 68.86 95.52C71.88 94.85 75.15 94.46 78.51 94.38ZM80.83 106.54V94.38C84.19 94.45 87.46 94.84 90.48 95.51C90.02 96.74 89.51 97.91 88.95 99.01C86.69 103.38 83.84 106 80.83 106.54ZM80.83 92.06V80.83H93.09C92.99 85.28 92.35 89.53 91.22 93.3C87.96 92.56 84.44 92.13 80.83 92.06ZM95.42 80.83H106.62C106.36 86.83 104.14 92.33 100.57 96.7C98.48 95.56 96.08 94.62 93.48 93.88C94.65 89.91 95.32 85.46 95.42 80.83ZM95.42 78.51C95.32 73.88 94.65 69.43 93.48 65.46C96.08 64.72 98.48 63.77 100.58 62.64C104.15 67.01 106.37 72.51 106.63 78.51H95.42ZM98.98 60.85C97.13 61.81 95.03 62.61 92.76 63.25C92.25 61.84 91.67 60.5 91.03 59.25C89.86 57 88.53 55.14 87.07 53.72C91.65 55.03 95.73 57.53 98.98 60.85ZM72.28 53.73C70.83 55.15 69.49 57.01 68.32 59.26C67.67 60.51 67.1 61.85 66.59 63.26C64.32 62.62 62.22 61.82 60.37 60.86C63.61 57.53 67.7 55.03 72.28 53.73ZM60.37 98.49C62.22 97.53 64.32 96.73 66.59 96.09C67.1 97.5 67.68 98.84 68.32 100.09C69.49 102.34 70.82 104.2 72.28 105.62C67.7 104.31 63.61 101.81 60.37 98.49ZM87.06 105.61C88.51 104.19 89.85 102.33 91.02 100.08C91.67 98.83 92.24 97.49 92.75 96.08C95.02 96.72 97.12 97.52 98.97 98.48C95.73 101.81 91.65 104.31 87.06 105.61ZM125.18 42.72C125.82 42.72 126.34 42.2 126.34 41.56V34.16C126.34 33.52 125.82 33 125.18 33H117.78C117.14 33 116.62 33.52 116.62 34.16C116.62 34.8 117.14 35.32 117.78 35.32H122.38L108.27 49.43C101.98 43.48 93.92 39.61 85.38 38.44C85 35.63 82.58 33.45 79.67 33.45C76.76 33.45 74.34 35.63 73.96 38.44C65.42 39.62 57.36 43.49 51.07 49.43L36.97 35.32H41.57C42.21 35.32 42.73 34.8 42.73 34.16C42.73 33.52 42.21 33 41.57 33H34.17C33.53 33 33.01 33.52 33.01 34.16V41.56C33.01 42.2 33.53 42.72 34.17 42.72C34.81 42.72 35.33 42.2 35.33 41.56V36.97L49.43 51.07C43.48 57.36 39.61 65.42 38.44 73.96C35.63 74.34 33.45 76.76 33.45 79.67C33.45 82.58 35.63 85 38.44 85.38C39.62 93.92 43.49 101.98 49.43 108.27L35.32 122.37V117.77C35.32 117.13 34.8 116.61 34.16 116.61C33.52 116.61 33 117.13 33 117.77V125.17C33 125.81 33.52 126.33 34.16 126.33H41.56C42.2 126.33 42.72 125.81 42.72 125.17C42.72 124.53 42.2 124.01 41.56 124.01H36.97L51.07 109.91C57.36 115.86 65.42 119.73 73.96 120.9C74.34 123.71 76.75 125.89 79.67 125.89C82.59 125.89 85 123.71 85.38 120.9C93.92 119.72 101.98 115.85 108.27 109.91L122.37 124.02H117.77C117.13 124.02 116.61 124.54 116.61 125.18C116.61 125.82 117.13 126.34 117.77 126.34H125.17C125.81 126.34 126.33 125.82 126.33 125.18V117.78C126.33 117.14 125.81 116.62 125.17 116.62C124.53 116.62 124.01 117.14 124.01 117.78V122.38L109.91 108.27C115.86 101.98 119.73 93.92 120.9 85.38C123.71 85 125.89 82.59 125.89 79.67C125.89 76.75 123.71 74.34 120.9 73.96C119.72 65.42 115.85 57.36 109.91 51.07L124.02 36.97V41.57C124.02 42.2 124.54 42.72 125.18 42.72ZM79.67 35.77C81.56 35.77 83.11 37.31 83.11 39.21C83.11 41.11 81.57 42.65 79.67 42.65C77.78 42.65 76.23 41.11 76.23 39.21C76.23 37.31 77.78 35.77 79.67 35.77ZM35.77 79.67C35.77 77.78 37.31 76.23 39.21 76.23C41.11 76.23 42.65 77.77 42.65 79.67C42.65 81.57 41.11 83.11 39.21 83.11C37.31 83.11 35.77 81.56 35.77 79.67ZM79.67 123.57C77.78 123.57 76.23 122.03 76.23 120.13C76.23 118.24 77.77 116.69 79.67 116.69C81.56 116.69 83.11 118.23 83.11 120.13C83.11 122.03 81.56 123.57 79.67 123.57ZM85.22 118.58C84.54 116.16 82.31 114.37 79.67 114.37C77.03 114.37 74.8 116.15 74.12 118.58C56.98 116.15 43.19 102.36 40.76 85.22C43.18 84.54 44.97 82.31 44.97 79.67C44.97 77.03 43.19 74.8 40.76 74.12C43.19 56.98 56.98 43.19 74.12 40.76C74.8 43.18 77.03 44.97 79.67 44.97C82.31 44.97 84.54 43.19 85.22 40.76C102.36 43.19 116.15 56.98 118.58 74.12C116.16 74.8 114.37 77.03 114.37 79.67C114.37 82.31 116.15 84.54 118.58 85.22C116.15 102.36 102.36 116.15 85.22 118.58ZM123.57 79.67C123.57 81.56 122.03 83.11 120.13 83.11C118.24 83.11 116.69 81.57 116.69 79.67C116.69 77.77 118.23 76.23 120.13 76.23C122.03 76.23 123.57 77.78 123.57 79.67Z" fill="#018E47"/>
</svg>
